G04 (created by PCBNEW (2013-07-07 BZR 4022)-stable) date 2015-03-08 11:58:22 PM*
%MOIN*%
G04 Gerber Fmt 3.4, Leading zero omitted, Abs format*
%FSLAX34Y34*%
G01*
G70*
G90*
G04 APERTURE LIST*
%ADD10C,0.00590551*%
%ADD11R,0.0511811X0.0511811*%
%ADD12C,0.0472441*%
%ADD13R,0.0551181X0.0551181*%
%ADD14C,0.0629921*%
%ADD15C,0.18*%
%ADD16C,0.01*%
G04 APERTURE END LIST*
G54D10*
G54D11*
X74015Y-41948D03*
G54D12*
X74606Y-41948D03*
X75196Y-41948D03*
X75787Y-41948D03*
X76377Y-41948D03*
X76968Y-41948D03*
X77559Y-41948D03*
X78149Y-41948D03*
X78740Y-41948D03*
X79330Y-41948D03*
X79921Y-41948D03*
X80511Y-41948D03*
X81102Y-41948D03*
X81692Y-41948D03*
X82283Y-41948D03*
X82874Y-41948D03*
X83464Y-41948D03*
G54D13*
X74240Y-45775D03*
G54D14*
X75240Y-45775D03*
X76240Y-45775D03*
X77240Y-45775D03*
X78240Y-45775D03*
X79240Y-45775D03*
X80240Y-45775D03*
X81240Y-45775D03*
X82240Y-45775D03*
X83240Y-45775D03*
X83240Y-44775D03*
X82240Y-44775D03*
X81240Y-44775D03*
X80240Y-44775D03*
X79240Y-44775D03*
X78240Y-44775D03*
X77240Y-44775D03*
X76240Y-44775D03*
X75240Y-44775D03*
X74240Y-44775D03*
G54D15*
X70866Y-47244D03*
X86614Y-47244D03*
G54D16*
X83464Y-41948D02*
X83464Y-42837D01*
X77716Y-45251D02*
X77716Y-46062D01*
X77716Y-45251D02*
X77240Y-44775D01*
X78952Y-47299D02*
X77716Y-46062D01*
X83878Y-47299D02*
X78952Y-47299D01*
X84779Y-46398D02*
X83878Y-47299D01*
X84779Y-44152D02*
X84779Y-46398D01*
X83464Y-42837D02*
X84779Y-44152D01*
X82874Y-41948D02*
X82874Y-42940D01*
X78740Y-45275D02*
X78740Y-46062D01*
X78740Y-45275D02*
X78240Y-44775D01*
X79776Y-47099D02*
X78740Y-46062D01*
X83795Y-47099D02*
X79776Y-47099D01*
X84579Y-46315D02*
X83795Y-47099D01*
X84579Y-44235D02*
X84579Y-46315D01*
X83795Y-43451D02*
X84579Y-44235D01*
X83385Y-43451D02*
X83795Y-43451D01*
X82874Y-42940D02*
X83385Y-43451D01*
X82283Y-43070D02*
X82864Y-43651D01*
X82864Y-43651D02*
X82913Y-43651D01*
X82283Y-41948D02*
X82283Y-43070D01*
X79763Y-45299D02*
X79763Y-46062D01*
X79763Y-45299D02*
X79240Y-44775D01*
X80600Y-46899D02*
X79763Y-46062D01*
X83713Y-46899D02*
X80600Y-46899D01*
X84379Y-46232D02*
X83713Y-46899D01*
X84379Y-44318D02*
X84379Y-46232D01*
X83713Y-43651D02*
X84379Y-44318D01*
X82913Y-43651D02*
X83713Y-43651D01*
X81692Y-41948D02*
X81692Y-43267D01*
X81692Y-43267D02*
X82277Y-43851D01*
X80708Y-45244D02*
X80708Y-46062D01*
X80708Y-45244D02*
X80240Y-44775D01*
X81344Y-46699D02*
X80708Y-46062D01*
X83630Y-46699D02*
X81344Y-46699D01*
X84179Y-46149D02*
X83630Y-46699D01*
X84179Y-44401D02*
X84179Y-46149D01*
X83630Y-43851D02*
X84179Y-44401D01*
X82277Y-43851D02*
X83630Y-43851D01*
X81102Y-41948D02*
X81102Y-43464D01*
X81102Y-43464D02*
X81689Y-44051D01*
X81732Y-45267D02*
X81732Y-46062D01*
X81732Y-45267D02*
X81240Y-44775D01*
X82168Y-46499D02*
X81732Y-46062D01*
X83547Y-46499D02*
X82168Y-46499D01*
X83979Y-46067D02*
X83547Y-46499D01*
X83979Y-44484D02*
X83979Y-46067D01*
X83547Y-44051D02*
X83979Y-44484D01*
X81689Y-44051D02*
X83547Y-44051D01*
X82755Y-46062D02*
X82992Y-46299D01*
X82755Y-45291D02*
X82755Y-46062D01*
X82240Y-44775D02*
X82755Y-45291D01*
X80511Y-43897D02*
X80511Y-41948D01*
X80866Y-44251D02*
X80511Y-43897D01*
X83464Y-44251D02*
X80866Y-44251D01*
X83779Y-44566D02*
X83464Y-44251D01*
X83779Y-45984D02*
X83779Y-44566D01*
X83464Y-46299D02*
X83779Y-45984D01*
X82992Y-46299D02*
X83464Y-46299D01*
M02*
