G04 (created by PCBNEW (2013-07-07 BZR 4022)-stable) date 2015-03-08 11:58:22 PM*
%MOIN*%
G04 Gerber Fmt 3.4, Leading zero omitted, Abs format*
%FSLAX34Y34*%
G01*
G70*
G90*
G04 APERTURE LIST*
%ADD10C,0.00590551*%
%ADD11C,0.00393701*%
G04 APERTURE END LIST*
G54D10*
G54D11*
X70551Y-42224D02*
X86929Y-42224D01*
X86929Y-42224D02*
X86929Y-32578D01*
X86929Y-32578D02*
X70551Y-32578D01*
X70551Y-32578D02*
X70551Y-42224D01*
X83779Y-46314D02*
X83779Y-44236D01*
X83779Y-44236D02*
X73700Y-44236D01*
X73700Y-44236D02*
X73700Y-46314D01*
X73700Y-46314D02*
X83779Y-46314D01*
G54D10*
X71866Y-47244D02*
G75*
G03X71866Y-47244I-1000J0D01*
G74*
G01*
X87614Y-47244D02*
G75*
G03X87614Y-47244I-1000J0D01*
G74*
G01*
X71197Y-37644D02*
X71197Y-37044D01*
X71540Y-37644D01*
X71540Y-37044D01*
X71825Y-37644D02*
X71825Y-37044D01*
X71825Y-37330D02*
X72168Y-37330D01*
X72168Y-37644D02*
X72168Y-37044D01*
X72454Y-37644D02*
X72454Y-37044D01*
X72597Y-37044D01*
X72683Y-37073D01*
X72740Y-37130D01*
X72768Y-37187D01*
X72797Y-37301D01*
X72797Y-37387D01*
X72768Y-37501D01*
X72740Y-37558D01*
X72683Y-37615D01*
X72597Y-37644D01*
X72454Y-37644D01*
X73054Y-37415D02*
X73511Y-37415D01*
X74140Y-37587D02*
X74111Y-37615D01*
X74025Y-37644D01*
X73968Y-37644D01*
X73883Y-37615D01*
X73825Y-37558D01*
X73797Y-37501D01*
X73768Y-37387D01*
X73768Y-37301D01*
X73797Y-37187D01*
X73825Y-37130D01*
X73883Y-37073D01*
X73968Y-37044D01*
X74025Y-37044D01*
X74111Y-37073D01*
X74140Y-37101D01*
X74711Y-37644D02*
X74368Y-37644D01*
X74540Y-37644D02*
X74540Y-37044D01*
X74483Y-37130D01*
X74425Y-37187D01*
X74368Y-37215D01*
X74940Y-37101D02*
X74968Y-37073D01*
X75025Y-37044D01*
X75168Y-37044D01*
X75225Y-37073D01*
X75254Y-37101D01*
X75283Y-37158D01*
X75283Y-37215D01*
X75254Y-37301D01*
X74911Y-37644D01*
X75283Y-37644D01*
X75625Y-37301D02*
X75568Y-37273D01*
X75540Y-37244D01*
X75511Y-37187D01*
X75511Y-37158D01*
X75540Y-37101D01*
X75568Y-37073D01*
X75625Y-37044D01*
X75740Y-37044D01*
X75797Y-37073D01*
X75825Y-37101D01*
X75854Y-37158D01*
X75854Y-37187D01*
X75825Y-37244D01*
X75797Y-37273D01*
X75740Y-37301D01*
X75625Y-37301D01*
X75568Y-37330D01*
X75540Y-37358D01*
X75511Y-37415D01*
X75511Y-37530D01*
X75540Y-37587D01*
X75568Y-37615D01*
X75625Y-37644D01*
X75740Y-37644D01*
X75797Y-37615D01*
X75825Y-37587D01*
X75854Y-37530D01*
X75854Y-37415D01*
X75825Y-37358D01*
X75797Y-37330D01*
X75740Y-37301D01*
X76054Y-37044D02*
X76425Y-37044D01*
X76225Y-37273D01*
X76311Y-37273D01*
X76368Y-37301D01*
X76397Y-37330D01*
X76425Y-37387D01*
X76425Y-37530D01*
X76397Y-37587D01*
X76368Y-37615D01*
X76311Y-37644D01*
X76140Y-37644D01*
X76083Y-37615D01*
X76054Y-37587D01*
X76654Y-37101D02*
X76683Y-37073D01*
X76740Y-37044D01*
X76883Y-37044D01*
X76940Y-37073D01*
X76968Y-37101D01*
X76997Y-37158D01*
X76997Y-37215D01*
X76968Y-37301D01*
X76625Y-37644D01*
X76997Y-37644D01*
X77225Y-37473D02*
X77511Y-37473D01*
X77168Y-37644D02*
X77368Y-37044D01*
X77568Y-37644D01*
X78083Y-37644D02*
X77740Y-37644D01*
X77911Y-37644D02*
X77911Y-37044D01*
X77854Y-37130D01*
X77797Y-37187D01*
X77740Y-37215D01*
X78283Y-37044D02*
X78683Y-37044D01*
X78283Y-37644D01*
X78683Y-37644D01*
X78911Y-37415D02*
X79368Y-37415D01*
X79654Y-37644D02*
X79654Y-37044D01*
X79997Y-37644D01*
X79997Y-37044D01*
X80254Y-37615D02*
X80340Y-37644D01*
X80483Y-37644D01*
X80540Y-37615D01*
X80568Y-37587D01*
X80597Y-37530D01*
X80597Y-37473D01*
X80568Y-37415D01*
X80540Y-37387D01*
X80483Y-37358D01*
X80368Y-37330D01*
X80311Y-37301D01*
X80283Y-37273D01*
X80254Y-37215D01*
X80254Y-37158D01*
X80283Y-37101D01*
X80311Y-37073D01*
X80368Y-37044D01*
X80511Y-37044D01*
X80597Y-37073D01*
X80797Y-37044D02*
X80940Y-37644D01*
X81054Y-37215D01*
X81168Y-37644D01*
X81311Y-37044D01*
X81540Y-37415D02*
X81997Y-37415D01*
X82483Y-37330D02*
X82568Y-37358D01*
X82597Y-37387D01*
X82625Y-37444D01*
X82625Y-37530D01*
X82597Y-37587D01*
X82568Y-37615D01*
X82511Y-37644D01*
X82283Y-37644D01*
X82283Y-37044D01*
X82483Y-37044D01*
X82540Y-37073D01*
X82568Y-37101D01*
X82597Y-37158D01*
X82597Y-37215D01*
X82568Y-37273D01*
X82540Y-37301D01*
X82483Y-37330D01*
X82283Y-37330D01*
X83083Y-37330D02*
X83168Y-37358D01*
X83197Y-37387D01*
X83225Y-37444D01*
X83225Y-37530D01*
X83197Y-37587D01*
X83168Y-37615D01*
X83111Y-37644D01*
X82883Y-37644D01*
X82883Y-37044D01*
X83083Y-37044D01*
X83140Y-37073D01*
X83168Y-37101D01*
X83197Y-37158D01*
X83197Y-37215D01*
X83168Y-37273D01*
X83140Y-37301D01*
X83083Y-37330D01*
X82883Y-37330D01*
X83425Y-37044D02*
X83568Y-37644D01*
X83683Y-37215D01*
X83797Y-37644D01*
X83940Y-37044D01*
X84168Y-37415D02*
X84625Y-37415D01*
X84854Y-37044D02*
X85225Y-37044D01*
X85025Y-37273D01*
X85111Y-37273D01*
X85168Y-37301D01*
X85197Y-37330D01*
X85225Y-37387D01*
X85225Y-37530D01*
X85197Y-37587D01*
X85168Y-37615D01*
X85111Y-37644D01*
X84940Y-37644D01*
X84883Y-37615D01*
X84854Y-37587D01*
X85397Y-37044D02*
X85597Y-37644D01*
X85797Y-37044D01*
X85940Y-37044D02*
X86311Y-37044D01*
X86111Y-37273D01*
X86197Y-37273D01*
X86254Y-37301D01*
X86283Y-37330D01*
X86311Y-37387D01*
X86311Y-37530D01*
X86283Y-37587D01*
X86254Y-37615D01*
X86197Y-37644D01*
X86025Y-37644D01*
X85968Y-37615D01*
X85940Y-37587D01*
M02*
