G04 (created by PCBNEW (2013-07-07 BZR 4022)-stable) date 2015-03-02 11:41:07 PM*
%MOIN*%
G04 Gerber Fmt 3.4, Leading zero omitted, Abs format*
%FSLAX34Y34*%
G01*
G70*
G90*
G04 APERTURE LIST*
%ADD10C,0.00590551*%
%ADD11C,0.00492126*%
%ADD12C,0.00393701*%
%ADD13C,0.011811*%
%ADD14C,0.00787402*%
%ADD15C,0.0039*%
%ADD16C,0.012*%
%ADD17C,0.01*%
%ADD18C,0.006*%
%ADD19C,0.0026*%
%ADD20C,0.004*%
%ADD21C,0.0047*%
%ADD22C,0.00885827*%
%ADD23C,0.005*%
%ADD24C,0.0043*%
%ADD25C,0.0051*%
G04 APERTURE END LIST*
G54D10*
G54D11*
X69135Y-57934D02*
X69135Y-58173D01*
X69149Y-58201D01*
X69163Y-58215D01*
X69191Y-58229D01*
X69247Y-58229D01*
X69275Y-58215D01*
X69289Y-58201D01*
X69303Y-58173D01*
X69303Y-57934D01*
X69430Y-58145D02*
X69571Y-58145D01*
X69402Y-58229D02*
X69500Y-57934D01*
X69599Y-58229D01*
X69866Y-58229D02*
X69767Y-58089D01*
X69697Y-58229D02*
X69697Y-57934D01*
X69810Y-57934D01*
X69838Y-57948D01*
X69852Y-57962D01*
X69866Y-57990D01*
X69866Y-58032D01*
X69852Y-58061D01*
X69838Y-58075D01*
X69810Y-58089D01*
X69697Y-58089D01*
X69950Y-57934D02*
X70119Y-57934D01*
X70035Y-58229D02*
X70035Y-57934D01*
G54D12*
X58425Y-60551D02*
X58188Y-60314D01*
X58425Y-60629D02*
X58425Y-60551D01*
G54D11*
X71120Y-56930D02*
X71120Y-56733D01*
X71195Y-56733D01*
X71213Y-56742D01*
X71223Y-56751D01*
X71232Y-56770D01*
X71232Y-56798D01*
X71223Y-56817D01*
X71213Y-56826D01*
X71195Y-56836D01*
X71120Y-56836D01*
X71354Y-56733D02*
X71392Y-56733D01*
X71410Y-56742D01*
X71429Y-56761D01*
X71438Y-56798D01*
X71438Y-56864D01*
X71429Y-56901D01*
X71410Y-56920D01*
X71392Y-56930D01*
X71354Y-56930D01*
X71335Y-56920D01*
X71317Y-56901D01*
X71307Y-56864D01*
X71307Y-56798D01*
X71317Y-56761D01*
X71335Y-56742D01*
X71354Y-56733D01*
X71504Y-56733D02*
X71551Y-56930D01*
X71588Y-56789D01*
X71626Y-56930D01*
X71673Y-56733D01*
X71748Y-56826D02*
X71813Y-56826D01*
X71841Y-56930D02*
X71748Y-56930D01*
X71748Y-56733D01*
X71841Y-56733D01*
X72038Y-56930D02*
X71973Y-56836D01*
X71926Y-56930D02*
X71926Y-56733D01*
X72001Y-56733D01*
X72020Y-56742D01*
X72029Y-56751D01*
X72038Y-56770D01*
X72038Y-56798D01*
X72029Y-56817D01*
X72020Y-56826D01*
X72001Y-56836D01*
X71926Y-56836D01*
X71261Y-55887D02*
X71252Y-55897D01*
X71224Y-55906D01*
X71205Y-55906D01*
X71177Y-55897D01*
X71158Y-55878D01*
X71149Y-55859D01*
X71139Y-55822D01*
X71139Y-55793D01*
X71149Y-55756D01*
X71158Y-55737D01*
X71177Y-55718D01*
X71205Y-55709D01*
X71224Y-55709D01*
X71252Y-55718D01*
X71261Y-55728D01*
X71458Y-55887D02*
X71449Y-55897D01*
X71421Y-55906D01*
X71402Y-55906D01*
X71374Y-55897D01*
X71355Y-55878D01*
X71346Y-55859D01*
X71336Y-55822D01*
X71336Y-55793D01*
X71346Y-55756D01*
X71355Y-55737D01*
X71374Y-55718D01*
X71402Y-55709D01*
X71421Y-55709D01*
X71449Y-55718D01*
X71458Y-55728D01*
X71524Y-55709D02*
X71646Y-55709D01*
X71580Y-55784D01*
X71608Y-55784D01*
X71627Y-55793D01*
X71636Y-55803D01*
X71646Y-55822D01*
X71646Y-55868D01*
X71636Y-55887D01*
X71627Y-55897D01*
X71608Y-55906D01*
X71552Y-55906D01*
X71533Y-55897D01*
X71524Y-55887D01*
X71721Y-55728D02*
X71730Y-55718D01*
X71749Y-55709D01*
X71796Y-55709D01*
X71814Y-55718D01*
X71824Y-55728D01*
X71833Y-55747D01*
X71833Y-55765D01*
X71824Y-55793D01*
X71711Y-55906D01*
X71833Y-55906D01*
X71955Y-55709D02*
X71974Y-55709D01*
X71992Y-55718D01*
X72002Y-55728D01*
X72011Y-55747D01*
X72020Y-55784D01*
X72020Y-55831D01*
X72011Y-55868D01*
X72002Y-55887D01*
X71992Y-55897D01*
X71974Y-55906D01*
X71955Y-55906D01*
X71936Y-55897D01*
X71927Y-55887D01*
X71917Y-55868D01*
X71908Y-55831D01*
X71908Y-55784D01*
X71917Y-55747D01*
X71927Y-55728D01*
X71936Y-55718D01*
X71955Y-55709D01*
X72142Y-55709D02*
X72161Y-55709D01*
X72180Y-55718D01*
X72189Y-55728D01*
X72199Y-55747D01*
X72208Y-55784D01*
X72208Y-55831D01*
X72199Y-55868D01*
X72189Y-55887D01*
X72180Y-55897D01*
X72161Y-55906D01*
X72142Y-55906D01*
X72124Y-55897D01*
X72114Y-55887D01*
X72105Y-55868D01*
X72095Y-55831D01*
X72095Y-55784D01*
X72105Y-55747D01*
X72114Y-55728D01*
X72124Y-55718D01*
X72142Y-55709D01*
X72555Y-55887D02*
X72545Y-55897D01*
X72517Y-55906D01*
X72499Y-55906D01*
X72470Y-55897D01*
X72452Y-55878D01*
X72442Y-55859D01*
X72433Y-55822D01*
X72433Y-55793D01*
X72442Y-55756D01*
X72452Y-55737D01*
X72470Y-55718D01*
X72499Y-55709D01*
X72517Y-55709D01*
X72545Y-55718D01*
X72555Y-55728D01*
X72667Y-55906D02*
X72649Y-55897D01*
X72639Y-55887D01*
X72630Y-55868D01*
X72630Y-55812D01*
X72639Y-55793D01*
X72649Y-55784D01*
X72667Y-55775D01*
X72695Y-55775D01*
X72714Y-55784D01*
X72724Y-55793D01*
X72733Y-55812D01*
X72733Y-55868D01*
X72724Y-55887D01*
X72714Y-55897D01*
X72695Y-55906D01*
X72667Y-55906D01*
X72817Y-55775D02*
X72817Y-55906D01*
X72817Y-55793D02*
X72827Y-55784D01*
X72845Y-55775D01*
X72874Y-55775D01*
X72892Y-55784D01*
X72902Y-55803D01*
X72902Y-55906D01*
X72967Y-55775D02*
X73042Y-55775D01*
X72995Y-55709D02*
X72995Y-55878D01*
X73005Y-55897D01*
X73023Y-55906D01*
X73042Y-55906D01*
X73108Y-55906D02*
X73108Y-55775D01*
X73108Y-55812D02*
X73117Y-55793D01*
X73127Y-55784D01*
X73145Y-55775D01*
X73164Y-55775D01*
X73258Y-55906D02*
X73239Y-55897D01*
X73230Y-55887D01*
X73220Y-55868D01*
X73220Y-55812D01*
X73230Y-55793D01*
X73239Y-55784D01*
X73258Y-55775D01*
X73286Y-55775D01*
X73305Y-55784D01*
X73314Y-55793D01*
X73323Y-55812D01*
X73323Y-55868D01*
X73314Y-55887D01*
X73305Y-55897D01*
X73286Y-55906D01*
X73258Y-55906D01*
X73436Y-55906D02*
X73417Y-55897D01*
X73408Y-55878D01*
X73408Y-55709D01*
X71279Y-54961D02*
X71185Y-54961D01*
X71185Y-54764D01*
X71345Y-54858D02*
X71410Y-54858D01*
X71438Y-54961D02*
X71345Y-54961D01*
X71345Y-54764D01*
X71438Y-54764D01*
X71523Y-54961D02*
X71523Y-54764D01*
X71570Y-54764D01*
X71598Y-54774D01*
X71616Y-54792D01*
X71626Y-54811D01*
X71635Y-54849D01*
X71635Y-54877D01*
X71626Y-54914D01*
X71616Y-54933D01*
X71598Y-54952D01*
X71570Y-54961D01*
X71523Y-54961D01*
X71973Y-54961D02*
X71860Y-54961D01*
X71916Y-54961D02*
X71916Y-54764D01*
X71898Y-54792D01*
X71879Y-54811D01*
X71860Y-54820D01*
X71279Y-53937D02*
X71185Y-53937D01*
X71185Y-53741D01*
X71345Y-53834D02*
X71410Y-53834D01*
X71438Y-53937D02*
X71345Y-53937D01*
X71345Y-53741D01*
X71438Y-53741D01*
X71523Y-53937D02*
X71523Y-53741D01*
X71570Y-53741D01*
X71598Y-53750D01*
X71616Y-53769D01*
X71626Y-53787D01*
X71635Y-53825D01*
X71635Y-53853D01*
X71626Y-53891D01*
X71616Y-53909D01*
X71598Y-53928D01*
X71570Y-53937D01*
X71523Y-53937D01*
X71860Y-53759D02*
X71870Y-53750D01*
X71888Y-53741D01*
X71935Y-53741D01*
X71954Y-53750D01*
X71963Y-53759D01*
X71973Y-53778D01*
X71973Y-53797D01*
X71963Y-53825D01*
X71851Y-53937D01*
X71973Y-53937D01*
X78353Y-55955D02*
X78335Y-55945D01*
X78307Y-55945D01*
X78278Y-55955D01*
X78260Y-55973D01*
X78250Y-55992D01*
X78241Y-56030D01*
X78241Y-56058D01*
X78250Y-56095D01*
X78260Y-56114D01*
X78278Y-56133D01*
X78307Y-56142D01*
X78325Y-56142D01*
X78353Y-56133D01*
X78363Y-56123D01*
X78363Y-56058D01*
X78325Y-56058D01*
X78447Y-56142D02*
X78447Y-55945D01*
X78560Y-56142D01*
X78560Y-55945D01*
X78653Y-56142D02*
X78653Y-55945D01*
X78700Y-55945D01*
X78728Y-55955D01*
X78747Y-55973D01*
X78757Y-55992D01*
X78766Y-56030D01*
X78766Y-56058D01*
X78757Y-56095D01*
X78747Y-56114D01*
X78728Y-56133D01*
X78700Y-56142D01*
X78653Y-56142D01*
X77283Y-56142D02*
X77283Y-55945D01*
X77349Y-56086D01*
X77414Y-55945D01*
X77414Y-56142D01*
X77508Y-56142D02*
X77508Y-56011D01*
X77508Y-55945D02*
X77499Y-55955D01*
X77508Y-55964D01*
X77517Y-55955D01*
X77508Y-55945D01*
X77508Y-55964D01*
X77686Y-56133D02*
X77667Y-56142D01*
X77630Y-56142D01*
X77611Y-56133D01*
X77602Y-56123D01*
X77592Y-56105D01*
X77592Y-56048D01*
X77602Y-56030D01*
X77611Y-56020D01*
X77630Y-56011D01*
X77667Y-56011D01*
X77686Y-56020D01*
X77230Y-56733D02*
X77230Y-56438D01*
X77328Y-56649D01*
X77426Y-56438D01*
X77426Y-56733D01*
X77567Y-56733D02*
X77567Y-56438D01*
X77876Y-56705D02*
X77862Y-56719D01*
X77820Y-56733D01*
X77792Y-56733D01*
X77750Y-56719D01*
X77722Y-56691D01*
X77708Y-56663D01*
X77694Y-56607D01*
X77694Y-56564D01*
X77708Y-56508D01*
X77722Y-56480D01*
X77750Y-56452D01*
X77792Y-56438D01*
X77820Y-56438D01*
X77862Y-56452D01*
X77876Y-56466D01*
X78284Y-56438D02*
X78340Y-56438D01*
X78368Y-56452D01*
X78397Y-56480D01*
X78411Y-56536D01*
X78411Y-56635D01*
X78397Y-56691D01*
X78368Y-56719D01*
X78340Y-56733D01*
X78284Y-56733D01*
X78256Y-56719D01*
X78228Y-56691D01*
X78214Y-56635D01*
X78214Y-56536D01*
X78228Y-56480D01*
X78256Y-56452D01*
X78284Y-56438D01*
X78664Y-56536D02*
X78664Y-56733D01*
X78537Y-56536D02*
X78537Y-56691D01*
X78551Y-56719D01*
X78579Y-56733D01*
X78622Y-56733D01*
X78650Y-56719D01*
X78664Y-56705D01*
X78762Y-56536D02*
X78875Y-56536D01*
X78804Y-56438D02*
X78804Y-56691D01*
X78818Y-56719D01*
X78847Y-56733D01*
X78875Y-56733D01*
G54D13*
X98965Y-54513D02*
X98937Y-54541D01*
X98852Y-54569D01*
X98796Y-54569D01*
X98712Y-54541D01*
X98655Y-54485D01*
X98627Y-54429D01*
X98599Y-54316D01*
X98599Y-54232D01*
X98627Y-54119D01*
X98655Y-54063D01*
X98712Y-54007D01*
X98796Y-53979D01*
X98852Y-53979D01*
X98937Y-54007D01*
X98965Y-54035D01*
X99555Y-54513D02*
X99527Y-54541D01*
X99443Y-54569D01*
X99386Y-54569D01*
X99302Y-54541D01*
X99246Y-54485D01*
X99218Y-54429D01*
X99190Y-54316D01*
X99190Y-54232D01*
X99218Y-54119D01*
X99246Y-54063D01*
X99302Y-54007D01*
X99386Y-53979D01*
X99443Y-53979D01*
X99527Y-54007D01*
X99555Y-54035D01*
X99752Y-53979D02*
X100118Y-53979D01*
X99921Y-54204D01*
X100005Y-54204D01*
X100061Y-54232D01*
X100089Y-54260D01*
X100118Y-54316D01*
X100118Y-54457D01*
X100089Y-54513D01*
X100061Y-54541D01*
X100005Y-54569D01*
X99836Y-54569D01*
X99780Y-54541D01*
X99752Y-54513D01*
X100343Y-54035D02*
X100371Y-54007D01*
X100427Y-53979D01*
X100568Y-53979D01*
X100624Y-54007D01*
X100652Y-54035D01*
X100680Y-54091D01*
X100680Y-54147D01*
X100652Y-54232D01*
X100314Y-54569D01*
X100680Y-54569D01*
X101046Y-53979D02*
X101102Y-53979D01*
X101158Y-54007D01*
X101186Y-54035D01*
X101214Y-54091D01*
X101242Y-54204D01*
X101242Y-54344D01*
X101214Y-54457D01*
X101186Y-54513D01*
X101158Y-54541D01*
X101102Y-54569D01*
X101046Y-54569D01*
X100989Y-54541D01*
X100961Y-54513D01*
X100933Y-54457D01*
X100905Y-54344D01*
X100905Y-54204D01*
X100933Y-54091D01*
X100961Y-54035D01*
X100989Y-54007D01*
X101046Y-53979D01*
X101608Y-53979D02*
X101664Y-53979D01*
X101721Y-54007D01*
X101749Y-54035D01*
X101777Y-54091D01*
X101805Y-54204D01*
X101805Y-54344D01*
X101777Y-54457D01*
X101749Y-54513D01*
X101721Y-54541D01*
X101664Y-54569D01*
X101608Y-54569D01*
X101552Y-54541D01*
X101524Y-54513D01*
X101496Y-54457D01*
X101467Y-54344D01*
X101467Y-54204D01*
X101496Y-54091D01*
X101524Y-54035D01*
X101552Y-54007D01*
X101608Y-53979D01*
X102452Y-53979D02*
X102592Y-54569D01*
X102705Y-54147D01*
X102817Y-54569D01*
X102958Y-53979D01*
X103183Y-54569D02*
X103183Y-54176D01*
X103183Y-53979D02*
X103155Y-54007D01*
X103183Y-54035D01*
X103211Y-54007D01*
X103183Y-53979D01*
X103183Y-54035D01*
X103661Y-54260D02*
X103464Y-54260D01*
X103464Y-54569D02*
X103464Y-53979D01*
X103745Y-53979D01*
X103970Y-54569D02*
X103970Y-54176D01*
X103970Y-53979D02*
X103942Y-54007D01*
X103970Y-54035D01*
X103998Y-54007D01*
X103970Y-53979D01*
X103970Y-54035D01*
X104701Y-54569D02*
X104701Y-53979D01*
X104898Y-54401D01*
X105095Y-53979D01*
X105095Y-54569D01*
X105461Y-54569D02*
X105404Y-54541D01*
X105376Y-54513D01*
X105348Y-54457D01*
X105348Y-54288D01*
X105376Y-54232D01*
X105404Y-54204D01*
X105461Y-54176D01*
X105545Y-54176D01*
X105601Y-54204D01*
X105629Y-54232D01*
X105658Y-54288D01*
X105658Y-54457D01*
X105629Y-54513D01*
X105601Y-54541D01*
X105545Y-54569D01*
X105461Y-54569D01*
X106164Y-54569D02*
X106164Y-53979D01*
X106164Y-54541D02*
X106107Y-54569D01*
X105995Y-54569D01*
X105939Y-54541D01*
X105911Y-54513D01*
X105883Y-54457D01*
X105883Y-54288D01*
X105911Y-54232D01*
X105939Y-54204D01*
X105995Y-54176D01*
X106107Y-54176D01*
X106164Y-54204D01*
X106698Y-54176D02*
X106698Y-54569D01*
X106445Y-54176D02*
X106445Y-54485D01*
X106473Y-54541D01*
X106529Y-54569D01*
X106614Y-54569D01*
X106670Y-54541D01*
X106698Y-54513D01*
X107064Y-54569D02*
X107007Y-54541D01*
X106979Y-54485D01*
X106979Y-53979D01*
X107514Y-54541D02*
X107457Y-54569D01*
X107345Y-54569D01*
X107289Y-54541D01*
X107260Y-54485D01*
X107260Y-54260D01*
X107289Y-54204D01*
X107345Y-54176D01*
X107457Y-54176D01*
X107514Y-54204D01*
X107542Y-54260D01*
X107542Y-54316D01*
X107260Y-54372D01*
X53728Y-48428D02*
X53447Y-48428D01*
X53447Y-47837D01*
X54178Y-48428D02*
X54178Y-48118D01*
X54150Y-48062D01*
X54094Y-48034D01*
X53982Y-48034D01*
X53925Y-48062D01*
X54178Y-48399D02*
X54122Y-48428D01*
X53982Y-48428D01*
X53925Y-48399D01*
X53897Y-48343D01*
X53897Y-48287D01*
X53925Y-48231D01*
X53982Y-48203D01*
X54122Y-48203D01*
X54178Y-48174D01*
X54713Y-48034D02*
X54713Y-48428D01*
X54460Y-48034D02*
X54460Y-48343D01*
X54488Y-48399D01*
X54544Y-48428D01*
X54628Y-48428D01*
X54685Y-48399D01*
X54713Y-48371D01*
X54994Y-48034D02*
X54994Y-48428D01*
X54994Y-48090D02*
X55022Y-48062D01*
X55078Y-48034D01*
X55163Y-48034D01*
X55219Y-48062D01*
X55247Y-48118D01*
X55247Y-48428D01*
X55781Y-48399D02*
X55725Y-48428D01*
X55613Y-48428D01*
X55556Y-48399D01*
X55528Y-48371D01*
X55500Y-48315D01*
X55500Y-48146D01*
X55528Y-48090D01*
X55556Y-48062D01*
X55613Y-48034D01*
X55725Y-48034D01*
X55781Y-48062D01*
X56034Y-48428D02*
X56034Y-47837D01*
X56287Y-48428D02*
X56287Y-48118D01*
X56259Y-48062D01*
X56203Y-48034D01*
X56119Y-48034D01*
X56062Y-48062D01*
X56034Y-48090D01*
X56569Y-48034D02*
X56569Y-48624D01*
X56569Y-48062D02*
X56625Y-48034D01*
X56737Y-48034D01*
X56794Y-48062D01*
X56822Y-48090D01*
X56850Y-48146D01*
X56850Y-48315D01*
X56822Y-48371D01*
X56794Y-48399D01*
X56737Y-48428D01*
X56625Y-48428D01*
X56569Y-48399D01*
X57356Y-48428D02*
X57356Y-48118D01*
X57328Y-48062D01*
X57272Y-48034D01*
X57159Y-48034D01*
X57103Y-48062D01*
X57356Y-48399D02*
X57300Y-48428D01*
X57159Y-48428D01*
X57103Y-48399D01*
X57075Y-48343D01*
X57075Y-48287D01*
X57103Y-48231D01*
X57159Y-48203D01*
X57300Y-48203D01*
X57356Y-48174D01*
X57890Y-48428D02*
X57890Y-47837D01*
X57890Y-48399D02*
X57834Y-48428D01*
X57722Y-48428D01*
X57665Y-48399D01*
X57637Y-48371D01*
X57609Y-48315D01*
X57609Y-48146D01*
X57637Y-48090D01*
X57665Y-48062D01*
X57722Y-48034D01*
X57834Y-48034D01*
X57890Y-48062D01*
G54D11*
X52192Y-52608D02*
X52178Y-52594D01*
X52163Y-52552D01*
X52163Y-52523D01*
X52178Y-52481D01*
X52206Y-52453D01*
X52234Y-52439D01*
X52290Y-52425D01*
X52332Y-52425D01*
X52388Y-52439D01*
X52417Y-52453D01*
X52445Y-52481D01*
X52459Y-52523D01*
X52459Y-52552D01*
X52445Y-52594D01*
X52431Y-52608D01*
X52163Y-52734D02*
X52459Y-52734D01*
X52459Y-52847D01*
X52445Y-52875D01*
X52431Y-52889D01*
X52402Y-52903D01*
X52360Y-52903D01*
X52332Y-52889D01*
X52318Y-52875D01*
X52304Y-52847D01*
X52304Y-52734D01*
X52163Y-53170D02*
X52163Y-53030D01*
X52459Y-53030D01*
X52163Y-53269D02*
X52459Y-53269D01*
X52459Y-53339D01*
X52445Y-53381D01*
X52417Y-53409D01*
X52388Y-53423D01*
X52332Y-53437D01*
X52290Y-53437D01*
X52234Y-53423D01*
X52206Y-53409D01*
X52178Y-53381D01*
X52163Y-53339D01*
X52163Y-53269D01*
X52459Y-53873D02*
X52248Y-53873D01*
X52206Y-53859D01*
X52178Y-53831D01*
X52163Y-53789D01*
X52163Y-53761D01*
X52459Y-53972D02*
X52459Y-54140D01*
X52163Y-54056D02*
X52459Y-54056D01*
X52248Y-54225D02*
X52248Y-54365D01*
X52163Y-54197D02*
X52459Y-54295D01*
X52163Y-54393D01*
X52445Y-54647D02*
X52459Y-54618D01*
X52459Y-54576D01*
X52445Y-54534D01*
X52417Y-54506D01*
X52388Y-54492D01*
X52332Y-54478D01*
X52290Y-54478D01*
X52234Y-54492D01*
X52206Y-54506D01*
X52178Y-54534D01*
X52163Y-54576D01*
X52163Y-54604D01*
X52178Y-54647D01*
X52192Y-54661D01*
X52290Y-54661D01*
X52290Y-54604D01*
X96803Y-45946D02*
X96663Y-45946D01*
X96663Y-45651D01*
X97071Y-45918D02*
X97057Y-45932D01*
X97014Y-45946D01*
X96986Y-45946D01*
X96944Y-45932D01*
X96916Y-45904D01*
X96902Y-45875D01*
X96888Y-45819D01*
X96888Y-45777D01*
X96902Y-45721D01*
X96916Y-45693D01*
X96944Y-45665D01*
X96986Y-45651D01*
X97014Y-45651D01*
X97057Y-45665D01*
X97071Y-45679D01*
X97197Y-45946D02*
X97197Y-45651D01*
X97267Y-45651D01*
X97310Y-45665D01*
X97338Y-45693D01*
X97352Y-45721D01*
X97366Y-45777D01*
X97366Y-45819D01*
X97352Y-45875D01*
X97338Y-45904D01*
X97310Y-45932D01*
X97267Y-45946D01*
X97197Y-45946D01*
X96150Y-46254D02*
X96192Y-46268D01*
X96206Y-46282D01*
X96220Y-46310D01*
X96220Y-46352D01*
X96206Y-46380D01*
X96192Y-46394D01*
X96164Y-46408D01*
X96051Y-46408D01*
X96051Y-46113D01*
X96150Y-46113D01*
X96178Y-46127D01*
X96192Y-46141D01*
X96206Y-46169D01*
X96206Y-46197D01*
X96192Y-46226D01*
X96178Y-46240D01*
X96150Y-46254D01*
X96051Y-46254D01*
X96473Y-46408D02*
X96473Y-46254D01*
X96459Y-46226D01*
X96431Y-46212D01*
X96375Y-46212D01*
X96347Y-46226D01*
X96473Y-46394D02*
X96445Y-46408D01*
X96375Y-46408D01*
X96347Y-46394D01*
X96332Y-46366D01*
X96332Y-46338D01*
X96347Y-46310D01*
X96375Y-46296D01*
X96445Y-46296D01*
X96473Y-46282D01*
X96740Y-46394D02*
X96712Y-46408D01*
X96656Y-46408D01*
X96628Y-46394D01*
X96614Y-46380D01*
X96600Y-46352D01*
X96600Y-46268D01*
X96614Y-46240D01*
X96628Y-46226D01*
X96656Y-46212D01*
X96712Y-46212D01*
X96740Y-46226D01*
X96867Y-46408D02*
X96867Y-46113D01*
X96895Y-46296D02*
X96979Y-46408D01*
X96979Y-46212D02*
X96867Y-46324D01*
X97148Y-46408D02*
X97120Y-46394D01*
X97106Y-46366D01*
X97106Y-46113D01*
X97260Y-46408D02*
X97260Y-46212D01*
X97260Y-46113D02*
X97246Y-46127D01*
X97260Y-46141D01*
X97275Y-46127D01*
X97260Y-46113D01*
X97260Y-46141D01*
X97528Y-46212D02*
X97528Y-46451D01*
X97514Y-46479D01*
X97500Y-46493D01*
X97471Y-46507D01*
X97429Y-46507D01*
X97401Y-46493D01*
X97528Y-46394D02*
X97500Y-46408D01*
X97443Y-46408D01*
X97415Y-46394D01*
X97401Y-46380D01*
X97387Y-46352D01*
X97387Y-46268D01*
X97401Y-46240D01*
X97415Y-46226D01*
X97443Y-46212D01*
X97500Y-46212D01*
X97528Y-46226D01*
X97668Y-46408D02*
X97668Y-46113D01*
X97795Y-46408D02*
X97795Y-46254D01*
X97781Y-46226D01*
X97753Y-46212D01*
X97710Y-46212D01*
X97682Y-46226D01*
X97668Y-46240D01*
X97893Y-46212D02*
X98006Y-46212D01*
X97935Y-46113D02*
X97935Y-46366D01*
X97949Y-46394D01*
X97978Y-46408D01*
X98006Y-46408D01*
X68353Y-44774D02*
X68335Y-44764D01*
X68307Y-44764D01*
X68278Y-44774D01*
X68260Y-44792D01*
X68250Y-44811D01*
X68241Y-44849D01*
X68241Y-44877D01*
X68250Y-44914D01*
X68260Y-44933D01*
X68278Y-44952D01*
X68307Y-44961D01*
X68325Y-44961D01*
X68353Y-44952D01*
X68363Y-44942D01*
X68363Y-44877D01*
X68325Y-44877D01*
X68447Y-44961D02*
X68447Y-44764D01*
X68560Y-44961D01*
X68560Y-44764D01*
X68653Y-44961D02*
X68653Y-44764D01*
X68700Y-44764D01*
X68728Y-44774D01*
X68747Y-44792D01*
X68757Y-44811D01*
X68766Y-44849D01*
X68766Y-44877D01*
X68757Y-44914D01*
X68747Y-44933D01*
X68728Y-44952D01*
X68700Y-44961D01*
X68653Y-44961D01*
X67016Y-44961D02*
X67016Y-44764D01*
X67091Y-44764D01*
X67110Y-44774D01*
X67119Y-44783D01*
X67128Y-44802D01*
X67128Y-44830D01*
X67119Y-44849D01*
X67110Y-44858D01*
X67091Y-44867D01*
X67016Y-44867D01*
X67194Y-44764D02*
X67241Y-44961D01*
X67278Y-44820D01*
X67316Y-44961D01*
X67363Y-44764D01*
X67550Y-44961D02*
X67485Y-44867D01*
X67438Y-44961D02*
X67438Y-44764D01*
X67513Y-44764D01*
X67531Y-44774D01*
X67541Y-44783D01*
X67550Y-44802D01*
X67550Y-44830D01*
X67541Y-44849D01*
X67531Y-44858D01*
X67513Y-44867D01*
X67438Y-44867D01*
X67634Y-44961D02*
X67634Y-44764D01*
X67681Y-44764D01*
X67709Y-44774D01*
X67728Y-44792D01*
X67738Y-44811D01*
X67747Y-44849D01*
X67747Y-44877D01*
X67738Y-44914D01*
X67728Y-44933D01*
X67709Y-44952D01*
X67681Y-44961D01*
X67634Y-44961D01*
X67831Y-44961D02*
X67831Y-44764D01*
X67944Y-44961D01*
X67944Y-44764D01*
X66212Y-44764D02*
X66334Y-44764D01*
X66269Y-44839D01*
X66297Y-44839D01*
X66316Y-44849D01*
X66325Y-44858D01*
X66334Y-44877D01*
X66334Y-44924D01*
X66325Y-44942D01*
X66316Y-44952D01*
X66297Y-44961D01*
X66241Y-44961D01*
X66222Y-44952D01*
X66212Y-44942D01*
X66391Y-44764D02*
X66456Y-44961D01*
X66522Y-44764D01*
X66569Y-44764D02*
X66691Y-44764D01*
X66625Y-44839D01*
X66653Y-44839D01*
X66672Y-44849D01*
X66681Y-44858D01*
X66691Y-44877D01*
X66691Y-44924D01*
X66681Y-44942D01*
X66672Y-44952D01*
X66653Y-44961D01*
X66597Y-44961D01*
X66578Y-44952D01*
X66569Y-44942D01*
X66207Y-45552D02*
X66207Y-45257D01*
X66348Y-45552D02*
X66348Y-45355D01*
X66348Y-45411D02*
X66362Y-45383D01*
X66376Y-45369D01*
X66404Y-45355D01*
X66432Y-45355D01*
X66531Y-45552D02*
X66531Y-45257D01*
X66601Y-45257D01*
X66643Y-45271D01*
X66671Y-45299D01*
X66685Y-45327D01*
X66699Y-45383D01*
X66699Y-45426D01*
X66685Y-45482D01*
X66671Y-45510D01*
X66643Y-45538D01*
X66601Y-45552D01*
X66531Y-45552D01*
X66812Y-45468D02*
X66953Y-45468D01*
X66784Y-45552D02*
X66882Y-45257D01*
X66981Y-45552D01*
X67388Y-45257D02*
X67388Y-45468D01*
X67374Y-45510D01*
X67346Y-45538D01*
X67304Y-45552D01*
X67276Y-45552D01*
X67656Y-45355D02*
X67656Y-45552D01*
X67529Y-45355D02*
X67529Y-45510D01*
X67543Y-45538D01*
X67571Y-45552D01*
X67613Y-45552D01*
X67642Y-45538D01*
X67656Y-45524D01*
X67796Y-45552D02*
X67796Y-45355D01*
X67796Y-45383D02*
X67810Y-45369D01*
X67838Y-45355D01*
X67881Y-45355D01*
X67909Y-45369D01*
X67923Y-45397D01*
X67923Y-45552D01*
X67923Y-45397D02*
X67937Y-45369D01*
X67965Y-45355D01*
X68007Y-45355D01*
X68035Y-45369D01*
X68049Y-45397D01*
X68049Y-45552D01*
X68190Y-45355D02*
X68190Y-45651D01*
X68190Y-45369D02*
X68218Y-45355D01*
X68274Y-45355D01*
X68302Y-45369D01*
X68316Y-45383D01*
X68330Y-45411D01*
X68330Y-45496D01*
X68316Y-45524D01*
X68302Y-45538D01*
X68274Y-45552D01*
X68218Y-45552D01*
X68190Y-45538D01*
X68570Y-45538D02*
X68541Y-45552D01*
X68485Y-45552D01*
X68457Y-45538D01*
X68443Y-45510D01*
X68443Y-45397D01*
X68457Y-45369D01*
X68485Y-45355D01*
X68541Y-45355D01*
X68570Y-45369D01*
X68584Y-45397D01*
X68584Y-45426D01*
X68443Y-45454D01*
X68710Y-45552D02*
X68710Y-45355D01*
X68710Y-45411D02*
X68724Y-45383D01*
X68738Y-45369D01*
X68766Y-45355D01*
X68794Y-45355D01*
X66439Y-46127D02*
X66425Y-46113D01*
X66397Y-46071D01*
X66383Y-46043D01*
X66369Y-46001D01*
X66355Y-45930D01*
X66355Y-45874D01*
X66369Y-45804D01*
X66383Y-45762D01*
X66397Y-45733D01*
X66425Y-45691D01*
X66439Y-45677D01*
X66538Y-46001D02*
X66566Y-46015D01*
X66622Y-46015D01*
X66650Y-46001D01*
X66664Y-45973D01*
X66664Y-45958D01*
X66650Y-45930D01*
X66622Y-45916D01*
X66580Y-45916D01*
X66552Y-45902D01*
X66538Y-45874D01*
X66538Y-45860D01*
X66552Y-45832D01*
X66580Y-45818D01*
X66622Y-45818D01*
X66650Y-45832D01*
X66903Y-46001D02*
X66875Y-46015D01*
X66819Y-46015D01*
X66791Y-46001D01*
X66777Y-45973D01*
X66777Y-45860D01*
X66791Y-45832D01*
X66819Y-45818D01*
X66875Y-45818D01*
X66903Y-45832D01*
X66917Y-45860D01*
X66917Y-45888D01*
X66777Y-45916D01*
X67156Y-46001D02*
X67128Y-46015D01*
X67072Y-46015D01*
X67044Y-46001D01*
X67030Y-45973D01*
X67030Y-45860D01*
X67044Y-45832D01*
X67072Y-45818D01*
X67128Y-45818D01*
X67156Y-45832D01*
X67170Y-45860D01*
X67170Y-45888D01*
X67030Y-45916D01*
X67522Y-46015D02*
X67522Y-45719D01*
X67522Y-45832D02*
X67550Y-45818D01*
X67606Y-45818D01*
X67634Y-45832D01*
X67649Y-45846D01*
X67663Y-45874D01*
X67663Y-45958D01*
X67649Y-45987D01*
X67634Y-46001D01*
X67606Y-46015D01*
X67550Y-46015D01*
X67522Y-46001D01*
X67916Y-46015D02*
X67916Y-45860D01*
X67902Y-45832D01*
X67874Y-45818D01*
X67817Y-45818D01*
X67789Y-45832D01*
X67916Y-46001D02*
X67888Y-46015D01*
X67817Y-46015D01*
X67789Y-46001D01*
X67775Y-45973D01*
X67775Y-45944D01*
X67789Y-45916D01*
X67817Y-45902D01*
X67888Y-45902D01*
X67916Y-45888D01*
X68183Y-46001D02*
X68155Y-46015D01*
X68098Y-46015D01*
X68070Y-46001D01*
X68056Y-45987D01*
X68042Y-45958D01*
X68042Y-45874D01*
X68056Y-45846D01*
X68070Y-45832D01*
X68098Y-45818D01*
X68155Y-45818D01*
X68183Y-45832D01*
X68309Y-46015D02*
X68309Y-45719D01*
X68338Y-45902D02*
X68422Y-46015D01*
X68422Y-45818D02*
X68309Y-45930D01*
X68520Y-46127D02*
X68534Y-46113D01*
X68562Y-46071D01*
X68577Y-46043D01*
X68591Y-46001D01*
X68605Y-45930D01*
X68605Y-45874D01*
X68591Y-45804D01*
X68577Y-45762D01*
X68562Y-45733D01*
X68534Y-45691D01*
X68520Y-45677D01*
X69612Y-44961D02*
X69612Y-44764D01*
X69687Y-44764D01*
X69706Y-44774D01*
X69715Y-44783D01*
X69725Y-44802D01*
X69725Y-44830D01*
X69715Y-44849D01*
X69706Y-44858D01*
X69687Y-44867D01*
X69612Y-44867D01*
X69875Y-44858D02*
X69809Y-44858D01*
X69809Y-44961D02*
X69809Y-44764D01*
X69903Y-44764D01*
X70062Y-44830D02*
X70062Y-44961D01*
X70015Y-44755D02*
X69969Y-44895D01*
X70090Y-44895D01*
X70474Y-45119D02*
X70474Y-44922D01*
X70549Y-44922D01*
X70568Y-44931D01*
X70577Y-44940D01*
X70586Y-44959D01*
X70586Y-44987D01*
X70577Y-45006D01*
X70568Y-45015D01*
X70549Y-45025D01*
X70474Y-45025D01*
X70671Y-45015D02*
X70736Y-45015D01*
X70764Y-45119D02*
X70671Y-45119D01*
X70671Y-44922D01*
X70764Y-44922D01*
X70933Y-44987D02*
X70933Y-45119D01*
X70886Y-44912D02*
X70839Y-45053D01*
X70961Y-45053D01*
X71419Y-44961D02*
X71419Y-44764D01*
X71494Y-44764D01*
X71512Y-44774D01*
X71522Y-44783D01*
X71531Y-44802D01*
X71531Y-44830D01*
X71522Y-44849D01*
X71512Y-44858D01*
X71494Y-44867D01*
X71419Y-44867D01*
X71616Y-44858D02*
X71681Y-44858D01*
X71709Y-44961D02*
X71616Y-44961D01*
X71616Y-44764D01*
X71709Y-44764D01*
X71831Y-44764D02*
X71850Y-44764D01*
X71869Y-44774D01*
X71878Y-44783D01*
X71887Y-44802D01*
X71897Y-44839D01*
X71897Y-44886D01*
X71887Y-44924D01*
X71878Y-44942D01*
X71869Y-44952D01*
X71850Y-44961D01*
X71831Y-44961D01*
X71812Y-44952D01*
X71803Y-44942D01*
X71794Y-44924D01*
X71784Y-44886D01*
X71784Y-44839D01*
X71794Y-44802D01*
X71803Y-44783D01*
X71812Y-44774D01*
X71831Y-44764D01*
X72433Y-44961D02*
X72433Y-44764D01*
X72508Y-44764D01*
X72527Y-44774D01*
X72536Y-44783D01*
X72545Y-44802D01*
X72545Y-44830D01*
X72536Y-44849D01*
X72527Y-44858D01*
X72508Y-44867D01*
X72433Y-44867D01*
X72742Y-44942D02*
X72733Y-44952D01*
X72705Y-44961D01*
X72686Y-44961D01*
X72658Y-44952D01*
X72639Y-44933D01*
X72630Y-44914D01*
X72620Y-44877D01*
X72620Y-44849D01*
X72630Y-44811D01*
X72639Y-44792D01*
X72658Y-44774D01*
X72686Y-44764D01*
X72705Y-44764D01*
X72733Y-44774D01*
X72742Y-44783D01*
X72911Y-44830D02*
X72911Y-44961D01*
X72864Y-44755D02*
X72817Y-44895D01*
X72939Y-44895D01*
X73392Y-44961D02*
X73392Y-44764D01*
X73467Y-44764D01*
X73486Y-44774D01*
X73495Y-44783D01*
X73504Y-44802D01*
X73504Y-44830D01*
X73495Y-44849D01*
X73486Y-44858D01*
X73467Y-44867D01*
X73392Y-44867D01*
X73579Y-44905D02*
X73673Y-44905D01*
X73561Y-44961D02*
X73626Y-44764D01*
X73692Y-44961D01*
X73851Y-44764D02*
X73757Y-44764D01*
X73748Y-44858D01*
X73757Y-44849D01*
X73776Y-44839D01*
X73823Y-44839D01*
X73842Y-44849D01*
X73851Y-44858D01*
X73861Y-44877D01*
X73861Y-44924D01*
X73851Y-44942D01*
X73842Y-44952D01*
X73823Y-44961D01*
X73776Y-44961D01*
X73757Y-44952D01*
X73748Y-44942D01*
X71358Y-45271D02*
X71330Y-45257D01*
X71287Y-45257D01*
X71245Y-45271D01*
X71217Y-45299D01*
X71203Y-45327D01*
X71189Y-45383D01*
X71189Y-45426D01*
X71203Y-45482D01*
X71217Y-45510D01*
X71245Y-45538D01*
X71287Y-45552D01*
X71316Y-45552D01*
X71358Y-45538D01*
X71372Y-45524D01*
X71372Y-45426D01*
X71316Y-45426D01*
X71498Y-45552D02*
X71498Y-45257D01*
X71611Y-45257D01*
X71639Y-45271D01*
X71653Y-45285D01*
X71667Y-45313D01*
X71667Y-45355D01*
X71653Y-45383D01*
X71639Y-45397D01*
X71611Y-45411D01*
X71498Y-45411D01*
X71794Y-45552D02*
X71794Y-45257D01*
X71991Y-45257D02*
X72047Y-45257D01*
X72075Y-45271D01*
X72103Y-45299D01*
X72117Y-45355D01*
X72117Y-45454D01*
X72103Y-45510D01*
X72075Y-45538D01*
X72047Y-45552D01*
X71991Y-45552D01*
X71962Y-45538D01*
X71934Y-45510D01*
X71920Y-45454D01*
X71920Y-45355D01*
X71934Y-45299D01*
X71962Y-45271D01*
X71991Y-45257D01*
X90769Y-44882D02*
X90703Y-44789D01*
X90657Y-44882D02*
X90657Y-44685D01*
X90732Y-44685D01*
X90750Y-44695D01*
X90760Y-44704D01*
X90769Y-44723D01*
X90769Y-44751D01*
X90760Y-44770D01*
X90750Y-44779D01*
X90732Y-44789D01*
X90657Y-44789D01*
X89745Y-44882D02*
X89652Y-44882D01*
X89652Y-44685D01*
X89301Y-45232D02*
X89441Y-45232D01*
X89273Y-45316D02*
X89371Y-45021D01*
X89469Y-45316D01*
X89568Y-45021D02*
X89568Y-45260D01*
X89582Y-45288D01*
X89596Y-45302D01*
X89624Y-45316D01*
X89680Y-45316D01*
X89708Y-45302D01*
X89723Y-45288D01*
X89737Y-45260D01*
X89737Y-45021D01*
X89877Y-45316D02*
X89877Y-45021D01*
X89947Y-45021D01*
X89990Y-45035D01*
X90018Y-45063D01*
X90032Y-45091D01*
X90046Y-45147D01*
X90046Y-45189D01*
X90032Y-45246D01*
X90018Y-45274D01*
X89990Y-45302D01*
X89947Y-45316D01*
X89877Y-45316D01*
X90172Y-45316D02*
X90172Y-45021D01*
X90369Y-45021D02*
X90426Y-45021D01*
X90454Y-45035D01*
X90482Y-45063D01*
X90496Y-45119D01*
X90496Y-45217D01*
X90482Y-45274D01*
X90454Y-45302D01*
X90426Y-45316D01*
X90369Y-45316D01*
X90341Y-45302D01*
X90313Y-45274D01*
X90299Y-45217D01*
X90299Y-45119D01*
X90313Y-45063D01*
X90341Y-45035D01*
X90369Y-45021D01*
X90847Y-45316D02*
X90847Y-45021D01*
X90988Y-45316D02*
X90988Y-45021D01*
X91157Y-45316D01*
X91157Y-45021D01*
X95210Y-44779D02*
X95239Y-44789D01*
X95248Y-44798D01*
X95257Y-44817D01*
X95257Y-44845D01*
X95248Y-44864D01*
X95239Y-44873D01*
X95220Y-44882D01*
X95145Y-44882D01*
X95145Y-44685D01*
X95210Y-44685D01*
X95229Y-44695D01*
X95239Y-44704D01*
X95248Y-44723D01*
X95248Y-44742D01*
X95239Y-44760D01*
X95229Y-44770D01*
X95210Y-44779D01*
X95145Y-44779D01*
X94205Y-44826D02*
X94298Y-44826D01*
X94186Y-44882D02*
X94251Y-44685D01*
X94317Y-44882D01*
X81582Y-44774D02*
X81563Y-44764D01*
X81535Y-44764D01*
X81507Y-44774D01*
X81488Y-44792D01*
X81479Y-44811D01*
X81469Y-44849D01*
X81469Y-44877D01*
X81479Y-44914D01*
X81488Y-44933D01*
X81507Y-44952D01*
X81535Y-44961D01*
X81554Y-44961D01*
X81582Y-44952D01*
X81591Y-44942D01*
X81591Y-44877D01*
X81554Y-44877D01*
X81676Y-44961D02*
X81676Y-44764D01*
X81788Y-44961D01*
X81788Y-44764D01*
X81882Y-44961D02*
X81882Y-44764D01*
X81929Y-44764D01*
X81957Y-44774D01*
X81976Y-44792D01*
X81985Y-44811D01*
X81994Y-44849D01*
X81994Y-44877D01*
X81985Y-44914D01*
X81976Y-44933D01*
X81957Y-44952D01*
X81929Y-44961D01*
X81882Y-44961D01*
X80464Y-44764D02*
X80586Y-44764D01*
X80521Y-44839D01*
X80549Y-44839D01*
X80568Y-44849D01*
X80577Y-44858D01*
X80586Y-44877D01*
X80586Y-44924D01*
X80577Y-44942D01*
X80568Y-44952D01*
X80549Y-44961D01*
X80493Y-44961D01*
X80474Y-44952D01*
X80464Y-44942D01*
X80643Y-44764D02*
X80708Y-44961D01*
X80774Y-44764D01*
X80821Y-44764D02*
X80943Y-44764D01*
X80877Y-44839D01*
X80905Y-44839D01*
X80924Y-44849D01*
X80933Y-44858D01*
X80943Y-44877D01*
X80943Y-44924D01*
X80933Y-44942D01*
X80924Y-44952D01*
X80905Y-44961D01*
X80849Y-44961D01*
X80830Y-44952D01*
X80821Y-44942D01*
X79637Y-44942D02*
X79627Y-44952D01*
X79599Y-44961D01*
X79580Y-44961D01*
X79552Y-44952D01*
X79534Y-44933D01*
X79524Y-44914D01*
X79515Y-44877D01*
X79515Y-44849D01*
X79524Y-44811D01*
X79534Y-44792D01*
X79552Y-44774D01*
X79580Y-44764D01*
X79599Y-44764D01*
X79627Y-44774D01*
X79637Y-44783D01*
X79712Y-44952D02*
X79740Y-44961D01*
X79787Y-44961D01*
X79805Y-44952D01*
X79815Y-44942D01*
X79824Y-44924D01*
X79824Y-44905D01*
X79815Y-44886D01*
X79805Y-44877D01*
X79787Y-44867D01*
X79749Y-44858D01*
X79730Y-44849D01*
X79721Y-44839D01*
X79712Y-44820D01*
X79712Y-44802D01*
X79721Y-44783D01*
X79730Y-44774D01*
X79749Y-44764D01*
X79796Y-44764D01*
X79824Y-44774D01*
X79890Y-44764D02*
X80021Y-44764D01*
X79937Y-44961D01*
X78613Y-44942D02*
X78604Y-44952D01*
X78576Y-44961D01*
X78557Y-44961D01*
X78529Y-44952D01*
X78510Y-44933D01*
X78501Y-44914D01*
X78491Y-44877D01*
X78491Y-44849D01*
X78501Y-44811D01*
X78510Y-44792D01*
X78529Y-44774D01*
X78557Y-44764D01*
X78576Y-44764D01*
X78604Y-44774D01*
X78613Y-44783D01*
X78688Y-44952D02*
X78716Y-44961D01*
X78763Y-44961D01*
X78782Y-44952D01*
X78791Y-44942D01*
X78801Y-44924D01*
X78801Y-44905D01*
X78791Y-44886D01*
X78782Y-44877D01*
X78763Y-44867D01*
X78726Y-44858D01*
X78707Y-44849D01*
X78697Y-44839D01*
X78688Y-44820D01*
X78688Y-44802D01*
X78697Y-44783D01*
X78707Y-44774D01*
X78726Y-44764D01*
X78772Y-44764D01*
X78801Y-44774D01*
X78969Y-44764D02*
X78932Y-44764D01*
X78913Y-44774D01*
X78904Y-44783D01*
X78885Y-44811D01*
X78876Y-44849D01*
X78876Y-44924D01*
X78885Y-44942D01*
X78894Y-44952D01*
X78913Y-44961D01*
X78951Y-44961D01*
X78969Y-44952D01*
X78979Y-44942D01*
X78988Y-44924D01*
X78988Y-44877D01*
X78979Y-44858D01*
X78969Y-44849D01*
X78951Y-44839D01*
X78913Y-44839D01*
X78894Y-44849D01*
X78885Y-44858D01*
X78876Y-44877D01*
X77350Y-44959D02*
X77350Y-44762D01*
X77416Y-44903D01*
X77481Y-44762D01*
X77481Y-44959D01*
X77575Y-44959D02*
X77575Y-44762D01*
X77660Y-44950D02*
X77688Y-44959D01*
X77734Y-44959D01*
X77753Y-44950D01*
X77763Y-44940D01*
X77772Y-44922D01*
X77772Y-44903D01*
X77763Y-44884D01*
X77753Y-44875D01*
X77734Y-44865D01*
X77697Y-44856D01*
X77678Y-44847D01*
X77669Y-44837D01*
X77660Y-44819D01*
X77660Y-44800D01*
X77669Y-44781D01*
X77678Y-44772D01*
X77697Y-44762D01*
X77744Y-44762D01*
X77772Y-44772D01*
X77894Y-44762D02*
X77931Y-44762D01*
X77950Y-44772D01*
X77969Y-44790D01*
X77978Y-44828D01*
X77978Y-44894D01*
X77969Y-44931D01*
X77950Y-44950D01*
X77931Y-44959D01*
X77894Y-44959D01*
X77875Y-44950D01*
X77856Y-44931D01*
X77847Y-44894D01*
X77847Y-44828D01*
X77856Y-44790D01*
X77875Y-44772D01*
X77894Y-44762D01*
X76383Y-44961D02*
X76383Y-44764D01*
X76449Y-44905D01*
X76514Y-44764D01*
X76514Y-44961D01*
X76646Y-44764D02*
X76683Y-44764D01*
X76702Y-44774D01*
X76721Y-44792D01*
X76730Y-44830D01*
X76730Y-44895D01*
X76721Y-44933D01*
X76702Y-44952D01*
X76683Y-44961D01*
X76646Y-44961D01*
X76627Y-44952D01*
X76608Y-44933D01*
X76599Y-44895D01*
X76599Y-44830D01*
X76608Y-44792D01*
X76627Y-44774D01*
X76646Y-44764D01*
X76805Y-44952D02*
X76833Y-44961D01*
X76880Y-44961D01*
X76899Y-44952D01*
X76908Y-44942D01*
X76917Y-44924D01*
X76917Y-44905D01*
X76908Y-44886D01*
X76899Y-44877D01*
X76880Y-44867D01*
X76842Y-44858D01*
X76824Y-44849D01*
X76814Y-44839D01*
X76805Y-44820D01*
X76805Y-44802D01*
X76814Y-44783D01*
X76824Y-44774D01*
X76842Y-44764D01*
X76889Y-44764D01*
X76917Y-44774D01*
X77002Y-44961D02*
X77002Y-44764D01*
X78201Y-45696D02*
X78243Y-45710D01*
X78314Y-45710D01*
X78342Y-45696D01*
X78356Y-45681D01*
X78370Y-45653D01*
X78370Y-45625D01*
X78356Y-45597D01*
X78342Y-45583D01*
X78314Y-45569D01*
X78257Y-45555D01*
X78229Y-45541D01*
X78215Y-45527D01*
X78201Y-45499D01*
X78201Y-45471D01*
X78215Y-45442D01*
X78229Y-45428D01*
X78257Y-45414D01*
X78328Y-45414D01*
X78370Y-45428D01*
X78496Y-45710D02*
X78496Y-45414D01*
X78609Y-45414D01*
X78637Y-45428D01*
X78651Y-45442D01*
X78665Y-45471D01*
X78665Y-45513D01*
X78651Y-45541D01*
X78637Y-45555D01*
X78609Y-45569D01*
X78496Y-45569D01*
X78792Y-45710D02*
X78792Y-45414D01*
X75494Y-44952D02*
X75523Y-44961D01*
X75569Y-44961D01*
X75588Y-44952D01*
X75598Y-44942D01*
X75607Y-44924D01*
X75607Y-44905D01*
X75598Y-44886D01*
X75588Y-44877D01*
X75569Y-44867D01*
X75532Y-44858D01*
X75513Y-44849D01*
X75504Y-44839D01*
X75494Y-44820D01*
X75494Y-44802D01*
X75504Y-44783D01*
X75513Y-44774D01*
X75532Y-44764D01*
X75579Y-44764D01*
X75607Y-44774D01*
X75804Y-44942D02*
X75794Y-44952D01*
X75766Y-44961D01*
X75748Y-44961D01*
X75719Y-44952D01*
X75701Y-44933D01*
X75691Y-44914D01*
X75682Y-44877D01*
X75682Y-44849D01*
X75691Y-44811D01*
X75701Y-44792D01*
X75719Y-44774D01*
X75748Y-44764D01*
X75766Y-44764D01*
X75794Y-44774D01*
X75804Y-44783D01*
X75888Y-44961D02*
X75888Y-44764D01*
X76001Y-44961D02*
X75916Y-44849D01*
X76001Y-44764D02*
X75888Y-44877D01*
X93014Y-44704D02*
X93023Y-44695D01*
X93042Y-44685D01*
X93089Y-44685D01*
X93108Y-44695D01*
X93117Y-44704D01*
X93127Y-44723D01*
X93127Y-44742D01*
X93117Y-44770D01*
X93005Y-44882D01*
X93127Y-44882D01*
X92103Y-44882D02*
X91991Y-44882D01*
X92047Y-44882D02*
X92047Y-44685D01*
X92028Y-44714D01*
X92009Y-44732D01*
X91991Y-44742D01*
X92154Y-45232D02*
X92294Y-45232D01*
X92125Y-45316D02*
X92224Y-45021D01*
X92322Y-45316D01*
X92421Y-45316D02*
X92421Y-45021D01*
X92491Y-45021D01*
X92533Y-45035D01*
X92561Y-45063D01*
X92575Y-45091D01*
X92589Y-45147D01*
X92589Y-45189D01*
X92575Y-45246D01*
X92561Y-45274D01*
X92533Y-45302D01*
X92491Y-45316D01*
X92421Y-45316D01*
X92885Y-45288D02*
X92871Y-45302D01*
X92829Y-45316D01*
X92800Y-45316D01*
X92758Y-45302D01*
X92730Y-45274D01*
X92716Y-45246D01*
X92702Y-45189D01*
X92702Y-45147D01*
X92716Y-45091D01*
X92730Y-45063D01*
X92758Y-45035D01*
X92800Y-45021D01*
X92829Y-45021D01*
X92871Y-45035D01*
X92885Y-45049D01*
X94372Y-45316D02*
X94372Y-45021D01*
X94443Y-45021D01*
X94485Y-45035D01*
X94513Y-45063D01*
X94527Y-45091D01*
X94541Y-45147D01*
X94541Y-45189D01*
X94527Y-45246D01*
X94513Y-45274D01*
X94485Y-45302D01*
X94443Y-45316D01*
X94372Y-45316D01*
X94654Y-45232D02*
X94794Y-45232D01*
X94625Y-45316D02*
X94724Y-45021D01*
X94822Y-45316D01*
X95089Y-45288D02*
X95075Y-45302D01*
X95033Y-45316D01*
X95005Y-45316D01*
X94963Y-45302D01*
X94935Y-45274D01*
X94921Y-45246D01*
X94907Y-45189D01*
X94907Y-45147D01*
X94921Y-45091D01*
X94935Y-45063D01*
X94963Y-45035D01*
X95005Y-45021D01*
X95033Y-45021D01*
X95075Y-45035D01*
X95089Y-45049D01*
X93787Y-62359D02*
X93777Y-62350D01*
X93758Y-62321D01*
X93749Y-62303D01*
X93740Y-62275D01*
X93730Y-62228D01*
X93730Y-62190D01*
X93740Y-62143D01*
X93749Y-62115D01*
X93758Y-62096D01*
X93777Y-62068D01*
X93787Y-62059D01*
X93862Y-62209D02*
X94011Y-62209D01*
X94086Y-62359D02*
X94096Y-62350D01*
X94115Y-62321D01*
X94124Y-62303D01*
X94133Y-62275D01*
X94143Y-62228D01*
X94143Y-62190D01*
X94133Y-62143D01*
X94124Y-62115D01*
X94115Y-62096D01*
X94096Y-62068D01*
X94086Y-62059D01*
X94889Y-62359D02*
X94880Y-62350D01*
X94861Y-62321D01*
X94851Y-62303D01*
X94842Y-62275D01*
X94833Y-62228D01*
X94833Y-62190D01*
X94842Y-62143D01*
X94851Y-62115D01*
X94861Y-62096D01*
X94880Y-62068D01*
X94889Y-62059D01*
X94964Y-62209D02*
X95114Y-62209D01*
X95039Y-62284D02*
X95039Y-62134D01*
X95189Y-62359D02*
X95198Y-62350D01*
X95217Y-62321D01*
X95226Y-62303D01*
X95236Y-62275D01*
X95245Y-62228D01*
X95245Y-62190D01*
X95236Y-62143D01*
X95226Y-62115D01*
X95217Y-62096D01*
X95198Y-62068D01*
X95189Y-62059D01*
X93693Y-62796D02*
X93693Y-62501D01*
X93792Y-62712D01*
X93890Y-62501D01*
X93890Y-62796D01*
X94073Y-62796D02*
X94045Y-62782D01*
X94031Y-62768D01*
X94017Y-62740D01*
X94017Y-62656D01*
X94031Y-62627D01*
X94045Y-62613D01*
X94073Y-62599D01*
X94115Y-62599D01*
X94143Y-62613D01*
X94157Y-62627D01*
X94171Y-62656D01*
X94171Y-62740D01*
X94157Y-62768D01*
X94143Y-62782D01*
X94115Y-62796D01*
X94073Y-62796D01*
X94256Y-62599D02*
X94368Y-62599D01*
X94298Y-62501D02*
X94298Y-62754D01*
X94312Y-62782D01*
X94340Y-62796D01*
X94368Y-62796D01*
X94509Y-62796D02*
X94481Y-62782D01*
X94467Y-62768D01*
X94453Y-62740D01*
X94453Y-62656D01*
X94467Y-62627D01*
X94481Y-62613D01*
X94509Y-62599D01*
X94551Y-62599D01*
X94579Y-62613D01*
X94593Y-62627D01*
X94607Y-62656D01*
X94607Y-62740D01*
X94593Y-62768D01*
X94579Y-62782D01*
X94551Y-62796D01*
X94509Y-62796D01*
X94734Y-62796D02*
X94734Y-62599D01*
X94734Y-62656D02*
X94748Y-62627D01*
X94762Y-62613D01*
X94790Y-62599D01*
X94818Y-62599D01*
X95296Y-62796D02*
X95127Y-62796D01*
X95212Y-62796D02*
X95212Y-62501D01*
X95184Y-62543D01*
X95156Y-62571D01*
X95127Y-62585D01*
X90637Y-62359D02*
X90628Y-62350D01*
X90609Y-62321D01*
X90599Y-62303D01*
X90590Y-62275D01*
X90581Y-62228D01*
X90581Y-62190D01*
X90590Y-62143D01*
X90599Y-62115D01*
X90609Y-62096D01*
X90628Y-62068D01*
X90637Y-62059D01*
X90712Y-62209D02*
X90862Y-62209D01*
X90937Y-62359D02*
X90946Y-62350D01*
X90965Y-62321D01*
X90974Y-62303D01*
X90984Y-62275D01*
X90993Y-62228D01*
X90993Y-62190D01*
X90984Y-62143D01*
X90974Y-62115D01*
X90965Y-62096D01*
X90946Y-62068D01*
X90937Y-62059D01*
X91661Y-62359D02*
X91651Y-62350D01*
X91632Y-62321D01*
X91623Y-62303D01*
X91614Y-62275D01*
X91604Y-62228D01*
X91604Y-62190D01*
X91614Y-62143D01*
X91623Y-62115D01*
X91632Y-62096D01*
X91651Y-62068D01*
X91661Y-62059D01*
X91736Y-62209D02*
X91886Y-62209D01*
X91811Y-62284D02*
X91811Y-62134D01*
X91961Y-62359D02*
X91970Y-62350D01*
X91989Y-62321D01*
X91998Y-62303D01*
X92007Y-62275D01*
X92017Y-62228D01*
X92017Y-62190D01*
X92007Y-62143D01*
X91998Y-62115D01*
X91989Y-62096D01*
X91970Y-62068D01*
X91961Y-62059D01*
X66739Y-62796D02*
X66739Y-62501D01*
X66851Y-62501D01*
X66879Y-62515D01*
X66893Y-62529D01*
X66908Y-62557D01*
X66908Y-62599D01*
X66893Y-62627D01*
X66879Y-62642D01*
X66851Y-62656D01*
X66739Y-62656D01*
X67076Y-62796D02*
X67048Y-62782D01*
X67034Y-62768D01*
X67020Y-62740D01*
X67020Y-62656D01*
X67034Y-62627D01*
X67048Y-62613D01*
X67076Y-62599D01*
X67118Y-62599D01*
X67147Y-62613D01*
X67161Y-62627D01*
X67175Y-62656D01*
X67175Y-62740D01*
X67161Y-62768D01*
X67147Y-62782D01*
X67118Y-62796D01*
X67076Y-62796D01*
X67273Y-62599D02*
X67329Y-62796D01*
X67386Y-62656D01*
X67442Y-62796D01*
X67498Y-62599D01*
X67723Y-62782D02*
X67695Y-62796D01*
X67639Y-62796D01*
X67611Y-62782D01*
X67597Y-62754D01*
X67597Y-62642D01*
X67611Y-62613D01*
X67639Y-62599D01*
X67695Y-62599D01*
X67723Y-62613D01*
X67737Y-62642D01*
X67737Y-62670D01*
X67597Y-62698D01*
X67864Y-62796D02*
X67864Y-62599D01*
X67864Y-62656D02*
X67878Y-62627D01*
X67892Y-62613D01*
X67920Y-62599D01*
X67948Y-62599D01*
X66621Y-62359D02*
X66612Y-62350D01*
X66593Y-62321D01*
X66584Y-62303D01*
X66574Y-62275D01*
X66565Y-62228D01*
X66565Y-62190D01*
X66574Y-62143D01*
X66584Y-62115D01*
X66593Y-62096D01*
X66612Y-62068D01*
X66621Y-62059D01*
X66696Y-62209D02*
X66846Y-62209D01*
X66921Y-62359D02*
X66931Y-62350D01*
X66949Y-62321D01*
X66959Y-62303D01*
X66968Y-62275D01*
X66977Y-62228D01*
X66977Y-62190D01*
X66968Y-62143D01*
X66959Y-62115D01*
X66949Y-62096D01*
X66931Y-62068D01*
X66921Y-62059D01*
X67645Y-62359D02*
X67635Y-62350D01*
X67617Y-62321D01*
X67607Y-62303D01*
X67598Y-62275D01*
X67589Y-62228D01*
X67589Y-62190D01*
X67598Y-62143D01*
X67607Y-62115D01*
X67617Y-62096D01*
X67635Y-62068D01*
X67645Y-62059D01*
X67720Y-62209D02*
X67870Y-62209D01*
X67795Y-62284D02*
X67795Y-62134D01*
X67945Y-62359D02*
X67954Y-62350D01*
X67973Y-62321D01*
X67982Y-62303D01*
X67992Y-62275D01*
X68001Y-62228D01*
X68001Y-62190D01*
X67992Y-62143D01*
X67982Y-62115D01*
X67973Y-62096D01*
X67954Y-62068D01*
X67945Y-62059D01*
X90544Y-62796D02*
X90544Y-62501D01*
X90642Y-62712D01*
X90741Y-62501D01*
X90741Y-62796D01*
X90923Y-62796D02*
X90895Y-62782D01*
X90881Y-62768D01*
X90867Y-62740D01*
X90867Y-62656D01*
X90881Y-62627D01*
X90895Y-62613D01*
X90923Y-62599D01*
X90965Y-62599D01*
X90994Y-62613D01*
X91008Y-62627D01*
X91022Y-62656D01*
X91022Y-62740D01*
X91008Y-62768D01*
X90994Y-62782D01*
X90965Y-62796D01*
X90923Y-62796D01*
X91106Y-62599D02*
X91219Y-62599D01*
X91148Y-62501D02*
X91148Y-62754D01*
X91162Y-62782D01*
X91190Y-62796D01*
X91219Y-62796D01*
X91359Y-62796D02*
X91331Y-62782D01*
X91317Y-62768D01*
X91303Y-62740D01*
X91303Y-62656D01*
X91317Y-62627D01*
X91331Y-62613D01*
X91359Y-62599D01*
X91401Y-62599D01*
X91429Y-62613D01*
X91444Y-62627D01*
X91458Y-62656D01*
X91458Y-62740D01*
X91444Y-62768D01*
X91429Y-62782D01*
X91401Y-62796D01*
X91359Y-62796D01*
X91584Y-62796D02*
X91584Y-62599D01*
X91584Y-62656D02*
X91598Y-62627D01*
X91612Y-62613D01*
X91640Y-62599D01*
X91669Y-62599D01*
X92147Y-62796D02*
X91978Y-62796D01*
X92062Y-62796D02*
X92062Y-62501D01*
X92034Y-62543D01*
X92006Y-62571D01*
X91978Y-62585D01*
X88747Y-62175D02*
X88728Y-62166D01*
X88700Y-62166D01*
X88672Y-62175D01*
X88653Y-62194D01*
X88644Y-62213D01*
X88635Y-62250D01*
X88635Y-62278D01*
X88644Y-62316D01*
X88653Y-62335D01*
X88672Y-62353D01*
X88700Y-62363D01*
X88719Y-62363D01*
X88747Y-62353D01*
X88757Y-62344D01*
X88757Y-62278D01*
X88719Y-62278D01*
X88841Y-62363D02*
X88841Y-62166D01*
X88953Y-62363D01*
X88953Y-62166D01*
X89047Y-62363D02*
X89047Y-62166D01*
X89094Y-62166D01*
X89122Y-62175D01*
X89141Y-62194D01*
X89150Y-62213D01*
X89160Y-62250D01*
X89160Y-62278D01*
X89150Y-62316D01*
X89141Y-62335D01*
X89122Y-62353D01*
X89094Y-62363D01*
X89047Y-62363D01*
X87662Y-62260D02*
X87690Y-62269D01*
X87699Y-62278D01*
X87709Y-62297D01*
X87709Y-62325D01*
X87699Y-62344D01*
X87690Y-62353D01*
X87671Y-62363D01*
X87596Y-62363D01*
X87596Y-62166D01*
X87662Y-62166D01*
X87680Y-62175D01*
X87690Y-62185D01*
X87699Y-62203D01*
X87699Y-62222D01*
X87690Y-62241D01*
X87680Y-62250D01*
X87662Y-62260D01*
X87596Y-62260D01*
X87793Y-62363D02*
X87793Y-62166D01*
X87859Y-62306D01*
X87924Y-62166D01*
X87924Y-62363D01*
X88018Y-62363D02*
X88018Y-62166D01*
X88093Y-62166D01*
X88112Y-62175D01*
X88121Y-62185D01*
X88130Y-62203D01*
X88130Y-62231D01*
X88121Y-62250D01*
X88112Y-62260D01*
X88093Y-62269D01*
X88018Y-62269D01*
X88205Y-62185D02*
X88215Y-62175D01*
X88233Y-62166D01*
X88280Y-62166D01*
X88299Y-62175D01*
X88308Y-62185D01*
X88318Y-62203D01*
X88318Y-62222D01*
X88308Y-62250D01*
X88196Y-62363D01*
X88318Y-62363D01*
X86779Y-62175D02*
X86760Y-62166D01*
X86732Y-62166D01*
X86704Y-62175D01*
X86685Y-62194D01*
X86676Y-62213D01*
X86666Y-62250D01*
X86666Y-62278D01*
X86676Y-62316D01*
X86685Y-62335D01*
X86704Y-62353D01*
X86732Y-62363D01*
X86751Y-62363D01*
X86779Y-62353D01*
X86788Y-62344D01*
X86788Y-62278D01*
X86751Y-62278D01*
X86872Y-62363D02*
X86872Y-62166D01*
X86985Y-62363D01*
X86985Y-62166D01*
X87079Y-62363D02*
X87079Y-62166D01*
X87125Y-62166D01*
X87154Y-62175D01*
X87172Y-62194D01*
X87182Y-62213D01*
X87191Y-62250D01*
X87191Y-62278D01*
X87182Y-62316D01*
X87172Y-62335D01*
X87154Y-62353D01*
X87125Y-62363D01*
X87079Y-62363D01*
X85614Y-62260D02*
X85643Y-62269D01*
X85652Y-62278D01*
X85661Y-62297D01*
X85661Y-62325D01*
X85652Y-62344D01*
X85643Y-62353D01*
X85624Y-62363D01*
X85549Y-62363D01*
X85549Y-62166D01*
X85614Y-62166D01*
X85633Y-62175D01*
X85643Y-62185D01*
X85652Y-62203D01*
X85652Y-62222D01*
X85643Y-62241D01*
X85633Y-62250D01*
X85614Y-62260D01*
X85549Y-62260D01*
X85746Y-62363D02*
X85746Y-62166D01*
X85811Y-62306D01*
X85877Y-62166D01*
X85877Y-62363D01*
X85971Y-62363D02*
X85971Y-62166D01*
X86046Y-62166D01*
X86064Y-62175D01*
X86074Y-62185D01*
X86083Y-62203D01*
X86083Y-62231D01*
X86074Y-62250D01*
X86064Y-62260D01*
X86046Y-62269D01*
X85971Y-62269D01*
X86271Y-62363D02*
X86158Y-62363D01*
X86214Y-62363D02*
X86214Y-62166D01*
X86196Y-62194D01*
X86177Y-62213D01*
X86158Y-62222D01*
X86699Y-62642D02*
X86742Y-62656D01*
X86756Y-62670D01*
X86770Y-62698D01*
X86770Y-62740D01*
X86756Y-62768D01*
X86742Y-62782D01*
X86714Y-62796D01*
X86601Y-62796D01*
X86601Y-62501D01*
X86699Y-62501D01*
X86728Y-62515D01*
X86742Y-62529D01*
X86756Y-62557D01*
X86756Y-62585D01*
X86742Y-62613D01*
X86728Y-62627D01*
X86699Y-62642D01*
X86601Y-62642D01*
X87023Y-62599D02*
X87023Y-62796D01*
X86896Y-62599D02*
X86896Y-62754D01*
X86910Y-62782D01*
X86938Y-62796D01*
X86981Y-62796D01*
X87009Y-62782D01*
X87023Y-62768D01*
X87163Y-62796D02*
X87163Y-62599D01*
X87163Y-62627D02*
X87178Y-62613D01*
X87206Y-62599D01*
X87248Y-62599D01*
X87276Y-62613D01*
X87290Y-62642D01*
X87290Y-62796D01*
X87290Y-62642D02*
X87304Y-62613D01*
X87332Y-62599D01*
X87374Y-62599D01*
X87402Y-62613D01*
X87417Y-62642D01*
X87417Y-62796D01*
X87557Y-62599D02*
X87557Y-62895D01*
X87557Y-62613D02*
X87585Y-62599D01*
X87642Y-62599D01*
X87670Y-62613D01*
X87684Y-62627D01*
X87698Y-62656D01*
X87698Y-62740D01*
X87684Y-62768D01*
X87670Y-62782D01*
X87642Y-62796D01*
X87585Y-62796D01*
X87557Y-62782D01*
X87937Y-62782D02*
X87909Y-62796D01*
X87852Y-62796D01*
X87824Y-62782D01*
X87810Y-62754D01*
X87810Y-62642D01*
X87824Y-62613D01*
X87852Y-62599D01*
X87909Y-62599D01*
X87937Y-62613D01*
X87951Y-62642D01*
X87951Y-62670D01*
X87810Y-62698D01*
X88077Y-62796D02*
X88077Y-62599D01*
X88077Y-62656D02*
X88091Y-62627D01*
X88106Y-62613D01*
X88134Y-62599D01*
X88162Y-62599D01*
X88246Y-62782D02*
X88274Y-62796D01*
X88330Y-62796D01*
X88359Y-62782D01*
X88373Y-62754D01*
X88373Y-62740D01*
X88359Y-62712D01*
X88330Y-62698D01*
X88288Y-62698D01*
X88260Y-62684D01*
X88246Y-62656D01*
X88246Y-62642D01*
X88260Y-62613D01*
X88288Y-62599D01*
X88330Y-62599D01*
X88359Y-62613D01*
X77709Y-62087D02*
X77830Y-62087D01*
X77765Y-62162D01*
X77793Y-62162D01*
X77812Y-62171D01*
X77821Y-62181D01*
X77830Y-62200D01*
X77830Y-62246D01*
X77821Y-62265D01*
X77812Y-62275D01*
X77793Y-62284D01*
X77737Y-62284D01*
X77718Y-62275D01*
X77709Y-62265D01*
X77887Y-62087D02*
X77952Y-62284D01*
X78018Y-62087D01*
X78065Y-62087D02*
X78187Y-62087D01*
X78121Y-62162D01*
X78149Y-62162D01*
X78168Y-62171D01*
X78177Y-62181D01*
X78187Y-62200D01*
X78187Y-62246D01*
X78177Y-62265D01*
X78168Y-62275D01*
X78149Y-62284D01*
X78093Y-62284D01*
X78074Y-62275D01*
X78065Y-62265D01*
X76787Y-62284D02*
X76721Y-62190D01*
X76675Y-62284D02*
X76675Y-62087D01*
X76750Y-62087D01*
X76768Y-62096D01*
X76778Y-62106D01*
X76787Y-62125D01*
X76787Y-62153D01*
X76778Y-62171D01*
X76768Y-62181D01*
X76750Y-62190D01*
X76675Y-62190D01*
X76871Y-62284D02*
X76871Y-62153D01*
X76871Y-62087D02*
X76862Y-62096D01*
X76871Y-62106D01*
X76881Y-62096D01*
X76871Y-62087D01*
X76871Y-62106D01*
X77050Y-62153D02*
X77050Y-62312D01*
X77040Y-62331D01*
X77031Y-62340D01*
X77012Y-62350D01*
X76984Y-62350D01*
X76965Y-62340D01*
X77050Y-62275D02*
X77031Y-62284D01*
X76993Y-62284D01*
X76975Y-62275D01*
X76965Y-62265D01*
X76956Y-62246D01*
X76956Y-62190D01*
X76965Y-62171D01*
X76975Y-62162D01*
X76993Y-62153D01*
X77031Y-62153D01*
X77050Y-62162D01*
X77143Y-62284D02*
X77143Y-62087D01*
X77228Y-62284D02*
X77228Y-62181D01*
X77218Y-62162D01*
X77200Y-62153D01*
X77171Y-62153D01*
X77153Y-62162D01*
X77143Y-62171D01*
X77293Y-62153D02*
X77368Y-62153D01*
X77321Y-62087D02*
X77321Y-62256D01*
X77331Y-62275D01*
X77350Y-62284D01*
X77368Y-62284D01*
X75670Y-62265D02*
X75660Y-62275D01*
X75632Y-62284D01*
X75613Y-62284D01*
X75585Y-62275D01*
X75567Y-62256D01*
X75557Y-62237D01*
X75548Y-62200D01*
X75548Y-62171D01*
X75557Y-62134D01*
X75567Y-62115D01*
X75585Y-62096D01*
X75613Y-62087D01*
X75632Y-62087D01*
X75660Y-62096D01*
X75670Y-62106D01*
X75829Y-62275D02*
X75810Y-62284D01*
X75773Y-62284D01*
X75754Y-62275D01*
X75745Y-62256D01*
X75745Y-62181D01*
X75754Y-62162D01*
X75773Y-62153D01*
X75810Y-62153D01*
X75829Y-62162D01*
X75838Y-62181D01*
X75838Y-62200D01*
X75745Y-62218D01*
X75923Y-62153D02*
X75923Y-62284D01*
X75923Y-62171D02*
X75932Y-62162D01*
X75951Y-62153D01*
X75979Y-62153D01*
X75998Y-62162D01*
X76007Y-62181D01*
X76007Y-62284D01*
X76073Y-62153D02*
X76148Y-62153D01*
X76101Y-62087D02*
X76101Y-62256D01*
X76110Y-62275D01*
X76129Y-62284D01*
X76148Y-62284D01*
X76288Y-62275D02*
X76270Y-62284D01*
X76232Y-62284D01*
X76213Y-62275D01*
X76204Y-62256D01*
X76204Y-62181D01*
X76213Y-62162D01*
X76232Y-62153D01*
X76270Y-62153D01*
X76288Y-62162D01*
X76298Y-62181D01*
X76298Y-62200D01*
X76204Y-62218D01*
X76382Y-62284D02*
X76382Y-62153D01*
X76382Y-62190D02*
X76392Y-62171D01*
X76401Y-62162D01*
X76420Y-62153D01*
X76438Y-62153D01*
X74824Y-62284D02*
X74730Y-62284D01*
X74730Y-62087D01*
X74965Y-62275D02*
X74946Y-62284D01*
X74909Y-62284D01*
X74890Y-62275D01*
X74880Y-62256D01*
X74880Y-62181D01*
X74890Y-62162D01*
X74909Y-62153D01*
X74946Y-62153D01*
X74965Y-62162D01*
X74974Y-62181D01*
X74974Y-62200D01*
X74880Y-62218D01*
X75030Y-62153D02*
X75105Y-62153D01*
X75059Y-62284D02*
X75059Y-62115D01*
X75068Y-62096D01*
X75087Y-62087D01*
X75105Y-62087D01*
X75143Y-62153D02*
X75218Y-62153D01*
X75171Y-62087D02*
X75171Y-62256D01*
X75180Y-62275D01*
X75199Y-62284D01*
X75218Y-62284D01*
X74887Y-62796D02*
X74746Y-62796D01*
X74746Y-62501D01*
X74985Y-62796D02*
X74985Y-62599D01*
X74985Y-62501D02*
X74971Y-62515D01*
X74985Y-62529D01*
X75000Y-62515D01*
X74985Y-62501D01*
X74985Y-62529D01*
X75126Y-62599D02*
X75126Y-62796D01*
X75126Y-62627D02*
X75140Y-62613D01*
X75168Y-62599D01*
X75210Y-62599D01*
X75239Y-62613D01*
X75253Y-62642D01*
X75253Y-62796D01*
X75506Y-62782D02*
X75478Y-62796D01*
X75421Y-62796D01*
X75393Y-62782D01*
X75379Y-62754D01*
X75379Y-62642D01*
X75393Y-62613D01*
X75421Y-62599D01*
X75478Y-62599D01*
X75506Y-62613D01*
X75520Y-62642D01*
X75520Y-62670D01*
X75379Y-62698D01*
X75857Y-62782D02*
X75899Y-62796D01*
X75970Y-62796D01*
X75998Y-62782D01*
X76012Y-62768D01*
X76026Y-62740D01*
X76026Y-62712D01*
X76012Y-62684D01*
X75998Y-62670D01*
X75970Y-62656D01*
X75913Y-62642D01*
X75885Y-62627D01*
X75871Y-62613D01*
X75857Y-62585D01*
X75857Y-62557D01*
X75871Y-62529D01*
X75885Y-62515D01*
X75913Y-62501D01*
X75984Y-62501D01*
X76026Y-62515D01*
X76265Y-62782D02*
X76237Y-62796D01*
X76181Y-62796D01*
X76152Y-62782D01*
X76138Y-62754D01*
X76138Y-62642D01*
X76152Y-62613D01*
X76181Y-62599D01*
X76237Y-62599D01*
X76265Y-62613D01*
X76279Y-62642D01*
X76279Y-62670D01*
X76138Y-62698D01*
X76406Y-62599D02*
X76406Y-62796D01*
X76406Y-62627D02*
X76420Y-62613D01*
X76448Y-62599D01*
X76490Y-62599D01*
X76518Y-62613D01*
X76532Y-62642D01*
X76532Y-62796D01*
X76659Y-62782D02*
X76687Y-62796D01*
X76743Y-62796D01*
X76771Y-62782D01*
X76785Y-62754D01*
X76785Y-62740D01*
X76771Y-62712D01*
X76743Y-62698D01*
X76701Y-62698D01*
X76673Y-62684D01*
X76659Y-62656D01*
X76659Y-62642D01*
X76673Y-62613D01*
X76701Y-62599D01*
X76743Y-62599D01*
X76771Y-62613D01*
X76954Y-62796D02*
X76926Y-62782D01*
X76912Y-62768D01*
X76898Y-62740D01*
X76898Y-62656D01*
X76912Y-62627D01*
X76926Y-62613D01*
X76954Y-62599D01*
X76996Y-62599D01*
X77024Y-62613D01*
X77038Y-62627D01*
X77052Y-62656D01*
X77052Y-62740D01*
X77038Y-62768D01*
X77024Y-62782D01*
X76996Y-62796D01*
X76954Y-62796D01*
X77179Y-62796D02*
X77179Y-62599D01*
X77179Y-62656D02*
X77193Y-62627D01*
X77207Y-62613D01*
X77235Y-62599D01*
X77263Y-62599D01*
X73787Y-62096D02*
X73768Y-62087D01*
X73740Y-62087D01*
X73712Y-62096D01*
X73693Y-62115D01*
X73683Y-62134D01*
X73674Y-62171D01*
X73674Y-62200D01*
X73683Y-62237D01*
X73693Y-62256D01*
X73712Y-62275D01*
X73740Y-62284D01*
X73758Y-62284D01*
X73787Y-62275D01*
X73796Y-62265D01*
X73796Y-62200D01*
X73758Y-62200D01*
X73880Y-62284D02*
X73880Y-62087D01*
X73993Y-62284D01*
X73993Y-62087D01*
X74086Y-62284D02*
X74086Y-62087D01*
X74133Y-62087D01*
X74161Y-62096D01*
X74180Y-62115D01*
X74190Y-62134D01*
X74199Y-62171D01*
X74199Y-62200D01*
X74190Y-62237D01*
X74180Y-62256D01*
X74161Y-62275D01*
X74133Y-62284D01*
X74086Y-62284D01*
X72212Y-62096D02*
X72193Y-62087D01*
X72165Y-62087D01*
X72137Y-62096D01*
X72118Y-62115D01*
X72109Y-62134D01*
X72099Y-62171D01*
X72099Y-62200D01*
X72109Y-62237D01*
X72118Y-62256D01*
X72137Y-62275D01*
X72165Y-62284D01*
X72184Y-62284D01*
X72212Y-62275D01*
X72221Y-62265D01*
X72221Y-62200D01*
X72184Y-62200D01*
X72305Y-62284D02*
X72305Y-62087D01*
X72418Y-62284D01*
X72418Y-62087D01*
X72512Y-62284D02*
X72512Y-62087D01*
X72559Y-62087D01*
X72587Y-62096D01*
X72605Y-62115D01*
X72615Y-62134D01*
X72624Y-62171D01*
X72624Y-62200D01*
X72615Y-62237D01*
X72605Y-62256D01*
X72587Y-62275D01*
X72559Y-62284D01*
X72512Y-62284D01*
X71094Y-62087D02*
X71216Y-62087D01*
X71151Y-62162D01*
X71179Y-62162D01*
X71197Y-62171D01*
X71207Y-62181D01*
X71216Y-62200D01*
X71216Y-62246D01*
X71207Y-62265D01*
X71197Y-62275D01*
X71179Y-62284D01*
X71122Y-62284D01*
X71104Y-62275D01*
X71094Y-62265D01*
X71272Y-62087D02*
X71338Y-62284D01*
X71404Y-62087D01*
X71451Y-62087D02*
X71572Y-62087D01*
X71507Y-62162D01*
X71535Y-62162D01*
X71554Y-62171D01*
X71563Y-62181D01*
X71572Y-62200D01*
X71572Y-62246D01*
X71563Y-62265D01*
X71554Y-62275D01*
X71535Y-62284D01*
X71479Y-62284D01*
X71460Y-62275D01*
X71451Y-62265D01*
X70154Y-62275D02*
X70182Y-62284D01*
X70229Y-62284D01*
X70248Y-62275D01*
X70257Y-62265D01*
X70267Y-62246D01*
X70267Y-62228D01*
X70257Y-62209D01*
X70248Y-62200D01*
X70229Y-62190D01*
X70192Y-62181D01*
X70173Y-62171D01*
X70164Y-62162D01*
X70154Y-62143D01*
X70154Y-62125D01*
X70164Y-62106D01*
X70173Y-62096D01*
X70192Y-62087D01*
X70239Y-62087D01*
X70267Y-62096D01*
X70351Y-62284D02*
X70351Y-62087D01*
X70398Y-62087D01*
X70426Y-62096D01*
X70445Y-62115D01*
X70454Y-62134D01*
X70464Y-62171D01*
X70464Y-62200D01*
X70454Y-62237D01*
X70445Y-62256D01*
X70426Y-62275D01*
X70398Y-62284D01*
X70351Y-62284D01*
X70538Y-62228D02*
X70632Y-62228D01*
X70520Y-62284D02*
X70585Y-62087D01*
X70651Y-62284D01*
X69135Y-62275D02*
X69163Y-62284D01*
X69210Y-62284D01*
X69229Y-62275D01*
X69238Y-62265D01*
X69248Y-62246D01*
X69248Y-62228D01*
X69238Y-62209D01*
X69229Y-62200D01*
X69210Y-62190D01*
X69173Y-62181D01*
X69154Y-62171D01*
X69145Y-62162D01*
X69135Y-62143D01*
X69135Y-62125D01*
X69145Y-62106D01*
X69154Y-62096D01*
X69173Y-62087D01*
X69220Y-62087D01*
X69248Y-62096D01*
X69445Y-62265D02*
X69435Y-62275D01*
X69407Y-62284D01*
X69388Y-62284D01*
X69360Y-62275D01*
X69341Y-62256D01*
X69332Y-62237D01*
X69323Y-62200D01*
X69323Y-62171D01*
X69332Y-62134D01*
X69341Y-62115D01*
X69360Y-62096D01*
X69388Y-62087D01*
X69407Y-62087D01*
X69435Y-62096D01*
X69445Y-62106D01*
X69623Y-62284D02*
X69529Y-62284D01*
X69529Y-62087D01*
X70656Y-62796D02*
X70656Y-62501D01*
X70783Y-62529D02*
X70797Y-62515D01*
X70825Y-62501D01*
X70895Y-62501D01*
X70923Y-62515D01*
X70937Y-62529D01*
X70951Y-62557D01*
X70951Y-62585D01*
X70937Y-62627D01*
X70769Y-62796D01*
X70951Y-62796D01*
X71247Y-62768D02*
X71233Y-62782D01*
X71190Y-62796D01*
X71162Y-62796D01*
X71120Y-62782D01*
X71092Y-62754D01*
X71078Y-62726D01*
X71064Y-62670D01*
X71064Y-62627D01*
X71078Y-62571D01*
X71092Y-62543D01*
X71120Y-62515D01*
X71162Y-62501D01*
X71190Y-62501D01*
X71233Y-62515D01*
X71247Y-62529D01*
X67645Y-62359D02*
X67635Y-62350D01*
X67617Y-62321D01*
X67607Y-62303D01*
X67598Y-62275D01*
X67589Y-62228D01*
X67589Y-62190D01*
X67598Y-62143D01*
X67607Y-62115D01*
X67617Y-62096D01*
X67635Y-62068D01*
X67645Y-62059D01*
X67720Y-62209D02*
X67870Y-62209D01*
X67795Y-62284D02*
X67795Y-62134D01*
X67945Y-62359D02*
X67954Y-62350D01*
X67973Y-62321D01*
X67982Y-62303D01*
X67992Y-62275D01*
X68001Y-62228D01*
X68001Y-62190D01*
X67992Y-62143D01*
X67982Y-62115D01*
X67973Y-62096D01*
X67954Y-62068D01*
X67945Y-62059D01*
X66621Y-62359D02*
X66612Y-62350D01*
X66593Y-62321D01*
X66584Y-62303D01*
X66574Y-62275D01*
X66565Y-62228D01*
X66565Y-62190D01*
X66574Y-62143D01*
X66584Y-62115D01*
X66593Y-62096D01*
X66612Y-62068D01*
X66621Y-62059D01*
X66696Y-62209D02*
X66846Y-62209D01*
X66921Y-62359D02*
X66931Y-62350D01*
X66949Y-62321D01*
X66959Y-62303D01*
X66968Y-62275D01*
X66977Y-62228D01*
X66977Y-62190D01*
X66968Y-62143D01*
X66959Y-62115D01*
X66949Y-62096D01*
X66931Y-62068D01*
X66921Y-62059D01*
X66739Y-62796D02*
X66739Y-62501D01*
X66851Y-62501D01*
X66879Y-62515D01*
X66893Y-62529D01*
X66908Y-62557D01*
X66908Y-62599D01*
X66893Y-62627D01*
X66879Y-62642D01*
X66851Y-62656D01*
X66739Y-62656D01*
X67076Y-62796D02*
X67048Y-62782D01*
X67034Y-62768D01*
X67020Y-62740D01*
X67020Y-62656D01*
X67034Y-62627D01*
X67048Y-62613D01*
X67076Y-62599D01*
X67118Y-62599D01*
X67147Y-62613D01*
X67161Y-62627D01*
X67175Y-62656D01*
X67175Y-62740D01*
X67161Y-62768D01*
X67147Y-62782D01*
X67118Y-62796D01*
X67076Y-62796D01*
X67273Y-62599D02*
X67329Y-62796D01*
X67386Y-62656D01*
X67442Y-62796D01*
X67498Y-62599D01*
X67723Y-62782D02*
X67695Y-62796D01*
X67639Y-62796D01*
X67611Y-62782D01*
X67597Y-62754D01*
X67597Y-62642D01*
X67611Y-62613D01*
X67639Y-62599D01*
X67695Y-62599D01*
X67723Y-62613D01*
X67737Y-62642D01*
X67737Y-62670D01*
X67597Y-62698D01*
X67864Y-62796D02*
X67864Y-62599D01*
X67864Y-62656D02*
X67878Y-62627D01*
X67892Y-62613D01*
X67920Y-62599D01*
X67948Y-62599D01*
X78919Y-58426D02*
X78919Y-58229D01*
X78984Y-58369D01*
X79050Y-58229D01*
X79050Y-58426D01*
X79172Y-58426D02*
X79153Y-58416D01*
X79144Y-58407D01*
X79134Y-58388D01*
X79134Y-58332D01*
X79144Y-58313D01*
X79153Y-58304D01*
X79172Y-58294D01*
X79200Y-58294D01*
X79219Y-58304D01*
X79228Y-58313D01*
X79237Y-58332D01*
X79237Y-58388D01*
X79228Y-58407D01*
X79219Y-58416D01*
X79200Y-58426D01*
X79172Y-58426D01*
X79294Y-58294D02*
X79369Y-58294D01*
X79322Y-58229D02*
X79322Y-58398D01*
X79331Y-58416D01*
X79350Y-58426D01*
X79369Y-58426D01*
X79462Y-58426D02*
X79444Y-58416D01*
X79434Y-58407D01*
X79425Y-58388D01*
X79425Y-58332D01*
X79434Y-58313D01*
X79444Y-58304D01*
X79462Y-58294D01*
X79491Y-58294D01*
X79509Y-58304D01*
X79519Y-58313D01*
X79528Y-58332D01*
X79528Y-58388D01*
X79519Y-58407D01*
X79509Y-58416D01*
X79491Y-58426D01*
X79462Y-58426D01*
X79612Y-58426D02*
X79612Y-58294D01*
X79612Y-58332D02*
X79622Y-58313D01*
X79631Y-58304D01*
X79650Y-58294D01*
X79669Y-58294D01*
X79875Y-58248D02*
X79884Y-58238D01*
X79903Y-58229D01*
X79950Y-58229D01*
X79969Y-58238D01*
X79978Y-58248D01*
X79987Y-58266D01*
X79987Y-58285D01*
X79978Y-58313D01*
X79865Y-58426D01*
X79987Y-58426D01*
X79125Y-58619D02*
X79200Y-58619D01*
X79153Y-58750D02*
X79153Y-58582D01*
X79162Y-58563D01*
X79181Y-58554D01*
X79200Y-58554D01*
X79350Y-58750D02*
X79350Y-58647D01*
X79341Y-58629D01*
X79322Y-58619D01*
X79284Y-58619D01*
X79266Y-58629D01*
X79350Y-58741D02*
X79331Y-58750D01*
X79284Y-58750D01*
X79266Y-58741D01*
X79256Y-58722D01*
X79256Y-58704D01*
X79266Y-58685D01*
X79284Y-58675D01*
X79331Y-58675D01*
X79350Y-58666D01*
X79528Y-58619D02*
X79528Y-58750D01*
X79444Y-58619D02*
X79444Y-58722D01*
X79453Y-58741D01*
X79472Y-58750D01*
X79500Y-58750D01*
X79519Y-58741D01*
X79528Y-58732D01*
X79650Y-58750D02*
X79631Y-58741D01*
X79622Y-58722D01*
X79622Y-58554D01*
X79697Y-58619D02*
X79772Y-58619D01*
X79725Y-58554D02*
X79725Y-58722D01*
X79734Y-58741D01*
X79753Y-58750D01*
X79772Y-58750D01*
X77659Y-58426D02*
X77659Y-58229D01*
X77724Y-58369D01*
X77790Y-58229D01*
X77790Y-58426D01*
X77912Y-58426D02*
X77893Y-58416D01*
X77884Y-58407D01*
X77874Y-58388D01*
X77874Y-58332D01*
X77884Y-58313D01*
X77893Y-58304D01*
X77912Y-58294D01*
X77940Y-58294D01*
X77959Y-58304D01*
X77968Y-58313D01*
X77978Y-58332D01*
X77978Y-58388D01*
X77968Y-58407D01*
X77959Y-58416D01*
X77940Y-58426D01*
X77912Y-58426D01*
X78034Y-58294D02*
X78109Y-58294D01*
X78062Y-58229D02*
X78062Y-58398D01*
X78071Y-58416D01*
X78090Y-58426D01*
X78109Y-58426D01*
X78203Y-58426D02*
X78184Y-58416D01*
X78174Y-58407D01*
X78165Y-58388D01*
X78165Y-58332D01*
X78174Y-58313D01*
X78184Y-58304D01*
X78203Y-58294D01*
X78231Y-58294D01*
X78249Y-58304D01*
X78259Y-58313D01*
X78268Y-58332D01*
X78268Y-58388D01*
X78259Y-58407D01*
X78249Y-58416D01*
X78231Y-58426D01*
X78203Y-58426D01*
X78353Y-58426D02*
X78353Y-58294D01*
X78353Y-58332D02*
X78362Y-58313D01*
X78371Y-58304D01*
X78390Y-58294D01*
X78409Y-58294D01*
X78727Y-58426D02*
X78615Y-58426D01*
X78671Y-58426D02*
X78671Y-58229D01*
X78652Y-58257D01*
X78634Y-58276D01*
X78615Y-58285D01*
X77865Y-58619D02*
X77940Y-58619D01*
X77893Y-58750D02*
X77893Y-58582D01*
X77903Y-58563D01*
X77921Y-58554D01*
X77940Y-58554D01*
X78090Y-58750D02*
X78090Y-58647D01*
X78081Y-58629D01*
X78062Y-58619D01*
X78024Y-58619D01*
X78006Y-58629D01*
X78090Y-58741D02*
X78071Y-58750D01*
X78024Y-58750D01*
X78006Y-58741D01*
X77996Y-58722D01*
X77996Y-58704D01*
X78006Y-58685D01*
X78024Y-58675D01*
X78071Y-58675D01*
X78090Y-58666D01*
X78268Y-58619D02*
X78268Y-58750D01*
X78184Y-58619D02*
X78184Y-58722D01*
X78193Y-58741D01*
X78212Y-58750D01*
X78240Y-58750D01*
X78259Y-58741D01*
X78268Y-58732D01*
X78390Y-58750D02*
X78371Y-58741D01*
X78362Y-58722D01*
X78362Y-58554D01*
X78437Y-58619D02*
X78512Y-58619D01*
X78465Y-58554D02*
X78465Y-58722D01*
X78474Y-58741D01*
X78493Y-58750D01*
X78512Y-58750D01*
X77010Y-58731D02*
X77038Y-58741D01*
X77085Y-58741D01*
X77104Y-58731D01*
X77113Y-58722D01*
X77123Y-58703D01*
X77123Y-58684D01*
X77113Y-58666D01*
X77104Y-58656D01*
X77085Y-58647D01*
X77048Y-58637D01*
X77029Y-58628D01*
X77020Y-58619D01*
X77010Y-58600D01*
X77010Y-58581D01*
X77020Y-58562D01*
X77029Y-58553D01*
X77048Y-58544D01*
X77095Y-58544D01*
X77123Y-58553D01*
X77207Y-58741D02*
X77207Y-58544D01*
X77254Y-58544D01*
X77282Y-58553D01*
X77301Y-58572D01*
X77310Y-58591D01*
X77320Y-58628D01*
X77320Y-58656D01*
X77310Y-58694D01*
X77301Y-58712D01*
X77282Y-58731D01*
X77254Y-58741D01*
X77207Y-58741D01*
X76014Y-58741D02*
X75948Y-58647D01*
X75901Y-58741D02*
X75901Y-58544D01*
X75976Y-58544D01*
X75995Y-58553D01*
X76004Y-58562D01*
X76014Y-58581D01*
X76014Y-58609D01*
X76004Y-58628D01*
X75995Y-58637D01*
X75976Y-58647D01*
X75901Y-58647D01*
X76070Y-58544D02*
X76182Y-58544D01*
X76126Y-58741D02*
X76126Y-58544D01*
X76361Y-58722D02*
X76351Y-58731D01*
X76323Y-58741D01*
X76304Y-58741D01*
X76276Y-58731D01*
X76257Y-58712D01*
X76248Y-58694D01*
X76239Y-58656D01*
X76239Y-58628D01*
X76248Y-58591D01*
X76257Y-58572D01*
X76276Y-58553D01*
X76304Y-58544D01*
X76323Y-58544D01*
X76351Y-58553D01*
X76361Y-58562D01*
X76436Y-58562D02*
X76445Y-58553D01*
X76464Y-58544D01*
X76511Y-58544D01*
X76529Y-58553D01*
X76539Y-58562D01*
X76548Y-58581D01*
X76548Y-58600D01*
X76539Y-58628D01*
X76426Y-58741D01*
X76548Y-58741D01*
X74990Y-58741D02*
X74925Y-58647D01*
X74878Y-58741D02*
X74878Y-58544D01*
X74953Y-58544D01*
X74971Y-58553D01*
X74981Y-58562D01*
X74990Y-58581D01*
X74990Y-58609D01*
X74981Y-58628D01*
X74971Y-58637D01*
X74953Y-58647D01*
X74878Y-58647D01*
X75046Y-58544D02*
X75159Y-58544D01*
X75103Y-58741D02*
X75103Y-58544D01*
X75337Y-58722D02*
X75328Y-58731D01*
X75299Y-58741D01*
X75281Y-58741D01*
X75253Y-58731D01*
X75234Y-58712D01*
X75224Y-58694D01*
X75215Y-58656D01*
X75215Y-58628D01*
X75224Y-58591D01*
X75234Y-58572D01*
X75253Y-58553D01*
X75281Y-58544D01*
X75299Y-58544D01*
X75328Y-58553D01*
X75337Y-58562D01*
X75524Y-58741D02*
X75412Y-58741D01*
X75468Y-58741D02*
X75468Y-58544D01*
X75449Y-58572D01*
X75431Y-58591D01*
X75412Y-58600D01*
X73910Y-58544D02*
X73957Y-58741D01*
X73995Y-58600D01*
X74032Y-58741D01*
X74079Y-58544D01*
X74154Y-58741D02*
X74154Y-58544D01*
X74313Y-58637D02*
X74248Y-58637D01*
X74248Y-58741D02*
X74248Y-58544D01*
X74341Y-58544D01*
X74416Y-58741D02*
X74416Y-58544D01*
X72882Y-58741D02*
X72882Y-58544D01*
X72948Y-58684D01*
X73013Y-58544D01*
X73013Y-58741D01*
X73107Y-58741D02*
X73107Y-58544D01*
X73182Y-58544D01*
X73201Y-58553D01*
X73210Y-58562D01*
X73219Y-58581D01*
X73219Y-58609D01*
X73210Y-58628D01*
X73201Y-58637D01*
X73182Y-58647D01*
X73107Y-58647D01*
X73304Y-58544D02*
X73304Y-58703D01*
X73313Y-58722D01*
X73323Y-58731D01*
X73341Y-58741D01*
X73379Y-58741D01*
X73398Y-58731D01*
X73407Y-58722D01*
X73416Y-58703D01*
X73416Y-58544D01*
X73221Y-57934D02*
X73277Y-57934D01*
X73305Y-57948D01*
X73333Y-57976D01*
X73347Y-58032D01*
X73347Y-58131D01*
X73333Y-58187D01*
X73305Y-58215D01*
X73277Y-58229D01*
X73221Y-58229D01*
X73193Y-58215D01*
X73165Y-58187D01*
X73151Y-58131D01*
X73151Y-58032D01*
X73165Y-57976D01*
X73193Y-57948D01*
X73221Y-57934D01*
X73474Y-58032D02*
X73474Y-58328D01*
X73474Y-58046D02*
X73502Y-58032D01*
X73558Y-58032D01*
X73586Y-58046D01*
X73600Y-58061D01*
X73615Y-58089D01*
X73615Y-58173D01*
X73600Y-58201D01*
X73586Y-58215D01*
X73558Y-58229D01*
X73502Y-58229D01*
X73474Y-58215D01*
X73699Y-58032D02*
X73811Y-58032D01*
X73741Y-57934D02*
X73741Y-58187D01*
X73755Y-58215D01*
X73783Y-58229D01*
X73811Y-58229D01*
X73910Y-58229D02*
X73910Y-58032D01*
X73910Y-57934D02*
X73896Y-57948D01*
X73910Y-57962D01*
X73924Y-57948D01*
X73910Y-57934D01*
X73910Y-57962D01*
X74093Y-58229D02*
X74064Y-58215D01*
X74050Y-58201D01*
X74036Y-58173D01*
X74036Y-58089D01*
X74050Y-58061D01*
X74064Y-58046D01*
X74093Y-58032D01*
X74135Y-58032D01*
X74163Y-58046D01*
X74177Y-58061D01*
X74191Y-58089D01*
X74191Y-58173D01*
X74177Y-58201D01*
X74163Y-58215D01*
X74135Y-58229D01*
X74093Y-58229D01*
X74318Y-58032D02*
X74318Y-58229D01*
X74318Y-58061D02*
X74332Y-58046D01*
X74360Y-58032D01*
X74402Y-58032D01*
X74430Y-58046D01*
X74444Y-58075D01*
X74444Y-58229D01*
X74711Y-58229D02*
X74711Y-58075D01*
X74697Y-58046D01*
X74669Y-58032D01*
X74613Y-58032D01*
X74585Y-58046D01*
X74711Y-58215D02*
X74683Y-58229D01*
X74613Y-58229D01*
X74585Y-58215D01*
X74571Y-58187D01*
X74571Y-58159D01*
X74585Y-58131D01*
X74613Y-58117D01*
X74683Y-58117D01*
X74711Y-58103D01*
X74894Y-58229D02*
X74866Y-58215D01*
X74852Y-58187D01*
X74852Y-57934D01*
X75232Y-58229D02*
X75232Y-57934D01*
X75372Y-58032D02*
X75372Y-58229D01*
X75372Y-58061D02*
X75386Y-58046D01*
X75414Y-58032D01*
X75456Y-58032D01*
X75485Y-58046D01*
X75499Y-58075D01*
X75499Y-58229D01*
X75597Y-58032D02*
X75710Y-58032D01*
X75639Y-57934D02*
X75639Y-58187D01*
X75653Y-58215D01*
X75681Y-58229D01*
X75710Y-58229D01*
X75920Y-58215D02*
X75892Y-58229D01*
X75836Y-58229D01*
X75808Y-58215D01*
X75794Y-58187D01*
X75794Y-58075D01*
X75808Y-58046D01*
X75836Y-58032D01*
X75892Y-58032D01*
X75920Y-58046D01*
X75935Y-58075D01*
X75935Y-58103D01*
X75794Y-58131D01*
X76061Y-58229D02*
X76061Y-58032D01*
X76061Y-58089D02*
X76075Y-58061D01*
X76089Y-58046D01*
X76117Y-58032D01*
X76145Y-58032D01*
X76244Y-58229D02*
X76244Y-58032D01*
X76244Y-58089D02*
X76258Y-58061D01*
X76272Y-58046D01*
X76300Y-58032D01*
X76328Y-58032D01*
X76553Y-58032D02*
X76553Y-58229D01*
X76427Y-58032D02*
X76427Y-58187D01*
X76441Y-58215D01*
X76469Y-58229D01*
X76511Y-58229D01*
X76539Y-58215D01*
X76553Y-58201D01*
X76694Y-58032D02*
X76694Y-58328D01*
X76694Y-58046D02*
X76722Y-58032D01*
X76778Y-58032D01*
X76806Y-58046D01*
X76820Y-58061D01*
X76834Y-58089D01*
X76834Y-58173D01*
X76820Y-58201D01*
X76806Y-58215D01*
X76778Y-58229D01*
X76722Y-58229D01*
X76694Y-58215D01*
X76919Y-58032D02*
X77031Y-58032D01*
X76961Y-57934D02*
X76961Y-58187D01*
X76975Y-58215D01*
X77003Y-58229D01*
X77031Y-58229D01*
X77116Y-58215D02*
X77144Y-58229D01*
X77200Y-58229D01*
X77228Y-58215D01*
X77242Y-58187D01*
X77242Y-58173D01*
X77228Y-58145D01*
X77200Y-58131D01*
X77158Y-58131D01*
X77130Y-58117D01*
X77116Y-58089D01*
X77116Y-58075D01*
X77130Y-58046D01*
X77158Y-58032D01*
X77200Y-58032D01*
X77228Y-58046D01*
X70952Y-58553D02*
X70933Y-58544D01*
X70905Y-58544D01*
X70877Y-58553D01*
X70858Y-58572D01*
X70849Y-58591D01*
X70839Y-58628D01*
X70839Y-58656D01*
X70849Y-58694D01*
X70858Y-58712D01*
X70877Y-58731D01*
X70905Y-58741D01*
X70924Y-58741D01*
X70952Y-58731D01*
X70961Y-58722D01*
X70961Y-58656D01*
X70924Y-58656D01*
X71046Y-58741D02*
X71046Y-58544D01*
X71158Y-58741D01*
X71158Y-58544D01*
X71252Y-58741D02*
X71252Y-58544D01*
X71299Y-58544D01*
X71327Y-58553D01*
X71346Y-58572D01*
X71355Y-58591D01*
X71364Y-58628D01*
X71364Y-58656D01*
X71355Y-58694D01*
X71346Y-58712D01*
X71327Y-58731D01*
X71299Y-58741D01*
X71252Y-58741D01*
X69835Y-58544D02*
X69956Y-58544D01*
X69891Y-58619D01*
X69919Y-58619D01*
X69938Y-58628D01*
X69947Y-58637D01*
X69956Y-58656D01*
X69956Y-58703D01*
X69947Y-58722D01*
X69938Y-58731D01*
X69919Y-58741D01*
X69863Y-58741D01*
X69844Y-58731D01*
X69835Y-58722D01*
X70013Y-58544D02*
X70078Y-58741D01*
X70144Y-58544D01*
X70191Y-58544D02*
X70313Y-58544D01*
X70247Y-58619D01*
X70275Y-58619D01*
X70294Y-58628D01*
X70303Y-58637D01*
X70313Y-58656D01*
X70313Y-58703D01*
X70303Y-58722D01*
X70294Y-58731D01*
X70275Y-58741D01*
X70219Y-58741D01*
X70200Y-58731D01*
X70191Y-58722D01*
X69022Y-58741D02*
X68956Y-58647D01*
X68909Y-58741D02*
X68909Y-58544D01*
X68984Y-58544D01*
X69003Y-58553D01*
X69012Y-58562D01*
X69022Y-58581D01*
X69022Y-58609D01*
X69012Y-58628D01*
X69003Y-58637D01*
X68984Y-58647D01*
X68909Y-58647D01*
X69087Y-58544D02*
X69219Y-58741D01*
X69219Y-58544D02*
X69087Y-58741D01*
X67960Y-58544D02*
X68072Y-58544D01*
X68016Y-58741D02*
X68016Y-58544D01*
X68119Y-58544D02*
X68250Y-58741D01*
X68250Y-58544D02*
X68119Y-58741D01*
G54D12*
X99685Y-59291D02*
X99685Y-52283D01*
X102283Y-61889D02*
X99685Y-59291D01*
X98818Y-60866D02*
X100000Y-62047D01*
X98818Y-52283D02*
X98818Y-60866D01*
X59606Y-51496D02*
X59370Y-51496D01*
X59685Y-51417D02*
X59606Y-51496D01*
X64881Y-46220D02*
X59685Y-51417D01*
X73464Y-46220D02*
X64881Y-46220D01*
X75354Y-44330D02*
X73464Y-46220D01*
X75905Y-46141D02*
X77559Y-44488D01*
X78661Y-46141D02*
X75905Y-46141D01*
X79133Y-46614D02*
X78661Y-46141D01*
X79133Y-47559D02*
X79133Y-46614D01*
X80787Y-49212D02*
X79133Y-47559D01*
X84251Y-49212D02*
X80787Y-49212D01*
X84566Y-48897D02*
X84251Y-49212D01*
X84566Y-45826D02*
X84566Y-48897D01*
X85039Y-46299D02*
X85669Y-45669D01*
X85039Y-48976D02*
X85039Y-46299D01*
X85275Y-49212D02*
X85039Y-48976D01*
X92047Y-49212D02*
X85275Y-49212D01*
X92125Y-49133D02*
X92047Y-49212D01*
X92362Y-49133D02*
X92125Y-49133D01*
X92992Y-48503D02*
X92362Y-49133D01*
X92992Y-48267D02*
X92992Y-48503D01*
X92913Y-49055D02*
X93700Y-48267D01*
X92913Y-49133D02*
X92913Y-49055D01*
X92992Y-49212D02*
X92913Y-49133D01*
X98503Y-49212D02*
X92992Y-49212D01*
X98582Y-49133D02*
X98503Y-49212D01*
X98740Y-49133D02*
X98582Y-49133D01*
X98818Y-49212D02*
X98740Y-49133D01*
X98976Y-49212D02*
X98818Y-49212D01*
X99133Y-49055D02*
X98976Y-49212D01*
X99133Y-47716D02*
X99133Y-49055D01*
X99606Y-47244D02*
X99133Y-47716D01*
X101102Y-47244D02*
X99606Y-47244D01*
X101181Y-47165D02*
X101102Y-47244D01*
X102913Y-47165D02*
X101181Y-47165D01*
X102992Y-47086D02*
X102913Y-47165D01*
X102992Y-46535D02*
X102992Y-47086D01*
X103228Y-46299D02*
X102992Y-46535D01*
X103858Y-46299D02*
X103228Y-46299D01*
X104015Y-46141D02*
X103858Y-46299D01*
X104015Y-44409D02*
X104015Y-46141D01*
X104251Y-44173D02*
X104015Y-44409D01*
X105196Y-44488D02*
X105354Y-44330D01*
X105196Y-47086D02*
X105196Y-44488D01*
X104645Y-47637D02*
X105196Y-47086D01*
X99842Y-47637D02*
X104645Y-47637D01*
X99527Y-47952D02*
X99842Y-47637D01*
X99527Y-49133D02*
X99527Y-47952D01*
X99212Y-49448D02*
X99527Y-49133D01*
X99921Y-50157D02*
X99212Y-49448D01*
X99921Y-50629D02*
X99921Y-50157D01*
X99448Y-50157D02*
X99448Y-50866D01*
X99055Y-49763D02*
X99448Y-50157D01*
X80393Y-49763D02*
X99055Y-49763D01*
X78503Y-47874D02*
X80393Y-49763D01*
X78503Y-47007D02*
X78503Y-47874D01*
X78267Y-46771D02*
X78503Y-47007D01*
X65196Y-46771D02*
X78267Y-46771D01*
X59685Y-52283D02*
X65196Y-46771D01*
X59370Y-52283D02*
X59685Y-52283D01*
X59606Y-61496D02*
X59763Y-61653D01*
X59606Y-61338D02*
X59606Y-61496D01*
X59133Y-59448D02*
X59370Y-59685D01*
X58267Y-59685D02*
X58503Y-59448D01*
X58425Y-61574D02*
X58425Y-60629D01*
X58661Y-61811D02*
X58425Y-61574D01*
X59606Y-61338D02*
X59606Y-60314D01*
X69763Y-60629D02*
X70000Y-60866D01*
X78188Y-60629D02*
X69763Y-60629D01*
X79370Y-61811D02*
X78188Y-60629D01*
X79763Y-61811D02*
X79370Y-61811D01*
X79527Y-61417D02*
X79763Y-61417D01*
X79527Y-61259D02*
X79527Y-61417D01*
X79606Y-61181D02*
X79527Y-61259D01*
X79606Y-61023D02*
X79606Y-61181D01*
X80708Y-59921D02*
X79606Y-61023D01*
X89291Y-59921D02*
X80708Y-59921D01*
X87007Y-59527D02*
X89291Y-59527D01*
X88110Y-58425D02*
X87007Y-59527D01*
X88267Y-58425D02*
X88110Y-58425D01*
X88503Y-58425D02*
X88267Y-58425D01*
X88582Y-58346D02*
X88503Y-58425D01*
X91259Y-58346D02*
X88582Y-58346D01*
X92834Y-59921D02*
X91259Y-58346D01*
X92992Y-59921D02*
X92834Y-59921D01*
X91496Y-57952D02*
X88503Y-57952D01*
X91496Y-57952D02*
X92992Y-59448D01*
X88503Y-54566D02*
X88503Y-57952D01*
X91574Y-51496D02*
X88503Y-54566D01*
X103070Y-51496D02*
X91574Y-51496D01*
X105039Y-49527D02*
X103070Y-51496D01*
X103779Y-50236D02*
X103779Y-49606D01*
X102913Y-51102D02*
X103779Y-50236D01*
X91338Y-51102D02*
X102913Y-51102D01*
X89763Y-52677D02*
X91338Y-51102D01*
X89606Y-52677D02*
X89763Y-52677D01*
X89527Y-52755D02*
X89606Y-52677D01*
X89527Y-53228D02*
X89527Y-52755D01*
X88503Y-54251D02*
X89527Y-53228D01*
X88503Y-53858D02*
X88503Y-54251D01*
X88031Y-57874D02*
X88031Y-53858D01*
X86299Y-59606D02*
X88031Y-57874D01*
X80472Y-59606D02*
X86299Y-59606D01*
X79291Y-60787D02*
X80472Y-59606D01*
X78976Y-60787D02*
X79291Y-60787D01*
X78346Y-60157D02*
X78976Y-60787D01*
X69370Y-60629D02*
X69606Y-60866D01*
X69055Y-60629D02*
X69370Y-60629D01*
X67637Y-60629D02*
X69055Y-60629D01*
X63464Y-56456D02*
X67637Y-60629D01*
X61653Y-56456D02*
X63464Y-56456D01*
X61496Y-56614D02*
X61653Y-56456D01*
X60708Y-56614D02*
X61496Y-56614D01*
X60551Y-56456D02*
X60708Y-56614D01*
X59527Y-56456D02*
X60551Y-56456D01*
X59055Y-56929D02*
X59527Y-56456D01*
X58582Y-56771D02*
X58582Y-56929D01*
X59921Y-55433D02*
X58582Y-56771D01*
X60629Y-55433D02*
X59921Y-55433D01*
X60787Y-55275D02*
X60629Y-55433D01*
X61417Y-55275D02*
X60787Y-55275D01*
X61574Y-55433D02*
X61417Y-55275D01*
X62913Y-55433D02*
X61574Y-55433D01*
X67637Y-60157D02*
X62913Y-55433D01*
X78346Y-60157D02*
X67637Y-60157D01*
G54D13*
X70016Y-47533D02*
X70101Y-47561D01*
X70241Y-47561D01*
X70298Y-47533D01*
X70326Y-47505D01*
X70354Y-47449D01*
X70354Y-47393D01*
X70326Y-47336D01*
X70298Y-47308D01*
X70241Y-47280D01*
X70129Y-47252D01*
X70073Y-47224D01*
X70044Y-47196D01*
X70016Y-47140D01*
X70016Y-47083D01*
X70044Y-47027D01*
X70073Y-46999D01*
X70129Y-46971D01*
X70269Y-46971D01*
X70354Y-46999D01*
X70607Y-47561D02*
X70607Y-46971D01*
X70832Y-46971D01*
X70888Y-46999D01*
X70916Y-47027D01*
X70944Y-47083D01*
X70944Y-47168D01*
X70916Y-47224D01*
X70888Y-47252D01*
X70832Y-47280D01*
X70607Y-47280D01*
X71197Y-47561D02*
X71197Y-46971D01*
X72125Y-47252D02*
X72210Y-47280D01*
X72238Y-47308D01*
X72266Y-47365D01*
X72266Y-47449D01*
X72238Y-47505D01*
X72210Y-47533D01*
X72154Y-47561D01*
X71929Y-47561D01*
X71929Y-46971D01*
X72125Y-46971D01*
X72182Y-46999D01*
X72210Y-47027D01*
X72238Y-47083D01*
X72238Y-47140D01*
X72210Y-47196D01*
X72182Y-47224D01*
X72125Y-47252D01*
X71929Y-47252D01*
X72519Y-46971D02*
X72519Y-47449D01*
X72547Y-47505D01*
X72575Y-47533D01*
X72632Y-47561D01*
X72744Y-47561D01*
X72800Y-47533D01*
X72829Y-47505D01*
X72857Y-47449D01*
X72857Y-46971D01*
X73110Y-47533D02*
X73194Y-47561D01*
X73335Y-47561D01*
X73391Y-47533D01*
X73419Y-47505D01*
X73447Y-47449D01*
X73447Y-47393D01*
X73419Y-47336D01*
X73391Y-47308D01*
X73335Y-47280D01*
X73222Y-47252D01*
X73166Y-47224D01*
X73138Y-47196D01*
X73110Y-47140D01*
X73110Y-47083D01*
X73138Y-47027D01*
X73166Y-46999D01*
X73222Y-46971D01*
X73363Y-46971D01*
X73447Y-46999D01*
X89021Y-57640D02*
X89021Y-57050D01*
X89274Y-57106D02*
X89302Y-57078D01*
X89358Y-57050D01*
X89499Y-57050D01*
X89555Y-57078D01*
X89583Y-57106D01*
X89611Y-57162D01*
X89611Y-57218D01*
X89583Y-57303D01*
X89246Y-57640D01*
X89611Y-57640D01*
X90202Y-57584D02*
X90174Y-57612D01*
X90089Y-57640D01*
X90033Y-57640D01*
X89949Y-57612D01*
X89893Y-57556D01*
X89865Y-57500D01*
X89836Y-57387D01*
X89836Y-57303D01*
X89865Y-57190D01*
X89893Y-57134D01*
X89949Y-57078D01*
X90033Y-57050D01*
X90089Y-57050D01*
X90174Y-57078D01*
X90202Y-57106D01*
X91102Y-57331D02*
X91186Y-57359D01*
X91214Y-57387D01*
X91242Y-57443D01*
X91242Y-57528D01*
X91214Y-57584D01*
X91186Y-57612D01*
X91130Y-57640D01*
X90905Y-57640D01*
X90905Y-57050D01*
X91102Y-57050D01*
X91158Y-57078D01*
X91186Y-57106D01*
X91214Y-57162D01*
X91214Y-57218D01*
X91186Y-57275D01*
X91158Y-57303D01*
X91102Y-57331D01*
X90905Y-57331D01*
X91496Y-57050D02*
X91496Y-57528D01*
X91524Y-57584D01*
X91552Y-57612D01*
X91608Y-57640D01*
X91721Y-57640D01*
X91777Y-57612D01*
X91805Y-57584D01*
X91833Y-57528D01*
X91833Y-57050D01*
X92086Y-57612D02*
X92170Y-57640D01*
X92311Y-57640D01*
X92367Y-57612D01*
X92395Y-57584D01*
X92424Y-57528D01*
X92424Y-57471D01*
X92395Y-57415D01*
X92367Y-57387D01*
X92311Y-57359D01*
X92199Y-57331D01*
X92142Y-57303D01*
X92114Y-57275D01*
X92086Y-57218D01*
X92086Y-57162D01*
X92114Y-57106D01*
X92142Y-57078D01*
X92199Y-57050D01*
X92339Y-57050D01*
X92424Y-57078D01*
G54D14*
X96259Y-46811D02*
X98228Y-46811D01*
X96259Y-46811D02*
X96259Y-62913D01*
X78464Y-60866D02*
X78464Y-61259D01*
X65500Y-43500D02*
X61500Y-43500D01*
X65500Y-62500D02*
X65500Y-43500D01*
X61500Y-62500D02*
X65500Y-62500D01*
X96250Y-46805D02*
X96250Y-47305D01*
G54D12*
X60539Y-62539D02*
X60539Y-43460D01*
X60539Y-43460D02*
X50460Y-43460D01*
X50460Y-43460D02*
X50460Y-62539D01*
X50460Y-62539D02*
X60539Y-62539D01*
X107976Y-62775D02*
X107976Y-47696D01*
X107976Y-47696D02*
X99897Y-47696D01*
X99897Y-47696D02*
X99897Y-62775D01*
X99897Y-62775D02*
X107976Y-62775D01*
X83636Y-60774D02*
X83636Y-60025D01*
X83636Y-60025D02*
X81274Y-60025D01*
X81274Y-60025D02*
X81274Y-60774D01*
X81274Y-60774D02*
X83636Y-60774D01*
X81274Y-60400D02*
G75*
G03X81274Y-60400I-374J0D01*
G74*
G01*
G54D11*
X80201Y-60025D02*
G75*
G03X80201Y-60025I-49J0D01*
G74*
G01*
G54D15*
X67470Y-55199D02*
G75*
G03X67470Y-55199I-50J0D01*
G74*
G01*
X67870Y-55199D02*
X67470Y-55199D01*
X67470Y-55199D02*
X67470Y-54599D01*
X67470Y-54599D02*
X67870Y-54599D01*
X68270Y-54599D02*
X68670Y-54599D01*
X68670Y-54599D02*
X68670Y-55199D01*
X68670Y-55199D02*
X68270Y-55199D01*
X95300Y-46900D02*
G75*
G03X95300Y-46900I-50J0D01*
G74*
G01*
X95250Y-47350D02*
X95250Y-46950D01*
X95250Y-46950D02*
X95850Y-46950D01*
X95850Y-46950D02*
X95850Y-47350D01*
X95850Y-47750D02*
X95850Y-48150D01*
X95850Y-48150D02*
X95250Y-48150D01*
X95250Y-48150D02*
X95250Y-47750D01*
X95300Y-45400D02*
G75*
G03X95300Y-45400I-50J0D01*
G74*
G01*
X95250Y-45850D02*
X95250Y-45450D01*
X95250Y-45450D02*
X95850Y-45450D01*
X95850Y-45450D02*
X95850Y-45850D01*
X95850Y-46250D02*
X95850Y-46650D01*
X95850Y-46650D02*
X95250Y-46650D01*
X95250Y-46650D02*
X95250Y-46250D01*
X106470Y-45704D02*
G75*
G03X106470Y-45704I-50J0D01*
G74*
G01*
X106420Y-46154D02*
X106420Y-45754D01*
X106420Y-45754D02*
X107020Y-45754D01*
X107020Y-45754D02*
X107020Y-46154D01*
X107020Y-46554D02*
X107020Y-46954D01*
X107020Y-46954D02*
X106420Y-46954D01*
X106420Y-46954D02*
X106420Y-46554D01*
X67459Y-57203D02*
G75*
G03X67459Y-57203I-50J0D01*
G74*
G01*
X67859Y-57203D02*
X67459Y-57203D01*
X67459Y-57203D02*
X67459Y-56603D01*
X67459Y-56603D02*
X67859Y-56603D01*
X68259Y-56603D02*
X68659Y-56603D01*
X68659Y-56603D02*
X68659Y-57203D01*
X68659Y-57203D02*
X68259Y-57203D01*
X66050Y-51850D02*
G75*
G03X66050Y-51850I-50J0D01*
G74*
G01*
X66000Y-52300D02*
X66000Y-51900D01*
X66000Y-51900D02*
X66600Y-51900D01*
X66600Y-51900D02*
X66600Y-52300D01*
X66600Y-52700D02*
X66600Y-53100D01*
X66600Y-53100D02*
X66000Y-53100D01*
X66000Y-53100D02*
X66000Y-52700D01*
X66650Y-50950D02*
G75*
G03X66650Y-50950I-50J0D01*
G74*
G01*
X66600Y-50500D02*
X66600Y-50900D01*
X66600Y-50900D02*
X66000Y-50900D01*
X66000Y-50900D02*
X66000Y-50500D01*
X66000Y-50100D02*
X66000Y-49700D01*
X66000Y-49700D02*
X66600Y-49700D01*
X66600Y-49700D02*
X66600Y-50100D01*
X76550Y-50250D02*
G75*
G03X76550Y-50250I-50J0D01*
G74*
G01*
X76500Y-49800D02*
X76500Y-50200D01*
X76500Y-50200D02*
X75900Y-50200D01*
X75900Y-50200D02*
X75900Y-49800D01*
X75900Y-49400D02*
X75900Y-49000D01*
X75900Y-49000D02*
X76500Y-49000D01*
X76500Y-49000D02*
X76500Y-49400D01*
X84309Y-60681D02*
G75*
G03X84309Y-60681I-50J0D01*
G74*
G01*
X84709Y-60681D02*
X84309Y-60681D01*
X84309Y-60681D02*
X84309Y-60081D01*
X84309Y-60081D02*
X84709Y-60081D01*
X85109Y-60081D02*
X85509Y-60081D01*
X85509Y-60081D02*
X85509Y-60681D01*
X85509Y-60681D02*
X85109Y-60681D01*
X92627Y-60727D02*
G75*
G03X92627Y-60727I-50J0D01*
G74*
G01*
X92577Y-61177D02*
X92577Y-60777D01*
X92577Y-60777D02*
X93177Y-60777D01*
X93177Y-60777D02*
X93177Y-61177D01*
X93177Y-61577D02*
X93177Y-61977D01*
X93177Y-61977D02*
X92577Y-61977D01*
X92577Y-61977D02*
X92577Y-61577D01*
X96150Y-60650D02*
G75*
G03X96150Y-60650I-50J0D01*
G74*
G01*
X96100Y-61100D02*
X96100Y-60700D01*
X96100Y-60700D02*
X96700Y-60700D01*
X96700Y-60700D02*
X96700Y-61100D01*
X96700Y-61500D02*
X96700Y-61900D01*
X96700Y-61900D02*
X96100Y-61900D01*
X96100Y-61900D02*
X96100Y-61500D01*
X87900Y-54100D02*
G75*
G03X87900Y-54100I-50J0D01*
G74*
G01*
X87400Y-54100D02*
X87800Y-54100D01*
X87800Y-54100D02*
X87800Y-54700D01*
X87800Y-54700D02*
X87400Y-54700D01*
X87000Y-54700D02*
X86600Y-54700D01*
X86600Y-54700D02*
X86600Y-54100D01*
X86600Y-54100D02*
X87000Y-54100D01*
X87750Y-50950D02*
G75*
G03X87750Y-50950I-50J0D01*
G74*
G01*
X87250Y-50950D02*
X87650Y-50950D01*
X87650Y-50950D02*
X87650Y-51550D01*
X87650Y-51550D02*
X87250Y-51550D01*
X86850Y-51550D02*
X86450Y-51550D01*
X86450Y-51550D02*
X86450Y-50950D01*
X86450Y-50950D02*
X86850Y-50950D01*
X86000Y-52150D02*
G75*
G03X86000Y-52150I-50J0D01*
G74*
G01*
X85950Y-52600D02*
X85950Y-52200D01*
X85950Y-52200D02*
X86550Y-52200D01*
X86550Y-52200D02*
X86550Y-52600D01*
X86550Y-53000D02*
X86550Y-53400D01*
X86550Y-53400D02*
X85950Y-53400D01*
X85950Y-53400D02*
X85950Y-53000D01*
X87950Y-51550D02*
G75*
G03X87950Y-51550I-50J0D01*
G74*
G01*
X88350Y-51550D02*
X87950Y-51550D01*
X87950Y-51550D02*
X87950Y-50950D01*
X87950Y-50950D02*
X88350Y-50950D01*
X88750Y-50950D02*
X89150Y-50950D01*
X89150Y-50950D02*
X89150Y-51550D01*
X89150Y-51550D02*
X88750Y-51550D01*
X60850Y-54550D02*
G75*
G03X60850Y-54550I-50J0D01*
G74*
G01*
X60800Y-55000D02*
X60800Y-54600D01*
X60800Y-54600D02*
X61400Y-54600D01*
X61400Y-54600D02*
X61400Y-55000D01*
X61400Y-55400D02*
X61400Y-55800D01*
X61400Y-55800D02*
X60800Y-55800D01*
X60800Y-55800D02*
X60800Y-55400D01*
X61450Y-57350D02*
G75*
G03X61450Y-57350I-50J0D01*
G74*
G01*
X61400Y-56900D02*
X61400Y-57300D01*
X61400Y-57300D02*
X60800Y-57300D01*
X60800Y-57300D02*
X60800Y-56900D01*
X60800Y-56500D02*
X60800Y-56100D01*
X60800Y-56100D02*
X61400Y-56100D01*
X61400Y-56100D02*
X61400Y-56500D01*
X85030Y-61944D02*
G75*
G03X85030Y-61944I-50J0D01*
G74*
G01*
X84530Y-61944D02*
X84930Y-61944D01*
X84930Y-61944D02*
X84930Y-62544D01*
X84930Y-62544D02*
X84530Y-62544D01*
X84130Y-62544D02*
X83730Y-62544D01*
X83730Y-62544D02*
X83730Y-61944D01*
X83730Y-61944D02*
X84130Y-61944D01*
X85030Y-61117D02*
G75*
G03X85030Y-61117I-50J0D01*
G74*
G01*
X84530Y-61117D02*
X84930Y-61117D01*
X84930Y-61117D02*
X84930Y-61717D01*
X84930Y-61717D02*
X84530Y-61717D01*
X84130Y-61717D02*
X83730Y-61717D01*
X83730Y-61717D02*
X83730Y-61117D01*
X83730Y-61117D02*
X84130Y-61117D01*
X107368Y-45712D02*
G75*
G03X107368Y-45712I-50J0D01*
G74*
G01*
X107318Y-46162D02*
X107318Y-45762D01*
X107318Y-45762D02*
X107918Y-45762D01*
X107918Y-45762D02*
X107918Y-46162D01*
X107918Y-46562D02*
X107918Y-46962D01*
X107918Y-46962D02*
X107318Y-46962D01*
X107318Y-46962D02*
X107318Y-46562D01*
X86222Y-60697D02*
G75*
G03X86222Y-60697I-50J0D01*
G74*
G01*
X86622Y-60697D02*
X86222Y-60697D01*
X86222Y-60697D02*
X86222Y-60097D01*
X86222Y-60097D02*
X86622Y-60097D01*
X87022Y-60097D02*
X87422Y-60097D01*
X87422Y-60097D02*
X87422Y-60697D01*
X87422Y-60697D02*
X87022Y-60697D01*
X67490Y-54191D02*
G75*
G03X67490Y-54191I-50J0D01*
G74*
G01*
X67890Y-54191D02*
X67490Y-54191D01*
X67490Y-54191D02*
X67490Y-53591D01*
X67490Y-53591D02*
X67890Y-53591D01*
X68290Y-53591D02*
X68690Y-53591D01*
X68690Y-53591D02*
X68690Y-54191D01*
X68690Y-54191D02*
X68290Y-54191D01*
X103320Y-45747D02*
G75*
G03X103320Y-45747I-50J0D01*
G74*
G01*
X103270Y-46197D02*
X103270Y-45797D01*
X103270Y-45797D02*
X103870Y-45797D01*
X103870Y-45797D02*
X103870Y-46197D01*
X103870Y-46597D02*
X103870Y-46997D01*
X103870Y-46997D02*
X103270Y-46997D01*
X103270Y-46997D02*
X103270Y-46597D01*
X105505Y-45724D02*
G75*
G03X105505Y-45724I-50J0D01*
G74*
G01*
X105455Y-46174D02*
X105455Y-45774D01*
X105455Y-45774D02*
X106055Y-45774D01*
X106055Y-45774D02*
X106055Y-46174D01*
X106055Y-46574D02*
X106055Y-46974D01*
X106055Y-46974D02*
X105455Y-46974D01*
X105455Y-46974D02*
X105455Y-46574D01*
X102348Y-45727D02*
G75*
G03X102348Y-45727I-50J0D01*
G74*
G01*
X102298Y-46177D02*
X102298Y-45777D01*
X102298Y-45777D02*
X102898Y-45777D01*
X102898Y-45777D02*
X102898Y-46177D01*
X102898Y-46577D02*
X102898Y-46977D01*
X102898Y-46977D02*
X102298Y-46977D01*
X102298Y-46977D02*
X102298Y-46577D01*
X101364Y-45747D02*
G75*
G03X101364Y-45747I-50J0D01*
G74*
G01*
X101314Y-46197D02*
X101314Y-45797D01*
X101314Y-45797D02*
X101914Y-45797D01*
X101914Y-45797D02*
X101914Y-46197D01*
X101914Y-46597D02*
X101914Y-46997D01*
X101914Y-46997D02*
X101314Y-46997D01*
X101314Y-46997D02*
X101314Y-46597D01*
X100360Y-45747D02*
G75*
G03X100360Y-45747I-50J0D01*
G74*
G01*
X100310Y-46197D02*
X100310Y-45797D01*
X100310Y-45797D02*
X100910Y-45797D01*
X100910Y-45797D02*
X100910Y-46197D01*
X100910Y-46597D02*
X100910Y-46997D01*
X100910Y-46997D02*
X100310Y-46997D01*
X100310Y-46997D02*
X100310Y-46597D01*
X99356Y-45727D02*
G75*
G03X99356Y-45727I-50J0D01*
G74*
G01*
X99306Y-46177D02*
X99306Y-45777D01*
X99306Y-45777D02*
X99906Y-45777D01*
X99906Y-45777D02*
X99906Y-46177D01*
X99906Y-46577D02*
X99906Y-46977D01*
X99906Y-46977D02*
X99306Y-46977D01*
X99306Y-46977D02*
X99306Y-46577D01*
X98372Y-45747D02*
G75*
G03X98372Y-45747I-50J0D01*
G74*
G01*
X98322Y-46197D02*
X98322Y-45797D01*
X98322Y-45797D02*
X98922Y-45797D01*
X98922Y-45797D02*
X98922Y-46197D01*
X98922Y-46597D02*
X98922Y-46997D01*
X98922Y-46997D02*
X98322Y-46997D01*
X98322Y-46997D02*
X98322Y-46597D01*
X77400Y-50250D02*
G75*
G03X77400Y-50250I-50J0D01*
G74*
G01*
X77350Y-49800D02*
X77350Y-50200D01*
X77350Y-50200D02*
X76750Y-50200D01*
X76750Y-50200D02*
X76750Y-49800D01*
X76750Y-49400D02*
X76750Y-49000D01*
X76750Y-49000D02*
X77350Y-49000D01*
X77350Y-49000D02*
X77350Y-49400D01*
G54D16*
X74153Y-44594D02*
X74153Y-43594D01*
X69153Y-43594D02*
X69153Y-44594D01*
X74153Y-44594D02*
X69153Y-44594D01*
X69153Y-43594D02*
X74153Y-43594D01*
G54D17*
X72866Y-61917D02*
X68866Y-61917D01*
X72866Y-60917D02*
X68866Y-60917D01*
X68866Y-60917D02*
X68866Y-61917D01*
X72866Y-61917D02*
X72866Y-60917D01*
X89401Y-61917D02*
X85401Y-61917D01*
X89401Y-60917D02*
X85401Y-60917D01*
X85401Y-60917D02*
X85401Y-61917D01*
X89401Y-61917D02*
X89401Y-60917D01*
G54D18*
X66322Y-61917D02*
X66322Y-60917D01*
X66322Y-60917D02*
X68322Y-60917D01*
X68322Y-60917D02*
X68322Y-61917D01*
X68322Y-61917D02*
X66322Y-61917D01*
X92338Y-60917D02*
X92338Y-61917D01*
X92338Y-61917D02*
X90338Y-61917D01*
X90338Y-61917D02*
X90338Y-60917D01*
X90338Y-60917D02*
X92338Y-60917D01*
X91550Y-44550D02*
X91550Y-43550D01*
X91550Y-43550D02*
X93550Y-43550D01*
X93550Y-43550D02*
X93550Y-44550D01*
X93550Y-44550D02*
X91550Y-44550D01*
X95488Y-60917D02*
X95488Y-61917D01*
X95488Y-61917D02*
X93488Y-61917D01*
X93488Y-61917D02*
X93488Y-60917D01*
X93488Y-60917D02*
X95488Y-60917D01*
G54D12*
X88405Y-52303D02*
X87342Y-52303D01*
X87342Y-52303D02*
X87342Y-53366D01*
X87342Y-53366D02*
X88405Y-53366D01*
X88405Y-53366D02*
X88405Y-52303D01*
G54D11*
X88316Y-53228D02*
G75*
G03X88316Y-53228I-49J0D01*
G74*
G01*
G54D12*
X94842Y-47479D02*
X94842Y-46220D01*
X94842Y-46220D02*
X91357Y-46220D01*
X91357Y-46220D02*
X91357Y-47479D01*
X91357Y-47479D02*
X94842Y-47479D01*
G54D11*
X91649Y-47243D02*
G75*
G03X91649Y-47243I-49J0D01*
G74*
G01*
G54D19*
X69978Y-53927D02*
X70056Y-53927D01*
X70056Y-53927D02*
X70056Y-53849D01*
X69978Y-53849D02*
X70056Y-53849D01*
X69978Y-53927D02*
X69978Y-53849D01*
X70194Y-54163D02*
X70331Y-54163D01*
X70331Y-54163D02*
X70331Y-54065D01*
X70194Y-54065D02*
X70331Y-54065D01*
X70194Y-54163D02*
X70194Y-54065D01*
X70331Y-54163D02*
X70371Y-54163D01*
X70371Y-54163D02*
X70371Y-53692D01*
X70331Y-53692D02*
X70371Y-53692D01*
X70331Y-54163D02*
X70331Y-53692D01*
X70331Y-53672D02*
X70371Y-53672D01*
X70371Y-53672D02*
X70371Y-53613D01*
X70331Y-53613D02*
X70371Y-53613D01*
X70331Y-53672D02*
X70331Y-53613D01*
X69663Y-54163D02*
X69703Y-54163D01*
X69703Y-54163D02*
X69703Y-53692D01*
X69663Y-53692D02*
X69703Y-53692D01*
X69663Y-54163D02*
X69663Y-53692D01*
X69663Y-53672D02*
X69703Y-53672D01*
X69703Y-53672D02*
X69703Y-53613D01*
X69663Y-53613D02*
X69703Y-53613D01*
X69663Y-53672D02*
X69663Y-53613D01*
X70194Y-54163D02*
X70253Y-54163D01*
X70253Y-54163D02*
X70253Y-54065D01*
X70194Y-54065D02*
X70253Y-54065D01*
X70194Y-54163D02*
X70194Y-54065D01*
G54D20*
X70627Y-54183D02*
X69407Y-54183D01*
X69407Y-54183D02*
X69407Y-53593D01*
X69407Y-53593D02*
X70627Y-53593D01*
X70627Y-53593D02*
X70627Y-54183D01*
X69802Y-54084D02*
G75*
G03X70233Y-54084I215J196D01*
G74*
G01*
X69801Y-53691D02*
G75*
G03X69801Y-54084I215J-196D01*
G74*
G01*
X70233Y-53691D02*
G75*
G03X69801Y-53692I-215J-196D01*
G74*
G01*
X70233Y-54084D02*
G75*
G03X70233Y-53692I-215J196D01*
G74*
G01*
G54D19*
X69978Y-54927D02*
X70056Y-54927D01*
X70056Y-54927D02*
X70056Y-54849D01*
X69978Y-54849D02*
X70056Y-54849D01*
X69978Y-54927D02*
X69978Y-54849D01*
X70194Y-55163D02*
X70331Y-55163D01*
X70331Y-55163D02*
X70331Y-55065D01*
X70194Y-55065D02*
X70331Y-55065D01*
X70194Y-55163D02*
X70194Y-55065D01*
X70331Y-55163D02*
X70371Y-55163D01*
X70371Y-55163D02*
X70371Y-54692D01*
X70331Y-54692D02*
X70371Y-54692D01*
X70331Y-55163D02*
X70331Y-54692D01*
X70331Y-54672D02*
X70371Y-54672D01*
X70371Y-54672D02*
X70371Y-54613D01*
X70331Y-54613D02*
X70371Y-54613D01*
X70331Y-54672D02*
X70331Y-54613D01*
X69663Y-55163D02*
X69703Y-55163D01*
X69703Y-55163D02*
X69703Y-54692D01*
X69663Y-54692D02*
X69703Y-54692D01*
X69663Y-55163D02*
X69663Y-54692D01*
X69663Y-54672D02*
X69703Y-54672D01*
X69703Y-54672D02*
X69703Y-54613D01*
X69663Y-54613D02*
X69703Y-54613D01*
X69663Y-54672D02*
X69663Y-54613D01*
X70194Y-55163D02*
X70253Y-55163D01*
X70253Y-55163D02*
X70253Y-55065D01*
X70194Y-55065D02*
X70253Y-55065D01*
X70194Y-55163D02*
X70194Y-55065D01*
G54D20*
X70627Y-55183D02*
X69407Y-55183D01*
X69407Y-55183D02*
X69407Y-54593D01*
X69407Y-54593D02*
X70627Y-54593D01*
X70627Y-54593D02*
X70627Y-55183D01*
X69802Y-55084D02*
G75*
G03X70233Y-55084I215J196D01*
G74*
G01*
X69801Y-54691D02*
G75*
G03X69801Y-55084I215J-196D01*
G74*
G01*
X70233Y-54691D02*
G75*
G03X69801Y-54692I-215J-196D01*
G74*
G01*
X70233Y-55084D02*
G75*
G03X70233Y-54692I-215J196D01*
G74*
G01*
G54D12*
X108149Y-45507D02*
X108149Y-43429D01*
X108149Y-43429D02*
X98070Y-43429D01*
X98070Y-43429D02*
X98070Y-45507D01*
X98070Y-45507D02*
X108149Y-45507D01*
X82279Y-44633D02*
X82279Y-43555D01*
X82279Y-43555D02*
X75200Y-43555D01*
X75200Y-43555D02*
X75200Y-44633D01*
X75200Y-44633D02*
X82279Y-44633D01*
G54D16*
X73484Y-60917D02*
X73484Y-61917D01*
X78484Y-61917D02*
X78484Y-60917D01*
X73484Y-60917D02*
X78484Y-60917D01*
X78484Y-61917D02*
X73484Y-61917D01*
G54D12*
X95688Y-56133D02*
X95688Y-51566D01*
X95688Y-51566D02*
X90295Y-51566D01*
X90295Y-51566D02*
X90295Y-56133D01*
X90295Y-56133D02*
X95688Y-56133D01*
X82116Y-60984D02*
X80679Y-60984D01*
X80679Y-60984D02*
X80679Y-62244D01*
X80679Y-62244D02*
X82116Y-62244D01*
X82116Y-62244D02*
X82116Y-60984D01*
G54D11*
X82024Y-62007D02*
G75*
G03X82024Y-62007I-49J0D01*
G74*
G01*
G54D21*
X65499Y-56487D02*
X65499Y-55287D01*
X65499Y-55287D02*
X65799Y-55287D01*
X65799Y-55287D02*
X65799Y-56487D01*
X65799Y-56487D02*
X65499Y-56487D01*
G54D15*
X88033Y-60689D02*
G75*
G03X88033Y-60689I-50J0D01*
G74*
G01*
X88433Y-60689D02*
X88033Y-60689D01*
X88033Y-60689D02*
X88033Y-60089D01*
X88033Y-60089D02*
X88433Y-60089D01*
X88833Y-60089D02*
X89233Y-60089D01*
X89233Y-60089D02*
X89233Y-60689D01*
X89233Y-60689D02*
X88833Y-60689D01*
X67466Y-56144D02*
G75*
G03X67466Y-56144I-50J0D01*
G74*
G01*
X67866Y-56144D02*
X67466Y-56144D01*
X67466Y-56144D02*
X67466Y-55544D01*
X67466Y-55544D02*
X67866Y-55544D01*
X68266Y-55544D02*
X68666Y-55544D01*
X68666Y-55544D02*
X68666Y-56144D01*
X68666Y-56144D02*
X68266Y-56144D01*
X65050Y-43850D02*
G75*
G03X65050Y-43850I-50J0D01*
G74*
G01*
X65000Y-44300D02*
X65000Y-43900D01*
X65000Y-43900D02*
X65600Y-43900D01*
X65600Y-43900D02*
X65600Y-44300D01*
X65600Y-44700D02*
X65600Y-45100D01*
X65600Y-45100D02*
X65000Y-45100D01*
X65000Y-45100D02*
X65000Y-44700D01*
G54D17*
X71600Y-59900D02*
X67600Y-59900D01*
X71600Y-58900D02*
X67600Y-58900D01*
X67600Y-58900D02*
X67600Y-59900D01*
X71600Y-59900D02*
X71600Y-58900D01*
G54D18*
X65950Y-44600D02*
X65950Y-43600D01*
X65950Y-43600D02*
X68950Y-43600D01*
X68950Y-43600D02*
X68950Y-44600D01*
X68950Y-44600D02*
X65950Y-44600D01*
X66950Y-43600D02*
X66950Y-44600D01*
X96450Y-43550D02*
X97450Y-43550D01*
X97450Y-43550D02*
X97450Y-45550D01*
X97450Y-45550D02*
X96450Y-45550D01*
X96450Y-45550D02*
X96450Y-43550D01*
X93750Y-44550D02*
X93750Y-43550D01*
X93750Y-43550D02*
X95750Y-43550D01*
X95750Y-43550D02*
X95750Y-44550D01*
X95750Y-44550D02*
X93750Y-44550D01*
G54D16*
X50830Y-50389D02*
X51830Y-50389D01*
X51830Y-50389D02*
X51830Y-56389D01*
X51830Y-56389D02*
X50830Y-56389D01*
X50830Y-56389D02*
X50830Y-50389D01*
X50830Y-51389D02*
X51830Y-51389D01*
G54D19*
X69941Y-55906D02*
X70019Y-55906D01*
X70019Y-55906D02*
X70019Y-55828D01*
X69941Y-55828D02*
X70019Y-55828D01*
X69941Y-55906D02*
X69941Y-55828D01*
X70157Y-56142D02*
X70294Y-56142D01*
X70294Y-56142D02*
X70294Y-56044D01*
X70157Y-56044D02*
X70294Y-56044D01*
X70157Y-56142D02*
X70157Y-56044D01*
X70294Y-56142D02*
X70334Y-56142D01*
X70334Y-56142D02*
X70334Y-55671D01*
X70294Y-55671D02*
X70334Y-55671D01*
X70294Y-56142D02*
X70294Y-55671D01*
X70294Y-55651D02*
X70334Y-55651D01*
X70334Y-55651D02*
X70334Y-55592D01*
X70294Y-55592D02*
X70334Y-55592D01*
X70294Y-55651D02*
X70294Y-55592D01*
X69626Y-56142D02*
X69666Y-56142D01*
X69666Y-56142D02*
X69666Y-55671D01*
X69626Y-55671D02*
X69666Y-55671D01*
X69626Y-56142D02*
X69626Y-55671D01*
X69626Y-55651D02*
X69666Y-55651D01*
X69666Y-55651D02*
X69666Y-55592D01*
X69626Y-55592D02*
X69666Y-55592D01*
X69626Y-55651D02*
X69626Y-55592D01*
X70157Y-56142D02*
X70216Y-56142D01*
X70216Y-56142D02*
X70216Y-56044D01*
X70157Y-56044D02*
X70216Y-56044D01*
X70157Y-56142D02*
X70157Y-56044D01*
G54D20*
X70590Y-56162D02*
X69370Y-56162D01*
X69370Y-56162D02*
X69370Y-55572D01*
X69370Y-55572D02*
X70590Y-55572D01*
X70590Y-55572D02*
X70590Y-56162D01*
X69764Y-56064D02*
G75*
G03X70196Y-56063I215J196D01*
G74*
G01*
X69764Y-55671D02*
G75*
G03X69764Y-56063I215J-196D01*
G74*
G01*
X70195Y-55671D02*
G75*
G03X69764Y-55671I-215J-196D01*
G74*
G01*
X70196Y-56064D02*
G75*
G03X70196Y-55671I-215J196D01*
G74*
G01*
G54D19*
X69961Y-56939D02*
X70039Y-56939D01*
X70039Y-56939D02*
X70039Y-56861D01*
X69961Y-56861D02*
X70039Y-56861D01*
X69961Y-56939D02*
X69961Y-56861D01*
X70177Y-57175D02*
X70314Y-57175D01*
X70314Y-57175D02*
X70314Y-57077D01*
X70177Y-57077D02*
X70314Y-57077D01*
X70177Y-57175D02*
X70177Y-57077D01*
X70314Y-57175D02*
X70354Y-57175D01*
X70354Y-57175D02*
X70354Y-56704D01*
X70314Y-56704D02*
X70354Y-56704D01*
X70314Y-57175D02*
X70314Y-56704D01*
X70314Y-56684D02*
X70354Y-56684D01*
X70354Y-56684D02*
X70354Y-56625D01*
X70314Y-56625D02*
X70354Y-56625D01*
X70314Y-56684D02*
X70314Y-56625D01*
X69646Y-57175D02*
X69686Y-57175D01*
X69686Y-57175D02*
X69686Y-56704D01*
X69646Y-56704D02*
X69686Y-56704D01*
X69646Y-57175D02*
X69646Y-56704D01*
X69646Y-56684D02*
X69686Y-56684D01*
X69686Y-56684D02*
X69686Y-56625D01*
X69646Y-56625D02*
X69686Y-56625D01*
X69646Y-56684D02*
X69646Y-56625D01*
X70177Y-57175D02*
X70236Y-57175D01*
X70236Y-57175D02*
X70236Y-57077D01*
X70177Y-57077D02*
X70236Y-57077D01*
X70177Y-57175D02*
X70177Y-57077D01*
G54D20*
X70610Y-57195D02*
X69390Y-57195D01*
X69390Y-57195D02*
X69390Y-56605D01*
X69390Y-56605D02*
X70610Y-56605D01*
X70610Y-56605D02*
X70610Y-57195D01*
X69784Y-57096D02*
G75*
G03X70216Y-57095I215J196D01*
G74*
G01*
X69784Y-56703D02*
G75*
G03X69783Y-57095I215J-196D01*
G74*
G01*
X70215Y-56703D02*
G75*
G03X69783Y-56704I-215J-196D01*
G74*
G01*
X70215Y-57096D02*
G75*
G03X70216Y-56704I-215J196D01*
G74*
G01*
G54D12*
X91007Y-60000D02*
X91007Y-58818D01*
X91007Y-58818D02*
X89826Y-58818D01*
X89826Y-58818D02*
X89826Y-60000D01*
X89826Y-60000D02*
X91007Y-60000D01*
G54D22*
X91293Y-60196D02*
G75*
G03X91293Y-60196I-88J0D01*
G74*
G01*
G54D12*
X94690Y-59990D02*
X94690Y-58809D01*
X94690Y-58809D02*
X93509Y-58809D01*
X93509Y-58809D02*
X93509Y-59990D01*
X93509Y-59990D02*
X94690Y-59990D01*
G54D22*
X94975Y-60187D02*
G75*
G03X94975Y-60187I-88J0D01*
G74*
G01*
G54D12*
X55110Y-54944D02*
X58653Y-54944D01*
X58653Y-54944D02*
X58653Y-51401D01*
X58653Y-51401D02*
X55110Y-51401D01*
X55110Y-51401D02*
X55110Y-54944D01*
G54D14*
X54795Y-51007D02*
G75*
G03X54795Y-51007I-78J0D01*
G74*
G01*
G54D12*
X79739Y-59939D02*
X79739Y-58860D01*
X79739Y-58860D02*
X72660Y-58860D01*
X72660Y-58860D02*
X72660Y-59939D01*
X72660Y-59939D02*
X79739Y-59939D01*
G54D15*
X62900Y-62000D02*
G75*
G03X62900Y-62000I-50J0D01*
G74*
G01*
X62400Y-62000D02*
X62800Y-62000D01*
X62800Y-62000D02*
X62800Y-62600D01*
X62800Y-62600D02*
X62400Y-62600D01*
X62000Y-62600D02*
X61600Y-62600D01*
X61600Y-62600D02*
X61600Y-62000D01*
X61600Y-62000D02*
X62000Y-62000D01*
X63350Y-58450D02*
G75*
G03X63350Y-58450I-50J0D01*
G74*
G01*
X63300Y-58900D02*
X63300Y-58500D01*
X63300Y-58500D02*
X63900Y-58500D01*
X63900Y-58500D02*
X63900Y-58900D01*
X63900Y-59300D02*
X63900Y-59700D01*
X63900Y-59700D02*
X63300Y-59700D01*
X63300Y-59700D02*
X63300Y-59300D01*
X63950Y-61950D02*
G75*
G03X63950Y-61950I-50J0D01*
G74*
G01*
X63900Y-61500D02*
X63900Y-61900D01*
X63900Y-61900D02*
X63300Y-61900D01*
X63300Y-61900D02*
X63300Y-61500D01*
X63300Y-61100D02*
X63300Y-60700D01*
X63300Y-60700D02*
X63900Y-60700D01*
X63900Y-60700D02*
X63900Y-61100D01*
G54D11*
X61363Y-60495D02*
G75*
G03X61363Y-60495I-49J0D01*
G74*
G01*
G54D12*
X62790Y-60475D02*
X62790Y-60790D01*
X62790Y-59609D02*
X62790Y-59924D01*
X61609Y-59924D02*
X61609Y-59609D01*
X61609Y-60790D02*
X61609Y-60475D01*
X59429Y-58751D02*
X59429Y-57648D01*
X59429Y-57648D02*
X58170Y-57648D01*
X58170Y-57648D02*
X58170Y-58751D01*
X58170Y-58751D02*
X59429Y-58751D01*
G54D11*
X58455Y-58593D02*
G75*
G03X58455Y-58593I-49J0D01*
G74*
G01*
G54D15*
X57100Y-60300D02*
G75*
G03X57100Y-60300I-50J0D01*
G74*
G01*
X57500Y-60300D02*
X57100Y-60300D01*
X57100Y-60300D02*
X57100Y-59700D01*
X57100Y-59700D02*
X57500Y-59700D01*
X57900Y-59700D02*
X58300Y-59700D01*
X58300Y-59700D02*
X58300Y-60300D01*
X58300Y-60300D02*
X57900Y-60300D01*
X60600Y-59700D02*
G75*
G03X60600Y-59700I-50J0D01*
G74*
G01*
X60100Y-59700D02*
X60500Y-59700D01*
X60500Y-59700D02*
X60500Y-60300D01*
X60500Y-60300D02*
X60100Y-60300D01*
X59700Y-60300D02*
X59300Y-60300D01*
X59300Y-60300D02*
X59300Y-59700D01*
X59300Y-59700D02*
X59700Y-59700D01*
G54D12*
X61811Y-44479D02*
X61811Y-43620D01*
X64488Y-44479D02*
X64488Y-43620D01*
X61811Y-43620D02*
X64488Y-43620D01*
X73622Y-50000D02*
X73622Y-48425D01*
X73622Y-48425D02*
X72047Y-48425D01*
X72047Y-48425D02*
X72047Y-50000D01*
X72047Y-50000D02*
X73622Y-50000D01*
X73622Y-52937D02*
X73622Y-51362D01*
X73622Y-51362D02*
X72047Y-51362D01*
X72047Y-51362D02*
X72047Y-52937D01*
X72047Y-52937D02*
X73622Y-52937D01*
X69685Y-52937D02*
X69685Y-51362D01*
X69685Y-51362D02*
X68110Y-51362D01*
X68110Y-51362D02*
X68110Y-52937D01*
X68110Y-52937D02*
X69685Y-52937D01*
X69685Y-50000D02*
X69685Y-48425D01*
X69685Y-48425D02*
X68110Y-48425D01*
X68110Y-48425D02*
X68110Y-50000D01*
X68110Y-50000D02*
X69685Y-50000D01*
G54D23*
X53800Y-57800D02*
X53800Y-58500D01*
X53800Y-58500D02*
X52600Y-58500D01*
X52600Y-58500D02*
X52600Y-57800D01*
X52600Y-57800D02*
X53800Y-57800D01*
G54D15*
X88650Y-46400D02*
G75*
G03X88650Y-46400I-50J0D01*
G74*
G01*
X88600Y-45950D02*
X88600Y-46350D01*
X88600Y-46350D02*
X88000Y-46350D01*
X88000Y-46350D02*
X88000Y-45950D01*
X88000Y-45550D02*
X88000Y-45150D01*
X88000Y-45150D02*
X88600Y-45150D01*
X88600Y-45150D02*
X88600Y-45550D01*
X78500Y-53800D02*
G75*
G03X78500Y-53800I-50J0D01*
G74*
G01*
X78450Y-53350D02*
X78450Y-53750D01*
X78450Y-53750D02*
X77850Y-53750D01*
X77850Y-53750D02*
X77850Y-53350D01*
X77850Y-52950D02*
X77850Y-52550D01*
X77850Y-52550D02*
X78450Y-52550D01*
X78450Y-52550D02*
X78450Y-52950D01*
X77050Y-50900D02*
G75*
G03X77050Y-50900I-50J0D01*
G74*
G01*
X77000Y-51350D02*
X77000Y-50950D01*
X77000Y-50950D02*
X77600Y-50950D01*
X77600Y-50950D02*
X77600Y-51350D01*
X77600Y-51750D02*
X77600Y-52150D01*
X77600Y-52150D02*
X77000Y-52150D01*
X77000Y-52150D02*
X77000Y-51750D01*
X76250Y-50900D02*
G75*
G03X76250Y-50900I-50J0D01*
G74*
G01*
X76200Y-51350D02*
X76200Y-50950D01*
X76200Y-50950D02*
X76800Y-50950D01*
X76800Y-50950D02*
X76800Y-51350D01*
X76800Y-51750D02*
X76800Y-52150D01*
X76800Y-52150D02*
X76200Y-52150D01*
X76200Y-52150D02*
X76200Y-51750D01*
X76050Y-52200D02*
G75*
G03X76050Y-52200I-50J0D01*
G74*
G01*
X76000Y-51750D02*
X76000Y-52150D01*
X76000Y-52150D02*
X75400Y-52150D01*
X75400Y-52150D02*
X75400Y-51750D01*
X75400Y-51350D02*
X75400Y-50950D01*
X75400Y-50950D02*
X76000Y-50950D01*
X76000Y-50950D02*
X76000Y-51350D01*
X76050Y-53700D02*
G75*
G03X76050Y-53700I-50J0D01*
G74*
G01*
X76000Y-53250D02*
X76000Y-53650D01*
X76000Y-53650D02*
X75400Y-53650D01*
X75400Y-53650D02*
X75400Y-53250D01*
X75400Y-52850D02*
X75400Y-52450D01*
X75400Y-52450D02*
X76000Y-52450D01*
X76000Y-52450D02*
X76000Y-52850D01*
X76000Y-55850D02*
G75*
G03X76000Y-55850I-50J0D01*
G74*
G01*
X75950Y-55400D02*
X75950Y-55800D01*
X75950Y-55800D02*
X75350Y-55800D01*
X75350Y-55800D02*
X75350Y-55400D01*
X75350Y-55000D02*
X75350Y-54600D01*
X75350Y-54600D02*
X75950Y-54600D01*
X75950Y-54600D02*
X75950Y-55000D01*
X76800Y-55850D02*
G75*
G03X76800Y-55850I-50J0D01*
G74*
G01*
X76750Y-55400D02*
X76750Y-55800D01*
X76750Y-55800D02*
X76150Y-55800D01*
X76150Y-55800D02*
X76150Y-55400D01*
X76150Y-55000D02*
X76150Y-54600D01*
X76150Y-54600D02*
X76750Y-54600D01*
X76750Y-54600D02*
X76750Y-55000D01*
X77850Y-50900D02*
G75*
G03X77850Y-50900I-50J0D01*
G74*
G01*
X77800Y-51350D02*
X77800Y-50950D01*
X77800Y-50950D02*
X78400Y-50950D01*
X78400Y-50950D02*
X78400Y-51350D01*
X78400Y-51750D02*
X78400Y-52150D01*
X78400Y-52150D02*
X77800Y-52150D01*
X77800Y-52150D02*
X77800Y-51750D01*
X82450Y-43900D02*
G75*
G03X82450Y-43900I-50J0D01*
G74*
G01*
X82400Y-44350D02*
X82400Y-43950D01*
X82400Y-43950D02*
X83000Y-43950D01*
X83000Y-43950D02*
X83000Y-44350D01*
X83000Y-44750D02*
X83000Y-45150D01*
X83000Y-45150D02*
X82400Y-45150D01*
X82400Y-45150D02*
X82400Y-44750D01*
X81050Y-45650D02*
G75*
G03X81050Y-45650I-50J0D01*
G74*
G01*
X81450Y-45650D02*
X81050Y-45650D01*
X81050Y-45650D02*
X81050Y-45050D01*
X81050Y-45050D02*
X81450Y-45050D01*
X81850Y-45050D02*
X82250Y-45050D01*
X82250Y-45050D02*
X82250Y-45650D01*
X82250Y-45650D02*
X81850Y-45650D01*
X81550Y-49000D02*
G75*
G03X81550Y-49000I-50J0D01*
G74*
G01*
X81950Y-49000D02*
X81550Y-49000D01*
X81550Y-49000D02*
X81550Y-48400D01*
X81550Y-48400D02*
X81950Y-48400D01*
X82350Y-48400D02*
X82750Y-48400D01*
X82750Y-48400D02*
X82750Y-49000D01*
X82750Y-49000D02*
X82350Y-49000D01*
X83700Y-46150D02*
G75*
G03X83700Y-46150I-50J0D01*
G74*
G01*
X83650Y-46600D02*
X83650Y-46200D01*
X83650Y-46200D02*
X84250Y-46200D01*
X84250Y-46200D02*
X84250Y-46600D01*
X84250Y-47000D02*
X84250Y-47400D01*
X84250Y-47400D02*
X83650Y-47400D01*
X83650Y-47400D02*
X83650Y-47000D01*
X80850Y-46900D02*
G75*
G03X80850Y-46900I-50J0D01*
G74*
G01*
X80350Y-46900D02*
X80750Y-46900D01*
X80750Y-46900D02*
X80750Y-47500D01*
X80750Y-47500D02*
X80350Y-47500D01*
X79950Y-47500D02*
X79550Y-47500D01*
X79550Y-47500D02*
X79550Y-46900D01*
X79550Y-46900D02*
X79950Y-46900D01*
X88650Y-44950D02*
G75*
G03X88650Y-44950I-50J0D01*
G74*
G01*
X88600Y-44500D02*
X88600Y-44900D01*
X88600Y-44900D02*
X88000Y-44900D01*
X88000Y-44900D02*
X88000Y-44500D01*
X88000Y-44100D02*
X88000Y-43700D01*
X88000Y-43700D02*
X88600Y-43700D01*
X88600Y-43700D02*
X88600Y-44100D01*
X82950Y-46000D02*
G75*
G03X82950Y-46000I-50J0D01*
G74*
G01*
X83350Y-46000D02*
X82950Y-46000D01*
X82950Y-46000D02*
X82950Y-45400D01*
X82950Y-45400D02*
X83350Y-45400D01*
X83750Y-45400D02*
X84150Y-45400D01*
X84150Y-45400D02*
X84150Y-46000D01*
X84150Y-46000D02*
X83750Y-46000D01*
X87200Y-47350D02*
G75*
G03X87200Y-47350I-50J0D01*
G74*
G01*
X87150Y-46900D02*
X87150Y-47300D01*
X87150Y-47300D02*
X86550Y-47300D01*
X86550Y-47300D02*
X86550Y-46900D01*
X86550Y-46500D02*
X86550Y-46100D01*
X86550Y-46100D02*
X87150Y-46100D01*
X87150Y-46100D02*
X87150Y-46500D01*
X87200Y-48750D02*
G75*
G03X87200Y-48750I-50J0D01*
G74*
G01*
X87150Y-48300D02*
X87150Y-48700D01*
X87150Y-48700D02*
X86550Y-48700D01*
X86550Y-48700D02*
X86550Y-48300D01*
X86550Y-47900D02*
X86550Y-47500D01*
X86550Y-47500D02*
X87150Y-47500D01*
X87150Y-47500D02*
X87150Y-47900D01*
X89100Y-47750D02*
G75*
G03X89100Y-47750I-50J0D01*
G74*
G01*
X89050Y-48200D02*
X89050Y-47800D01*
X89050Y-47800D02*
X89650Y-47800D01*
X89650Y-47800D02*
X89650Y-48200D01*
X89650Y-48600D02*
X89650Y-49000D01*
X89650Y-49000D02*
X89050Y-49000D01*
X89050Y-49000D02*
X89050Y-48600D01*
X88050Y-46650D02*
G75*
G03X88050Y-46650I-50J0D01*
G74*
G01*
X88000Y-47100D02*
X88000Y-46700D01*
X88000Y-46700D02*
X88600Y-46700D01*
X88600Y-46700D02*
X88600Y-47100D01*
X88600Y-47500D02*
X88600Y-47900D01*
X88600Y-47900D02*
X88000Y-47900D01*
X88000Y-47900D02*
X88000Y-47500D01*
X53400Y-56550D02*
G75*
G03X53400Y-56550I-50J0D01*
G74*
G01*
X52900Y-56550D02*
X53300Y-56550D01*
X53300Y-56550D02*
X53300Y-57150D01*
X53300Y-57150D02*
X52900Y-57150D01*
X52500Y-57150D02*
X52100Y-57150D01*
X52100Y-57150D02*
X52100Y-56550D01*
X52100Y-56550D02*
X52500Y-56550D01*
G54D18*
X77000Y-55800D02*
X77000Y-54800D01*
X77000Y-54800D02*
X79000Y-54800D01*
X79000Y-54800D02*
X79000Y-55800D01*
X79000Y-55800D02*
X77000Y-55800D01*
X89200Y-44550D02*
X89200Y-43550D01*
X89200Y-43550D02*
X91200Y-43550D01*
X91200Y-43550D02*
X91200Y-44550D01*
X91200Y-44550D02*
X89200Y-44550D01*
G54D12*
X76370Y-53990D02*
X76370Y-52809D01*
X77629Y-53990D02*
X77629Y-52809D01*
G54D14*
X76291Y-54187D02*
G75*
G03X76291Y-54187I-78J0D01*
G74*
G01*
G54D12*
X81039Y-47860D02*
X82260Y-47860D01*
X82260Y-47860D02*
X82260Y-46639D01*
X82260Y-46639D02*
X81039Y-46639D01*
X81039Y-46639D02*
X81039Y-47860D01*
G54D14*
X80941Y-48037D02*
G75*
G03X80941Y-48037I-78J0D01*
G74*
G01*
G54D12*
X84613Y-49394D02*
X86186Y-49394D01*
X86186Y-49394D02*
X86186Y-43605D01*
X86186Y-43605D02*
X84613Y-43605D01*
X84613Y-43605D02*
X84613Y-49394D01*
X82659Y-53100D02*
G75*
G03X82659Y-53100I-1909J0D01*
G74*
G01*
X80031Y-60450D02*
X80195Y-60696D01*
X80195Y-60450D02*
X80031Y-60696D01*
X80418Y-60696D02*
X80277Y-60696D01*
X80347Y-60696D02*
X80347Y-60450D01*
X80324Y-60485D01*
X80301Y-60508D01*
X80277Y-60520D01*
G54D24*
X66959Y-54567D02*
X66894Y-54474D01*
X66847Y-54567D02*
X66847Y-54370D01*
X66922Y-54370D01*
X66941Y-54380D01*
X66950Y-54389D01*
X66959Y-54408D01*
X66959Y-54436D01*
X66950Y-54455D01*
X66941Y-54464D01*
X66922Y-54474D01*
X66847Y-54474D01*
X67147Y-54567D02*
X67035Y-54567D01*
X67091Y-54567D02*
X67091Y-54370D01*
X67072Y-54399D01*
X67053Y-54417D01*
X67035Y-54427D01*
X67213Y-54370D02*
X67344Y-54370D01*
X67260Y-54567D01*
X95359Y-48378D02*
X95350Y-48388D01*
X95322Y-48397D01*
X95303Y-48397D01*
X95275Y-48388D01*
X95256Y-48369D01*
X95247Y-48350D01*
X95237Y-48313D01*
X95237Y-48284D01*
X95247Y-48247D01*
X95256Y-48228D01*
X95275Y-48209D01*
X95303Y-48200D01*
X95322Y-48200D01*
X95350Y-48209D01*
X95359Y-48219D01*
X95453Y-48397D02*
X95491Y-48397D01*
X95509Y-48388D01*
X95519Y-48378D01*
X95537Y-48350D01*
X95547Y-48313D01*
X95547Y-48237D01*
X95537Y-48219D01*
X95528Y-48209D01*
X95509Y-48200D01*
X95472Y-48200D01*
X95453Y-48209D01*
X95444Y-48219D01*
X95434Y-48237D01*
X95434Y-48284D01*
X95444Y-48303D01*
X95453Y-48313D01*
X95472Y-48322D01*
X95509Y-48322D01*
X95528Y-48313D01*
X95537Y-48303D01*
X95547Y-48284D01*
X95674Y-45343D02*
X95665Y-45352D01*
X95637Y-45362D01*
X95618Y-45362D01*
X95590Y-45352D01*
X95571Y-45333D01*
X95562Y-45315D01*
X95552Y-45277D01*
X95552Y-45249D01*
X95562Y-45211D01*
X95571Y-45193D01*
X95590Y-45174D01*
X95618Y-45165D01*
X95637Y-45165D01*
X95665Y-45174D01*
X95674Y-45183D01*
X95787Y-45249D02*
X95768Y-45240D01*
X95759Y-45230D01*
X95749Y-45211D01*
X95749Y-45202D01*
X95759Y-45183D01*
X95768Y-45174D01*
X95787Y-45165D01*
X95824Y-45165D01*
X95843Y-45174D01*
X95852Y-45183D01*
X95862Y-45202D01*
X95862Y-45211D01*
X95852Y-45230D01*
X95843Y-45240D01*
X95824Y-45249D01*
X95787Y-45249D01*
X95768Y-45258D01*
X95759Y-45268D01*
X95749Y-45286D01*
X95749Y-45324D01*
X95759Y-45343D01*
X95768Y-45352D01*
X95787Y-45362D01*
X95824Y-45362D01*
X95843Y-45352D01*
X95852Y-45343D01*
X95862Y-45324D01*
X95862Y-45286D01*
X95852Y-45268D01*
X95843Y-45258D01*
X95824Y-45249D01*
X106475Y-47221D02*
X106410Y-47127D01*
X106363Y-47221D02*
X106363Y-47024D01*
X106438Y-47024D01*
X106456Y-47033D01*
X106466Y-47043D01*
X106475Y-47061D01*
X106475Y-47090D01*
X106466Y-47108D01*
X106456Y-47118D01*
X106438Y-47127D01*
X106363Y-47127D01*
X106550Y-47043D02*
X106560Y-47033D01*
X106578Y-47024D01*
X106625Y-47024D01*
X106644Y-47033D01*
X106653Y-47043D01*
X106663Y-47061D01*
X106663Y-47080D01*
X106653Y-47108D01*
X106541Y-47221D01*
X106663Y-47221D01*
X106729Y-47024D02*
X106860Y-47024D01*
X106775Y-47221D01*
X67132Y-56693D02*
X67066Y-56600D01*
X67019Y-56693D02*
X67019Y-56496D01*
X67094Y-56496D01*
X67113Y-56506D01*
X67123Y-56515D01*
X67132Y-56534D01*
X67132Y-56562D01*
X67123Y-56581D01*
X67113Y-56590D01*
X67094Y-56600D01*
X67019Y-56600D01*
X67198Y-56496D02*
X67329Y-56496D01*
X67245Y-56693D01*
X66408Y-51733D02*
X66343Y-51639D01*
X66296Y-51733D02*
X66296Y-51536D01*
X66371Y-51536D01*
X66390Y-51545D01*
X66399Y-51555D01*
X66408Y-51573D01*
X66408Y-51601D01*
X66399Y-51620D01*
X66390Y-51630D01*
X66371Y-51639D01*
X66296Y-51639D01*
X66596Y-51733D02*
X66483Y-51733D01*
X66540Y-51733D02*
X66540Y-51536D01*
X66521Y-51564D01*
X66502Y-51583D01*
X66483Y-51592D01*
X66765Y-51536D02*
X66727Y-51536D01*
X66708Y-51545D01*
X66699Y-51555D01*
X66680Y-51583D01*
X66671Y-51620D01*
X66671Y-51695D01*
X66680Y-51714D01*
X66690Y-51723D01*
X66708Y-51733D01*
X66746Y-51733D01*
X66765Y-51723D01*
X66774Y-51714D01*
X66784Y-51695D01*
X66784Y-51648D01*
X66774Y-51630D01*
X66765Y-51620D01*
X66746Y-51611D01*
X66708Y-51611D01*
X66690Y-51620D01*
X66680Y-51630D01*
X66671Y-51648D01*
X66408Y-49528D02*
X66343Y-49434D01*
X66296Y-49528D02*
X66296Y-49331D01*
X66371Y-49331D01*
X66390Y-49340D01*
X66399Y-49350D01*
X66408Y-49369D01*
X66408Y-49397D01*
X66399Y-49415D01*
X66390Y-49425D01*
X66371Y-49434D01*
X66296Y-49434D01*
X66596Y-49528D02*
X66483Y-49528D01*
X66540Y-49528D02*
X66540Y-49331D01*
X66521Y-49359D01*
X66502Y-49378D01*
X66483Y-49387D01*
X66708Y-49415D02*
X66690Y-49406D01*
X66680Y-49397D01*
X66671Y-49378D01*
X66671Y-49369D01*
X66680Y-49350D01*
X66690Y-49340D01*
X66708Y-49331D01*
X66746Y-49331D01*
X66765Y-49340D01*
X66774Y-49350D01*
X66784Y-49369D01*
X66784Y-49378D01*
X66774Y-49397D01*
X66765Y-49406D01*
X66746Y-49415D01*
X66708Y-49415D01*
X66690Y-49425D01*
X66680Y-49434D01*
X66671Y-49453D01*
X66671Y-49491D01*
X66680Y-49509D01*
X66690Y-49519D01*
X66708Y-49528D01*
X66746Y-49528D01*
X66765Y-49519D01*
X66774Y-49509D01*
X66784Y-49491D01*
X66784Y-49453D01*
X66774Y-49434D01*
X66765Y-49425D01*
X66746Y-49415D01*
X76073Y-50529D02*
X76007Y-50435D01*
X75960Y-50529D02*
X75960Y-50332D01*
X76035Y-50332D01*
X76054Y-50342D01*
X76063Y-50351D01*
X76073Y-50370D01*
X76073Y-50398D01*
X76063Y-50417D01*
X76054Y-50426D01*
X76035Y-50435D01*
X75960Y-50435D01*
X76260Y-50529D02*
X76148Y-50529D01*
X76204Y-50529D02*
X76204Y-50332D01*
X76185Y-50360D01*
X76167Y-50379D01*
X76148Y-50389D01*
X76439Y-50332D02*
X76345Y-50332D01*
X76336Y-50426D01*
X76345Y-50417D01*
X76364Y-50407D01*
X76411Y-50407D01*
X76429Y-50417D01*
X76439Y-50426D01*
X76448Y-50445D01*
X76448Y-50492D01*
X76439Y-50510D01*
X76429Y-50520D01*
X76411Y-50529D01*
X76364Y-50529D01*
X76345Y-50520D01*
X76336Y-50510D01*
X85760Y-60332D02*
X85770Y-60342D01*
X85779Y-60370D01*
X85779Y-60389D01*
X85770Y-60417D01*
X85751Y-60436D01*
X85732Y-60445D01*
X85695Y-60454D01*
X85667Y-60454D01*
X85629Y-60445D01*
X85610Y-60436D01*
X85592Y-60417D01*
X85582Y-60389D01*
X85582Y-60370D01*
X85592Y-60342D01*
X85601Y-60332D01*
X85779Y-60145D02*
X85779Y-60257D01*
X85779Y-60201D02*
X85582Y-60201D01*
X85610Y-60220D01*
X85629Y-60239D01*
X85639Y-60257D01*
X93120Y-62284D02*
X93055Y-62190D01*
X93008Y-62284D02*
X93008Y-62087D01*
X93083Y-62087D01*
X93101Y-62096D01*
X93111Y-62106D01*
X93120Y-62124D01*
X93120Y-62153D01*
X93111Y-62171D01*
X93101Y-62181D01*
X93083Y-62190D01*
X93008Y-62190D01*
X93298Y-62087D02*
X93205Y-62087D01*
X93195Y-62181D01*
X93205Y-62171D01*
X93223Y-62162D01*
X93270Y-62162D01*
X93289Y-62171D01*
X93298Y-62181D01*
X93308Y-62200D01*
X93308Y-62246D01*
X93298Y-62265D01*
X93289Y-62275D01*
X93270Y-62284D01*
X93223Y-62284D01*
X93205Y-62275D01*
X93195Y-62265D01*
X96738Y-62205D02*
X96673Y-62111D01*
X96626Y-62205D02*
X96626Y-62008D01*
X96701Y-62008D01*
X96720Y-62018D01*
X96729Y-62027D01*
X96738Y-62046D01*
X96738Y-62074D01*
X96729Y-62093D01*
X96720Y-62102D01*
X96701Y-62111D01*
X96626Y-62111D01*
X96907Y-62008D02*
X96870Y-62008D01*
X96851Y-62018D01*
X96842Y-62027D01*
X96823Y-62055D01*
X96813Y-62093D01*
X96813Y-62168D01*
X96823Y-62186D01*
X96832Y-62196D01*
X96851Y-62205D01*
X96888Y-62205D01*
X96907Y-62196D01*
X96917Y-62186D01*
X96926Y-62168D01*
X96926Y-62121D01*
X96917Y-62102D01*
X96907Y-62093D01*
X96888Y-62083D01*
X96851Y-62083D01*
X96832Y-62093D01*
X96823Y-62102D01*
X96813Y-62121D01*
X87167Y-55010D02*
X87157Y-55020D01*
X87129Y-55029D01*
X87110Y-55029D01*
X87082Y-55020D01*
X87063Y-55001D01*
X87054Y-54982D01*
X87045Y-54945D01*
X87045Y-54917D01*
X87054Y-54879D01*
X87063Y-54860D01*
X87082Y-54842D01*
X87110Y-54832D01*
X87129Y-54832D01*
X87157Y-54842D01*
X87167Y-54851D01*
X87336Y-54898D02*
X87336Y-55029D01*
X87289Y-54823D02*
X87242Y-54964D01*
X87364Y-54964D01*
X86335Y-51232D02*
X86345Y-51242D01*
X86354Y-51270D01*
X86354Y-51289D01*
X86345Y-51317D01*
X86326Y-51336D01*
X86307Y-51345D01*
X86270Y-51354D01*
X86242Y-51354D01*
X86204Y-51345D01*
X86185Y-51336D01*
X86167Y-51317D01*
X86157Y-51289D01*
X86157Y-51270D01*
X86167Y-51242D01*
X86176Y-51232D01*
X86157Y-51054D02*
X86157Y-51148D01*
X86251Y-51157D01*
X86242Y-51148D01*
X86232Y-51129D01*
X86232Y-51082D01*
X86242Y-51063D01*
X86251Y-51054D01*
X86270Y-51045D01*
X86317Y-51045D01*
X86335Y-51054D01*
X86345Y-51063D01*
X86354Y-51082D01*
X86354Y-51129D01*
X86345Y-51148D01*
X86335Y-51157D01*
X86242Y-53710D02*
X86232Y-53720D01*
X86204Y-53729D01*
X86185Y-53729D01*
X86157Y-53720D01*
X86138Y-53701D01*
X86129Y-53682D01*
X86120Y-53645D01*
X86120Y-53617D01*
X86129Y-53579D01*
X86138Y-53560D01*
X86157Y-53542D01*
X86185Y-53532D01*
X86204Y-53532D01*
X86232Y-53542D01*
X86242Y-53551D01*
X86307Y-53532D02*
X86429Y-53532D01*
X86364Y-53607D01*
X86392Y-53607D01*
X86411Y-53617D01*
X86420Y-53626D01*
X86429Y-53645D01*
X86429Y-53692D01*
X86420Y-53710D01*
X86411Y-53720D01*
X86392Y-53729D01*
X86335Y-53729D01*
X86317Y-53720D01*
X86307Y-53710D01*
X89460Y-51282D02*
X89470Y-51292D01*
X89479Y-51320D01*
X89479Y-51339D01*
X89470Y-51367D01*
X89451Y-51386D01*
X89432Y-51395D01*
X89395Y-51404D01*
X89367Y-51404D01*
X89329Y-51395D01*
X89310Y-51386D01*
X89292Y-51367D01*
X89282Y-51339D01*
X89282Y-51320D01*
X89292Y-51292D01*
X89301Y-51282D01*
X89301Y-51207D02*
X89292Y-51198D01*
X89282Y-51179D01*
X89282Y-51132D01*
X89292Y-51113D01*
X89301Y-51104D01*
X89320Y-51095D01*
X89339Y-51095D01*
X89367Y-51104D01*
X89479Y-51217D01*
X89479Y-51095D01*
X61067Y-54479D02*
X61001Y-54385D01*
X60954Y-54479D02*
X60954Y-54282D01*
X61029Y-54282D01*
X61048Y-54292D01*
X61057Y-54301D01*
X61067Y-54320D01*
X61067Y-54348D01*
X61057Y-54367D01*
X61048Y-54376D01*
X61029Y-54385D01*
X60954Y-54385D01*
X61132Y-54282D02*
X61254Y-54282D01*
X61189Y-54357D01*
X61217Y-54357D01*
X61236Y-54367D01*
X61245Y-54376D01*
X61254Y-54395D01*
X61254Y-54442D01*
X61245Y-54460D01*
X61236Y-54470D01*
X61217Y-54479D01*
X61160Y-54479D01*
X61142Y-54470D01*
X61132Y-54460D01*
X61067Y-57579D02*
X61001Y-57485D01*
X60954Y-57579D02*
X60954Y-57382D01*
X61029Y-57382D01*
X61048Y-57392D01*
X61057Y-57401D01*
X61067Y-57420D01*
X61067Y-57448D01*
X61057Y-57467D01*
X61048Y-57476D01*
X61029Y-57485D01*
X60954Y-57485D01*
X61236Y-57448D02*
X61236Y-57579D01*
X61189Y-57373D02*
X61142Y-57514D01*
X61264Y-57514D01*
X83679Y-62532D02*
X83585Y-62598D01*
X83679Y-62645D02*
X83482Y-62645D01*
X83482Y-62570D01*
X83492Y-62551D01*
X83501Y-62542D01*
X83520Y-62532D01*
X83548Y-62532D01*
X83567Y-62542D01*
X83576Y-62551D01*
X83585Y-62570D01*
X83585Y-62645D01*
X83501Y-62457D02*
X83492Y-62448D01*
X83482Y-62429D01*
X83482Y-62382D01*
X83492Y-62363D01*
X83501Y-62354D01*
X83520Y-62345D01*
X83539Y-62345D01*
X83567Y-62354D01*
X83679Y-62467D01*
X83679Y-62345D01*
X83679Y-61732D02*
X83585Y-61798D01*
X83679Y-61845D02*
X83482Y-61845D01*
X83482Y-61770D01*
X83492Y-61751D01*
X83501Y-61742D01*
X83520Y-61732D01*
X83548Y-61732D01*
X83567Y-61742D01*
X83576Y-61751D01*
X83585Y-61770D01*
X83585Y-61845D01*
X83679Y-61545D02*
X83679Y-61657D01*
X83679Y-61601D02*
X83482Y-61601D01*
X83510Y-61620D01*
X83529Y-61639D01*
X83539Y-61657D01*
X107467Y-47210D02*
X107457Y-47220D01*
X107429Y-47229D01*
X107410Y-47229D01*
X107382Y-47220D01*
X107363Y-47201D01*
X107354Y-47182D01*
X107345Y-47145D01*
X107345Y-47117D01*
X107354Y-47079D01*
X107363Y-47060D01*
X107382Y-47042D01*
X107410Y-47032D01*
X107429Y-47032D01*
X107457Y-47042D01*
X107467Y-47051D01*
X107636Y-47032D02*
X107598Y-47032D01*
X107579Y-47042D01*
X107570Y-47051D01*
X107551Y-47079D01*
X107542Y-47117D01*
X107542Y-47192D01*
X107551Y-47210D01*
X107560Y-47220D01*
X107579Y-47229D01*
X107617Y-47229D01*
X107636Y-47220D01*
X107645Y-47210D01*
X107654Y-47192D01*
X107654Y-47145D01*
X107645Y-47126D01*
X107636Y-47117D01*
X107617Y-47107D01*
X107579Y-47107D01*
X107560Y-47117D01*
X107551Y-47126D01*
X107542Y-47145D01*
X87679Y-60132D02*
X87585Y-60198D01*
X87679Y-60245D02*
X87482Y-60245D01*
X87482Y-60170D01*
X87492Y-60151D01*
X87501Y-60142D01*
X87520Y-60132D01*
X87548Y-60132D01*
X87567Y-60142D01*
X87576Y-60151D01*
X87585Y-60170D01*
X87585Y-60245D01*
X87567Y-60020D02*
X87557Y-60039D01*
X87548Y-60048D01*
X87529Y-60057D01*
X87520Y-60057D01*
X87501Y-60048D01*
X87492Y-60039D01*
X87482Y-60020D01*
X87482Y-59982D01*
X87492Y-59963D01*
X87501Y-59954D01*
X87520Y-59945D01*
X87529Y-59945D01*
X87548Y-59954D01*
X87557Y-59963D01*
X87567Y-59982D01*
X87567Y-60020D01*
X87576Y-60039D01*
X87585Y-60048D01*
X87604Y-60057D01*
X87642Y-60057D01*
X87660Y-60048D01*
X87670Y-60039D01*
X87679Y-60020D01*
X87679Y-59982D01*
X87670Y-59963D01*
X87660Y-59954D01*
X87642Y-59945D01*
X87604Y-59945D01*
X87585Y-59954D01*
X87576Y-59963D01*
X87567Y-59982D01*
X67132Y-53623D02*
X67066Y-53529D01*
X67019Y-53623D02*
X67019Y-53426D01*
X67094Y-53426D01*
X67113Y-53435D01*
X67123Y-53444D01*
X67132Y-53463D01*
X67132Y-53491D01*
X67123Y-53510D01*
X67113Y-53519D01*
X67094Y-53529D01*
X67019Y-53529D01*
X67226Y-53623D02*
X67263Y-53623D01*
X67282Y-53613D01*
X67291Y-53604D01*
X67310Y-53576D01*
X67320Y-53538D01*
X67320Y-53463D01*
X67310Y-53444D01*
X67301Y-53435D01*
X67282Y-53426D01*
X67245Y-53426D01*
X67226Y-53435D01*
X67216Y-53444D01*
X67207Y-53463D01*
X67207Y-53510D01*
X67216Y-53529D01*
X67226Y-53538D01*
X67245Y-53547D01*
X67282Y-53547D01*
X67301Y-53538D01*
X67310Y-53529D01*
X67320Y-53510D01*
X103526Y-47261D02*
X103517Y-47271D01*
X103489Y-47280D01*
X103470Y-47280D01*
X103442Y-47271D01*
X103423Y-47252D01*
X103414Y-47233D01*
X103404Y-47196D01*
X103404Y-47167D01*
X103414Y-47130D01*
X103423Y-47111D01*
X103442Y-47092D01*
X103470Y-47083D01*
X103489Y-47083D01*
X103517Y-47092D01*
X103526Y-47102D01*
X103714Y-47280D02*
X103601Y-47280D01*
X103658Y-47280D02*
X103658Y-47083D01*
X103639Y-47111D01*
X103620Y-47130D01*
X103601Y-47139D01*
X103836Y-47083D02*
X103855Y-47083D01*
X103873Y-47092D01*
X103883Y-47102D01*
X103892Y-47121D01*
X103902Y-47158D01*
X103902Y-47205D01*
X103892Y-47243D01*
X103883Y-47261D01*
X103873Y-47271D01*
X103855Y-47280D01*
X103836Y-47280D01*
X103817Y-47271D01*
X103808Y-47261D01*
X103798Y-47243D01*
X103789Y-47205D01*
X103789Y-47158D01*
X103798Y-47121D01*
X103808Y-47102D01*
X103817Y-47092D01*
X103836Y-47083D01*
X105545Y-47202D02*
X105536Y-47212D01*
X105508Y-47221D01*
X105489Y-47221D01*
X105461Y-47212D01*
X105442Y-47193D01*
X105433Y-47174D01*
X105423Y-47137D01*
X105423Y-47108D01*
X105433Y-47071D01*
X105442Y-47052D01*
X105461Y-47033D01*
X105489Y-47024D01*
X105508Y-47024D01*
X105536Y-47033D01*
X105545Y-47043D01*
X105611Y-47024D02*
X105742Y-47024D01*
X105658Y-47221D01*
X102550Y-47265D02*
X102541Y-47275D01*
X102512Y-47284D01*
X102494Y-47284D01*
X102466Y-47275D01*
X102447Y-47256D01*
X102437Y-47237D01*
X102428Y-47200D01*
X102428Y-47171D01*
X102437Y-47134D01*
X102447Y-47115D01*
X102466Y-47096D01*
X102494Y-47087D01*
X102512Y-47087D01*
X102541Y-47096D01*
X102550Y-47106D01*
X102738Y-47284D02*
X102625Y-47284D01*
X102681Y-47284D02*
X102681Y-47087D01*
X102663Y-47115D01*
X102644Y-47134D01*
X102625Y-47143D01*
X102916Y-47087D02*
X102822Y-47087D01*
X102813Y-47181D01*
X102822Y-47171D01*
X102841Y-47162D01*
X102888Y-47162D01*
X102906Y-47171D01*
X102916Y-47181D01*
X102925Y-47200D01*
X102925Y-47246D01*
X102916Y-47265D01*
X102906Y-47275D01*
X102888Y-47284D01*
X102841Y-47284D01*
X102822Y-47275D01*
X102813Y-47265D01*
X101526Y-47265D02*
X101517Y-47275D01*
X101489Y-47284D01*
X101470Y-47284D01*
X101442Y-47275D01*
X101423Y-47256D01*
X101414Y-47237D01*
X101404Y-47200D01*
X101404Y-47171D01*
X101414Y-47134D01*
X101423Y-47115D01*
X101442Y-47096D01*
X101470Y-47087D01*
X101489Y-47087D01*
X101517Y-47096D01*
X101526Y-47106D01*
X101714Y-47284D02*
X101601Y-47284D01*
X101658Y-47284D02*
X101658Y-47087D01*
X101639Y-47115D01*
X101620Y-47134D01*
X101601Y-47143D01*
X101883Y-47153D02*
X101883Y-47284D01*
X101836Y-47078D02*
X101789Y-47218D01*
X101911Y-47218D01*
X100542Y-47265D02*
X100533Y-47275D01*
X100505Y-47284D01*
X100486Y-47284D01*
X100458Y-47275D01*
X100439Y-47256D01*
X100430Y-47237D01*
X100420Y-47200D01*
X100420Y-47171D01*
X100430Y-47134D01*
X100439Y-47115D01*
X100458Y-47096D01*
X100486Y-47087D01*
X100505Y-47087D01*
X100533Y-47096D01*
X100542Y-47106D01*
X100730Y-47284D02*
X100617Y-47284D01*
X100673Y-47284D02*
X100673Y-47087D01*
X100655Y-47115D01*
X100636Y-47134D01*
X100617Y-47143D01*
X100795Y-47087D02*
X100917Y-47087D01*
X100852Y-47162D01*
X100880Y-47162D01*
X100899Y-47171D01*
X100908Y-47181D01*
X100917Y-47200D01*
X100917Y-47246D01*
X100908Y-47265D01*
X100899Y-47275D01*
X100880Y-47284D01*
X100824Y-47284D01*
X100805Y-47275D01*
X100795Y-47265D01*
X99519Y-47265D02*
X99509Y-47275D01*
X99481Y-47284D01*
X99462Y-47284D01*
X99434Y-47275D01*
X99415Y-47256D01*
X99406Y-47237D01*
X99397Y-47200D01*
X99397Y-47171D01*
X99406Y-47134D01*
X99415Y-47115D01*
X99434Y-47096D01*
X99462Y-47087D01*
X99481Y-47087D01*
X99509Y-47096D01*
X99519Y-47106D01*
X99706Y-47284D02*
X99594Y-47284D01*
X99650Y-47284D02*
X99650Y-47087D01*
X99631Y-47115D01*
X99612Y-47134D01*
X99594Y-47143D01*
X99781Y-47106D02*
X99791Y-47096D01*
X99809Y-47087D01*
X99856Y-47087D01*
X99875Y-47096D01*
X99884Y-47106D01*
X99894Y-47124D01*
X99894Y-47143D01*
X99884Y-47171D01*
X99772Y-47284D01*
X99894Y-47284D01*
X98574Y-47265D02*
X98564Y-47275D01*
X98536Y-47284D01*
X98517Y-47284D01*
X98489Y-47275D01*
X98470Y-47256D01*
X98461Y-47237D01*
X98452Y-47200D01*
X98452Y-47171D01*
X98461Y-47134D01*
X98470Y-47115D01*
X98489Y-47096D01*
X98517Y-47087D01*
X98536Y-47087D01*
X98564Y-47096D01*
X98574Y-47106D01*
X98761Y-47284D02*
X98649Y-47284D01*
X98705Y-47284D02*
X98705Y-47087D01*
X98686Y-47115D01*
X98667Y-47134D01*
X98649Y-47143D01*
X98949Y-47284D02*
X98836Y-47284D01*
X98893Y-47284D02*
X98893Y-47087D01*
X98874Y-47115D01*
X98855Y-47134D01*
X98836Y-47143D01*
X76923Y-50529D02*
X76857Y-50435D01*
X76810Y-50529D02*
X76810Y-50332D01*
X76885Y-50332D01*
X76904Y-50342D01*
X76913Y-50351D01*
X76923Y-50370D01*
X76923Y-50398D01*
X76913Y-50417D01*
X76904Y-50426D01*
X76885Y-50435D01*
X76810Y-50435D01*
X77110Y-50529D02*
X76998Y-50529D01*
X77054Y-50529D02*
X77054Y-50332D01*
X77035Y-50360D01*
X77017Y-50379D01*
X76998Y-50389D01*
X77279Y-50398D02*
X77279Y-50529D01*
X77232Y-50323D02*
X77186Y-50464D01*
X77307Y-50464D01*
G54D10*
X82881Y-51734D02*
X82881Y-51340D01*
X83012Y-51621D01*
X83143Y-51340D01*
X83143Y-51734D01*
X83331Y-51734D02*
X83331Y-51340D01*
X83481Y-51340D01*
X83518Y-51359D01*
X83537Y-51377D01*
X83556Y-51415D01*
X83556Y-51471D01*
X83537Y-51509D01*
X83518Y-51527D01*
X83481Y-51546D01*
X83331Y-51546D01*
X83725Y-51340D02*
X83725Y-51659D01*
X83743Y-51696D01*
X83762Y-51715D01*
X83800Y-51734D01*
X83875Y-51734D01*
X83912Y-51715D01*
X83931Y-51696D01*
X83950Y-51659D01*
X83950Y-51340D01*
X84137Y-51584D02*
X84437Y-51584D01*
X84643Y-51734D02*
X84718Y-51734D01*
X84756Y-51715D01*
X84775Y-51696D01*
X84812Y-51640D01*
X84831Y-51565D01*
X84831Y-51415D01*
X84812Y-51377D01*
X84793Y-51359D01*
X84756Y-51340D01*
X84681Y-51340D01*
X84643Y-51359D01*
X84625Y-51377D01*
X84606Y-51415D01*
X84606Y-51509D01*
X84625Y-51546D01*
X84643Y-51565D01*
X84681Y-51584D01*
X84756Y-51584D01*
X84793Y-51565D01*
X84812Y-51546D01*
X84831Y-51509D01*
X85206Y-51734D02*
X84981Y-51734D01*
X85093Y-51734D02*
X85093Y-51340D01*
X85056Y-51396D01*
X85018Y-51434D01*
X84981Y-51452D01*
X85562Y-51340D02*
X85374Y-51340D01*
X85356Y-51527D01*
X85374Y-51509D01*
X85412Y-51490D01*
X85506Y-51490D01*
X85543Y-51509D01*
X85562Y-51527D01*
X85581Y-51565D01*
X85581Y-51659D01*
X85562Y-51696D01*
X85543Y-51715D01*
X85506Y-51734D01*
X85412Y-51734D01*
X85374Y-51715D01*
X85356Y-51696D01*
X85824Y-51340D02*
X85862Y-51340D01*
X85899Y-51359D01*
X85918Y-51377D01*
X85937Y-51415D01*
X85956Y-51490D01*
X85956Y-51584D01*
X85937Y-51659D01*
X85918Y-51696D01*
X85899Y-51715D01*
X85862Y-51734D01*
X85824Y-51734D01*
X85787Y-51715D01*
X85768Y-51696D01*
X85749Y-51659D01*
X85731Y-51584D01*
X85731Y-51490D01*
X85749Y-51415D01*
X85768Y-51377D01*
X85787Y-51359D01*
X85824Y-51340D01*
X92582Y-51214D02*
X92357Y-51214D01*
X92470Y-51214D02*
X92470Y-50820D01*
X92432Y-50876D01*
X92395Y-50914D01*
X92357Y-50932D01*
X92826Y-50820D02*
X92863Y-50820D01*
X92901Y-50839D01*
X92919Y-50857D01*
X92938Y-50895D01*
X92957Y-50970D01*
X92957Y-51064D01*
X92938Y-51139D01*
X92919Y-51176D01*
X92901Y-51195D01*
X92863Y-51214D01*
X92826Y-51214D01*
X92788Y-51195D01*
X92769Y-51176D01*
X92751Y-51139D01*
X92732Y-51064D01*
X92732Y-50970D01*
X92751Y-50895D01*
X92769Y-50857D01*
X92788Y-50839D01*
X92826Y-50820D01*
X93126Y-51214D02*
X93126Y-50820D01*
X93351Y-51214D02*
X93182Y-50989D01*
X93351Y-50820D02*
X93126Y-51045D01*
G54D25*
X65571Y-55150D02*
X65542Y-55135D01*
X65514Y-55107D01*
X65471Y-55064D01*
X65442Y-55050D01*
X65414Y-55050D01*
X65428Y-55121D02*
X65400Y-55107D01*
X65371Y-55078D01*
X65357Y-55021D01*
X65357Y-54921D01*
X65371Y-54864D01*
X65400Y-54835D01*
X65428Y-54821D01*
X65485Y-54821D01*
X65514Y-54835D01*
X65542Y-54864D01*
X65557Y-54921D01*
X65557Y-55021D01*
X65542Y-55078D01*
X65514Y-55107D01*
X65485Y-55121D01*
X65428Y-55121D01*
X65842Y-55121D02*
X65671Y-55121D01*
X65757Y-55121D02*
X65757Y-54821D01*
X65728Y-54864D01*
X65700Y-54892D01*
X65671Y-54907D01*
G54D24*
X89479Y-60526D02*
X89385Y-60592D01*
X89479Y-60639D02*
X89282Y-60639D01*
X89282Y-60564D01*
X89292Y-60545D01*
X89301Y-60536D01*
X89320Y-60526D01*
X89348Y-60526D01*
X89367Y-60536D01*
X89376Y-60545D01*
X89385Y-60564D01*
X89385Y-60639D01*
X89479Y-60339D02*
X89479Y-60451D01*
X89479Y-60395D02*
X89282Y-60395D01*
X89310Y-60414D01*
X89329Y-60432D01*
X89339Y-60451D01*
X89479Y-60245D02*
X89479Y-60207D01*
X89470Y-60188D01*
X89460Y-60179D01*
X89432Y-60160D01*
X89395Y-60151D01*
X89320Y-60151D01*
X89301Y-60160D01*
X89292Y-60170D01*
X89282Y-60188D01*
X89282Y-60226D01*
X89292Y-60245D01*
X89301Y-60254D01*
X89320Y-60263D01*
X89367Y-60263D01*
X89385Y-60254D01*
X89395Y-60245D01*
X89404Y-60226D01*
X89404Y-60188D01*
X89395Y-60170D01*
X89385Y-60160D01*
X89367Y-60151D01*
X66959Y-55670D02*
X66894Y-55576D01*
X66847Y-55670D02*
X66847Y-55473D01*
X66922Y-55473D01*
X66941Y-55482D01*
X66950Y-55492D01*
X66959Y-55510D01*
X66959Y-55538D01*
X66950Y-55557D01*
X66941Y-55567D01*
X66922Y-55576D01*
X66847Y-55576D01*
X67035Y-55492D02*
X67044Y-55482D01*
X67063Y-55473D01*
X67110Y-55473D01*
X67128Y-55482D01*
X67138Y-55492D01*
X67147Y-55510D01*
X67147Y-55529D01*
X67138Y-55557D01*
X67025Y-55670D01*
X67147Y-55670D01*
X67269Y-55473D02*
X67288Y-55473D01*
X67307Y-55482D01*
X67316Y-55492D01*
X67325Y-55510D01*
X67335Y-55548D01*
X67335Y-55595D01*
X67325Y-55632D01*
X67316Y-55651D01*
X67307Y-55660D01*
X67288Y-55670D01*
X67269Y-55670D01*
X67250Y-55660D01*
X67241Y-55651D01*
X67232Y-55632D01*
X67222Y-55595D01*
X67222Y-55548D01*
X67232Y-55510D01*
X67241Y-55492D01*
X67250Y-55482D01*
X67269Y-55473D01*
X65385Y-43780D02*
X65319Y-43686D01*
X65272Y-43780D02*
X65272Y-43583D01*
X65347Y-43583D01*
X65366Y-43592D01*
X65375Y-43602D01*
X65385Y-43621D01*
X65385Y-43649D01*
X65375Y-43667D01*
X65366Y-43677D01*
X65347Y-43686D01*
X65272Y-43686D01*
X65460Y-43602D02*
X65469Y-43592D01*
X65488Y-43583D01*
X65535Y-43583D01*
X65554Y-43592D01*
X65563Y-43602D01*
X65572Y-43621D01*
X65572Y-43639D01*
X65563Y-43667D01*
X65450Y-43780D01*
X65572Y-43780D01*
X65760Y-43780D02*
X65647Y-43780D01*
X65704Y-43780D02*
X65704Y-43583D01*
X65685Y-43611D01*
X65666Y-43630D01*
X65647Y-43639D01*
G54D18*
X97521Y-44649D02*
X97735Y-44649D01*
X97778Y-44664D01*
X97807Y-44692D01*
X97821Y-44735D01*
X97821Y-44764D01*
X97821Y-44350D02*
X97821Y-44521D01*
X97821Y-44435D02*
X97521Y-44435D01*
X97564Y-44464D01*
X97592Y-44492D01*
X97607Y-44521D01*
G54D12*
X90127Y-60299D02*
X90127Y-60053D01*
X90209Y-60229D01*
X90291Y-60053D01*
X90291Y-60299D01*
X90549Y-60276D02*
X90537Y-60287D01*
X90502Y-60299D01*
X90479Y-60299D01*
X90444Y-60287D01*
X90420Y-60264D01*
X90408Y-60241D01*
X90397Y-60194D01*
X90397Y-60158D01*
X90408Y-60112D01*
X90420Y-60088D01*
X90444Y-60065D01*
X90479Y-60053D01*
X90502Y-60053D01*
X90537Y-60065D01*
X90549Y-60076D01*
X90783Y-60299D02*
X90643Y-60299D01*
X90713Y-60299D02*
X90713Y-60053D01*
X90690Y-60088D01*
X90666Y-60112D01*
X90643Y-60123D01*
X93797Y-60326D02*
X93797Y-60080D01*
X93879Y-60256D01*
X93961Y-60080D01*
X93961Y-60326D01*
X94219Y-60302D02*
X94207Y-60314D01*
X94172Y-60326D01*
X94148Y-60326D01*
X94113Y-60314D01*
X94090Y-60291D01*
X94078Y-60267D01*
X94066Y-60220D01*
X94066Y-60185D01*
X94078Y-60138D01*
X94090Y-60115D01*
X94113Y-60092D01*
X94148Y-60080D01*
X94172Y-60080D01*
X94207Y-60092D01*
X94219Y-60103D01*
X94313Y-60103D02*
X94324Y-60092D01*
X94348Y-60080D01*
X94406Y-60080D01*
X94430Y-60092D01*
X94441Y-60103D01*
X94453Y-60127D01*
X94453Y-60150D01*
X94441Y-60185D01*
X94301Y-60326D01*
X94453Y-60326D01*
X56694Y-49877D02*
X56694Y-50076D01*
X56706Y-50099D01*
X56717Y-50111D01*
X56741Y-50123D01*
X56788Y-50123D01*
X56811Y-50111D01*
X56823Y-50099D01*
X56835Y-50076D01*
X56835Y-49877D01*
X57081Y-50123D02*
X56940Y-50123D01*
X57010Y-50123D02*
X57010Y-49877D01*
X56987Y-49912D01*
X56963Y-49935D01*
X56940Y-49947D01*
X72012Y-59581D02*
X71766Y-59581D01*
X71766Y-59487D01*
X71777Y-59464D01*
X71789Y-59452D01*
X71813Y-59441D01*
X71848Y-59441D01*
X71871Y-59452D01*
X71883Y-59464D01*
X71895Y-59487D01*
X71895Y-59581D01*
X71871Y-59300D02*
X71859Y-59323D01*
X71848Y-59335D01*
X71824Y-59347D01*
X71813Y-59347D01*
X71789Y-59335D01*
X71777Y-59323D01*
X71766Y-59300D01*
X71766Y-59253D01*
X71777Y-59230D01*
X71789Y-59218D01*
X71813Y-59206D01*
X71824Y-59206D01*
X71848Y-59218D01*
X71859Y-59230D01*
X71871Y-59253D01*
X71871Y-59300D01*
X71883Y-59323D01*
X71895Y-59335D01*
X71918Y-59347D01*
X71965Y-59347D01*
X71988Y-59335D01*
X72000Y-59323D01*
X72012Y-59300D01*
X72012Y-59253D01*
X72000Y-59230D01*
X71988Y-59218D01*
X71965Y-59206D01*
X71918Y-59206D01*
X71895Y-59218D01*
X71883Y-59230D01*
X71871Y-59253D01*
G54D24*
X63038Y-62363D02*
X62944Y-62363D01*
X62944Y-62166D01*
X63094Y-62184D02*
X63103Y-62175D01*
X63122Y-62166D01*
X63169Y-62166D01*
X63188Y-62175D01*
X63197Y-62184D01*
X63206Y-62203D01*
X63206Y-62222D01*
X63197Y-62250D01*
X63084Y-62363D01*
X63206Y-62363D01*
X63495Y-58328D02*
X63486Y-58338D01*
X63457Y-58347D01*
X63439Y-58347D01*
X63410Y-58338D01*
X63392Y-58319D01*
X63382Y-58300D01*
X63373Y-58263D01*
X63373Y-58234D01*
X63382Y-58197D01*
X63392Y-58178D01*
X63410Y-58159D01*
X63439Y-58150D01*
X63457Y-58150D01*
X63486Y-58159D01*
X63495Y-58169D01*
X63570Y-58169D02*
X63579Y-58159D01*
X63598Y-58150D01*
X63645Y-58150D01*
X63664Y-58159D01*
X63673Y-58169D01*
X63683Y-58187D01*
X63683Y-58206D01*
X63673Y-58234D01*
X63561Y-58347D01*
X63683Y-58347D01*
X63795Y-58234D02*
X63776Y-58225D01*
X63767Y-58216D01*
X63758Y-58197D01*
X63758Y-58187D01*
X63767Y-58169D01*
X63776Y-58159D01*
X63795Y-58150D01*
X63833Y-58150D01*
X63851Y-58159D01*
X63861Y-58169D01*
X63870Y-58187D01*
X63870Y-58197D01*
X63861Y-58216D01*
X63851Y-58225D01*
X63833Y-58234D01*
X63795Y-58234D01*
X63776Y-58244D01*
X63767Y-58253D01*
X63758Y-58272D01*
X63758Y-58309D01*
X63767Y-58328D01*
X63776Y-58338D01*
X63795Y-58347D01*
X63833Y-58347D01*
X63851Y-58338D01*
X63861Y-58328D01*
X63870Y-58309D01*
X63870Y-58272D01*
X63861Y-58253D01*
X63851Y-58244D01*
X63833Y-58234D01*
X63473Y-60560D02*
X63463Y-60570D01*
X63435Y-60579D01*
X63417Y-60579D01*
X63388Y-60570D01*
X63370Y-60551D01*
X63360Y-60532D01*
X63351Y-60495D01*
X63351Y-60467D01*
X63360Y-60429D01*
X63370Y-60410D01*
X63388Y-60392D01*
X63417Y-60382D01*
X63435Y-60382D01*
X63463Y-60392D01*
X63473Y-60401D01*
X63548Y-60401D02*
X63557Y-60392D01*
X63576Y-60382D01*
X63623Y-60382D01*
X63642Y-60392D01*
X63651Y-60401D01*
X63660Y-60420D01*
X63660Y-60439D01*
X63651Y-60467D01*
X63539Y-60579D01*
X63660Y-60579D01*
X63726Y-60382D02*
X63857Y-60382D01*
X63773Y-60579D01*
G54D12*
X64527Y-60178D02*
X64445Y-60061D01*
X64387Y-60178D02*
X64387Y-59932D01*
X64480Y-59932D01*
X64504Y-59943D01*
X64516Y-59955D01*
X64527Y-59979D01*
X64527Y-60014D01*
X64516Y-60037D01*
X64504Y-60049D01*
X64480Y-60061D01*
X64387Y-60061D01*
X64633Y-60049D02*
X64715Y-60049D01*
X64750Y-60178D02*
X64633Y-60178D01*
X64633Y-59932D01*
X64750Y-59932D01*
X64984Y-59943D02*
X64961Y-59932D01*
X64926Y-59932D01*
X64891Y-59943D01*
X64867Y-59967D01*
X64855Y-59990D01*
X64844Y-60037D01*
X64844Y-60072D01*
X64855Y-60119D01*
X64867Y-60143D01*
X64891Y-60166D01*
X64926Y-60178D01*
X64949Y-60178D01*
X64984Y-60166D01*
X64996Y-60154D01*
X64996Y-60072D01*
X64949Y-60072D01*
X65230Y-60178D02*
X65090Y-60178D01*
X65160Y-60178D02*
X65160Y-59932D01*
X65137Y-59967D01*
X65113Y-59990D01*
X65090Y-60002D01*
X57727Y-58376D02*
X57926Y-58376D01*
X57950Y-58364D01*
X57961Y-58353D01*
X57973Y-58329D01*
X57973Y-58282D01*
X57961Y-58259D01*
X57950Y-58247D01*
X57926Y-58235D01*
X57727Y-58235D01*
X57727Y-58013D02*
X57727Y-58060D01*
X57739Y-58083D01*
X57750Y-58095D01*
X57786Y-58118D01*
X57833Y-58130D01*
X57926Y-58130D01*
X57950Y-58118D01*
X57961Y-58106D01*
X57973Y-58083D01*
X57973Y-58036D01*
X57961Y-58013D01*
X57950Y-58001D01*
X57926Y-57989D01*
X57868Y-57989D01*
X57844Y-58001D01*
X57833Y-58013D01*
X57821Y-58036D01*
X57821Y-58083D01*
X57833Y-58106D01*
X57844Y-58118D01*
X57868Y-58130D01*
G54D24*
X57826Y-59528D02*
X57760Y-59434D01*
X57713Y-59528D02*
X57713Y-59331D01*
X57788Y-59331D01*
X57807Y-59340D01*
X57816Y-59350D01*
X57826Y-59369D01*
X57826Y-59397D01*
X57816Y-59415D01*
X57807Y-59425D01*
X57788Y-59434D01*
X57713Y-59434D01*
X57901Y-59350D02*
X57910Y-59340D01*
X57929Y-59331D01*
X57976Y-59331D01*
X57994Y-59340D01*
X58004Y-59350D01*
X58013Y-59369D01*
X58013Y-59387D01*
X58004Y-59415D01*
X57891Y-59528D01*
X58013Y-59528D01*
X58088Y-59350D02*
X58098Y-59340D01*
X58116Y-59331D01*
X58163Y-59331D01*
X58182Y-59340D01*
X58191Y-59350D01*
X58201Y-59369D01*
X58201Y-59387D01*
X58191Y-59415D01*
X58079Y-59528D01*
X58201Y-59528D01*
X60030Y-59528D02*
X59965Y-59434D01*
X59918Y-59528D02*
X59918Y-59331D01*
X59993Y-59331D01*
X60012Y-59340D01*
X60021Y-59350D01*
X60030Y-59369D01*
X60030Y-59397D01*
X60021Y-59415D01*
X60012Y-59425D01*
X59993Y-59434D01*
X59918Y-59434D01*
X60105Y-59350D02*
X60115Y-59340D01*
X60134Y-59331D01*
X60180Y-59331D01*
X60199Y-59340D01*
X60209Y-59350D01*
X60218Y-59369D01*
X60218Y-59387D01*
X60209Y-59415D01*
X60096Y-59528D01*
X60218Y-59528D01*
X60284Y-59331D02*
X60406Y-59331D01*
X60340Y-59406D01*
X60368Y-59406D01*
X60387Y-59415D01*
X60396Y-59425D01*
X60406Y-59444D01*
X60406Y-59491D01*
X60396Y-59509D01*
X60387Y-59519D01*
X60368Y-59528D01*
X60312Y-59528D01*
X60293Y-59519D01*
X60284Y-59509D01*
G54D12*
X72571Y-48187D02*
X72607Y-48199D01*
X72665Y-48199D01*
X72689Y-48187D01*
X72700Y-48176D01*
X72712Y-48152D01*
X72712Y-48129D01*
X72700Y-48105D01*
X72689Y-48094D01*
X72665Y-48082D01*
X72618Y-48070D01*
X72595Y-48058D01*
X72583Y-48047D01*
X72571Y-48023D01*
X72571Y-48000D01*
X72583Y-47976D01*
X72595Y-47965D01*
X72618Y-47953D01*
X72677Y-47953D01*
X72712Y-47965D01*
X72794Y-47953D02*
X72853Y-48199D01*
X72900Y-48023D01*
X72946Y-48199D01*
X73005Y-47953D01*
X73204Y-48035D02*
X73204Y-48199D01*
X73146Y-47941D02*
X73087Y-48117D01*
X73239Y-48117D01*
X72571Y-51187D02*
X72607Y-51199D01*
X72665Y-51199D01*
X72689Y-51187D01*
X72700Y-51176D01*
X72712Y-51152D01*
X72712Y-51129D01*
X72700Y-51105D01*
X72689Y-51094D01*
X72665Y-51082D01*
X72618Y-51070D01*
X72595Y-51058D01*
X72583Y-51047D01*
X72571Y-51023D01*
X72571Y-51000D01*
X72583Y-50976D01*
X72595Y-50965D01*
X72618Y-50953D01*
X72677Y-50953D01*
X72712Y-50965D01*
X72794Y-50953D02*
X72853Y-51199D01*
X72900Y-51023D01*
X72946Y-51199D01*
X73005Y-50953D01*
X73087Y-50976D02*
X73099Y-50965D01*
X73122Y-50953D01*
X73181Y-50953D01*
X73204Y-50965D01*
X73216Y-50976D01*
X73228Y-51000D01*
X73228Y-51023D01*
X73216Y-51058D01*
X73075Y-51199D01*
X73228Y-51199D01*
X68671Y-51187D02*
X68707Y-51199D01*
X68765Y-51199D01*
X68789Y-51187D01*
X68800Y-51176D01*
X68812Y-51152D01*
X68812Y-51129D01*
X68800Y-51105D01*
X68789Y-51094D01*
X68765Y-51082D01*
X68718Y-51070D01*
X68695Y-51058D01*
X68683Y-51047D01*
X68671Y-51023D01*
X68671Y-51000D01*
X68683Y-50976D01*
X68695Y-50965D01*
X68718Y-50953D01*
X68777Y-50953D01*
X68812Y-50965D01*
X68894Y-50953D02*
X68953Y-51199D01*
X69000Y-51023D01*
X69046Y-51199D01*
X69105Y-50953D01*
X69328Y-51199D02*
X69187Y-51199D01*
X69257Y-51199D02*
X69257Y-50953D01*
X69234Y-50988D01*
X69210Y-51012D01*
X69187Y-51023D01*
X68571Y-48187D02*
X68607Y-48199D01*
X68665Y-48199D01*
X68689Y-48187D01*
X68700Y-48176D01*
X68712Y-48152D01*
X68712Y-48129D01*
X68700Y-48105D01*
X68689Y-48094D01*
X68665Y-48082D01*
X68618Y-48070D01*
X68595Y-48058D01*
X68583Y-48047D01*
X68571Y-48023D01*
X68571Y-48000D01*
X68583Y-47976D01*
X68595Y-47965D01*
X68618Y-47953D01*
X68677Y-47953D01*
X68712Y-47965D01*
X68794Y-47953D02*
X68853Y-48199D01*
X68900Y-48023D01*
X68946Y-48199D01*
X69005Y-47953D01*
X69075Y-47953D02*
X69228Y-47953D01*
X69146Y-48047D01*
X69181Y-48047D01*
X69204Y-48058D01*
X69216Y-48070D01*
X69228Y-48094D01*
X69228Y-48152D01*
X69216Y-48176D01*
X69204Y-48187D01*
X69181Y-48199D01*
X69110Y-48199D01*
X69087Y-48187D01*
X69075Y-48176D01*
G54D23*
X53917Y-58222D02*
X54119Y-58222D01*
X54143Y-58210D01*
X54155Y-58198D01*
X54167Y-58174D01*
X54167Y-58127D01*
X54155Y-58103D01*
X54143Y-58091D01*
X54119Y-58079D01*
X53917Y-58079D01*
X53941Y-57972D02*
X53929Y-57960D01*
X53917Y-57936D01*
X53917Y-57877D01*
X53929Y-57853D01*
X53941Y-57841D01*
X53964Y-57829D01*
X53988Y-57829D01*
X54024Y-57841D01*
X54167Y-57984D01*
X54167Y-57829D01*
X52591Y-59063D02*
X52734Y-59063D01*
X52662Y-59313D02*
X52662Y-59063D01*
X52936Y-59313D02*
X52817Y-59313D01*
X52817Y-59063D01*
X52984Y-59063D02*
X53067Y-59313D01*
X53150Y-59063D01*
X53210Y-59063D02*
X53377Y-59063D01*
X53270Y-59313D01*
X53520Y-59063D02*
X53543Y-59063D01*
X53567Y-59075D01*
X53579Y-59087D01*
X53591Y-59111D01*
X53603Y-59159D01*
X53603Y-59218D01*
X53591Y-59266D01*
X53579Y-59289D01*
X53567Y-59301D01*
X53543Y-59313D01*
X53520Y-59313D01*
X53496Y-59301D01*
X53484Y-59289D01*
X53472Y-59266D01*
X53460Y-59218D01*
X53460Y-59159D01*
X53472Y-59111D01*
X53484Y-59087D01*
X53496Y-59075D01*
X53520Y-59063D01*
X53698Y-59087D02*
X53710Y-59075D01*
X53734Y-59063D01*
X53793Y-59063D01*
X53817Y-59075D01*
X53829Y-59087D01*
X53841Y-59111D01*
X53841Y-59135D01*
X53829Y-59170D01*
X53686Y-59313D01*
X53841Y-59313D01*
G54D24*
X88849Y-45966D02*
X88840Y-45975D01*
X88812Y-45985D01*
X88793Y-45985D01*
X88765Y-45975D01*
X88746Y-45957D01*
X88737Y-45938D01*
X88727Y-45900D01*
X88727Y-45872D01*
X88737Y-45835D01*
X88746Y-45816D01*
X88765Y-45797D01*
X88793Y-45788D01*
X88812Y-45788D01*
X88840Y-45797D01*
X88849Y-45807D01*
X88924Y-45807D02*
X88934Y-45797D01*
X88952Y-45788D01*
X88999Y-45788D01*
X89018Y-45797D01*
X89027Y-45807D01*
X89037Y-45825D01*
X89037Y-45844D01*
X89027Y-45872D01*
X88915Y-45985D01*
X89037Y-45985D01*
X89112Y-45807D02*
X89121Y-45797D01*
X89140Y-45788D01*
X89187Y-45788D01*
X89206Y-45797D01*
X89215Y-45807D01*
X89224Y-45825D01*
X89224Y-45844D01*
X89215Y-45872D01*
X89103Y-45985D01*
X89224Y-45985D01*
X77904Y-53997D02*
X77895Y-54007D01*
X77867Y-54016D01*
X77848Y-54016D01*
X77820Y-54007D01*
X77801Y-53988D01*
X77792Y-53969D01*
X77782Y-53932D01*
X77782Y-53904D01*
X77792Y-53866D01*
X77801Y-53847D01*
X77820Y-53829D01*
X77848Y-53819D01*
X77867Y-53819D01*
X77895Y-53829D01*
X77904Y-53838D01*
X78092Y-54016D02*
X77979Y-54016D01*
X78036Y-54016D02*
X78036Y-53819D01*
X78017Y-53847D01*
X77998Y-53866D01*
X77979Y-53876D01*
X78205Y-53904D02*
X78186Y-53894D01*
X78176Y-53885D01*
X78167Y-53866D01*
X78167Y-53857D01*
X78176Y-53838D01*
X78186Y-53829D01*
X78205Y-53819D01*
X78242Y-53819D01*
X78261Y-53829D01*
X78270Y-53838D01*
X78280Y-53857D01*
X78280Y-53866D01*
X78270Y-53885D01*
X78261Y-53894D01*
X78242Y-53904D01*
X78205Y-53904D01*
X78186Y-53913D01*
X78176Y-53922D01*
X78167Y-53941D01*
X78167Y-53979D01*
X78176Y-53997D01*
X78186Y-54007D01*
X78205Y-54016D01*
X78242Y-54016D01*
X78261Y-54007D01*
X78270Y-53997D01*
X78280Y-53979D01*
X78280Y-53941D01*
X78270Y-53922D01*
X78261Y-53913D01*
X78242Y-53904D01*
X77274Y-50848D02*
X77265Y-50857D01*
X77237Y-50867D01*
X77218Y-50867D01*
X77190Y-50857D01*
X77171Y-50838D01*
X77162Y-50820D01*
X77152Y-50782D01*
X77152Y-50754D01*
X77162Y-50717D01*
X77171Y-50698D01*
X77190Y-50679D01*
X77218Y-50670D01*
X77237Y-50670D01*
X77265Y-50679D01*
X77274Y-50688D01*
X77462Y-50867D02*
X77349Y-50867D01*
X77406Y-50867D02*
X77406Y-50670D01*
X77387Y-50698D01*
X77368Y-50717D01*
X77349Y-50726D01*
X77528Y-50670D02*
X77659Y-50670D01*
X77575Y-50867D01*
X76487Y-50867D02*
X76421Y-50773D01*
X76374Y-50867D02*
X76374Y-50670D01*
X76450Y-50670D01*
X76468Y-50679D01*
X76478Y-50688D01*
X76487Y-50707D01*
X76487Y-50735D01*
X76478Y-50754D01*
X76468Y-50763D01*
X76450Y-50773D01*
X76374Y-50773D01*
X76562Y-50688D02*
X76571Y-50679D01*
X76590Y-50670D01*
X76637Y-50670D01*
X76656Y-50679D01*
X76665Y-50688D01*
X76675Y-50707D01*
X76675Y-50726D01*
X76665Y-50754D01*
X76553Y-50867D01*
X76675Y-50867D01*
X76844Y-50735D02*
X76844Y-50867D01*
X76797Y-50660D02*
X76750Y-50801D01*
X76872Y-50801D01*
X75463Y-50867D02*
X75398Y-50773D01*
X75351Y-50867D02*
X75351Y-50670D01*
X75426Y-50670D01*
X75445Y-50679D01*
X75454Y-50688D01*
X75463Y-50707D01*
X75463Y-50735D01*
X75454Y-50754D01*
X75445Y-50763D01*
X75426Y-50773D01*
X75351Y-50773D01*
X75529Y-50670D02*
X75651Y-50670D01*
X75585Y-50745D01*
X75614Y-50745D01*
X75632Y-50754D01*
X75642Y-50763D01*
X75651Y-50782D01*
X75651Y-50829D01*
X75642Y-50848D01*
X75632Y-50857D01*
X75614Y-50867D01*
X75557Y-50867D01*
X75538Y-50857D01*
X75529Y-50848D01*
X75717Y-50670D02*
X75839Y-50670D01*
X75773Y-50745D01*
X75801Y-50745D01*
X75820Y-50754D01*
X75829Y-50763D01*
X75839Y-50782D01*
X75839Y-50829D01*
X75829Y-50848D01*
X75820Y-50857D01*
X75801Y-50867D01*
X75745Y-50867D01*
X75726Y-50857D01*
X75717Y-50848D01*
X75148Y-53938D02*
X75083Y-53844D01*
X75036Y-53938D02*
X75036Y-53741D01*
X75111Y-53741D01*
X75130Y-53750D01*
X75139Y-53759D01*
X75148Y-53778D01*
X75148Y-53806D01*
X75139Y-53825D01*
X75130Y-53834D01*
X75111Y-53844D01*
X75036Y-53844D01*
X75214Y-53741D02*
X75336Y-53741D01*
X75270Y-53816D01*
X75299Y-53816D01*
X75317Y-53825D01*
X75327Y-53834D01*
X75336Y-53853D01*
X75336Y-53900D01*
X75327Y-53919D01*
X75317Y-53928D01*
X75299Y-53938D01*
X75242Y-53938D01*
X75223Y-53928D01*
X75214Y-53919D01*
X75411Y-53759D02*
X75420Y-53750D01*
X75439Y-53741D01*
X75486Y-53741D01*
X75505Y-53750D01*
X75514Y-53759D01*
X75524Y-53778D01*
X75524Y-53797D01*
X75514Y-53825D01*
X75402Y-53938D01*
X75524Y-53938D01*
X75463Y-56123D02*
X75454Y-56133D01*
X75426Y-56142D01*
X75407Y-56142D01*
X75379Y-56133D01*
X75360Y-56114D01*
X75351Y-56095D01*
X75341Y-56058D01*
X75341Y-56030D01*
X75351Y-55992D01*
X75360Y-55973D01*
X75379Y-55955D01*
X75407Y-55945D01*
X75426Y-55945D01*
X75454Y-55955D01*
X75463Y-55964D01*
X75651Y-56142D02*
X75538Y-56142D01*
X75595Y-56142D02*
X75595Y-55945D01*
X75576Y-55973D01*
X75557Y-55992D01*
X75538Y-56002D01*
X75745Y-56142D02*
X75782Y-56142D01*
X75801Y-56133D01*
X75811Y-56123D01*
X75829Y-56095D01*
X75839Y-56058D01*
X75839Y-55983D01*
X75829Y-55964D01*
X75820Y-55955D01*
X75801Y-55945D01*
X75764Y-55945D01*
X75745Y-55955D01*
X75735Y-55964D01*
X75726Y-55983D01*
X75726Y-56030D01*
X75735Y-56048D01*
X75745Y-56058D01*
X75764Y-56067D01*
X75801Y-56067D01*
X75820Y-56058D01*
X75829Y-56048D01*
X75839Y-56030D01*
X76251Y-56123D02*
X76241Y-56133D01*
X76213Y-56142D01*
X76195Y-56142D01*
X76166Y-56133D01*
X76148Y-56114D01*
X76138Y-56095D01*
X76129Y-56058D01*
X76129Y-56030D01*
X76138Y-55992D01*
X76148Y-55973D01*
X76166Y-55955D01*
X76195Y-55945D01*
X76213Y-55945D01*
X76241Y-55955D01*
X76251Y-55964D01*
X76326Y-55964D02*
X76335Y-55955D01*
X76354Y-55945D01*
X76401Y-55945D01*
X76420Y-55955D01*
X76429Y-55964D01*
X76438Y-55983D01*
X76438Y-56002D01*
X76429Y-56030D01*
X76316Y-56142D01*
X76438Y-56142D01*
X76560Y-55945D02*
X76579Y-55945D01*
X76598Y-55955D01*
X76607Y-55964D01*
X76617Y-55983D01*
X76626Y-56020D01*
X76626Y-56067D01*
X76617Y-56105D01*
X76607Y-56123D01*
X76598Y-56133D01*
X76579Y-56142D01*
X76560Y-56142D01*
X76542Y-56133D01*
X76532Y-56123D01*
X76523Y-56105D01*
X76513Y-56067D01*
X76513Y-56020D01*
X76523Y-55983D01*
X76532Y-55964D01*
X76542Y-55955D01*
X76560Y-55945D01*
X78062Y-50848D02*
X78052Y-50857D01*
X78024Y-50867D01*
X78006Y-50867D01*
X77977Y-50857D01*
X77959Y-50838D01*
X77949Y-50820D01*
X77940Y-50782D01*
X77940Y-50754D01*
X77949Y-50717D01*
X77959Y-50698D01*
X77977Y-50679D01*
X78006Y-50670D01*
X78024Y-50670D01*
X78052Y-50679D01*
X78062Y-50688D01*
X78137Y-50688D02*
X78146Y-50679D01*
X78165Y-50670D01*
X78212Y-50670D01*
X78231Y-50679D01*
X78240Y-50688D01*
X78249Y-50707D01*
X78249Y-50726D01*
X78240Y-50754D01*
X78128Y-50867D01*
X78249Y-50867D01*
X78418Y-50735D02*
X78418Y-50867D01*
X78371Y-50660D02*
X78325Y-50801D01*
X78446Y-50801D01*
X82708Y-43840D02*
X82698Y-43849D01*
X82670Y-43859D01*
X82651Y-43859D01*
X82623Y-43849D01*
X82604Y-43831D01*
X82595Y-43812D01*
X82586Y-43774D01*
X82586Y-43746D01*
X82595Y-43709D01*
X82604Y-43690D01*
X82623Y-43671D01*
X82651Y-43662D01*
X82670Y-43662D01*
X82698Y-43671D01*
X82708Y-43681D01*
X82783Y-43681D02*
X82792Y-43671D01*
X82811Y-43662D01*
X82858Y-43662D01*
X82876Y-43671D01*
X82886Y-43681D01*
X82895Y-43699D01*
X82895Y-43718D01*
X82886Y-43746D01*
X82773Y-43859D01*
X82895Y-43859D01*
X82961Y-43662D02*
X83083Y-43662D01*
X83017Y-43737D01*
X83045Y-43737D01*
X83064Y-43746D01*
X83073Y-43756D01*
X83083Y-43774D01*
X83083Y-43821D01*
X83073Y-43840D01*
X83064Y-43849D01*
X83045Y-43859D01*
X82989Y-43859D01*
X82970Y-43849D01*
X82961Y-43840D01*
X80503Y-45749D02*
X80437Y-45655D01*
X80390Y-45749D02*
X80390Y-45552D01*
X80465Y-45552D01*
X80484Y-45561D01*
X80493Y-45570D01*
X80503Y-45589D01*
X80503Y-45617D01*
X80493Y-45636D01*
X80484Y-45645D01*
X80465Y-45655D01*
X80390Y-45655D01*
X80578Y-45570D02*
X80587Y-45561D01*
X80606Y-45552D01*
X80653Y-45552D01*
X80672Y-45561D01*
X80681Y-45570D01*
X80690Y-45589D01*
X80690Y-45608D01*
X80681Y-45636D01*
X80568Y-45749D01*
X80690Y-45749D01*
X80869Y-45552D02*
X80775Y-45552D01*
X80765Y-45645D01*
X80775Y-45636D01*
X80794Y-45627D01*
X80840Y-45627D01*
X80859Y-45636D01*
X80869Y-45645D01*
X80878Y-45664D01*
X80878Y-45711D01*
X80869Y-45730D01*
X80859Y-45739D01*
X80840Y-45749D01*
X80794Y-45749D01*
X80775Y-45739D01*
X80765Y-45730D01*
X82708Y-48268D02*
X82642Y-48174D01*
X82595Y-48268D02*
X82595Y-48071D01*
X82670Y-48071D01*
X82689Y-48081D01*
X82698Y-48090D01*
X82708Y-48109D01*
X82708Y-48137D01*
X82698Y-48156D01*
X82689Y-48165D01*
X82670Y-48174D01*
X82595Y-48174D01*
X82783Y-48090D02*
X82792Y-48081D01*
X82811Y-48071D01*
X82858Y-48071D01*
X82876Y-48081D01*
X82886Y-48090D01*
X82895Y-48109D01*
X82895Y-48128D01*
X82886Y-48156D01*
X82773Y-48268D01*
X82895Y-48268D01*
X83064Y-48071D02*
X83026Y-48071D01*
X83008Y-48081D01*
X82998Y-48090D01*
X82980Y-48118D01*
X82970Y-48156D01*
X82970Y-48231D01*
X82980Y-48249D01*
X82989Y-48259D01*
X83008Y-48268D01*
X83045Y-48268D01*
X83064Y-48259D01*
X83073Y-48249D01*
X83083Y-48231D01*
X83083Y-48184D01*
X83073Y-48165D01*
X83064Y-48156D01*
X83045Y-48146D01*
X83008Y-48146D01*
X82989Y-48156D01*
X82980Y-48165D01*
X82970Y-48184D01*
X83180Y-46911D02*
X83171Y-46920D01*
X83142Y-46930D01*
X83124Y-46930D01*
X83096Y-46920D01*
X83077Y-46901D01*
X83067Y-46883D01*
X83058Y-46845D01*
X83058Y-46817D01*
X83067Y-46780D01*
X83077Y-46761D01*
X83096Y-46742D01*
X83124Y-46733D01*
X83142Y-46733D01*
X83171Y-46742D01*
X83180Y-46751D01*
X83255Y-46751D02*
X83264Y-46742D01*
X83283Y-46733D01*
X83330Y-46733D01*
X83349Y-46742D01*
X83358Y-46751D01*
X83368Y-46770D01*
X83368Y-46789D01*
X83358Y-46817D01*
X83246Y-46930D01*
X83368Y-46930D01*
X83461Y-46930D02*
X83499Y-46930D01*
X83518Y-46920D01*
X83527Y-46911D01*
X83546Y-46883D01*
X83555Y-46845D01*
X83555Y-46770D01*
X83546Y-46751D01*
X83536Y-46742D01*
X83518Y-46733D01*
X83480Y-46733D01*
X83461Y-46742D01*
X83452Y-46751D01*
X83443Y-46770D01*
X83443Y-46817D01*
X83452Y-46836D01*
X83461Y-46845D01*
X83480Y-46855D01*
X83518Y-46855D01*
X83536Y-46845D01*
X83546Y-46836D01*
X83555Y-46817D01*
X80345Y-46753D02*
X80336Y-46763D01*
X80308Y-46772D01*
X80289Y-46772D01*
X80261Y-46763D01*
X80242Y-46744D01*
X80233Y-46725D01*
X80223Y-46688D01*
X80223Y-46660D01*
X80233Y-46622D01*
X80242Y-46603D01*
X80261Y-46585D01*
X80289Y-46575D01*
X80308Y-46575D01*
X80336Y-46585D01*
X80345Y-46594D01*
X80420Y-46594D02*
X80430Y-46585D01*
X80448Y-46575D01*
X80495Y-46575D01*
X80514Y-46585D01*
X80524Y-46594D01*
X80533Y-46613D01*
X80533Y-46631D01*
X80524Y-46660D01*
X80411Y-46772D01*
X80533Y-46772D01*
X80711Y-46575D02*
X80617Y-46575D01*
X80608Y-46669D01*
X80617Y-46660D01*
X80636Y-46650D01*
X80683Y-46650D01*
X80702Y-46660D01*
X80711Y-46669D01*
X80721Y-46688D01*
X80721Y-46735D01*
X80711Y-46753D01*
X80702Y-46763D01*
X80683Y-46772D01*
X80636Y-46772D01*
X80617Y-46763D01*
X80608Y-46753D01*
X88770Y-44410D02*
X88705Y-44316D01*
X88658Y-44410D02*
X88658Y-44213D01*
X88733Y-44213D01*
X88752Y-44222D01*
X88761Y-44232D01*
X88770Y-44250D01*
X88770Y-44279D01*
X88761Y-44297D01*
X88752Y-44307D01*
X88733Y-44316D01*
X88658Y-44316D01*
X88846Y-44232D02*
X88855Y-44222D01*
X88874Y-44213D01*
X88921Y-44213D01*
X88939Y-44222D01*
X88949Y-44232D01*
X88958Y-44250D01*
X88958Y-44269D01*
X88949Y-44297D01*
X88836Y-44410D01*
X88958Y-44410D01*
X89052Y-44410D02*
X89089Y-44410D01*
X89108Y-44401D01*
X89118Y-44391D01*
X89136Y-44363D01*
X89146Y-44326D01*
X89146Y-44250D01*
X89136Y-44232D01*
X89127Y-44222D01*
X89108Y-44213D01*
X89071Y-44213D01*
X89052Y-44222D01*
X89043Y-44232D01*
X89033Y-44250D01*
X89033Y-44297D01*
X89043Y-44316D01*
X89052Y-44326D01*
X89071Y-44335D01*
X89108Y-44335D01*
X89127Y-44326D01*
X89136Y-44316D01*
X89146Y-44297D01*
X82550Y-45906D02*
X82484Y-45812D01*
X82437Y-45906D02*
X82437Y-45709D01*
X82512Y-45709D01*
X82531Y-45718D01*
X82541Y-45728D01*
X82550Y-45747D01*
X82550Y-45775D01*
X82541Y-45793D01*
X82531Y-45803D01*
X82512Y-45812D01*
X82437Y-45812D01*
X82616Y-45709D02*
X82738Y-45709D01*
X82672Y-45784D01*
X82700Y-45784D01*
X82719Y-45793D01*
X82728Y-45803D01*
X82738Y-45822D01*
X82738Y-45868D01*
X82728Y-45887D01*
X82719Y-45897D01*
X82700Y-45906D01*
X82644Y-45906D01*
X82625Y-45897D01*
X82616Y-45887D01*
X82925Y-45906D02*
X82813Y-45906D01*
X82869Y-45906D02*
X82869Y-45709D01*
X82850Y-45737D01*
X82831Y-45756D01*
X82813Y-45765D01*
X86093Y-46438D02*
X86084Y-46448D01*
X86056Y-46457D01*
X86037Y-46457D01*
X86009Y-46448D01*
X85990Y-46429D01*
X85981Y-46410D01*
X85971Y-46373D01*
X85971Y-46345D01*
X85981Y-46307D01*
X85990Y-46288D01*
X86009Y-46270D01*
X86037Y-46260D01*
X86056Y-46260D01*
X86084Y-46270D01*
X86093Y-46279D01*
X86168Y-46279D02*
X86178Y-46270D01*
X86197Y-46260D01*
X86243Y-46260D01*
X86262Y-46270D01*
X86272Y-46279D01*
X86281Y-46298D01*
X86281Y-46316D01*
X86272Y-46345D01*
X86159Y-46457D01*
X86281Y-46457D01*
X86450Y-46260D02*
X86412Y-46260D01*
X86394Y-46270D01*
X86384Y-46279D01*
X86365Y-46307D01*
X86356Y-46345D01*
X86356Y-46420D01*
X86365Y-46438D01*
X86375Y-46448D01*
X86394Y-46457D01*
X86431Y-46457D01*
X86450Y-46448D01*
X86459Y-46438D01*
X86469Y-46420D01*
X86469Y-46373D01*
X86459Y-46354D01*
X86450Y-46345D01*
X86431Y-46335D01*
X86394Y-46335D01*
X86375Y-46345D01*
X86365Y-46354D01*
X86356Y-46373D01*
X86093Y-47717D02*
X86028Y-47623D01*
X85981Y-47717D02*
X85981Y-47520D01*
X86056Y-47520D01*
X86075Y-47529D01*
X86084Y-47539D01*
X86093Y-47558D01*
X86093Y-47586D01*
X86084Y-47604D01*
X86075Y-47614D01*
X86056Y-47623D01*
X85981Y-47623D01*
X86159Y-47520D02*
X86281Y-47520D01*
X86215Y-47595D01*
X86243Y-47595D01*
X86262Y-47604D01*
X86272Y-47614D01*
X86281Y-47633D01*
X86281Y-47680D01*
X86272Y-47698D01*
X86262Y-47708D01*
X86243Y-47717D01*
X86187Y-47717D01*
X86168Y-47708D01*
X86159Y-47698D01*
X86403Y-47520D02*
X86422Y-47520D01*
X86440Y-47529D01*
X86450Y-47539D01*
X86459Y-47558D01*
X86469Y-47595D01*
X86469Y-47642D01*
X86459Y-47680D01*
X86450Y-47698D01*
X86440Y-47708D01*
X86422Y-47717D01*
X86403Y-47717D01*
X86384Y-47708D01*
X86375Y-47698D01*
X86365Y-47680D01*
X86356Y-47642D01*
X86356Y-47595D01*
X86365Y-47558D01*
X86375Y-47539D01*
X86384Y-47529D01*
X86403Y-47520D01*
X89873Y-48504D02*
X89807Y-48411D01*
X89760Y-48504D02*
X89760Y-48307D01*
X89835Y-48307D01*
X89854Y-48317D01*
X89863Y-48326D01*
X89873Y-48345D01*
X89873Y-48373D01*
X89863Y-48392D01*
X89854Y-48401D01*
X89835Y-48411D01*
X89760Y-48411D01*
X89948Y-48326D02*
X89957Y-48317D01*
X89976Y-48307D01*
X90023Y-48307D01*
X90042Y-48317D01*
X90051Y-48326D01*
X90060Y-48345D01*
X90060Y-48364D01*
X90051Y-48392D01*
X89939Y-48504D01*
X90060Y-48504D01*
X90173Y-48392D02*
X90154Y-48382D01*
X90145Y-48373D01*
X90136Y-48354D01*
X90136Y-48345D01*
X90145Y-48326D01*
X90154Y-48317D01*
X90173Y-48307D01*
X90211Y-48307D01*
X90229Y-48317D01*
X90239Y-48326D01*
X90248Y-48345D01*
X90248Y-48354D01*
X90239Y-48373D01*
X90229Y-48382D01*
X90211Y-48392D01*
X90173Y-48392D01*
X90154Y-48401D01*
X90145Y-48411D01*
X90136Y-48429D01*
X90136Y-48467D01*
X90145Y-48486D01*
X90154Y-48495D01*
X90173Y-48504D01*
X90211Y-48504D01*
X90229Y-48495D01*
X90239Y-48486D01*
X90248Y-48467D01*
X90248Y-48429D01*
X90239Y-48411D01*
X90229Y-48401D01*
X90211Y-48392D01*
X88849Y-47226D02*
X88840Y-47235D01*
X88812Y-47245D01*
X88793Y-47245D01*
X88765Y-47235D01*
X88746Y-47216D01*
X88737Y-47198D01*
X88727Y-47160D01*
X88727Y-47132D01*
X88737Y-47094D01*
X88746Y-47076D01*
X88765Y-47057D01*
X88793Y-47048D01*
X88812Y-47048D01*
X88840Y-47057D01*
X88849Y-47066D01*
X88924Y-47066D02*
X88934Y-47057D01*
X88952Y-47048D01*
X88999Y-47048D01*
X89018Y-47057D01*
X89027Y-47066D01*
X89037Y-47085D01*
X89037Y-47104D01*
X89027Y-47132D01*
X88915Y-47245D01*
X89037Y-47245D01*
X89224Y-47245D02*
X89112Y-47245D01*
X89168Y-47245D02*
X89168Y-47048D01*
X89149Y-47076D01*
X89131Y-47094D01*
X89112Y-47104D01*
X52314Y-56360D02*
X52304Y-56369D01*
X52276Y-56378D01*
X52258Y-56378D01*
X52229Y-56369D01*
X52211Y-56350D01*
X52201Y-56332D01*
X52192Y-56294D01*
X52192Y-56266D01*
X52201Y-56228D01*
X52211Y-56210D01*
X52229Y-56191D01*
X52258Y-56181D01*
X52276Y-56181D01*
X52304Y-56191D01*
X52314Y-56200D01*
X52501Y-56378D02*
X52389Y-56378D01*
X52445Y-56378D02*
X52445Y-56181D01*
X52426Y-56210D01*
X52408Y-56228D01*
X52389Y-56238D01*
X52670Y-56181D02*
X52633Y-56181D01*
X52614Y-56191D01*
X52605Y-56200D01*
X52586Y-56228D01*
X52576Y-56266D01*
X52576Y-56341D01*
X52586Y-56360D01*
X52595Y-56369D01*
X52614Y-56378D01*
X52652Y-56378D01*
X52670Y-56369D01*
X52680Y-56360D01*
X52689Y-56341D01*
X52689Y-56294D01*
X52680Y-56275D01*
X52670Y-56266D01*
X52652Y-56256D01*
X52614Y-56256D01*
X52595Y-56266D01*
X52586Y-56275D01*
X52576Y-56294D01*
G54D12*
X85089Y-49848D02*
X85089Y-49602D01*
X85089Y-49719D02*
X85230Y-49719D01*
X85230Y-49848D02*
X85230Y-49602D01*
X85347Y-49848D02*
X85347Y-49602D01*
X85441Y-49602D01*
X85464Y-49613D01*
X85476Y-49625D01*
X85487Y-49649D01*
X85487Y-49684D01*
X85476Y-49707D01*
X85464Y-49719D01*
X85441Y-49731D01*
X85347Y-49731D01*
X85722Y-49848D02*
X85581Y-49848D01*
X85651Y-49848D02*
X85651Y-49602D01*
X85628Y-49637D01*
X85605Y-49660D01*
X85581Y-49672D01*
X80369Y-55499D02*
X80369Y-55253D01*
X80451Y-55429D01*
X80533Y-55253D01*
X80533Y-55499D01*
X80650Y-55499D02*
X80650Y-55253D01*
X80908Y-55476D02*
X80896Y-55487D01*
X80861Y-55499D01*
X80837Y-55499D01*
X80802Y-55487D01*
X80779Y-55464D01*
X80767Y-55441D01*
X80755Y-55394D01*
X80755Y-55358D01*
X80767Y-55312D01*
X80779Y-55288D01*
X80802Y-55265D01*
X80837Y-55253D01*
X80861Y-55253D01*
X80896Y-55265D01*
X80908Y-55276D01*
X81142Y-55499D02*
X81001Y-55499D01*
X81072Y-55499D02*
X81072Y-55253D01*
X81048Y-55288D01*
X81025Y-55312D01*
X81001Y-55323D01*
M02*
