G04 (created by PCBNEW (2013-07-07 BZR 4022)-stable) date 2015-03-02 11:41:06 PM*
%MOIN*%
G04 Gerber Fmt 3.4, Leading zero omitted, Abs format*
%FSLAX34Y34*%
G01*
G70*
G90*
G04 APERTURE LIST*
%ADD10C,0.00590551*%
%ADD11C,0.0629921*%
%ADD12R,0.0334646X0.0433071*%
%ADD13R,0.0295276X0.0433071*%
%ADD14R,0.0610236X0.0531496*%
%ADD15R,0.0748031X0.0531496*%
%ADD16R,0.046063X0.0708661*%
%ADD17R,0.0472441X0.0393701*%
%ADD18C,0.023622*%
%ADD19R,0.055X0.035*%
%ADD20R,0.035X0.055*%
%ADD21R,0.06X0.06*%
%ADD22C,0.06*%
%ADD23R,0.0551181X0.0551181*%
%ADD24C,0.0669291*%
%ADD25C,0.0393701*%
%ADD26C,0.019685*%
%ADD27C,0.006*%
%ADD28C,0.0137795*%
%ADD29C,0.0295276*%
%ADD30C,0.00787402*%
%ADD31C,0.0393701*%
%ADD32C,0.01*%
G04 APERTURE END LIST*
G54D10*
G54D11*
X51000Y-62000D03*
X52000Y-62000D03*
X53000Y-62000D03*
X54000Y-62000D03*
X55000Y-62000D03*
X56000Y-62000D03*
X57000Y-62000D03*
X58000Y-62000D03*
X59000Y-62000D03*
X60000Y-62000D03*
X60000Y-44000D03*
X59000Y-44000D03*
X58000Y-44000D03*
X57000Y-44000D03*
X56000Y-44000D03*
X55000Y-44000D03*
X54000Y-44000D03*
X53000Y-44000D03*
X52000Y-44000D03*
X51000Y-44000D03*
X51000Y-61000D03*
X52000Y-61000D03*
X53000Y-61000D03*
X54000Y-61000D03*
X55000Y-61000D03*
X56000Y-61000D03*
X57000Y-61000D03*
X58000Y-61000D03*
X59000Y-61000D03*
X60000Y-61000D03*
X60000Y-45000D03*
X59000Y-45000D03*
X58000Y-45000D03*
X57000Y-45000D03*
X56000Y-45000D03*
X55000Y-45000D03*
X54000Y-45000D03*
X53000Y-45000D03*
X52000Y-45000D03*
X51000Y-45000D03*
G54D12*
X86572Y-44154D03*
X86139Y-44154D03*
X85706Y-44154D03*
X85273Y-44154D03*
X84840Y-44154D03*
X84407Y-44154D03*
X83974Y-44154D03*
G54D13*
X83560Y-44154D03*
G54D14*
X87540Y-44203D03*
G54D15*
X83881Y-48416D03*
X86231Y-48416D03*
G54D16*
X83084Y-44292D03*
G54D17*
X87621Y-48032D03*
X87621Y-46575D03*
G54D11*
X100437Y-62236D03*
X101437Y-62236D03*
X102437Y-62236D03*
X103437Y-62236D03*
X104437Y-62236D03*
X105437Y-62236D03*
X106437Y-62236D03*
X107437Y-62236D03*
X107437Y-48236D03*
X106437Y-48236D03*
X105437Y-48236D03*
X104437Y-48236D03*
X103437Y-48236D03*
X102437Y-48236D03*
X101437Y-48236D03*
X100437Y-48236D03*
X100437Y-49236D03*
X101437Y-49236D03*
X102437Y-49236D03*
X103437Y-49236D03*
X104437Y-49236D03*
X105437Y-49236D03*
X106437Y-49236D03*
X107437Y-49236D03*
G54D18*
X80900Y-60262D03*
X80900Y-60537D03*
G54D19*
X89300Y-45825D03*
X89300Y-45075D03*
G54D20*
X79775Y-46150D03*
X80525Y-46150D03*
G54D19*
X88450Y-45825D03*
X88450Y-45075D03*
G54D21*
X73653Y-44094D03*
G54D22*
X72653Y-44094D03*
X71653Y-44094D03*
X70653Y-44094D03*
X69653Y-44094D03*
G54D21*
X69366Y-61417D03*
G54D22*
X70366Y-61417D03*
X71366Y-61417D03*
X72366Y-61417D03*
G54D21*
X85901Y-61417D03*
G54D22*
X86901Y-61417D03*
X87901Y-61417D03*
X88901Y-61417D03*
G54D21*
X66822Y-61417D03*
G54D22*
X67822Y-61417D03*
G54D21*
X91838Y-61417D03*
G54D22*
X90838Y-61417D03*
G54D21*
X92050Y-44050D03*
G54D22*
X93050Y-44050D03*
G54D21*
X94988Y-61417D03*
G54D22*
X93988Y-61417D03*
G54D23*
X98610Y-44968D03*
G54D11*
X99610Y-44968D03*
X100610Y-44968D03*
X101610Y-44968D03*
X102610Y-44968D03*
X103610Y-44968D03*
X104610Y-44968D03*
X105610Y-44968D03*
X106610Y-44968D03*
X107610Y-44968D03*
X107610Y-43968D03*
X106610Y-43968D03*
X105610Y-43968D03*
X104610Y-43968D03*
X103610Y-43968D03*
X102610Y-43968D03*
X101610Y-43968D03*
X100610Y-43968D03*
X99610Y-43968D03*
X98610Y-43968D03*
G54D23*
X75740Y-44094D03*
G54D24*
X76740Y-44094D03*
X77740Y-44094D03*
X78740Y-44094D03*
X79740Y-44094D03*
X80740Y-44094D03*
X81740Y-44094D03*
G54D21*
X73984Y-61417D03*
G54D22*
X74984Y-61417D03*
X75984Y-61417D03*
X76984Y-61417D03*
X77984Y-61417D03*
G54D24*
X95255Y-54834D03*
X95255Y-53850D03*
X95255Y-52865D03*
G54D21*
X68100Y-59400D03*
G54D22*
X69100Y-59400D03*
X70100Y-59400D03*
X71100Y-59400D03*
G54D21*
X66450Y-44100D03*
G54D22*
X67450Y-44100D03*
X68450Y-44100D03*
G54D21*
X96950Y-44050D03*
G54D22*
X96950Y-45050D03*
G54D21*
X94250Y-44050D03*
G54D22*
X95250Y-44050D03*
G54D21*
X51330Y-50889D03*
G54D22*
X51330Y-51889D03*
X51330Y-52889D03*
X51330Y-53889D03*
X51330Y-54889D03*
X51330Y-55889D03*
G54D23*
X73200Y-59400D03*
G54D24*
X74200Y-59400D03*
X75200Y-59400D03*
X76200Y-59400D03*
X77200Y-59400D03*
X78200Y-59400D03*
X79200Y-59400D03*
G54D21*
X77500Y-55300D03*
G54D22*
X78500Y-55300D03*
G54D21*
X89700Y-44050D03*
G54D22*
X90700Y-44050D03*
G54D25*
X79962Y-52600D03*
X79962Y-53600D03*
G54D26*
X53850Y-56200D03*
X56250Y-55850D03*
X85200Y-62200D03*
X85200Y-61400D03*
X61800Y-58975D03*
X61055Y-60780D03*
X87700Y-55575D03*
X88950Y-55575D03*
X91925Y-59235D03*
X96000Y-59250D03*
X91650Y-48600D03*
X87650Y-47450D03*
X92100Y-46400D03*
X59700Y-53800D03*
X58150Y-50400D03*
X86250Y-51950D03*
X64700Y-56200D03*
X63600Y-57600D03*
X61100Y-58300D03*
X56700Y-60000D03*
X79600Y-45200D03*
X77480Y-45200D03*
X75650Y-49950D03*
X75050Y-48350D03*
X78200Y-49950D03*
X89500Y-51900D03*
X89500Y-50650D03*
X88350Y-50650D03*
X89050Y-52950D03*
X53600Y-58200D03*
X95550Y-46800D03*
X97150Y-48350D03*
X97150Y-46650D03*
X61750Y-54850D03*
X54200Y-53500D03*
X53450Y-54750D03*
X53450Y-55350D03*
X79050Y-62400D03*
X52900Y-52550D03*
X100300Y-52000D03*
X102900Y-55350D03*
X93100Y-46400D03*
X61300Y-44500D03*
X58650Y-48400D03*
X61100Y-47050D03*
X61300Y-45700D03*
X87700Y-60400D03*
X58400Y-56700D03*
X75750Y-53900D03*
X77100Y-54350D03*
X76500Y-54350D03*
X77675Y-52350D03*
X79300Y-47050D03*
X90700Y-48150D03*
X77600Y-47650D03*
X63050Y-51600D03*
X60200Y-54450D03*
X56350Y-57000D03*
X63050Y-51900D03*
X60200Y-54750D03*
X56250Y-58250D03*
X77400Y-47900D03*
X91000Y-48150D03*
X55500Y-60550D03*
X85900Y-60600D03*
X84800Y-59350D03*
X81450Y-56000D03*
X62800Y-52800D03*
X62150Y-52150D03*
X54450Y-49800D03*
X63000Y-52600D03*
X54450Y-49500D03*
X62350Y-51950D03*
X85300Y-59350D03*
X81700Y-55750D03*
X63325Y-56625D03*
X64706Y-54993D03*
X105650Y-53000D03*
X96400Y-56200D03*
X96400Y-58250D03*
X55649Y-53614D03*
X58366Y-54440D03*
X99050Y-47200D03*
X97225Y-49025D03*
X63950Y-48700D03*
X61800Y-50300D03*
X60600Y-50300D03*
X81125Y-48750D03*
X92350Y-46750D03*
X94400Y-46525D03*
X86900Y-50725D03*
X86400Y-44600D03*
X84375Y-45325D03*
X82950Y-48700D03*
X88950Y-55200D03*
X87650Y-55200D03*
X103350Y-50200D03*
X103800Y-51150D03*
X91450Y-46500D03*
X78150Y-44700D03*
X74050Y-44750D03*
X70650Y-44750D03*
X69450Y-44750D03*
X97850Y-47950D03*
X83300Y-60400D03*
X84900Y-60400D03*
X58900Y-55150D03*
X59950Y-57050D03*
X53150Y-51700D03*
X55350Y-52550D03*
X66150Y-57400D03*
X64800Y-58750D03*
X107800Y-47250D03*
X102100Y-46772D03*
X100100Y-46800D03*
X96600Y-50800D03*
X96600Y-51750D03*
X95100Y-50500D03*
X95100Y-48700D03*
X56600Y-56300D03*
X54400Y-56300D03*
X82550Y-60450D03*
X82550Y-59250D03*
X87850Y-58250D03*
X88450Y-58250D03*
X88150Y-54400D03*
X89700Y-52850D03*
X86600Y-59500D03*
X86900Y-59800D03*
X69100Y-60300D03*
X79400Y-61100D03*
X79500Y-61700D03*
X69000Y-52900D03*
X55000Y-45000D03*
X67500Y-52200D03*
X67500Y-49300D03*
X70300Y-52100D03*
X70300Y-49200D03*
X71400Y-52100D03*
X71400Y-49200D03*
X67100Y-54800D03*
X67100Y-53900D03*
X73600Y-62300D03*
X73800Y-62500D03*
X85300Y-57800D03*
X86550Y-59050D03*
X87900Y-59050D03*
X92050Y-58000D03*
X86900Y-56450D03*
X86900Y-51850D03*
X86900Y-56000D03*
X101400Y-51650D03*
X100750Y-52300D03*
X76800Y-56450D03*
X75800Y-57450D03*
X95400Y-60400D03*
X96100Y-60400D03*
X62593Y-61193D03*
X62396Y-59100D03*
X83050Y-46450D03*
X81500Y-47050D03*
X85850Y-46950D03*
X81550Y-47500D03*
X85600Y-46750D03*
X81250Y-47300D03*
X62800Y-44900D03*
X92185Y-60245D03*
X91610Y-60240D03*
X58150Y-53250D03*
X57500Y-59350D03*
X57500Y-57500D03*
X65300Y-48350D03*
X60200Y-52100D03*
X57900Y-54450D03*
X57500Y-60650D03*
X54000Y-47500D03*
X58000Y-48800D03*
X62600Y-47200D03*
X52500Y-46900D03*
X57700Y-49000D03*
X62000Y-47500D03*
X69050Y-45700D03*
X64900Y-48100D03*
X60700Y-51600D03*
X57850Y-51600D03*
X57100Y-54200D03*
X88725Y-55975D03*
X87775Y-55975D03*
X62025Y-57950D03*
X63075Y-57950D03*
X67975Y-57700D03*
X54475Y-46450D03*
X59125Y-47575D03*
X69200Y-45100D03*
X70300Y-45100D03*
X72450Y-45700D03*
X75800Y-48100D03*
X94750Y-48525D03*
X94225Y-50425D03*
X100000Y-44450D03*
X96250Y-44450D03*
X81800Y-62000D03*
X80900Y-61400D03*
X86100Y-45900D03*
X85600Y-46400D03*
X64900Y-47800D03*
X62000Y-47800D03*
X86250Y-50300D03*
X91550Y-50100D03*
X64300Y-48100D03*
X62000Y-48100D03*
X92600Y-48550D03*
X98900Y-49900D03*
X62000Y-48400D03*
X63700Y-48400D03*
X101100Y-45500D03*
X98900Y-49050D03*
X99800Y-52900D03*
X57200Y-51700D03*
X60450Y-51850D03*
X96950Y-50100D03*
X73600Y-45900D03*
X73400Y-46100D03*
X78400Y-46700D03*
X77050Y-46700D03*
X77050Y-48500D03*
X99550Y-50950D03*
X99550Y-52150D03*
X85700Y-45500D03*
X84900Y-49100D03*
X84500Y-49500D03*
X76200Y-48500D03*
X99800Y-50700D03*
X99250Y-52150D03*
X76200Y-46500D03*
X74900Y-46500D03*
X84700Y-45700D03*
X98650Y-49300D03*
X98950Y-52150D03*
X92250Y-49300D03*
X92850Y-49300D03*
X75900Y-46300D03*
X74000Y-46300D03*
X80500Y-58850D03*
X80700Y-58650D03*
X80900Y-58450D03*
X56950Y-53500D03*
X55900Y-52100D03*
X56300Y-52850D03*
X96900Y-57000D03*
X97450Y-57050D03*
X68050Y-60100D03*
X56650Y-53500D03*
X56000Y-52850D03*
X55600Y-51850D03*
X77000Y-56650D03*
X76200Y-57450D03*
G54D27*
X54200Y-55850D02*
X53850Y-56200D01*
X56250Y-55850D02*
X54200Y-55850D01*
X86250Y-51950D02*
X86600Y-51600D01*
X87875Y-51600D02*
X89050Y-52775D01*
X86600Y-51600D02*
X87875Y-51600D01*
G54D28*
X61050Y-60775D02*
X61050Y-59725D01*
X61050Y-59725D02*
X61800Y-58975D01*
X61050Y-60750D02*
X61050Y-60775D01*
X61050Y-60775D02*
X61055Y-60780D01*
G54D29*
X87700Y-55575D02*
X88950Y-55575D01*
G54D27*
X96000Y-59250D02*
X91940Y-59250D01*
X91940Y-59250D02*
X91925Y-59235D01*
X87621Y-47478D02*
X87621Y-48032D01*
X87650Y-47450D02*
X87621Y-47478D01*
X92100Y-46400D02*
X92100Y-46650D01*
X90325Y-45825D02*
X89300Y-45825D01*
X91250Y-46750D02*
X90325Y-45825D01*
X92000Y-46750D02*
X91250Y-46750D01*
X92100Y-46650D02*
X92000Y-46750D01*
X58150Y-50400D02*
X58700Y-50400D01*
X61000Y-52500D02*
X59700Y-53800D01*
X61000Y-51450D02*
X61000Y-52500D01*
X60950Y-51400D02*
X61000Y-51450D01*
X59700Y-51400D02*
X60950Y-51400D01*
X58700Y-50400D02*
X59700Y-51400D01*
G54D28*
X63600Y-57300D02*
X64700Y-56200D01*
X63600Y-57600D02*
X63600Y-57300D01*
X56700Y-60000D02*
X56700Y-59350D01*
X56700Y-59350D02*
X57750Y-58300D01*
X57750Y-58300D02*
X61100Y-58300D01*
G54D27*
X89500Y-51900D02*
X89050Y-52350D01*
X89050Y-52350D02*
X89050Y-52775D01*
X89050Y-52775D02*
X89050Y-52950D01*
X85273Y-44426D02*
X85273Y-44154D01*
X84950Y-44750D02*
X85273Y-44426D01*
X84950Y-45360D02*
X84950Y-44750D01*
X87621Y-48032D02*
X84950Y-45360D01*
X80740Y-44094D02*
X81284Y-43550D01*
X81284Y-43550D02*
X85100Y-43550D01*
X85100Y-43550D02*
X85273Y-43723D01*
X85273Y-43723D02*
X85273Y-44154D01*
X53450Y-56350D02*
X53450Y-55350D01*
X51500Y-61500D02*
X51500Y-58300D01*
X51500Y-58300D02*
X53450Y-56350D01*
X51000Y-62000D02*
X51500Y-61500D01*
X54200Y-54000D02*
X54200Y-53500D01*
X53450Y-54750D02*
X54200Y-54000D01*
X106950Y-48700D02*
X106950Y-51300D01*
X107413Y-48236D02*
X106950Y-48700D01*
X107437Y-48236D02*
X107413Y-48236D01*
X106950Y-51300D02*
X102900Y-55350D01*
X61300Y-46850D02*
X61100Y-47050D01*
X61300Y-45700D02*
X61300Y-46850D01*
X75750Y-53900D02*
X76125Y-53900D01*
G54D30*
X75750Y-53900D02*
X76200Y-54350D01*
X76200Y-54350D02*
X76500Y-54350D01*
X77100Y-54350D02*
X76500Y-54350D01*
G54D27*
X76125Y-53900D02*
X77675Y-52350D01*
X52000Y-62000D02*
X52500Y-61500D01*
X88550Y-51000D02*
X90700Y-48150D01*
X82400Y-51000D02*
X88550Y-51000D01*
X79050Y-47650D02*
X82400Y-51000D01*
X77600Y-47650D02*
X79050Y-47650D01*
X60200Y-54450D02*
X63050Y-51600D01*
X52500Y-60850D02*
X56350Y-57000D01*
X52500Y-61500D02*
X52500Y-60850D01*
X56250Y-58250D02*
X55500Y-59000D01*
X63050Y-51900D02*
X60200Y-54750D01*
X79000Y-47900D02*
X77400Y-47900D01*
X82300Y-51200D02*
X79000Y-47900D01*
X88650Y-51200D02*
X82300Y-51200D01*
X91000Y-48150D02*
X88650Y-51200D01*
X55500Y-59000D02*
X55500Y-60550D01*
G54D30*
X85900Y-60450D02*
X85900Y-60600D01*
X84800Y-59350D02*
X85900Y-60450D01*
X67200Y-56000D02*
X81450Y-56000D01*
X66050Y-54850D02*
X67200Y-56000D01*
X64850Y-54850D02*
X66050Y-54850D01*
X62800Y-52800D02*
X64850Y-54850D01*
X61200Y-51200D02*
X62150Y-52150D01*
X59900Y-51200D02*
X61200Y-51200D01*
X58500Y-49800D02*
X59900Y-51200D01*
X54450Y-49800D02*
X58500Y-49800D01*
X54450Y-49500D02*
X58500Y-49500D01*
X58500Y-49500D02*
X60000Y-51000D01*
X60000Y-51000D02*
X61400Y-51000D01*
X61400Y-51000D02*
X62350Y-51950D01*
X87234Y-60750D02*
X87901Y-61417D01*
X86700Y-60750D02*
X87234Y-60750D01*
X85300Y-59350D02*
X86700Y-60750D01*
X67250Y-55750D02*
X81700Y-55750D01*
X66150Y-54650D02*
X67250Y-55750D01*
X65050Y-54650D02*
X66150Y-54650D01*
X63000Y-52600D02*
X65050Y-54650D01*
G54D27*
X64706Y-55243D02*
X64706Y-54993D01*
X63325Y-56625D02*
X64706Y-55243D01*
X65943Y-54993D02*
X64706Y-54993D01*
X65943Y-54993D02*
X67150Y-56200D01*
X67150Y-56200D02*
X96400Y-56200D01*
X100400Y-58250D02*
X105650Y-53000D01*
X96400Y-58250D02*
X100400Y-58250D01*
X54925Y-52889D02*
X51330Y-52889D01*
X55649Y-53614D02*
X54925Y-52889D01*
X58366Y-54440D02*
X57875Y-53950D01*
X52490Y-55050D02*
X51330Y-53889D01*
X55250Y-55050D02*
X52490Y-55050D01*
X56350Y-53950D02*
X55250Y-55050D01*
X57875Y-53950D02*
X56350Y-53950D01*
X107437Y-62236D02*
X107874Y-61799D01*
X107874Y-47874D02*
X107637Y-47637D01*
X107874Y-61799D02*
X107874Y-47874D01*
X104100Y-46300D02*
X103200Y-47200D01*
X99050Y-47200D02*
X103200Y-47200D01*
X97225Y-49025D02*
X94900Y-51350D01*
X78300Y-51350D02*
X94900Y-51350D01*
X75650Y-48700D02*
X78300Y-51350D01*
X63950Y-48700D02*
X75650Y-48700D01*
X60600Y-50300D02*
X61800Y-50300D01*
X103610Y-43968D02*
X104100Y-44458D01*
X107600Y-47600D02*
X107637Y-47637D01*
X104100Y-46300D02*
X105400Y-47600D01*
X105400Y-47600D02*
X107600Y-47600D01*
X104100Y-44458D02*
X104100Y-46300D01*
X81175Y-48700D02*
X82950Y-48700D01*
X81125Y-48750D02*
X81175Y-48700D01*
X94400Y-46525D02*
X94175Y-46750D01*
X94175Y-46750D02*
X92350Y-46750D01*
X85900Y-50450D02*
X85900Y-48748D01*
X85900Y-48748D02*
X86231Y-48416D01*
X86175Y-50725D02*
X85900Y-50450D01*
X86900Y-50725D02*
X86175Y-50725D01*
X85821Y-62496D02*
X87821Y-62496D01*
X87821Y-62496D02*
X88901Y-61417D01*
X87540Y-44203D02*
X87144Y-44600D01*
X87144Y-44600D02*
X86400Y-44600D01*
X84375Y-45325D02*
X84407Y-45292D01*
X84407Y-45292D02*
X84407Y-44154D01*
X83084Y-44292D02*
X83084Y-43940D01*
X84407Y-43832D02*
X84407Y-44154D01*
X84300Y-43725D02*
X84407Y-43832D01*
X83300Y-43725D02*
X84300Y-43725D01*
X83084Y-43940D02*
X83300Y-43725D01*
X84900Y-60400D02*
X84900Y-60625D01*
X85818Y-62500D02*
X85821Y-62496D01*
X85821Y-62496D02*
X86901Y-61417D01*
X84725Y-62500D02*
X85818Y-62500D01*
X84400Y-62175D02*
X84725Y-62500D01*
X84400Y-61125D02*
X84400Y-62175D01*
X84900Y-60625D02*
X84400Y-61125D01*
X83233Y-48416D02*
X83881Y-48416D01*
X82950Y-48700D02*
X83233Y-48416D01*
G54D29*
X87650Y-55200D02*
X88950Y-55200D01*
G54D27*
X103350Y-50700D02*
X103350Y-50200D01*
X103800Y-51150D02*
X103350Y-50700D01*
G54D30*
X88825Y-45450D02*
X88450Y-45075D01*
X91450Y-46500D02*
X90400Y-45450D01*
X90400Y-45450D02*
X88825Y-45450D01*
X74100Y-44700D02*
X78150Y-44700D01*
X74050Y-44750D02*
X74100Y-44700D01*
X69450Y-44750D02*
X70650Y-44750D01*
X87540Y-44203D02*
X87578Y-44203D01*
X87578Y-44203D02*
X88450Y-45075D01*
G54D27*
X100437Y-48236D02*
X98136Y-48236D01*
X98136Y-48236D02*
X97850Y-47950D01*
X84900Y-60400D02*
X83300Y-60400D01*
X58900Y-55150D02*
X58900Y-56000D01*
X58900Y-56000D02*
X59950Y-57050D01*
X54500Y-51700D02*
X53150Y-51700D01*
X55350Y-52550D02*
X54500Y-51700D01*
G54D31*
X64800Y-58750D02*
X66150Y-57400D01*
G54D27*
X107610Y-43968D02*
X107150Y-44428D01*
X107450Y-47250D02*
X107800Y-47250D01*
X107150Y-46950D02*
X107450Y-47250D01*
X107150Y-44428D02*
X107150Y-46950D01*
X100610Y-43968D02*
X100610Y-44239D01*
X100100Y-44750D02*
X100100Y-46800D01*
X100610Y-44239D02*
X100100Y-44750D01*
X102072Y-46800D02*
X100100Y-46800D01*
X102072Y-46800D02*
X102100Y-46772D01*
X96600Y-51750D02*
X96600Y-50800D01*
X95100Y-48700D02*
X95100Y-50500D01*
G54D31*
X56600Y-56300D02*
X54400Y-56300D01*
G54D27*
X82550Y-60450D02*
X82550Y-59250D01*
X87850Y-58250D02*
X88450Y-58250D01*
X89700Y-52850D02*
X88150Y-54400D01*
X86900Y-59800D02*
X86600Y-59500D01*
X69366Y-60566D02*
X69366Y-61417D01*
X69100Y-60300D02*
X69366Y-60566D01*
X79400Y-61100D02*
X79400Y-61600D01*
X79400Y-61600D02*
X79500Y-61700D01*
X55000Y-45000D02*
X55800Y-45800D01*
X69000Y-50500D02*
X69000Y-52900D01*
X68000Y-49500D02*
X69000Y-50500D01*
X62000Y-49500D02*
X68000Y-49500D01*
X58300Y-45800D02*
X62000Y-49500D01*
X55800Y-45800D02*
X58300Y-45800D01*
X56000Y-45000D02*
X56600Y-45600D01*
X62100Y-49300D02*
X67500Y-49300D01*
X58400Y-45600D02*
X62100Y-49300D01*
X56600Y-45600D02*
X58400Y-45600D01*
X58000Y-45000D02*
X62100Y-49100D01*
X70200Y-49100D02*
X70300Y-49200D01*
X62100Y-49100D02*
X70200Y-49100D01*
X70300Y-49200D02*
X70300Y-52100D01*
X59000Y-45000D02*
X59000Y-45800D01*
X71100Y-48900D02*
X71400Y-49200D01*
X62100Y-48900D02*
X71100Y-48900D01*
X59000Y-45800D02*
X62100Y-48900D01*
X71400Y-49200D02*
X71400Y-52100D01*
X52200Y-46200D02*
X51000Y-45000D01*
X58100Y-46200D02*
X52200Y-46200D01*
X66700Y-54800D02*
X58100Y-46200D01*
X67100Y-54800D02*
X66700Y-54800D01*
X52000Y-45000D02*
X53000Y-46000D01*
X66100Y-53900D02*
X67100Y-53900D01*
X58200Y-46000D02*
X66100Y-53900D01*
X53000Y-46000D02*
X58200Y-46000D01*
X57500Y-61500D02*
X57000Y-61000D01*
X62500Y-61500D02*
X57500Y-61500D01*
X63300Y-62300D02*
X62500Y-61500D01*
X73600Y-62300D02*
X63300Y-62300D01*
X55000Y-61000D02*
X55500Y-61500D01*
X73901Y-62700D02*
X74984Y-61417D01*
X55900Y-62700D02*
X73901Y-62700D01*
X55500Y-62300D02*
X55900Y-62700D01*
X55500Y-61500D02*
X55500Y-62300D01*
X56000Y-61000D02*
X56500Y-61500D01*
X56800Y-62500D02*
X73800Y-62500D01*
X56500Y-62200D02*
X56800Y-62500D01*
X56500Y-61500D02*
X56500Y-62200D01*
X87900Y-59050D02*
X86550Y-59050D01*
X78185Y-59401D02*
X79786Y-57800D01*
X105437Y-51162D02*
X105437Y-49236D01*
X98800Y-57800D02*
X105437Y-51162D01*
X79786Y-57800D02*
X85300Y-57800D01*
X85300Y-57800D02*
X98800Y-57800D01*
X79185Y-59401D02*
X80586Y-58000D01*
X106437Y-51062D02*
X106437Y-49236D01*
X99500Y-58000D02*
X106437Y-51062D01*
X80586Y-58000D02*
X92050Y-58000D01*
X92050Y-58000D02*
X99500Y-58000D01*
X86900Y-56000D02*
X86900Y-51850D01*
X73200Y-59400D02*
X75150Y-57450D01*
X101400Y-49273D02*
X101437Y-49236D01*
X101400Y-51650D02*
X101400Y-49273D01*
X96600Y-56450D02*
X100750Y-52300D01*
X76800Y-56450D02*
X86900Y-56450D01*
X86900Y-56450D02*
X96600Y-56450D01*
X75150Y-57450D02*
X75800Y-57450D01*
X95400Y-60400D02*
X96100Y-60400D01*
X62396Y-59100D02*
X62396Y-60996D01*
X62396Y-60996D02*
X62593Y-61193D01*
X62400Y-59103D02*
X62396Y-59100D01*
G54D30*
X82450Y-47050D02*
X83050Y-46450D01*
X81500Y-47050D02*
X82450Y-47050D01*
G54D27*
X83050Y-46950D02*
X85850Y-46950D01*
X82500Y-47500D02*
X83050Y-46950D01*
X81550Y-47500D02*
X82500Y-47500D01*
X83000Y-46750D02*
X85600Y-46750D01*
X82450Y-47300D02*
X83000Y-46750D01*
X81250Y-47300D02*
X82450Y-47300D01*
G54D30*
X89300Y-45075D02*
X89300Y-44200D01*
X86572Y-43777D02*
X86572Y-44154D01*
X86750Y-43600D02*
X86572Y-43777D01*
X88700Y-43600D02*
X86750Y-43600D01*
X89300Y-44200D02*
X88700Y-43600D01*
X83560Y-44154D02*
X83560Y-44839D01*
X82250Y-46150D02*
X80525Y-46150D01*
X83560Y-44839D02*
X82250Y-46150D01*
G54D27*
X67450Y-44100D02*
X67450Y-44450D01*
X67000Y-44900D02*
X62800Y-44900D01*
X67450Y-44450D02*
X67000Y-44900D01*
X91615Y-60245D02*
X92185Y-60245D01*
X91610Y-60240D02*
X91615Y-60245D01*
X57500Y-57500D02*
X57500Y-54850D01*
X69398Y-48350D02*
X65300Y-48350D01*
X60200Y-52100D02*
X59050Y-53250D01*
X59050Y-53250D02*
X58150Y-53250D01*
X69398Y-48350D02*
X73653Y-44094D01*
X57500Y-54850D02*
X57900Y-54450D01*
X57500Y-60650D02*
X57500Y-59350D01*
X72653Y-44094D02*
X71248Y-45500D01*
X55300Y-48800D02*
X54000Y-47500D01*
X58000Y-48800D02*
X55300Y-48800D01*
X64300Y-45500D02*
X62600Y-47200D01*
X71248Y-45500D02*
X64300Y-45500D01*
X71653Y-44094D02*
X70448Y-45300D01*
X54600Y-49000D02*
X52500Y-46900D01*
X57700Y-49000D02*
X54600Y-49000D01*
X64200Y-45300D02*
X62000Y-47500D01*
X70448Y-45300D02*
X64200Y-45300D01*
X55000Y-62000D02*
X54500Y-61500D01*
X54500Y-59250D02*
X54500Y-61500D01*
X57350Y-56400D02*
X54500Y-59250D01*
X60700Y-51600D02*
X57850Y-51600D01*
X69050Y-45700D02*
X66650Y-48100D01*
X66650Y-48100D02*
X64900Y-48100D01*
X57350Y-54450D02*
X57350Y-56400D01*
X57100Y-54200D02*
X57350Y-54450D01*
X69653Y-44094D02*
X68648Y-45100D01*
X60300Y-45100D02*
X60000Y-45000D01*
X68648Y-45100D02*
X60300Y-45100D01*
X88725Y-55975D02*
X87775Y-55975D01*
X58950Y-60050D02*
X58000Y-61000D01*
X59925Y-60050D02*
X58950Y-60050D01*
X62025Y-57950D02*
X59925Y-60050D01*
X64225Y-57950D02*
X63075Y-57950D01*
X65250Y-56925D02*
X64225Y-57950D01*
X67200Y-56925D02*
X65250Y-56925D01*
X67975Y-57700D02*
X67200Y-56925D01*
X54475Y-46450D02*
X58000Y-46450D01*
X58000Y-46450D02*
X59125Y-47575D01*
X69200Y-45100D02*
X70300Y-45100D01*
X72450Y-45700D02*
X74850Y-48100D01*
X74850Y-48100D02*
X75800Y-48100D01*
X94225Y-49050D02*
X94750Y-48525D01*
X94225Y-50425D02*
X94225Y-49050D01*
X96250Y-44450D02*
X100000Y-44450D01*
X77386Y-57200D02*
X75185Y-59401D01*
X97000Y-57200D02*
X77386Y-57200D01*
X76283Y-60500D02*
X75185Y-59401D01*
X79500Y-60500D02*
X76283Y-60500D01*
X81000Y-62000D02*
X79500Y-60500D01*
X81800Y-62000D02*
X81000Y-62000D01*
X102437Y-51762D02*
X97000Y-57200D01*
X102437Y-49236D02*
X102437Y-51762D01*
G54D30*
X98000Y-57400D02*
X104200Y-51200D01*
G54D27*
X76185Y-59885D02*
X76600Y-60300D01*
X76600Y-60300D02*
X79800Y-60300D01*
X80900Y-61400D02*
X79800Y-60300D01*
X76185Y-59401D02*
X76185Y-59885D01*
X78186Y-57400D02*
X98000Y-57400D01*
X76185Y-59401D02*
X78186Y-57400D01*
G54D30*
X104200Y-49999D02*
X103437Y-49236D01*
X104200Y-51200D02*
X104200Y-49999D01*
X88450Y-45825D02*
X87699Y-46575D01*
X87699Y-46575D02*
X87621Y-46575D01*
G54D27*
X87621Y-46575D02*
X90625Y-46575D01*
X103950Y-48749D02*
X104437Y-49236D01*
X103950Y-48100D02*
X103950Y-48749D01*
X103350Y-47500D02*
X103950Y-48100D01*
X91550Y-47500D02*
X103350Y-47500D01*
X90625Y-46575D02*
X91550Y-47500D01*
X104437Y-49236D02*
X104437Y-51262D01*
X104437Y-51262D02*
X98100Y-57600D01*
X98100Y-57600D02*
X78986Y-57600D01*
X78986Y-57600D02*
X77185Y-59401D01*
X86250Y-50300D02*
X86250Y-49650D01*
X86250Y-49650D02*
X86900Y-49000D01*
X86900Y-49000D02*
X86900Y-47700D01*
X86900Y-47700D02*
X85600Y-46400D01*
X62000Y-47800D02*
X64900Y-47800D01*
X86139Y-45860D02*
X86139Y-44154D01*
X86100Y-45900D02*
X86139Y-45860D01*
X62000Y-48100D02*
X64300Y-48100D01*
X92200Y-48550D02*
X92600Y-48550D01*
X91550Y-49200D02*
X92200Y-48550D01*
X91550Y-50100D02*
X91550Y-49200D01*
X62000Y-48400D02*
X63700Y-48400D01*
X101100Y-44478D02*
X101610Y-43968D01*
X101100Y-45500D02*
X101100Y-44478D01*
X98900Y-49900D02*
X98900Y-49050D01*
X99300Y-52900D02*
X96950Y-50550D01*
X99800Y-52900D02*
X99300Y-52900D01*
X57350Y-51850D02*
X57200Y-51700D01*
X60450Y-51850D02*
X57350Y-51850D01*
X96950Y-50550D02*
X96950Y-50100D01*
X77450Y-45900D02*
X78740Y-44609D01*
X73600Y-45900D02*
X77450Y-45900D01*
X78740Y-44609D02*
X78740Y-44094D01*
X77734Y-46100D02*
X79740Y-44094D01*
X73400Y-46100D02*
X77734Y-46100D01*
G54D30*
X83974Y-44154D02*
X83974Y-44724D01*
X81998Y-46700D02*
X78400Y-46700D01*
X83974Y-44724D02*
X81998Y-46700D01*
G54D27*
X77050Y-48500D02*
X77050Y-46700D01*
X99550Y-50950D02*
X99550Y-52150D01*
X85706Y-44506D02*
X85706Y-44154D01*
X85950Y-44750D02*
X85706Y-44506D01*
X85950Y-45250D02*
X85950Y-44750D01*
X85700Y-45500D02*
X85950Y-45250D01*
X84500Y-49500D02*
X84900Y-49100D01*
X76200Y-46500D02*
X76200Y-48500D01*
X99250Y-50900D02*
X99250Y-52150D01*
X99450Y-50700D02*
X99250Y-50900D01*
X99800Y-50700D02*
X99450Y-50700D01*
X74900Y-46500D02*
X76200Y-46500D01*
X84840Y-44559D02*
X84840Y-44154D01*
X84700Y-44700D02*
X84840Y-44559D01*
X84700Y-45500D02*
X84700Y-44700D01*
X84700Y-45700D02*
X84700Y-45500D01*
X98650Y-49300D02*
X98650Y-51850D01*
X98650Y-51850D02*
X98950Y-52150D01*
X92850Y-49300D02*
X92250Y-49300D01*
X74000Y-46300D02*
X75900Y-46300D01*
X103437Y-62236D02*
X100050Y-58850D01*
X100050Y-58850D02*
X80500Y-58850D01*
X104437Y-62236D02*
X100850Y-58650D01*
X100850Y-58650D02*
X80700Y-58650D01*
X105437Y-62236D02*
X101650Y-58450D01*
X101650Y-58450D02*
X80900Y-58450D01*
X102950Y-48723D02*
X103437Y-48236D01*
X102950Y-51550D02*
X102950Y-48723D01*
X56950Y-53500D02*
X58170Y-53500D01*
X55900Y-52450D02*
X55900Y-52100D01*
X56300Y-52850D02*
X55900Y-52450D01*
X97450Y-57050D02*
X102950Y-51550D01*
X69100Y-59400D02*
X71450Y-57050D01*
X71450Y-57050D02*
X96950Y-57050D01*
X96950Y-57050D02*
X96900Y-57000D01*
X58170Y-53500D02*
X64570Y-59900D01*
X64570Y-59900D02*
X68600Y-59900D01*
X69100Y-59400D02*
X68600Y-59900D01*
X64550Y-60100D02*
X68050Y-60100D01*
X58150Y-53700D02*
X64550Y-60100D01*
X56850Y-53700D02*
X58150Y-53700D01*
X56650Y-53500D02*
X56850Y-53700D01*
X55600Y-52450D02*
X56000Y-52850D01*
X55600Y-51850D02*
X55600Y-52450D01*
X102437Y-48236D02*
X101950Y-48723D01*
X101950Y-48723D02*
X101950Y-51600D01*
X101950Y-51600D02*
X96650Y-56900D01*
X96650Y-56900D02*
X70600Y-56900D01*
X70600Y-56900D02*
X68100Y-59400D01*
X74200Y-59400D02*
X76150Y-57450D01*
X100950Y-48723D02*
X101437Y-48236D01*
X100950Y-52400D02*
X100950Y-48723D01*
X96700Y-56650D02*
X100950Y-52400D01*
X96650Y-56650D02*
X96700Y-56650D01*
X77000Y-56650D02*
X96650Y-56650D01*
X76150Y-57450D02*
X76200Y-57450D01*
G54D10*
G36*
X83145Y-44845D02*
X83034Y-44956D01*
X83034Y-44833D01*
X83034Y-44342D01*
X82666Y-44342D01*
X82603Y-44404D01*
X82603Y-44596D01*
X82603Y-44696D01*
X82642Y-44788D01*
X82712Y-44858D01*
X82804Y-44896D01*
X82971Y-44896D01*
X83034Y-44833D01*
X83034Y-44956D01*
X82130Y-45860D01*
X82080Y-45860D01*
X82080Y-44505D01*
X81740Y-44165D01*
X81399Y-44505D01*
X81431Y-44604D01*
X81650Y-44683D01*
X81882Y-44673D01*
X82048Y-44604D01*
X82080Y-44505D01*
X82080Y-45860D01*
X80950Y-45860D01*
X80950Y-45825D01*
X80912Y-45733D01*
X80841Y-45663D01*
X80749Y-45625D01*
X80650Y-45624D01*
X80364Y-45624D01*
X80364Y-44546D01*
X80408Y-44589D01*
X80623Y-44679D01*
X80855Y-44679D01*
X81070Y-44590D01*
X81235Y-44426D01*
X81243Y-44407D01*
X81329Y-44434D01*
X81669Y-44094D01*
X81663Y-44088D01*
X81734Y-44018D01*
X81740Y-44023D01*
X81745Y-44018D01*
X81816Y-44088D01*
X81810Y-44094D01*
X82151Y-44434D01*
X82250Y-44403D01*
X82329Y-44184D01*
X82319Y-43952D01*
X82268Y-43830D01*
X82628Y-43830D01*
X82603Y-43887D01*
X82603Y-43987D01*
X82603Y-44179D01*
X82666Y-44242D01*
X83034Y-44242D01*
X83034Y-44234D01*
X83134Y-44234D01*
X83134Y-44242D01*
X83142Y-44242D01*
X83142Y-44342D01*
X83134Y-44342D01*
X83134Y-44833D01*
X83145Y-44845D01*
X83145Y-44845D01*
G37*
G54D32*
X83145Y-44845D02*
X83034Y-44956D01*
X83034Y-44833D01*
X83034Y-44342D01*
X82666Y-44342D01*
X82603Y-44404D01*
X82603Y-44596D01*
X82603Y-44696D01*
X82642Y-44788D01*
X82712Y-44858D01*
X82804Y-44896D01*
X82971Y-44896D01*
X83034Y-44833D01*
X83034Y-44956D01*
X82130Y-45860D01*
X82080Y-45860D01*
X82080Y-44505D01*
X81740Y-44165D01*
X81399Y-44505D01*
X81431Y-44604D01*
X81650Y-44683D01*
X81882Y-44673D01*
X82048Y-44604D01*
X82080Y-44505D01*
X82080Y-45860D01*
X80950Y-45860D01*
X80950Y-45825D01*
X80912Y-45733D01*
X80841Y-45663D01*
X80749Y-45625D01*
X80650Y-45624D01*
X80364Y-45624D01*
X80364Y-44546D01*
X80408Y-44589D01*
X80623Y-44679D01*
X80855Y-44679D01*
X81070Y-44590D01*
X81235Y-44426D01*
X81243Y-44407D01*
X81329Y-44434D01*
X81669Y-44094D01*
X81663Y-44088D01*
X81734Y-44018D01*
X81740Y-44023D01*
X81745Y-44018D01*
X81816Y-44088D01*
X81810Y-44094D01*
X82151Y-44434D01*
X82250Y-44403D01*
X82329Y-44184D01*
X82319Y-43952D01*
X82268Y-43830D01*
X82628Y-43830D01*
X82603Y-43887D01*
X82603Y-43987D01*
X82603Y-44179D01*
X82666Y-44242D01*
X83034Y-44242D01*
X83034Y-44234D01*
X83134Y-44234D01*
X83134Y-44242D01*
X83142Y-44242D01*
X83142Y-44342D01*
X83134Y-44342D01*
X83134Y-44833D01*
X83145Y-44845D01*
G54D10*
G36*
X85350Y-46156D02*
X85304Y-46202D01*
X85251Y-46330D01*
X85251Y-46469D01*
X85251Y-46470D01*
X83398Y-46470D01*
X83398Y-46380D01*
X83345Y-46252D01*
X83247Y-46154D01*
X83119Y-46101D01*
X83005Y-46101D01*
X84178Y-44928D01*
X84178Y-44928D01*
X84220Y-44865D01*
X84241Y-44834D01*
X84241Y-44834D01*
X84263Y-44724D01*
X84263Y-44724D01*
X84263Y-44620D01*
X84294Y-44620D01*
X84357Y-44558D01*
X84357Y-44503D01*
X84391Y-44420D01*
X84391Y-44321D01*
X84391Y-44096D01*
X84422Y-44096D01*
X84422Y-44420D01*
X84457Y-44503D01*
X84457Y-44558D01*
X84461Y-44562D01*
X84441Y-44592D01*
X84420Y-44700D01*
X84420Y-45487D01*
X84404Y-45502D01*
X84351Y-45630D01*
X84351Y-45769D01*
X84404Y-45897D01*
X84502Y-45995D01*
X84630Y-46048D01*
X84769Y-46048D01*
X84897Y-45995D01*
X84995Y-45897D01*
X85023Y-45829D01*
X85350Y-46156D01*
X85350Y-46156D01*
G37*
G54D32*
X85350Y-46156D02*
X85304Y-46202D01*
X85251Y-46330D01*
X85251Y-46469D01*
X85251Y-46470D01*
X83398Y-46470D01*
X83398Y-46380D01*
X83345Y-46252D01*
X83247Y-46154D01*
X83119Y-46101D01*
X83005Y-46101D01*
X84178Y-44928D01*
X84178Y-44928D01*
X84220Y-44865D01*
X84241Y-44834D01*
X84241Y-44834D01*
X84263Y-44724D01*
X84263Y-44724D01*
X84263Y-44620D01*
X84294Y-44620D01*
X84357Y-44558D01*
X84357Y-44503D01*
X84391Y-44420D01*
X84391Y-44321D01*
X84391Y-44096D01*
X84422Y-44096D01*
X84422Y-44420D01*
X84457Y-44503D01*
X84457Y-44558D01*
X84461Y-44562D01*
X84441Y-44592D01*
X84420Y-44700D01*
X84420Y-45487D01*
X84404Y-45502D01*
X84351Y-45630D01*
X84351Y-45769D01*
X84404Y-45897D01*
X84502Y-45995D01*
X84630Y-46048D01*
X84769Y-46048D01*
X84897Y-45995D01*
X84995Y-45897D01*
X85023Y-45829D01*
X85350Y-46156D01*
G54D10*
G36*
X86620Y-47900D02*
X86344Y-47900D01*
X86281Y-47962D01*
X86281Y-48366D01*
X86289Y-48366D01*
X86289Y-48466D01*
X86281Y-48466D01*
X86281Y-48474D01*
X86181Y-48474D01*
X86181Y-48466D01*
X86181Y-48366D01*
X86181Y-47962D01*
X86119Y-47900D01*
X85808Y-47900D01*
X85716Y-47938D01*
X85646Y-48008D01*
X85607Y-48100D01*
X85607Y-48199D01*
X85607Y-48303D01*
X85670Y-48366D01*
X86181Y-48366D01*
X86181Y-48466D01*
X85670Y-48466D01*
X85607Y-48528D01*
X85607Y-48632D01*
X85607Y-48731D01*
X85623Y-48768D01*
X85011Y-48768D01*
X84969Y-48751D01*
X84830Y-48751D01*
X84788Y-48768D01*
X84490Y-48768D01*
X84505Y-48731D01*
X84505Y-48632D01*
X84505Y-48199D01*
X84505Y-48100D01*
X84467Y-48008D01*
X84396Y-47938D01*
X84305Y-47900D01*
X83993Y-47900D01*
X83931Y-47962D01*
X83931Y-48366D01*
X84443Y-48366D01*
X84505Y-48303D01*
X84505Y-48199D01*
X84505Y-48632D01*
X84505Y-48528D01*
X84443Y-48466D01*
X83931Y-48466D01*
X83931Y-48474D01*
X83831Y-48474D01*
X83831Y-48466D01*
X83831Y-48366D01*
X83831Y-47962D01*
X83768Y-47900D01*
X83457Y-47900D01*
X83366Y-47938D01*
X83295Y-48008D01*
X83257Y-48100D01*
X83257Y-48199D01*
X83257Y-48303D01*
X83319Y-48366D01*
X83831Y-48366D01*
X83831Y-48466D01*
X83319Y-48466D01*
X83257Y-48528D01*
X83257Y-48632D01*
X83257Y-48731D01*
X83272Y-48768D01*
X80564Y-48768D01*
X80364Y-48568D01*
X80364Y-46989D01*
X81089Y-46989D01*
X81052Y-47004D01*
X80954Y-47102D01*
X80901Y-47230D01*
X80901Y-47369D01*
X80954Y-47497D01*
X81052Y-47595D01*
X81180Y-47648D01*
X81234Y-47648D01*
X81254Y-47697D01*
X81352Y-47795D01*
X81480Y-47848D01*
X81619Y-47848D01*
X81747Y-47795D01*
X81762Y-47780D01*
X82500Y-47780D01*
X82607Y-47758D01*
X82607Y-47758D01*
X82697Y-47697D01*
X83165Y-47230D01*
X85637Y-47230D01*
X85652Y-47245D01*
X85780Y-47298D01*
X85919Y-47298D01*
X86047Y-47245D01*
X86048Y-47244D01*
X86620Y-47815D01*
X86620Y-47900D01*
X86620Y-47900D01*
G37*
G54D32*
X86620Y-47900D02*
X86344Y-47900D01*
X86281Y-47962D01*
X86281Y-48366D01*
X86289Y-48366D01*
X86289Y-48466D01*
X86281Y-48466D01*
X86281Y-48474D01*
X86181Y-48474D01*
X86181Y-48466D01*
X86181Y-48366D01*
X86181Y-47962D01*
X86119Y-47900D01*
X85808Y-47900D01*
X85716Y-47938D01*
X85646Y-48008D01*
X85607Y-48100D01*
X85607Y-48199D01*
X85607Y-48303D01*
X85670Y-48366D01*
X86181Y-48366D01*
X86181Y-48466D01*
X85670Y-48466D01*
X85607Y-48528D01*
X85607Y-48632D01*
X85607Y-48731D01*
X85623Y-48768D01*
X85011Y-48768D01*
X84969Y-48751D01*
X84830Y-48751D01*
X84788Y-48768D01*
X84490Y-48768D01*
X84505Y-48731D01*
X84505Y-48632D01*
X84505Y-48199D01*
X84505Y-48100D01*
X84467Y-48008D01*
X84396Y-47938D01*
X84305Y-47900D01*
X83993Y-47900D01*
X83931Y-47962D01*
X83931Y-48366D01*
X84443Y-48366D01*
X84505Y-48303D01*
X84505Y-48199D01*
X84505Y-48632D01*
X84505Y-48528D01*
X84443Y-48466D01*
X83931Y-48466D01*
X83931Y-48474D01*
X83831Y-48474D01*
X83831Y-48466D01*
X83831Y-48366D01*
X83831Y-47962D01*
X83768Y-47900D01*
X83457Y-47900D01*
X83366Y-47938D01*
X83295Y-48008D01*
X83257Y-48100D01*
X83257Y-48199D01*
X83257Y-48303D01*
X83319Y-48366D01*
X83831Y-48366D01*
X83831Y-48466D01*
X83319Y-48466D01*
X83257Y-48528D01*
X83257Y-48632D01*
X83257Y-48731D01*
X83272Y-48768D01*
X80564Y-48768D01*
X80364Y-48568D01*
X80364Y-46989D01*
X81089Y-46989D01*
X81052Y-47004D01*
X80954Y-47102D01*
X80901Y-47230D01*
X80901Y-47369D01*
X80954Y-47497D01*
X81052Y-47595D01*
X81180Y-47648D01*
X81234Y-47648D01*
X81254Y-47697D01*
X81352Y-47795D01*
X81480Y-47848D01*
X81619Y-47848D01*
X81747Y-47795D01*
X81762Y-47780D01*
X82500Y-47780D01*
X82607Y-47758D01*
X82607Y-47758D01*
X82697Y-47697D01*
X83165Y-47230D01*
X85637Y-47230D01*
X85652Y-47245D01*
X85780Y-47298D01*
X85919Y-47298D01*
X86047Y-47245D01*
X86048Y-47244D01*
X86620Y-47815D01*
X86620Y-47900D01*
G54D10*
G36*
X88532Y-48768D02*
X87180Y-48768D01*
X87180Y-48377D01*
X87243Y-48440D01*
X87335Y-48479D01*
X87434Y-48479D01*
X87907Y-48479D01*
X87999Y-48441D01*
X88069Y-48370D01*
X88107Y-48279D01*
X88107Y-48179D01*
X88107Y-47785D01*
X88069Y-47694D01*
X87999Y-47623D01*
X87961Y-47607D01*
X87998Y-47519D01*
X87998Y-47380D01*
X87945Y-47252D01*
X87847Y-47154D01*
X87719Y-47101D01*
X87580Y-47101D01*
X87452Y-47154D01*
X87354Y-47252D01*
X87320Y-47335D01*
X86214Y-46229D01*
X86297Y-46195D01*
X86395Y-46097D01*
X86448Y-45969D01*
X86448Y-45830D01*
X86419Y-45760D01*
X86419Y-44620D01*
X86454Y-44620D01*
X86789Y-44620D01*
X86881Y-44582D01*
X86951Y-44512D01*
X86985Y-44430D01*
X86985Y-44519D01*
X87024Y-44611D01*
X87094Y-44681D01*
X87186Y-44719D01*
X87428Y-44719D01*
X87490Y-44656D01*
X87490Y-44253D01*
X87483Y-44253D01*
X87483Y-44153D01*
X87490Y-44153D01*
X87490Y-44145D01*
X87590Y-44145D01*
X87590Y-44153D01*
X88033Y-44153D01*
X88096Y-44091D01*
X88096Y-43987D01*
X88096Y-43889D01*
X88532Y-43889D01*
X88532Y-44679D01*
X88500Y-44712D01*
X88500Y-45025D01*
X88507Y-45025D01*
X88507Y-45125D01*
X88500Y-45125D01*
X88500Y-45132D01*
X88400Y-45132D01*
X88400Y-45125D01*
X88400Y-45025D01*
X88400Y-44712D01*
X88337Y-44650D01*
X88224Y-44649D01*
X88125Y-44650D01*
X88096Y-44662D01*
X88096Y-44419D01*
X88096Y-44316D01*
X88033Y-44253D01*
X87590Y-44253D01*
X87590Y-44656D01*
X87653Y-44719D01*
X87895Y-44719D01*
X87987Y-44681D01*
X88057Y-44611D01*
X88096Y-44519D01*
X88096Y-44419D01*
X88096Y-44662D01*
X88033Y-44688D01*
X87962Y-44758D01*
X87924Y-44850D01*
X87925Y-44962D01*
X87987Y-45025D01*
X88400Y-45025D01*
X88400Y-45125D01*
X87987Y-45125D01*
X87925Y-45187D01*
X87924Y-45299D01*
X87962Y-45391D01*
X88021Y-45450D01*
X87963Y-45508D01*
X87925Y-45600D01*
X87924Y-45699D01*
X87924Y-45940D01*
X87737Y-46128D01*
X87335Y-46128D01*
X87244Y-46166D01*
X87173Y-46236D01*
X87135Y-46328D01*
X87135Y-46428D01*
X87135Y-46821D01*
X87173Y-46913D01*
X87243Y-46984D01*
X87335Y-47022D01*
X87434Y-47022D01*
X87907Y-47022D01*
X87999Y-46984D01*
X88069Y-46914D01*
X88094Y-46855D01*
X88532Y-46855D01*
X88532Y-48768D01*
X88532Y-48768D01*
G37*
G54D32*
X88532Y-48768D02*
X87180Y-48768D01*
X87180Y-48377D01*
X87243Y-48440D01*
X87335Y-48479D01*
X87434Y-48479D01*
X87907Y-48479D01*
X87999Y-48441D01*
X88069Y-48370D01*
X88107Y-48279D01*
X88107Y-48179D01*
X88107Y-47785D01*
X88069Y-47694D01*
X87999Y-47623D01*
X87961Y-47607D01*
X87998Y-47519D01*
X87998Y-47380D01*
X87945Y-47252D01*
X87847Y-47154D01*
X87719Y-47101D01*
X87580Y-47101D01*
X87452Y-47154D01*
X87354Y-47252D01*
X87320Y-47335D01*
X86214Y-46229D01*
X86297Y-46195D01*
X86395Y-46097D01*
X86448Y-45969D01*
X86448Y-45830D01*
X86419Y-45760D01*
X86419Y-44620D01*
X86454Y-44620D01*
X86789Y-44620D01*
X86881Y-44582D01*
X86951Y-44512D01*
X86985Y-44430D01*
X86985Y-44519D01*
X87024Y-44611D01*
X87094Y-44681D01*
X87186Y-44719D01*
X87428Y-44719D01*
X87490Y-44656D01*
X87490Y-44253D01*
X87483Y-44253D01*
X87483Y-44153D01*
X87490Y-44153D01*
X87490Y-44145D01*
X87590Y-44145D01*
X87590Y-44153D01*
X88033Y-44153D01*
X88096Y-44091D01*
X88096Y-43987D01*
X88096Y-43889D01*
X88532Y-43889D01*
X88532Y-44679D01*
X88500Y-44712D01*
X88500Y-45025D01*
X88507Y-45025D01*
X88507Y-45125D01*
X88500Y-45125D01*
X88500Y-45132D01*
X88400Y-45132D01*
X88400Y-45125D01*
X88400Y-45025D01*
X88400Y-44712D01*
X88337Y-44650D01*
X88224Y-44649D01*
X88125Y-44650D01*
X88096Y-44662D01*
X88096Y-44419D01*
X88096Y-44316D01*
X88033Y-44253D01*
X87590Y-44253D01*
X87590Y-44656D01*
X87653Y-44719D01*
X87895Y-44719D01*
X87987Y-44681D01*
X88057Y-44611D01*
X88096Y-44519D01*
X88096Y-44419D01*
X88096Y-44662D01*
X88033Y-44688D01*
X87962Y-44758D01*
X87924Y-44850D01*
X87925Y-44962D01*
X87987Y-45025D01*
X88400Y-45025D01*
X88400Y-45125D01*
X87987Y-45125D01*
X87925Y-45187D01*
X87924Y-45299D01*
X87962Y-45391D01*
X88021Y-45450D01*
X87963Y-45508D01*
X87925Y-45600D01*
X87924Y-45699D01*
X87924Y-45940D01*
X87737Y-46128D01*
X87335Y-46128D01*
X87244Y-46166D01*
X87173Y-46236D01*
X87135Y-46328D01*
X87135Y-46428D01*
X87135Y-46821D01*
X87173Y-46913D01*
X87243Y-46984D01*
X87335Y-47022D01*
X87434Y-47022D01*
X87907Y-47022D01*
X87999Y-46984D01*
X88069Y-46914D01*
X88094Y-46855D01*
X88532Y-46855D01*
X88532Y-48768D01*
G54D10*
G36*
X55526Y-62722D02*
X51326Y-62722D01*
X51326Y-62396D01*
X51000Y-62070D01*
X50673Y-62396D01*
X50703Y-62493D01*
X50914Y-62569D01*
X51139Y-62558D01*
X51296Y-62493D01*
X51326Y-62396D01*
X51326Y-62722D01*
X50466Y-62722D01*
X50466Y-62200D01*
X50506Y-62296D01*
X50603Y-62326D01*
X50929Y-62000D01*
X50603Y-61673D01*
X50506Y-61703D01*
X50466Y-61813D01*
X50466Y-61188D01*
X50520Y-61319D01*
X50679Y-61478D01*
X50724Y-61497D01*
X50703Y-61506D01*
X50673Y-61603D01*
X51000Y-61929D01*
X51326Y-61603D01*
X51296Y-61506D01*
X51273Y-61498D01*
X51319Y-61479D01*
X51478Y-61320D01*
X51499Y-61269D01*
X51520Y-61319D01*
X51679Y-61478D01*
X51730Y-61499D01*
X51680Y-61520D01*
X51521Y-61679D01*
X51502Y-61724D01*
X51493Y-61703D01*
X51396Y-61673D01*
X51070Y-62000D01*
X51396Y-62326D01*
X51493Y-62296D01*
X51501Y-62273D01*
X51520Y-62319D01*
X51679Y-62478D01*
X51887Y-62564D01*
X52111Y-62565D01*
X52319Y-62479D01*
X52478Y-62320D01*
X52499Y-62269D01*
X52520Y-62319D01*
X52679Y-62478D01*
X52887Y-62564D01*
X53111Y-62565D01*
X53319Y-62479D01*
X53478Y-62320D01*
X53499Y-62269D01*
X53520Y-62319D01*
X53679Y-62478D01*
X53887Y-62564D01*
X54111Y-62565D01*
X54319Y-62479D01*
X54478Y-62320D01*
X54499Y-62269D01*
X54520Y-62319D01*
X54679Y-62478D01*
X54887Y-62564D01*
X55111Y-62565D01*
X55295Y-62488D01*
X55302Y-62497D01*
X55526Y-62722D01*
X55526Y-62722D01*
G37*
G54D32*
X55526Y-62722D02*
X51326Y-62722D01*
X51326Y-62396D01*
X51000Y-62070D01*
X50673Y-62396D01*
X50703Y-62493D01*
X50914Y-62569D01*
X51139Y-62558D01*
X51296Y-62493D01*
X51326Y-62396D01*
X51326Y-62722D01*
X50466Y-62722D01*
X50466Y-62200D01*
X50506Y-62296D01*
X50603Y-62326D01*
X50929Y-62000D01*
X50603Y-61673D01*
X50506Y-61703D01*
X50466Y-61813D01*
X50466Y-61188D01*
X50520Y-61319D01*
X50679Y-61478D01*
X50724Y-61497D01*
X50703Y-61506D01*
X50673Y-61603D01*
X51000Y-61929D01*
X51326Y-61603D01*
X51296Y-61506D01*
X51273Y-61498D01*
X51319Y-61479D01*
X51478Y-61320D01*
X51499Y-61269D01*
X51520Y-61319D01*
X51679Y-61478D01*
X51730Y-61499D01*
X51680Y-61520D01*
X51521Y-61679D01*
X51502Y-61724D01*
X51493Y-61703D01*
X51396Y-61673D01*
X51070Y-62000D01*
X51396Y-62326D01*
X51493Y-62296D01*
X51501Y-62273D01*
X51520Y-62319D01*
X51679Y-62478D01*
X51887Y-62564D01*
X52111Y-62565D01*
X52319Y-62479D01*
X52478Y-62320D01*
X52499Y-62269D01*
X52520Y-62319D01*
X52679Y-62478D01*
X52887Y-62564D01*
X53111Y-62565D01*
X53319Y-62479D01*
X53478Y-62320D01*
X53499Y-62269D01*
X53520Y-62319D01*
X53679Y-62478D01*
X53887Y-62564D01*
X54111Y-62565D01*
X54319Y-62479D01*
X54478Y-62320D01*
X54499Y-62269D01*
X54520Y-62319D01*
X54679Y-62478D01*
X54887Y-62564D01*
X55111Y-62565D01*
X55295Y-62488D01*
X55302Y-62497D01*
X55526Y-62722D01*
G54D10*
G36*
X61768Y-57714D02*
X61729Y-57752D01*
X61676Y-57880D01*
X61676Y-57902D01*
X59809Y-59770D01*
X58950Y-59770D01*
X58842Y-59791D01*
X58812Y-59811D01*
X58752Y-59852D01*
X58152Y-60451D01*
X58112Y-60435D01*
X57888Y-60434D01*
X57802Y-60470D01*
X57795Y-60452D01*
X57780Y-60437D01*
X57780Y-59562D01*
X57795Y-59547D01*
X57848Y-59419D01*
X57848Y-59280D01*
X57795Y-59152D01*
X57697Y-59054D01*
X57569Y-59001D01*
X57430Y-59001D01*
X57302Y-59054D01*
X57204Y-59152D01*
X57151Y-59280D01*
X57151Y-59419D01*
X57204Y-59547D01*
X57220Y-59562D01*
X57220Y-60437D01*
X57204Y-60452D01*
X57197Y-60470D01*
X57112Y-60435D01*
X56888Y-60434D01*
X56680Y-60520D01*
X56521Y-60679D01*
X56500Y-60730D01*
X56479Y-60680D01*
X56320Y-60521D01*
X56112Y-60435D01*
X55888Y-60434D01*
X55838Y-60455D01*
X55795Y-60352D01*
X55780Y-60337D01*
X55780Y-59115D01*
X56297Y-58598D01*
X56319Y-58598D01*
X56447Y-58545D01*
X56545Y-58447D01*
X56598Y-58319D01*
X56598Y-58180D01*
X56545Y-58052D01*
X56447Y-57954D01*
X56319Y-57901D01*
X56244Y-57901D01*
X57220Y-56925D01*
X57220Y-57287D01*
X57204Y-57302D01*
X57151Y-57430D01*
X57151Y-57569D01*
X57204Y-57697D01*
X57302Y-57795D01*
X57430Y-57848D01*
X57569Y-57848D01*
X57697Y-57795D01*
X57795Y-57697D01*
X57848Y-57569D01*
X57848Y-57430D01*
X57795Y-57302D01*
X57780Y-57287D01*
X57780Y-54965D01*
X57947Y-54798D01*
X57969Y-54798D01*
X58097Y-54745D01*
X58137Y-54705D01*
X58168Y-54736D01*
X58296Y-54789D01*
X58435Y-54789D01*
X58563Y-54736D01*
X58661Y-54638D01*
X58670Y-54616D01*
X58855Y-54801D01*
X58830Y-54801D01*
X58702Y-54854D01*
X58604Y-54952D01*
X58551Y-55080D01*
X58551Y-55219D01*
X58604Y-55347D01*
X58620Y-55362D01*
X58620Y-56000D01*
X58641Y-56107D01*
X58702Y-56197D01*
X59601Y-57097D01*
X59601Y-57119D01*
X59654Y-57247D01*
X59752Y-57345D01*
X59880Y-57398D01*
X60019Y-57398D01*
X60147Y-57345D01*
X60245Y-57247D01*
X60298Y-57119D01*
X60298Y-56980D01*
X60245Y-56852D01*
X60147Y-56754D01*
X60019Y-56701D01*
X59997Y-56701D01*
X59180Y-55884D01*
X59180Y-55362D01*
X59195Y-55347D01*
X59248Y-55219D01*
X59248Y-55194D01*
X61768Y-57714D01*
X61768Y-57714D01*
G37*
G54D32*
X61768Y-57714D02*
X61729Y-57752D01*
X61676Y-57880D01*
X61676Y-57902D01*
X59809Y-59770D01*
X58950Y-59770D01*
X58842Y-59791D01*
X58812Y-59811D01*
X58752Y-59852D01*
X58152Y-60451D01*
X58112Y-60435D01*
X57888Y-60434D01*
X57802Y-60470D01*
X57795Y-60452D01*
X57780Y-60437D01*
X57780Y-59562D01*
X57795Y-59547D01*
X57848Y-59419D01*
X57848Y-59280D01*
X57795Y-59152D01*
X57697Y-59054D01*
X57569Y-59001D01*
X57430Y-59001D01*
X57302Y-59054D01*
X57204Y-59152D01*
X57151Y-59280D01*
X57151Y-59419D01*
X57204Y-59547D01*
X57220Y-59562D01*
X57220Y-60437D01*
X57204Y-60452D01*
X57197Y-60470D01*
X57112Y-60435D01*
X56888Y-60434D01*
X56680Y-60520D01*
X56521Y-60679D01*
X56500Y-60730D01*
X56479Y-60680D01*
X56320Y-60521D01*
X56112Y-60435D01*
X55888Y-60434D01*
X55838Y-60455D01*
X55795Y-60352D01*
X55780Y-60337D01*
X55780Y-59115D01*
X56297Y-58598D01*
X56319Y-58598D01*
X56447Y-58545D01*
X56545Y-58447D01*
X56598Y-58319D01*
X56598Y-58180D01*
X56545Y-58052D01*
X56447Y-57954D01*
X56319Y-57901D01*
X56244Y-57901D01*
X57220Y-56925D01*
X57220Y-57287D01*
X57204Y-57302D01*
X57151Y-57430D01*
X57151Y-57569D01*
X57204Y-57697D01*
X57302Y-57795D01*
X57430Y-57848D01*
X57569Y-57848D01*
X57697Y-57795D01*
X57795Y-57697D01*
X57848Y-57569D01*
X57848Y-57430D01*
X57795Y-57302D01*
X57780Y-57287D01*
X57780Y-54965D01*
X57947Y-54798D01*
X57969Y-54798D01*
X58097Y-54745D01*
X58137Y-54705D01*
X58168Y-54736D01*
X58296Y-54789D01*
X58435Y-54789D01*
X58563Y-54736D01*
X58661Y-54638D01*
X58670Y-54616D01*
X58855Y-54801D01*
X58830Y-54801D01*
X58702Y-54854D01*
X58604Y-54952D01*
X58551Y-55080D01*
X58551Y-55219D01*
X58604Y-55347D01*
X58620Y-55362D01*
X58620Y-56000D01*
X58641Y-56107D01*
X58702Y-56197D01*
X59601Y-57097D01*
X59601Y-57119D01*
X59654Y-57247D01*
X59752Y-57345D01*
X59880Y-57398D01*
X60019Y-57398D01*
X60147Y-57345D01*
X60245Y-57247D01*
X60298Y-57119D01*
X60298Y-56980D01*
X60245Y-56852D01*
X60147Y-56754D01*
X60019Y-56701D01*
X59997Y-56701D01*
X59180Y-55884D01*
X59180Y-55362D01*
X59195Y-55347D01*
X59248Y-55219D01*
X59248Y-55194D01*
X61768Y-57714D01*
G54D10*
G36*
X61880Y-52373D02*
X60152Y-54101D01*
X60130Y-54101D01*
X60002Y-54154D01*
X59904Y-54252D01*
X59851Y-54380D01*
X59851Y-54519D01*
X59884Y-54600D01*
X59851Y-54680D01*
X59851Y-54785D01*
X58595Y-53530D01*
X59050Y-53530D01*
X59157Y-53508D01*
X59157Y-53508D01*
X59247Y-53447D01*
X60247Y-52448D01*
X60269Y-52448D01*
X60397Y-52395D01*
X60495Y-52297D01*
X60539Y-52189D01*
X60647Y-52145D01*
X60745Y-52047D01*
X60789Y-51939D01*
X60897Y-51895D01*
X60995Y-51797D01*
X61048Y-51669D01*
X61048Y-51530D01*
X61031Y-51489D01*
X61080Y-51489D01*
X61801Y-52210D01*
X61801Y-52219D01*
X61854Y-52347D01*
X61880Y-52373D01*
X61880Y-52373D01*
G37*
G54D32*
X61880Y-52373D02*
X60152Y-54101D01*
X60130Y-54101D01*
X60002Y-54154D01*
X59904Y-54252D01*
X59851Y-54380D01*
X59851Y-54519D01*
X59884Y-54600D01*
X59851Y-54680D01*
X59851Y-54785D01*
X58595Y-53530D01*
X59050Y-53530D01*
X59157Y-53508D01*
X59157Y-53508D01*
X59247Y-53447D01*
X60247Y-52448D01*
X60269Y-52448D01*
X60397Y-52395D01*
X60495Y-52297D01*
X60539Y-52189D01*
X60647Y-52145D01*
X60745Y-52047D01*
X60789Y-51939D01*
X60897Y-51895D01*
X60995Y-51797D01*
X61048Y-51669D01*
X61048Y-51530D01*
X61031Y-51489D01*
X61080Y-51489D01*
X61801Y-52210D01*
X61801Y-52219D01*
X61854Y-52347D01*
X61880Y-52373D01*
G54D10*
G36*
X62830Y-51326D02*
X62754Y-51402D01*
X62701Y-51530D01*
X62701Y-51552D01*
X62573Y-51680D01*
X62547Y-51654D01*
X62419Y-51601D01*
X62410Y-51601D01*
X61604Y-50795D01*
X61510Y-50732D01*
X61400Y-50710D01*
X60119Y-50710D01*
X58704Y-49295D01*
X58610Y-49232D01*
X58500Y-49210D01*
X57982Y-49210D01*
X57995Y-49197D01*
X58015Y-49148D01*
X58069Y-49148D01*
X58197Y-49095D01*
X58295Y-48997D01*
X58348Y-48869D01*
X58348Y-48730D01*
X58295Y-48602D01*
X58197Y-48504D01*
X58069Y-48451D01*
X57930Y-48451D01*
X57802Y-48504D01*
X57787Y-48520D01*
X55415Y-48520D01*
X54348Y-47452D01*
X54348Y-47430D01*
X54295Y-47302D01*
X54197Y-47204D01*
X54069Y-47151D01*
X53930Y-47151D01*
X53802Y-47204D01*
X53704Y-47302D01*
X53651Y-47430D01*
X53651Y-47569D01*
X53704Y-47697D01*
X53802Y-47795D01*
X53930Y-47848D01*
X53952Y-47848D01*
X54824Y-48720D01*
X54715Y-48720D01*
X52848Y-46852D01*
X52848Y-46830D01*
X52795Y-46702D01*
X52697Y-46604D01*
X52569Y-46551D01*
X52430Y-46551D01*
X52302Y-46604D01*
X52204Y-46702D01*
X52151Y-46830D01*
X52151Y-46969D01*
X52204Y-47097D01*
X52302Y-47195D01*
X52430Y-47248D01*
X52452Y-47248D01*
X54362Y-49158D01*
X54252Y-49204D01*
X54154Y-49302D01*
X54101Y-49430D01*
X54101Y-49569D01*
X54134Y-49650D01*
X54101Y-49730D01*
X54101Y-49869D01*
X54154Y-49997D01*
X54252Y-50095D01*
X54380Y-50148D01*
X54519Y-50148D01*
X54647Y-50095D01*
X54653Y-50089D01*
X58380Y-50089D01*
X59610Y-51320D01*
X58062Y-51320D01*
X58047Y-51304D01*
X57919Y-51251D01*
X57780Y-51251D01*
X57652Y-51304D01*
X57554Y-51402D01*
X57504Y-51524D01*
X57495Y-51502D01*
X57397Y-51404D01*
X57269Y-51351D01*
X57130Y-51351D01*
X57002Y-51404D01*
X56904Y-51502D01*
X56851Y-51630D01*
X56851Y-51769D01*
X56904Y-51897D01*
X57002Y-51995D01*
X57130Y-52048D01*
X57152Y-52048D01*
X57152Y-52048D01*
X57212Y-52088D01*
X57242Y-52108D01*
X57242Y-52108D01*
X57350Y-52130D01*
X59774Y-52130D01*
X58934Y-52970D01*
X58362Y-52970D01*
X58347Y-52954D01*
X58219Y-52901D01*
X58080Y-52901D01*
X57952Y-52954D01*
X57854Y-53052D01*
X57801Y-53180D01*
X57801Y-53220D01*
X57162Y-53220D01*
X57147Y-53204D01*
X57019Y-53151D01*
X56880Y-53151D01*
X56799Y-53184D01*
X56719Y-53151D01*
X56580Y-53151D01*
X56452Y-53204D01*
X56354Y-53302D01*
X56301Y-53430D01*
X56301Y-53569D01*
X56343Y-53671D01*
X56242Y-53691D01*
X56212Y-53711D01*
X56152Y-53752D01*
X55134Y-54770D01*
X52606Y-54770D01*
X51867Y-54030D01*
X51880Y-53999D01*
X51880Y-53780D01*
X51797Y-53578D01*
X51642Y-53423D01*
X51560Y-53389D01*
X51641Y-53356D01*
X51796Y-53201D01*
X51809Y-53169D01*
X54809Y-53169D01*
X55301Y-53661D01*
X55301Y-53683D01*
X55354Y-53811D01*
X55451Y-53909D01*
X55579Y-53962D01*
X55718Y-53962D01*
X55846Y-53909D01*
X55944Y-53811D01*
X55997Y-53683D01*
X55998Y-53545D01*
X55945Y-53417D01*
X55847Y-53318D01*
X55719Y-53265D01*
X55697Y-53265D01*
X55329Y-52898D01*
X55419Y-52898D01*
X55547Y-52845D01*
X55573Y-52819D01*
X55651Y-52897D01*
X55651Y-52919D01*
X55704Y-53047D01*
X55802Y-53145D01*
X55930Y-53198D01*
X56069Y-53198D01*
X56150Y-53165D01*
X56230Y-53198D01*
X56369Y-53198D01*
X56497Y-53145D01*
X56595Y-53047D01*
X56648Y-52919D01*
X56648Y-52780D01*
X56595Y-52652D01*
X56497Y-52554D01*
X56369Y-52501D01*
X56347Y-52501D01*
X56180Y-52334D01*
X56180Y-52312D01*
X56195Y-52297D01*
X56248Y-52169D01*
X56248Y-52030D01*
X56195Y-51902D01*
X56097Y-51804D01*
X55969Y-51751D01*
X55936Y-51751D01*
X55895Y-51652D01*
X55797Y-51554D01*
X55669Y-51501D01*
X55530Y-51501D01*
X55402Y-51554D01*
X55304Y-51652D01*
X55251Y-51780D01*
X55251Y-51919D01*
X55304Y-52047D01*
X55320Y-52062D01*
X55320Y-52124D01*
X54697Y-51502D01*
X54607Y-51441D01*
X54500Y-51420D01*
X53362Y-51420D01*
X53347Y-51404D01*
X53219Y-51351D01*
X53080Y-51351D01*
X52952Y-51404D01*
X52854Y-51502D01*
X52801Y-51630D01*
X52801Y-51769D01*
X52854Y-51897D01*
X52952Y-51995D01*
X53080Y-52048D01*
X53219Y-52048D01*
X53347Y-51995D01*
X53362Y-51980D01*
X54384Y-51980D01*
X55001Y-52597D01*
X55001Y-52619D01*
X55004Y-52625D01*
X54925Y-52609D01*
X51810Y-52609D01*
X51797Y-52578D01*
X51642Y-52423D01*
X51560Y-52389D01*
X51641Y-52356D01*
X51796Y-52201D01*
X51880Y-51999D01*
X51880Y-51780D01*
X51797Y-51578D01*
X51658Y-51439D01*
X51680Y-51439D01*
X51772Y-51401D01*
X51842Y-51331D01*
X51880Y-51239D01*
X51880Y-50540D01*
X51842Y-50448D01*
X51772Y-50377D01*
X51680Y-50339D01*
X51581Y-50339D01*
X51443Y-50339D01*
X51380Y-50402D01*
X51380Y-50839D01*
X51818Y-50839D01*
X51880Y-50777D01*
X51880Y-50540D01*
X51880Y-51239D01*
X51880Y-51002D01*
X51818Y-50939D01*
X51380Y-50939D01*
X51380Y-50947D01*
X51280Y-50947D01*
X51280Y-50939D01*
X51280Y-50839D01*
X51280Y-50402D01*
X51218Y-50339D01*
X51080Y-50339D01*
X50980Y-50339D01*
X50888Y-50377D01*
X50818Y-50448D01*
X50780Y-50540D01*
X50780Y-50777D01*
X50843Y-50839D01*
X51280Y-50839D01*
X51280Y-50939D01*
X50843Y-50939D01*
X50780Y-51002D01*
X50780Y-51239D01*
X50818Y-51331D01*
X50888Y-51401D01*
X50980Y-51439D01*
X51003Y-51439D01*
X50864Y-51577D01*
X50780Y-51779D01*
X50780Y-51998D01*
X50864Y-52200D01*
X51018Y-52355D01*
X51100Y-52389D01*
X51019Y-52423D01*
X50864Y-52577D01*
X50780Y-52779D01*
X50780Y-52998D01*
X50864Y-53200D01*
X51018Y-53355D01*
X51100Y-53389D01*
X51019Y-53423D01*
X50864Y-53577D01*
X50780Y-53779D01*
X50780Y-53998D01*
X50864Y-54200D01*
X51018Y-54355D01*
X51100Y-54389D01*
X51019Y-54423D01*
X50864Y-54577D01*
X50780Y-54779D01*
X50780Y-54998D01*
X50864Y-55200D01*
X51018Y-55355D01*
X51100Y-55389D01*
X51019Y-55423D01*
X50864Y-55577D01*
X50780Y-55779D01*
X50780Y-55998D01*
X50864Y-56200D01*
X51018Y-56355D01*
X51220Y-56439D01*
X51439Y-56439D01*
X51641Y-56356D01*
X51796Y-56201D01*
X51880Y-55999D01*
X51880Y-55780D01*
X51797Y-55578D01*
X51642Y-55423D01*
X51560Y-55389D01*
X51641Y-55356D01*
X51796Y-55201D01*
X51880Y-54999D01*
X51880Y-54835D01*
X52292Y-55247D01*
X52292Y-55247D01*
X52353Y-55288D01*
X52383Y-55308D01*
X52383Y-55308D01*
X52490Y-55330D01*
X55250Y-55330D01*
X55357Y-55308D01*
X55357Y-55308D01*
X55447Y-55247D01*
X56465Y-54230D01*
X56751Y-54230D01*
X56751Y-54269D01*
X56804Y-54397D01*
X56902Y-54495D01*
X57030Y-54548D01*
X57052Y-54548D01*
X57070Y-54565D01*
X57070Y-56284D01*
X57045Y-56308D01*
X57046Y-56300D01*
X57012Y-56128D01*
X56915Y-55984D01*
X56771Y-55887D01*
X56600Y-55853D01*
X56598Y-55853D01*
X56598Y-55780D01*
X56545Y-55652D01*
X56447Y-55554D01*
X56319Y-55501D01*
X56180Y-55501D01*
X56052Y-55554D01*
X56037Y-55570D01*
X54200Y-55570D01*
X54092Y-55591D01*
X54062Y-55611D01*
X54002Y-55652D01*
X53802Y-55851D01*
X53780Y-55851D01*
X53652Y-55904D01*
X53554Y-56002D01*
X53501Y-56130D01*
X53501Y-56269D01*
X53554Y-56397D01*
X53652Y-56495D01*
X53780Y-56548D01*
X53919Y-56548D01*
X54012Y-56509D01*
X54084Y-56615D01*
X54228Y-56712D01*
X54400Y-56746D01*
X56110Y-56746D01*
X56054Y-56802D01*
X56001Y-56930D01*
X56001Y-56952D01*
X52376Y-60577D01*
X52320Y-60521D01*
X52112Y-60435D01*
X51888Y-60434D01*
X51680Y-60520D01*
X51521Y-60679D01*
X51500Y-60730D01*
X51479Y-60680D01*
X51320Y-60521D01*
X51112Y-60435D01*
X50888Y-60434D01*
X50680Y-60520D01*
X50521Y-60679D01*
X50466Y-60811D01*
X50466Y-45188D01*
X50520Y-45319D01*
X50679Y-45478D01*
X50887Y-45564D01*
X51111Y-45565D01*
X51152Y-45548D01*
X52002Y-46397D01*
X52002Y-46397D01*
X52062Y-46438D01*
X52092Y-46458D01*
X52092Y-46458D01*
X52199Y-46479D01*
X52200Y-46480D01*
X54126Y-46480D01*
X54126Y-46519D01*
X54179Y-46647D01*
X54277Y-46745D01*
X54405Y-46798D01*
X54544Y-46798D01*
X54672Y-46745D01*
X54687Y-46730D01*
X57884Y-46730D01*
X58776Y-47622D01*
X58776Y-47644D01*
X58829Y-47772D01*
X58927Y-47870D01*
X59055Y-47923D01*
X59194Y-47923D01*
X59322Y-47870D01*
X59348Y-47844D01*
X61524Y-50020D01*
X60812Y-50020D01*
X60797Y-50004D01*
X60669Y-49951D01*
X60530Y-49951D01*
X60402Y-50004D01*
X60304Y-50102D01*
X60251Y-50230D01*
X60251Y-50369D01*
X60304Y-50497D01*
X60402Y-50595D01*
X60530Y-50648D01*
X60669Y-50648D01*
X60797Y-50595D01*
X60812Y-50580D01*
X61587Y-50580D01*
X61602Y-50595D01*
X61730Y-50648D01*
X61869Y-50648D01*
X61997Y-50595D01*
X62048Y-50544D01*
X62830Y-51326D01*
X62830Y-51326D01*
G37*
G54D32*
X62830Y-51326D02*
X62754Y-51402D01*
X62701Y-51530D01*
X62701Y-51552D01*
X62573Y-51680D01*
X62547Y-51654D01*
X62419Y-51601D01*
X62410Y-51601D01*
X61604Y-50795D01*
X61510Y-50732D01*
X61400Y-50710D01*
X60119Y-50710D01*
X58704Y-49295D01*
X58610Y-49232D01*
X58500Y-49210D01*
X57982Y-49210D01*
X57995Y-49197D01*
X58015Y-49148D01*
X58069Y-49148D01*
X58197Y-49095D01*
X58295Y-48997D01*
X58348Y-48869D01*
X58348Y-48730D01*
X58295Y-48602D01*
X58197Y-48504D01*
X58069Y-48451D01*
X57930Y-48451D01*
X57802Y-48504D01*
X57787Y-48520D01*
X55415Y-48520D01*
X54348Y-47452D01*
X54348Y-47430D01*
X54295Y-47302D01*
X54197Y-47204D01*
X54069Y-47151D01*
X53930Y-47151D01*
X53802Y-47204D01*
X53704Y-47302D01*
X53651Y-47430D01*
X53651Y-47569D01*
X53704Y-47697D01*
X53802Y-47795D01*
X53930Y-47848D01*
X53952Y-47848D01*
X54824Y-48720D01*
X54715Y-48720D01*
X52848Y-46852D01*
X52848Y-46830D01*
X52795Y-46702D01*
X52697Y-46604D01*
X52569Y-46551D01*
X52430Y-46551D01*
X52302Y-46604D01*
X52204Y-46702D01*
X52151Y-46830D01*
X52151Y-46969D01*
X52204Y-47097D01*
X52302Y-47195D01*
X52430Y-47248D01*
X52452Y-47248D01*
X54362Y-49158D01*
X54252Y-49204D01*
X54154Y-49302D01*
X54101Y-49430D01*
X54101Y-49569D01*
X54134Y-49650D01*
X54101Y-49730D01*
X54101Y-49869D01*
X54154Y-49997D01*
X54252Y-50095D01*
X54380Y-50148D01*
X54519Y-50148D01*
X54647Y-50095D01*
X54653Y-50089D01*
X58380Y-50089D01*
X59610Y-51320D01*
X58062Y-51320D01*
X58047Y-51304D01*
X57919Y-51251D01*
X57780Y-51251D01*
X57652Y-51304D01*
X57554Y-51402D01*
X57504Y-51524D01*
X57495Y-51502D01*
X57397Y-51404D01*
X57269Y-51351D01*
X57130Y-51351D01*
X57002Y-51404D01*
X56904Y-51502D01*
X56851Y-51630D01*
X56851Y-51769D01*
X56904Y-51897D01*
X57002Y-51995D01*
X57130Y-52048D01*
X57152Y-52048D01*
X57152Y-52048D01*
X57212Y-52088D01*
X57242Y-52108D01*
X57242Y-52108D01*
X57350Y-52130D01*
X59774Y-52130D01*
X58934Y-52970D01*
X58362Y-52970D01*
X58347Y-52954D01*
X58219Y-52901D01*
X58080Y-52901D01*
X57952Y-52954D01*
X57854Y-53052D01*
X57801Y-53180D01*
X57801Y-53220D01*
X57162Y-53220D01*
X57147Y-53204D01*
X57019Y-53151D01*
X56880Y-53151D01*
X56799Y-53184D01*
X56719Y-53151D01*
X56580Y-53151D01*
X56452Y-53204D01*
X56354Y-53302D01*
X56301Y-53430D01*
X56301Y-53569D01*
X56343Y-53671D01*
X56242Y-53691D01*
X56212Y-53711D01*
X56152Y-53752D01*
X55134Y-54770D01*
X52606Y-54770D01*
X51867Y-54030D01*
X51880Y-53999D01*
X51880Y-53780D01*
X51797Y-53578D01*
X51642Y-53423D01*
X51560Y-53389D01*
X51641Y-53356D01*
X51796Y-53201D01*
X51809Y-53169D01*
X54809Y-53169D01*
X55301Y-53661D01*
X55301Y-53683D01*
X55354Y-53811D01*
X55451Y-53909D01*
X55579Y-53962D01*
X55718Y-53962D01*
X55846Y-53909D01*
X55944Y-53811D01*
X55997Y-53683D01*
X55998Y-53545D01*
X55945Y-53417D01*
X55847Y-53318D01*
X55719Y-53265D01*
X55697Y-53265D01*
X55329Y-52898D01*
X55419Y-52898D01*
X55547Y-52845D01*
X55573Y-52819D01*
X55651Y-52897D01*
X55651Y-52919D01*
X55704Y-53047D01*
X55802Y-53145D01*
X55930Y-53198D01*
X56069Y-53198D01*
X56150Y-53165D01*
X56230Y-53198D01*
X56369Y-53198D01*
X56497Y-53145D01*
X56595Y-53047D01*
X56648Y-52919D01*
X56648Y-52780D01*
X56595Y-52652D01*
X56497Y-52554D01*
X56369Y-52501D01*
X56347Y-52501D01*
X56180Y-52334D01*
X56180Y-52312D01*
X56195Y-52297D01*
X56248Y-52169D01*
X56248Y-52030D01*
X56195Y-51902D01*
X56097Y-51804D01*
X55969Y-51751D01*
X55936Y-51751D01*
X55895Y-51652D01*
X55797Y-51554D01*
X55669Y-51501D01*
X55530Y-51501D01*
X55402Y-51554D01*
X55304Y-51652D01*
X55251Y-51780D01*
X55251Y-51919D01*
X55304Y-52047D01*
X55320Y-52062D01*
X55320Y-52124D01*
X54697Y-51502D01*
X54607Y-51441D01*
X54500Y-51420D01*
X53362Y-51420D01*
X53347Y-51404D01*
X53219Y-51351D01*
X53080Y-51351D01*
X52952Y-51404D01*
X52854Y-51502D01*
X52801Y-51630D01*
X52801Y-51769D01*
X52854Y-51897D01*
X52952Y-51995D01*
X53080Y-52048D01*
X53219Y-52048D01*
X53347Y-51995D01*
X53362Y-51980D01*
X54384Y-51980D01*
X55001Y-52597D01*
X55001Y-52619D01*
X55004Y-52625D01*
X54925Y-52609D01*
X51810Y-52609D01*
X51797Y-52578D01*
X51642Y-52423D01*
X51560Y-52389D01*
X51641Y-52356D01*
X51796Y-52201D01*
X51880Y-51999D01*
X51880Y-51780D01*
X51797Y-51578D01*
X51658Y-51439D01*
X51680Y-51439D01*
X51772Y-51401D01*
X51842Y-51331D01*
X51880Y-51239D01*
X51880Y-50540D01*
X51842Y-50448D01*
X51772Y-50377D01*
X51680Y-50339D01*
X51581Y-50339D01*
X51443Y-50339D01*
X51380Y-50402D01*
X51380Y-50839D01*
X51818Y-50839D01*
X51880Y-50777D01*
X51880Y-50540D01*
X51880Y-51239D01*
X51880Y-51002D01*
X51818Y-50939D01*
X51380Y-50939D01*
X51380Y-50947D01*
X51280Y-50947D01*
X51280Y-50939D01*
X51280Y-50839D01*
X51280Y-50402D01*
X51218Y-50339D01*
X51080Y-50339D01*
X50980Y-50339D01*
X50888Y-50377D01*
X50818Y-50448D01*
X50780Y-50540D01*
X50780Y-50777D01*
X50843Y-50839D01*
X51280Y-50839D01*
X51280Y-50939D01*
X50843Y-50939D01*
X50780Y-51002D01*
X50780Y-51239D01*
X50818Y-51331D01*
X50888Y-51401D01*
X50980Y-51439D01*
X51003Y-51439D01*
X50864Y-51577D01*
X50780Y-51779D01*
X50780Y-51998D01*
X50864Y-52200D01*
X51018Y-52355D01*
X51100Y-52389D01*
X51019Y-52423D01*
X50864Y-52577D01*
X50780Y-52779D01*
X50780Y-52998D01*
X50864Y-53200D01*
X51018Y-53355D01*
X51100Y-53389D01*
X51019Y-53423D01*
X50864Y-53577D01*
X50780Y-53779D01*
X50780Y-53998D01*
X50864Y-54200D01*
X51018Y-54355D01*
X51100Y-54389D01*
X51019Y-54423D01*
X50864Y-54577D01*
X50780Y-54779D01*
X50780Y-54998D01*
X50864Y-55200D01*
X51018Y-55355D01*
X51100Y-55389D01*
X51019Y-55423D01*
X50864Y-55577D01*
X50780Y-55779D01*
X50780Y-55998D01*
X50864Y-56200D01*
X51018Y-56355D01*
X51220Y-56439D01*
X51439Y-56439D01*
X51641Y-56356D01*
X51796Y-56201D01*
X51880Y-55999D01*
X51880Y-55780D01*
X51797Y-55578D01*
X51642Y-55423D01*
X51560Y-55389D01*
X51641Y-55356D01*
X51796Y-55201D01*
X51880Y-54999D01*
X51880Y-54835D01*
X52292Y-55247D01*
X52292Y-55247D01*
X52353Y-55288D01*
X52383Y-55308D01*
X52383Y-55308D01*
X52490Y-55330D01*
X55250Y-55330D01*
X55357Y-55308D01*
X55357Y-55308D01*
X55447Y-55247D01*
X56465Y-54230D01*
X56751Y-54230D01*
X56751Y-54269D01*
X56804Y-54397D01*
X56902Y-54495D01*
X57030Y-54548D01*
X57052Y-54548D01*
X57070Y-54565D01*
X57070Y-56284D01*
X57045Y-56308D01*
X57046Y-56300D01*
X57012Y-56128D01*
X56915Y-55984D01*
X56771Y-55887D01*
X56600Y-55853D01*
X56598Y-55853D01*
X56598Y-55780D01*
X56545Y-55652D01*
X56447Y-55554D01*
X56319Y-55501D01*
X56180Y-55501D01*
X56052Y-55554D01*
X56037Y-55570D01*
X54200Y-55570D01*
X54092Y-55591D01*
X54062Y-55611D01*
X54002Y-55652D01*
X53802Y-55851D01*
X53780Y-55851D01*
X53652Y-55904D01*
X53554Y-56002D01*
X53501Y-56130D01*
X53501Y-56269D01*
X53554Y-56397D01*
X53652Y-56495D01*
X53780Y-56548D01*
X53919Y-56548D01*
X54012Y-56509D01*
X54084Y-56615D01*
X54228Y-56712D01*
X54400Y-56746D01*
X56110Y-56746D01*
X56054Y-56802D01*
X56001Y-56930D01*
X56001Y-56952D01*
X52376Y-60577D01*
X52320Y-60521D01*
X52112Y-60435D01*
X51888Y-60434D01*
X51680Y-60520D01*
X51521Y-60679D01*
X51500Y-60730D01*
X51479Y-60680D01*
X51320Y-60521D01*
X51112Y-60435D01*
X50888Y-60434D01*
X50680Y-60520D01*
X50521Y-60679D01*
X50466Y-60811D01*
X50466Y-45188D01*
X50520Y-45319D01*
X50679Y-45478D01*
X50887Y-45564D01*
X51111Y-45565D01*
X51152Y-45548D01*
X52002Y-46397D01*
X52002Y-46397D01*
X52062Y-46438D01*
X52092Y-46458D01*
X52092Y-46458D01*
X52199Y-46479D01*
X52200Y-46480D01*
X54126Y-46480D01*
X54126Y-46519D01*
X54179Y-46647D01*
X54277Y-46745D01*
X54405Y-46798D01*
X54544Y-46798D01*
X54672Y-46745D01*
X54687Y-46730D01*
X57884Y-46730D01*
X58776Y-47622D01*
X58776Y-47644D01*
X58829Y-47772D01*
X58927Y-47870D01*
X59055Y-47923D01*
X59194Y-47923D01*
X59322Y-47870D01*
X59348Y-47844D01*
X61524Y-50020D01*
X60812Y-50020D01*
X60797Y-50004D01*
X60669Y-49951D01*
X60530Y-49951D01*
X60402Y-50004D01*
X60304Y-50102D01*
X60251Y-50230D01*
X60251Y-50369D01*
X60304Y-50497D01*
X60402Y-50595D01*
X60530Y-50648D01*
X60669Y-50648D01*
X60797Y-50595D01*
X60812Y-50580D01*
X61587Y-50580D01*
X61602Y-50595D01*
X61730Y-50648D01*
X61869Y-50648D01*
X61997Y-50595D01*
X62048Y-50544D01*
X62830Y-51326D01*
G54D10*
G36*
X63724Y-45380D02*
X61952Y-47151D01*
X61930Y-47151D01*
X61802Y-47204D01*
X61704Y-47302D01*
X61651Y-47430D01*
X61651Y-47569D01*
X61684Y-47650D01*
X61651Y-47730D01*
X61651Y-47869D01*
X61684Y-47950D01*
X61651Y-48030D01*
X61651Y-48055D01*
X59280Y-45684D01*
X59280Y-45495D01*
X59319Y-45479D01*
X59478Y-45320D01*
X59499Y-45269D01*
X59520Y-45319D01*
X59679Y-45478D01*
X59887Y-45564D01*
X60111Y-45565D01*
X60319Y-45479D01*
X60419Y-45380D01*
X63724Y-45380D01*
X63724Y-45380D01*
G37*
G54D32*
X63724Y-45380D02*
X61952Y-47151D01*
X61930Y-47151D01*
X61802Y-47204D01*
X61704Y-47302D01*
X61651Y-47430D01*
X61651Y-47569D01*
X61684Y-47650D01*
X61651Y-47730D01*
X61651Y-47869D01*
X61684Y-47950D01*
X61651Y-48030D01*
X61651Y-48055D01*
X59280Y-45684D01*
X59280Y-45495D01*
X59319Y-45479D01*
X59478Y-45320D01*
X59499Y-45269D01*
X59520Y-45319D01*
X59679Y-45478D01*
X59887Y-45564D01*
X60111Y-45565D01*
X60319Y-45479D01*
X60419Y-45380D01*
X63724Y-45380D01*
G54D10*
G36*
X66507Y-44150D02*
X66500Y-44150D01*
X66500Y-44157D01*
X66400Y-44157D01*
X66400Y-44150D01*
X65962Y-44150D01*
X65900Y-44212D01*
X65899Y-44350D01*
X65900Y-44449D01*
X65938Y-44541D01*
X66008Y-44612D01*
X66027Y-44620D01*
X63012Y-44620D01*
X62997Y-44604D01*
X62869Y-44551D01*
X62730Y-44551D01*
X62602Y-44604D01*
X62504Y-44702D01*
X62455Y-44820D01*
X60536Y-44820D01*
X60479Y-44680D01*
X60320Y-44521D01*
X60269Y-44500D01*
X60319Y-44479D01*
X60478Y-44320D01*
X60564Y-44112D01*
X60565Y-43888D01*
X60479Y-43680D01*
X60375Y-43576D01*
X66035Y-43576D01*
X66008Y-43587D01*
X65938Y-43658D01*
X65900Y-43750D01*
X65899Y-43849D01*
X65900Y-43987D01*
X65962Y-44050D01*
X66400Y-44050D01*
X66400Y-44042D01*
X66500Y-44042D01*
X66500Y-44050D01*
X66507Y-44050D01*
X66507Y-44150D01*
X66507Y-44150D01*
G37*
G54D32*
X66507Y-44150D02*
X66500Y-44150D01*
X66500Y-44157D01*
X66400Y-44157D01*
X66400Y-44150D01*
X65962Y-44150D01*
X65900Y-44212D01*
X65899Y-44350D01*
X65900Y-44449D01*
X65938Y-44541D01*
X66008Y-44612D01*
X66027Y-44620D01*
X63012Y-44620D01*
X62997Y-44604D01*
X62869Y-44551D01*
X62730Y-44551D01*
X62602Y-44604D01*
X62504Y-44702D01*
X62455Y-44820D01*
X60536Y-44820D01*
X60479Y-44680D01*
X60320Y-44521D01*
X60269Y-44500D01*
X60319Y-44479D01*
X60478Y-44320D01*
X60564Y-44112D01*
X60565Y-43888D01*
X60479Y-43680D01*
X60375Y-43576D01*
X66035Y-43576D01*
X66008Y-43587D01*
X65938Y-43658D01*
X65900Y-43750D01*
X65899Y-43849D01*
X65900Y-43987D01*
X65962Y-44050D01*
X66400Y-44050D01*
X66400Y-44042D01*
X66500Y-44042D01*
X66500Y-44050D01*
X66507Y-44050D01*
X66507Y-44150D01*
G54D10*
G36*
X76493Y-56620D02*
X70600Y-56620D01*
X70510Y-56637D01*
X70492Y-56641D01*
X70402Y-56702D01*
X68254Y-58849D01*
X67750Y-58849D01*
X67658Y-58887D01*
X67588Y-58958D01*
X67550Y-59050D01*
X67549Y-59149D01*
X67549Y-59620D01*
X64685Y-59620D01*
X63295Y-58230D01*
X64225Y-58230D01*
X64332Y-58208D01*
X64332Y-58208D01*
X64422Y-58147D01*
X65365Y-57205D01*
X65713Y-57205D01*
X64484Y-58434D01*
X64387Y-58578D01*
X64353Y-58750D01*
X64387Y-58921D01*
X64484Y-59065D01*
X64628Y-59162D01*
X64800Y-59196D01*
X64971Y-59162D01*
X65115Y-59065D01*
X66465Y-57715D01*
X66562Y-57571D01*
X66596Y-57400D01*
X66562Y-57228D01*
X66546Y-57205D01*
X67084Y-57205D01*
X67626Y-57747D01*
X67626Y-57769D01*
X67679Y-57897D01*
X67777Y-57995D01*
X67905Y-58048D01*
X68044Y-58048D01*
X68172Y-57995D01*
X68270Y-57897D01*
X68323Y-57769D01*
X68323Y-57630D01*
X68270Y-57502D01*
X68172Y-57404D01*
X68044Y-57351D01*
X68022Y-57351D01*
X67397Y-56727D01*
X67307Y-56666D01*
X67200Y-56645D01*
X65250Y-56645D01*
X65142Y-56666D01*
X65052Y-56727D01*
X64109Y-57670D01*
X63287Y-57670D01*
X63272Y-57654D01*
X63144Y-57601D01*
X63005Y-57601D01*
X62877Y-57654D01*
X62799Y-57733D01*
X60164Y-55098D01*
X60269Y-55098D01*
X60397Y-55045D01*
X60495Y-54947D01*
X60548Y-54819D01*
X60548Y-54797D01*
X62458Y-52887D01*
X62504Y-52997D01*
X62602Y-53095D01*
X62730Y-53148D01*
X62739Y-53148D01*
X64403Y-54813D01*
X64357Y-54924D01*
X64357Y-55062D01*
X64396Y-55157D01*
X63277Y-56276D01*
X63255Y-56276D01*
X63127Y-56329D01*
X63029Y-56427D01*
X62976Y-56555D01*
X62976Y-56694D01*
X63029Y-56822D01*
X63127Y-56920D01*
X63255Y-56973D01*
X63394Y-56973D01*
X63522Y-56920D01*
X63620Y-56822D01*
X63673Y-56694D01*
X63673Y-56672D01*
X64904Y-55441D01*
X64964Y-55351D01*
X64964Y-55351D01*
X64968Y-55333D01*
X64980Y-55273D01*
X65827Y-55273D01*
X66952Y-56397D01*
X66952Y-56397D01*
X67042Y-56458D01*
X67042Y-56458D01*
X67060Y-56462D01*
X67150Y-56480D01*
X76451Y-56480D01*
X76451Y-56519D01*
X76493Y-56620D01*
X76493Y-56620D01*
G37*
G54D32*
X76493Y-56620D02*
X70600Y-56620D01*
X70510Y-56637D01*
X70492Y-56641D01*
X70402Y-56702D01*
X68254Y-58849D01*
X67750Y-58849D01*
X67658Y-58887D01*
X67588Y-58958D01*
X67550Y-59050D01*
X67549Y-59149D01*
X67549Y-59620D01*
X64685Y-59620D01*
X63295Y-58230D01*
X64225Y-58230D01*
X64332Y-58208D01*
X64332Y-58208D01*
X64422Y-58147D01*
X65365Y-57205D01*
X65713Y-57205D01*
X64484Y-58434D01*
X64387Y-58578D01*
X64353Y-58750D01*
X64387Y-58921D01*
X64484Y-59065D01*
X64628Y-59162D01*
X64800Y-59196D01*
X64971Y-59162D01*
X65115Y-59065D01*
X66465Y-57715D01*
X66562Y-57571D01*
X66596Y-57400D01*
X66562Y-57228D01*
X66546Y-57205D01*
X67084Y-57205D01*
X67626Y-57747D01*
X67626Y-57769D01*
X67679Y-57897D01*
X67777Y-57995D01*
X67905Y-58048D01*
X68044Y-58048D01*
X68172Y-57995D01*
X68270Y-57897D01*
X68323Y-57769D01*
X68323Y-57630D01*
X68270Y-57502D01*
X68172Y-57404D01*
X68044Y-57351D01*
X68022Y-57351D01*
X67397Y-56727D01*
X67307Y-56666D01*
X67200Y-56645D01*
X65250Y-56645D01*
X65142Y-56666D01*
X65052Y-56727D01*
X64109Y-57670D01*
X63287Y-57670D01*
X63272Y-57654D01*
X63144Y-57601D01*
X63005Y-57601D01*
X62877Y-57654D01*
X62799Y-57733D01*
X60164Y-55098D01*
X60269Y-55098D01*
X60397Y-55045D01*
X60495Y-54947D01*
X60548Y-54819D01*
X60548Y-54797D01*
X62458Y-52887D01*
X62504Y-52997D01*
X62602Y-53095D01*
X62730Y-53148D01*
X62739Y-53148D01*
X64403Y-54813D01*
X64357Y-54924D01*
X64357Y-55062D01*
X64396Y-55157D01*
X63277Y-56276D01*
X63255Y-56276D01*
X63127Y-56329D01*
X63029Y-56427D01*
X62976Y-56555D01*
X62976Y-56694D01*
X63029Y-56822D01*
X63127Y-56920D01*
X63255Y-56973D01*
X63394Y-56973D01*
X63522Y-56920D01*
X63620Y-56822D01*
X63673Y-56694D01*
X63673Y-56672D01*
X64904Y-55441D01*
X64964Y-55351D01*
X64964Y-55351D01*
X64968Y-55333D01*
X64980Y-55273D01*
X65827Y-55273D01*
X66952Y-56397D01*
X66952Y-56397D01*
X67042Y-56458D01*
X67042Y-56458D01*
X67060Y-56462D01*
X67150Y-56480D01*
X76451Y-56480D01*
X76451Y-56519D01*
X76493Y-56620D01*
G54D10*
G36*
X79969Y-48173D02*
X79247Y-47452D01*
X79157Y-47391D01*
X79050Y-47370D01*
X77812Y-47370D01*
X77797Y-47354D01*
X77669Y-47301D01*
X77530Y-47301D01*
X77402Y-47354D01*
X77330Y-47427D01*
X77330Y-46912D01*
X77345Y-46897D01*
X77398Y-46769D01*
X77398Y-46630D01*
X77345Y-46502D01*
X77247Y-46404D01*
X77187Y-46380D01*
X77734Y-46380D01*
X77841Y-46358D01*
X77841Y-46358D01*
X77932Y-46297D01*
X79572Y-44657D01*
X79623Y-44679D01*
X79855Y-44679D01*
X79969Y-44632D01*
X79969Y-45624D01*
X79887Y-45625D01*
X79825Y-45687D01*
X79825Y-46100D01*
X79832Y-46100D01*
X79832Y-46200D01*
X79825Y-46200D01*
X79825Y-46207D01*
X79725Y-46207D01*
X79725Y-46200D01*
X79725Y-46100D01*
X79725Y-45687D01*
X79662Y-45625D01*
X79550Y-45624D01*
X79458Y-45662D01*
X79388Y-45733D01*
X79350Y-45825D01*
X79349Y-45924D01*
X79350Y-46037D01*
X79412Y-46100D01*
X79725Y-46100D01*
X79725Y-46200D01*
X79412Y-46200D01*
X79350Y-46262D01*
X79349Y-46375D01*
X79349Y-46410D01*
X78603Y-46410D01*
X78597Y-46404D01*
X78469Y-46351D01*
X78330Y-46351D01*
X78202Y-46404D01*
X78104Y-46502D01*
X78051Y-46630D01*
X78051Y-46769D01*
X78104Y-46897D01*
X78202Y-46995D01*
X78330Y-47048D01*
X78469Y-47048D01*
X78597Y-46995D01*
X78603Y-46989D01*
X79969Y-46989D01*
X79969Y-48173D01*
X79969Y-48173D01*
G37*
G54D32*
X79969Y-48173D02*
X79247Y-47452D01*
X79157Y-47391D01*
X79050Y-47370D01*
X77812Y-47370D01*
X77797Y-47354D01*
X77669Y-47301D01*
X77530Y-47301D01*
X77402Y-47354D01*
X77330Y-47427D01*
X77330Y-46912D01*
X77345Y-46897D01*
X77398Y-46769D01*
X77398Y-46630D01*
X77345Y-46502D01*
X77247Y-46404D01*
X77187Y-46380D01*
X77734Y-46380D01*
X77841Y-46358D01*
X77841Y-46358D01*
X77932Y-46297D01*
X79572Y-44657D01*
X79623Y-44679D01*
X79855Y-44679D01*
X79969Y-44632D01*
X79969Y-45624D01*
X79887Y-45625D01*
X79825Y-45687D01*
X79825Y-46100D01*
X79832Y-46100D01*
X79832Y-46200D01*
X79825Y-46200D01*
X79825Y-46207D01*
X79725Y-46207D01*
X79725Y-46200D01*
X79725Y-46100D01*
X79725Y-45687D01*
X79662Y-45625D01*
X79550Y-45624D01*
X79458Y-45662D01*
X79388Y-45733D01*
X79350Y-45825D01*
X79349Y-45924D01*
X79350Y-46037D01*
X79412Y-46100D01*
X79725Y-46100D01*
X79725Y-46200D01*
X79412Y-46200D01*
X79350Y-46262D01*
X79349Y-46375D01*
X79349Y-46410D01*
X78603Y-46410D01*
X78597Y-46404D01*
X78469Y-46351D01*
X78330Y-46351D01*
X78202Y-46404D01*
X78104Y-46502D01*
X78051Y-46630D01*
X78051Y-46769D01*
X78104Y-46897D01*
X78202Y-46995D01*
X78330Y-47048D01*
X78469Y-47048D01*
X78597Y-46995D01*
X78603Y-46989D01*
X79969Y-46989D01*
X79969Y-48173D01*
G54D10*
G36*
X81774Y-51070D02*
X78415Y-51070D01*
X76194Y-48848D01*
X76269Y-48848D01*
X76397Y-48795D01*
X76495Y-48697D01*
X76548Y-48569D01*
X76548Y-48430D01*
X76495Y-48302D01*
X76480Y-48287D01*
X76480Y-46712D01*
X76495Y-46697D01*
X76548Y-46569D01*
X76548Y-46430D01*
X76527Y-46380D01*
X76912Y-46380D01*
X76852Y-46404D01*
X76754Y-46502D01*
X76701Y-46630D01*
X76701Y-46769D01*
X76754Y-46897D01*
X76770Y-46912D01*
X76770Y-48287D01*
X76754Y-48302D01*
X76701Y-48430D01*
X76701Y-48569D01*
X76754Y-48697D01*
X76852Y-48795D01*
X76980Y-48848D01*
X77119Y-48848D01*
X77247Y-48795D01*
X77345Y-48697D01*
X77398Y-48569D01*
X77398Y-48430D01*
X77345Y-48302D01*
X77330Y-48287D01*
X77330Y-48248D01*
X77330Y-48248D01*
X77469Y-48248D01*
X77597Y-48195D01*
X77612Y-48180D01*
X78884Y-48180D01*
X81774Y-51070D01*
X81774Y-51070D01*
G37*
G54D32*
X81774Y-51070D02*
X78415Y-51070D01*
X76194Y-48848D01*
X76269Y-48848D01*
X76397Y-48795D01*
X76495Y-48697D01*
X76548Y-48569D01*
X76548Y-48430D01*
X76495Y-48302D01*
X76480Y-48287D01*
X76480Y-46712D01*
X76495Y-46697D01*
X76548Y-46569D01*
X76548Y-46430D01*
X76527Y-46380D01*
X76912Y-46380D01*
X76852Y-46404D01*
X76754Y-46502D01*
X76701Y-46630D01*
X76701Y-46769D01*
X76754Y-46897D01*
X76770Y-46912D01*
X76770Y-48287D01*
X76754Y-48302D01*
X76701Y-48430D01*
X76701Y-48569D01*
X76754Y-48697D01*
X76852Y-48795D01*
X76980Y-48848D01*
X77119Y-48848D01*
X77247Y-48795D01*
X77345Y-48697D01*
X77398Y-48569D01*
X77398Y-48430D01*
X77345Y-48302D01*
X77330Y-48287D01*
X77330Y-48248D01*
X77330Y-48248D01*
X77469Y-48248D01*
X77597Y-48195D01*
X77612Y-48180D01*
X78884Y-48180D01*
X81774Y-51070D01*
G54D10*
G36*
X85955Y-61967D02*
X85702Y-62220D01*
X84840Y-62220D01*
X84680Y-62059D01*
X84680Y-61240D01*
X85097Y-60822D01*
X85097Y-60822D01*
X85158Y-60732D01*
X85158Y-60732D01*
X85162Y-60714D01*
X85179Y-60625D01*
X85180Y-60625D01*
X85180Y-60612D01*
X85195Y-60597D01*
X85248Y-60469D01*
X85248Y-60330D01*
X85195Y-60202D01*
X85097Y-60104D01*
X84969Y-60051D01*
X84830Y-60051D01*
X84702Y-60104D01*
X84687Y-60120D01*
X83512Y-60120D01*
X83497Y-60104D01*
X83369Y-60051D01*
X83230Y-60051D01*
X83102Y-60104D01*
X83004Y-60202D01*
X82951Y-60330D01*
X82951Y-60469D01*
X83004Y-60597D01*
X83102Y-60695D01*
X83230Y-60748D01*
X83369Y-60748D01*
X83497Y-60695D01*
X83512Y-60680D01*
X84449Y-60680D01*
X84202Y-60927D01*
X84141Y-61017D01*
X84120Y-61125D01*
X84120Y-62175D01*
X84141Y-62282D01*
X84202Y-62372D01*
X84527Y-62697D01*
X84527Y-62697D01*
X84563Y-62722D01*
X78539Y-62722D01*
X78539Y-61499D01*
X78528Y-61280D01*
X78465Y-61129D01*
X78370Y-61102D01*
X78299Y-61172D01*
X78299Y-61031D01*
X78272Y-60936D01*
X78066Y-60862D01*
X77847Y-60873D01*
X77696Y-60936D01*
X77669Y-61031D01*
X77984Y-61346D01*
X78299Y-61031D01*
X78299Y-61172D01*
X78054Y-61417D01*
X78370Y-61732D01*
X78465Y-61705D01*
X78539Y-61499D01*
X78539Y-62722D01*
X78299Y-62722D01*
X78299Y-61803D01*
X77984Y-61488D01*
X77669Y-61803D01*
X77696Y-61898D01*
X77902Y-61972D01*
X78121Y-61961D01*
X78272Y-61898D01*
X78299Y-61803D01*
X78299Y-62722D01*
X74249Y-62722D01*
X74887Y-61967D01*
X75093Y-61967D01*
X75295Y-61883D01*
X75450Y-61729D01*
X75484Y-61647D01*
X75517Y-61728D01*
X75672Y-61883D01*
X75874Y-61967D01*
X76093Y-61967D01*
X76295Y-61883D01*
X76450Y-61729D01*
X76484Y-61647D01*
X76517Y-61728D01*
X76672Y-61883D01*
X76874Y-61967D01*
X77093Y-61967D01*
X77295Y-61883D01*
X77450Y-61729D01*
X77481Y-61653D01*
X77502Y-61705D01*
X77598Y-61732D01*
X77913Y-61417D01*
X77598Y-61102D01*
X77502Y-61129D01*
X77483Y-61184D01*
X77450Y-61106D01*
X77296Y-60951D01*
X77094Y-60867D01*
X76875Y-60867D01*
X76673Y-60950D01*
X76518Y-61105D01*
X76484Y-61187D01*
X76450Y-61106D01*
X76296Y-60951D01*
X76094Y-60867D01*
X75875Y-60867D01*
X75673Y-60950D01*
X75518Y-61105D01*
X75484Y-61187D01*
X75450Y-61106D01*
X75296Y-60951D01*
X75094Y-60867D01*
X74875Y-60867D01*
X74673Y-60950D01*
X74534Y-61089D01*
X74534Y-61067D01*
X74496Y-60975D01*
X74426Y-60905D01*
X74334Y-60867D01*
X74234Y-60867D01*
X73634Y-60867D01*
X73542Y-60905D01*
X73472Y-60975D01*
X73434Y-61067D01*
X73434Y-61166D01*
X73434Y-61766D01*
X73472Y-61858D01*
X73542Y-61929D01*
X73596Y-61951D01*
X73530Y-61951D01*
X73402Y-62004D01*
X73387Y-62020D01*
X72916Y-62020D01*
X72916Y-61308D01*
X72832Y-61106D01*
X72678Y-60951D01*
X72476Y-60867D01*
X72257Y-60867D01*
X72054Y-60950D01*
X71900Y-61105D01*
X71868Y-61180D01*
X71847Y-61129D01*
X71752Y-61102D01*
X71681Y-61172D01*
X71681Y-61031D01*
X71653Y-60936D01*
X71650Y-60934D01*
X71650Y-59291D01*
X71566Y-59088D01*
X71411Y-58934D01*
X71209Y-58850D01*
X70991Y-58849D01*
X70788Y-58933D01*
X70634Y-59088D01*
X70602Y-59163D01*
X70581Y-59112D01*
X70485Y-59084D01*
X70170Y-59400D01*
X70485Y-59715D01*
X70581Y-59687D01*
X70600Y-59632D01*
X70633Y-59711D01*
X70788Y-59865D01*
X70990Y-59949D01*
X71208Y-59950D01*
X71411Y-59866D01*
X71565Y-59711D01*
X71649Y-59509D01*
X71650Y-59291D01*
X71650Y-60934D01*
X71447Y-60862D01*
X71229Y-60873D01*
X71078Y-60936D01*
X71050Y-61031D01*
X71366Y-61346D01*
X71681Y-61031D01*
X71681Y-61172D01*
X71436Y-61417D01*
X71752Y-61732D01*
X71847Y-61705D01*
X71867Y-61649D01*
X71899Y-61728D01*
X72054Y-61883D01*
X72256Y-61967D01*
X72475Y-61967D01*
X72677Y-61883D01*
X72832Y-61729D01*
X72916Y-61527D01*
X72916Y-61308D01*
X72916Y-62020D01*
X71681Y-62020D01*
X71681Y-61803D01*
X71366Y-61488D01*
X71295Y-61558D01*
X71295Y-61417D01*
X70980Y-61102D01*
X70884Y-61129D01*
X70865Y-61184D01*
X70832Y-61106D01*
X70678Y-60951D01*
X70476Y-60867D01*
X70415Y-60867D01*
X70415Y-59785D01*
X70100Y-59470D01*
X69784Y-59785D01*
X69812Y-59881D01*
X70018Y-59954D01*
X70236Y-59943D01*
X70387Y-59881D01*
X70415Y-59785D01*
X70415Y-60867D01*
X70257Y-60867D01*
X70054Y-60950D01*
X69916Y-61089D01*
X69916Y-61067D01*
X69878Y-60975D01*
X69807Y-60905D01*
X69716Y-60867D01*
X69646Y-60867D01*
X69646Y-60566D01*
X69624Y-60458D01*
X69624Y-60458D01*
X69604Y-60428D01*
X69564Y-60368D01*
X69564Y-60368D01*
X69448Y-60252D01*
X69448Y-60230D01*
X69395Y-60102D01*
X69297Y-60004D01*
X69169Y-59951D01*
X69030Y-59951D01*
X68902Y-60004D01*
X68804Y-60102D01*
X68751Y-60230D01*
X68751Y-60369D01*
X68804Y-60497D01*
X68902Y-60595D01*
X69030Y-60648D01*
X69052Y-60648D01*
X69086Y-60682D01*
X69086Y-60867D01*
X69016Y-60867D01*
X68924Y-60905D01*
X68854Y-60975D01*
X68816Y-61067D01*
X68816Y-61166D01*
X68816Y-61766D01*
X68854Y-61858D01*
X68924Y-61929D01*
X69016Y-61967D01*
X69115Y-61967D01*
X69715Y-61967D01*
X69807Y-61929D01*
X69877Y-61859D01*
X69916Y-61767D01*
X69916Y-61745D01*
X70054Y-61883D01*
X70256Y-61967D01*
X70475Y-61967D01*
X70677Y-61883D01*
X70832Y-61729D01*
X70863Y-61653D01*
X70884Y-61705D01*
X70980Y-61732D01*
X71295Y-61417D01*
X71295Y-61558D01*
X71050Y-61803D01*
X71078Y-61898D01*
X71284Y-61972D01*
X71502Y-61961D01*
X71653Y-61898D01*
X71681Y-61803D01*
X71681Y-62020D01*
X68372Y-62020D01*
X68372Y-61308D01*
X68289Y-61106D01*
X68134Y-60951D01*
X67932Y-60867D01*
X67713Y-60867D01*
X67511Y-60950D01*
X67372Y-61089D01*
X67372Y-61067D01*
X67334Y-60975D01*
X67264Y-60905D01*
X67172Y-60867D01*
X67073Y-60867D01*
X66473Y-60867D01*
X66381Y-60905D01*
X66311Y-60975D01*
X66272Y-61067D01*
X66272Y-61166D01*
X66272Y-61766D01*
X66310Y-61858D01*
X66381Y-61929D01*
X66472Y-61967D01*
X66572Y-61967D01*
X67172Y-61967D01*
X67264Y-61929D01*
X67334Y-61859D01*
X67372Y-61767D01*
X67372Y-61745D01*
X67510Y-61883D01*
X67712Y-61967D01*
X67931Y-61967D01*
X68133Y-61883D01*
X68288Y-61729D01*
X68372Y-61527D01*
X68372Y-61308D01*
X68372Y-62020D01*
X63415Y-62020D01*
X62838Y-61442D01*
X62888Y-61391D01*
X62942Y-61263D01*
X62942Y-61124D01*
X62889Y-60996D01*
X62791Y-60898D01*
X62676Y-60850D01*
X62676Y-59312D01*
X62692Y-59297D01*
X62745Y-59169D01*
X62745Y-59030D01*
X62692Y-58902D01*
X62594Y-58804D01*
X62466Y-58751D01*
X62327Y-58751D01*
X62199Y-58804D01*
X62101Y-58902D01*
X62048Y-59030D01*
X62048Y-59169D01*
X62101Y-59297D01*
X62116Y-59312D01*
X62116Y-60996D01*
X62138Y-61104D01*
X62198Y-61194D01*
X62224Y-61220D01*
X60520Y-61220D01*
X60564Y-61112D01*
X60565Y-60888D01*
X60479Y-60680D01*
X60320Y-60521D01*
X60112Y-60435D01*
X59888Y-60434D01*
X59680Y-60520D01*
X59521Y-60679D01*
X59500Y-60730D01*
X59479Y-60680D01*
X59320Y-60521D01*
X59112Y-60435D01*
X58960Y-60435D01*
X59065Y-60330D01*
X59925Y-60330D01*
X60032Y-60308D01*
X60032Y-60308D01*
X60122Y-60247D01*
X62072Y-58298D01*
X62094Y-58298D01*
X62222Y-58245D01*
X62260Y-58206D01*
X64352Y-60297D01*
X64352Y-60297D01*
X64412Y-60338D01*
X64442Y-60358D01*
X64442Y-60358D01*
X64550Y-60380D01*
X67837Y-60380D01*
X67852Y-60395D01*
X67980Y-60448D01*
X68119Y-60448D01*
X68247Y-60395D01*
X68345Y-60297D01*
X68394Y-60180D01*
X68600Y-60180D01*
X68707Y-60158D01*
X68707Y-60158D01*
X68797Y-60097D01*
X68958Y-59936D01*
X68990Y-59949D01*
X69208Y-59950D01*
X69411Y-59866D01*
X69565Y-59711D01*
X69597Y-59636D01*
X69618Y-59687D01*
X69714Y-59715D01*
X70029Y-59400D01*
X70023Y-59394D01*
X70094Y-59323D01*
X70100Y-59329D01*
X70415Y-59014D01*
X70387Y-58918D01*
X70181Y-58845D01*
X70043Y-58852D01*
X71565Y-57330D01*
X74874Y-57330D01*
X73329Y-58874D01*
X72874Y-58874D01*
X72782Y-58912D01*
X72712Y-58982D01*
X72674Y-59074D01*
X72674Y-59173D01*
X72674Y-59725D01*
X72712Y-59817D01*
X72782Y-59887D01*
X72874Y-59925D01*
X72973Y-59925D01*
X73525Y-59925D01*
X73617Y-59887D01*
X73687Y-59817D01*
X73717Y-59744D01*
X73868Y-59895D01*
X74083Y-59984D01*
X74315Y-59984D01*
X74530Y-59895D01*
X74695Y-59731D01*
X74699Y-59720D01*
X74704Y-59730D01*
X74868Y-59895D01*
X75083Y-59984D01*
X75315Y-59984D01*
X75355Y-59968D01*
X76085Y-60697D01*
X76085Y-60697D01*
X76146Y-60738D01*
X76176Y-60758D01*
X76176Y-60758D01*
X76283Y-60779D01*
X76283Y-60780D01*
X79262Y-60780D01*
X79202Y-60804D01*
X79104Y-60902D01*
X79051Y-61030D01*
X79051Y-61169D01*
X79104Y-61297D01*
X79120Y-61312D01*
X79120Y-61600D01*
X79141Y-61707D01*
X79151Y-61722D01*
X79151Y-61769D01*
X79204Y-61897D01*
X79302Y-61995D01*
X79430Y-62048D01*
X79569Y-62048D01*
X79697Y-61995D01*
X79795Y-61897D01*
X79848Y-61769D01*
X79848Y-61630D01*
X79795Y-61502D01*
X79697Y-61404D01*
X79680Y-61397D01*
X79680Y-61312D01*
X79695Y-61297D01*
X79748Y-61169D01*
X79748Y-61144D01*
X80802Y-62197D01*
X80802Y-62197D01*
X80862Y-62238D01*
X80892Y-62258D01*
X80892Y-62258D01*
X81000Y-62280D01*
X81587Y-62280D01*
X81602Y-62295D01*
X81730Y-62348D01*
X81869Y-62348D01*
X81997Y-62295D01*
X82095Y-62197D01*
X82148Y-62069D01*
X82148Y-61930D01*
X82095Y-61802D01*
X81997Y-61704D01*
X81869Y-61651D01*
X81730Y-61651D01*
X81602Y-61704D01*
X81587Y-61720D01*
X81115Y-61720D01*
X81093Y-61697D01*
X81097Y-61695D01*
X81195Y-61597D01*
X81248Y-61469D01*
X81248Y-61330D01*
X81195Y-61202D01*
X81097Y-61104D01*
X80969Y-61051D01*
X80947Y-61051D01*
X80784Y-60888D01*
X80826Y-60905D01*
X80972Y-60905D01*
X81108Y-60850D01*
X81211Y-60746D01*
X81268Y-60611D01*
X81268Y-60464D01*
X81241Y-60400D01*
X81268Y-60335D01*
X81268Y-60189D01*
X81212Y-60053D01*
X81108Y-59950D01*
X80973Y-59894D01*
X80827Y-59894D01*
X80691Y-59949D01*
X80588Y-60053D01*
X80531Y-60188D01*
X80531Y-60335D01*
X80558Y-60399D01*
X80531Y-60464D01*
X80531Y-60610D01*
X80549Y-60653D01*
X79997Y-60102D01*
X79907Y-60041D01*
X79800Y-60020D01*
X76715Y-60020D01*
X76561Y-59865D01*
X76695Y-59731D01*
X76699Y-59720D01*
X76704Y-59730D01*
X76868Y-59895D01*
X77083Y-59984D01*
X77315Y-59984D01*
X77530Y-59895D01*
X77695Y-59731D01*
X77699Y-59720D01*
X77704Y-59730D01*
X77868Y-59895D01*
X78083Y-59984D01*
X78315Y-59984D01*
X78530Y-59895D01*
X78695Y-59731D01*
X78699Y-59720D01*
X78704Y-59730D01*
X78868Y-59895D01*
X79083Y-59984D01*
X79315Y-59984D01*
X79530Y-59895D01*
X79695Y-59731D01*
X79784Y-59516D01*
X79784Y-59284D01*
X79759Y-59223D01*
X80151Y-58831D01*
X80151Y-58919D01*
X80204Y-59047D01*
X80302Y-59145D01*
X80430Y-59198D01*
X80569Y-59198D01*
X80697Y-59145D01*
X80712Y-59130D01*
X82222Y-59130D01*
X82201Y-59180D01*
X82201Y-59319D01*
X82254Y-59447D01*
X82270Y-59462D01*
X82270Y-60237D01*
X82254Y-60252D01*
X82201Y-60380D01*
X82201Y-60519D01*
X82254Y-60647D01*
X82352Y-60745D01*
X82480Y-60798D01*
X82619Y-60798D01*
X82747Y-60745D01*
X82845Y-60647D01*
X82898Y-60519D01*
X82898Y-60380D01*
X82845Y-60252D01*
X82830Y-60237D01*
X82830Y-59462D01*
X82845Y-59447D01*
X82898Y-59319D01*
X82898Y-59180D01*
X82877Y-59130D01*
X84527Y-59130D01*
X84504Y-59152D01*
X84451Y-59280D01*
X84451Y-59419D01*
X84504Y-59547D01*
X84602Y-59645D01*
X84730Y-59698D01*
X84739Y-59698D01*
X85557Y-60516D01*
X85551Y-60530D01*
X85551Y-60669D01*
X85604Y-60797D01*
X85674Y-60867D01*
X85552Y-60867D01*
X85460Y-60905D01*
X85389Y-60975D01*
X85351Y-61067D01*
X85351Y-61166D01*
X85351Y-61766D01*
X85389Y-61858D01*
X85459Y-61929D01*
X85551Y-61967D01*
X85651Y-61967D01*
X85955Y-61967D01*
X85955Y-61967D01*
G37*
G54D32*
X85955Y-61967D02*
X85702Y-62220D01*
X84840Y-62220D01*
X84680Y-62059D01*
X84680Y-61240D01*
X85097Y-60822D01*
X85097Y-60822D01*
X85158Y-60732D01*
X85158Y-60732D01*
X85162Y-60714D01*
X85179Y-60625D01*
X85180Y-60625D01*
X85180Y-60612D01*
X85195Y-60597D01*
X85248Y-60469D01*
X85248Y-60330D01*
X85195Y-60202D01*
X85097Y-60104D01*
X84969Y-60051D01*
X84830Y-60051D01*
X84702Y-60104D01*
X84687Y-60120D01*
X83512Y-60120D01*
X83497Y-60104D01*
X83369Y-60051D01*
X83230Y-60051D01*
X83102Y-60104D01*
X83004Y-60202D01*
X82951Y-60330D01*
X82951Y-60469D01*
X83004Y-60597D01*
X83102Y-60695D01*
X83230Y-60748D01*
X83369Y-60748D01*
X83497Y-60695D01*
X83512Y-60680D01*
X84449Y-60680D01*
X84202Y-60927D01*
X84141Y-61017D01*
X84120Y-61125D01*
X84120Y-62175D01*
X84141Y-62282D01*
X84202Y-62372D01*
X84527Y-62697D01*
X84527Y-62697D01*
X84563Y-62722D01*
X78539Y-62722D01*
X78539Y-61499D01*
X78528Y-61280D01*
X78465Y-61129D01*
X78370Y-61102D01*
X78299Y-61172D01*
X78299Y-61031D01*
X78272Y-60936D01*
X78066Y-60862D01*
X77847Y-60873D01*
X77696Y-60936D01*
X77669Y-61031D01*
X77984Y-61346D01*
X78299Y-61031D01*
X78299Y-61172D01*
X78054Y-61417D01*
X78370Y-61732D01*
X78465Y-61705D01*
X78539Y-61499D01*
X78539Y-62722D01*
X78299Y-62722D01*
X78299Y-61803D01*
X77984Y-61488D01*
X77669Y-61803D01*
X77696Y-61898D01*
X77902Y-61972D01*
X78121Y-61961D01*
X78272Y-61898D01*
X78299Y-61803D01*
X78299Y-62722D01*
X74249Y-62722D01*
X74887Y-61967D01*
X75093Y-61967D01*
X75295Y-61883D01*
X75450Y-61729D01*
X75484Y-61647D01*
X75517Y-61728D01*
X75672Y-61883D01*
X75874Y-61967D01*
X76093Y-61967D01*
X76295Y-61883D01*
X76450Y-61729D01*
X76484Y-61647D01*
X76517Y-61728D01*
X76672Y-61883D01*
X76874Y-61967D01*
X77093Y-61967D01*
X77295Y-61883D01*
X77450Y-61729D01*
X77481Y-61653D01*
X77502Y-61705D01*
X77598Y-61732D01*
X77913Y-61417D01*
X77598Y-61102D01*
X77502Y-61129D01*
X77483Y-61184D01*
X77450Y-61106D01*
X77296Y-60951D01*
X77094Y-60867D01*
X76875Y-60867D01*
X76673Y-60950D01*
X76518Y-61105D01*
X76484Y-61187D01*
X76450Y-61106D01*
X76296Y-60951D01*
X76094Y-60867D01*
X75875Y-60867D01*
X75673Y-60950D01*
X75518Y-61105D01*
X75484Y-61187D01*
X75450Y-61106D01*
X75296Y-60951D01*
X75094Y-60867D01*
X74875Y-60867D01*
X74673Y-60950D01*
X74534Y-61089D01*
X74534Y-61067D01*
X74496Y-60975D01*
X74426Y-60905D01*
X74334Y-60867D01*
X74234Y-60867D01*
X73634Y-60867D01*
X73542Y-60905D01*
X73472Y-60975D01*
X73434Y-61067D01*
X73434Y-61166D01*
X73434Y-61766D01*
X73472Y-61858D01*
X73542Y-61929D01*
X73596Y-61951D01*
X73530Y-61951D01*
X73402Y-62004D01*
X73387Y-62020D01*
X72916Y-62020D01*
X72916Y-61308D01*
X72832Y-61106D01*
X72678Y-60951D01*
X72476Y-60867D01*
X72257Y-60867D01*
X72054Y-60950D01*
X71900Y-61105D01*
X71868Y-61180D01*
X71847Y-61129D01*
X71752Y-61102D01*
X71681Y-61172D01*
X71681Y-61031D01*
X71653Y-60936D01*
X71650Y-60934D01*
X71650Y-59291D01*
X71566Y-59088D01*
X71411Y-58934D01*
X71209Y-58850D01*
X70991Y-58849D01*
X70788Y-58933D01*
X70634Y-59088D01*
X70602Y-59163D01*
X70581Y-59112D01*
X70485Y-59084D01*
X70170Y-59400D01*
X70485Y-59715D01*
X70581Y-59687D01*
X70600Y-59632D01*
X70633Y-59711D01*
X70788Y-59865D01*
X70990Y-59949D01*
X71208Y-59950D01*
X71411Y-59866D01*
X71565Y-59711D01*
X71649Y-59509D01*
X71650Y-59291D01*
X71650Y-60934D01*
X71447Y-60862D01*
X71229Y-60873D01*
X71078Y-60936D01*
X71050Y-61031D01*
X71366Y-61346D01*
X71681Y-61031D01*
X71681Y-61172D01*
X71436Y-61417D01*
X71752Y-61732D01*
X71847Y-61705D01*
X71867Y-61649D01*
X71899Y-61728D01*
X72054Y-61883D01*
X72256Y-61967D01*
X72475Y-61967D01*
X72677Y-61883D01*
X72832Y-61729D01*
X72916Y-61527D01*
X72916Y-61308D01*
X72916Y-62020D01*
X71681Y-62020D01*
X71681Y-61803D01*
X71366Y-61488D01*
X71295Y-61558D01*
X71295Y-61417D01*
X70980Y-61102D01*
X70884Y-61129D01*
X70865Y-61184D01*
X70832Y-61106D01*
X70678Y-60951D01*
X70476Y-60867D01*
X70415Y-60867D01*
X70415Y-59785D01*
X70100Y-59470D01*
X69784Y-59785D01*
X69812Y-59881D01*
X70018Y-59954D01*
X70236Y-59943D01*
X70387Y-59881D01*
X70415Y-59785D01*
X70415Y-60867D01*
X70257Y-60867D01*
X70054Y-60950D01*
X69916Y-61089D01*
X69916Y-61067D01*
X69878Y-60975D01*
X69807Y-60905D01*
X69716Y-60867D01*
X69646Y-60867D01*
X69646Y-60566D01*
X69624Y-60458D01*
X69624Y-60458D01*
X69604Y-60428D01*
X69564Y-60368D01*
X69564Y-60368D01*
X69448Y-60252D01*
X69448Y-60230D01*
X69395Y-60102D01*
X69297Y-60004D01*
X69169Y-59951D01*
X69030Y-59951D01*
X68902Y-60004D01*
X68804Y-60102D01*
X68751Y-60230D01*
X68751Y-60369D01*
X68804Y-60497D01*
X68902Y-60595D01*
X69030Y-60648D01*
X69052Y-60648D01*
X69086Y-60682D01*
X69086Y-60867D01*
X69016Y-60867D01*
X68924Y-60905D01*
X68854Y-60975D01*
X68816Y-61067D01*
X68816Y-61166D01*
X68816Y-61766D01*
X68854Y-61858D01*
X68924Y-61929D01*
X69016Y-61967D01*
X69115Y-61967D01*
X69715Y-61967D01*
X69807Y-61929D01*
X69877Y-61859D01*
X69916Y-61767D01*
X69916Y-61745D01*
X70054Y-61883D01*
X70256Y-61967D01*
X70475Y-61967D01*
X70677Y-61883D01*
X70832Y-61729D01*
X70863Y-61653D01*
X70884Y-61705D01*
X70980Y-61732D01*
X71295Y-61417D01*
X71295Y-61558D01*
X71050Y-61803D01*
X71078Y-61898D01*
X71284Y-61972D01*
X71502Y-61961D01*
X71653Y-61898D01*
X71681Y-61803D01*
X71681Y-62020D01*
X68372Y-62020D01*
X68372Y-61308D01*
X68289Y-61106D01*
X68134Y-60951D01*
X67932Y-60867D01*
X67713Y-60867D01*
X67511Y-60950D01*
X67372Y-61089D01*
X67372Y-61067D01*
X67334Y-60975D01*
X67264Y-60905D01*
X67172Y-60867D01*
X67073Y-60867D01*
X66473Y-60867D01*
X66381Y-60905D01*
X66311Y-60975D01*
X66272Y-61067D01*
X66272Y-61166D01*
X66272Y-61766D01*
X66310Y-61858D01*
X66381Y-61929D01*
X66472Y-61967D01*
X66572Y-61967D01*
X67172Y-61967D01*
X67264Y-61929D01*
X67334Y-61859D01*
X67372Y-61767D01*
X67372Y-61745D01*
X67510Y-61883D01*
X67712Y-61967D01*
X67931Y-61967D01*
X68133Y-61883D01*
X68288Y-61729D01*
X68372Y-61527D01*
X68372Y-61308D01*
X68372Y-62020D01*
X63415Y-62020D01*
X62838Y-61442D01*
X62888Y-61391D01*
X62942Y-61263D01*
X62942Y-61124D01*
X62889Y-60996D01*
X62791Y-60898D01*
X62676Y-60850D01*
X62676Y-59312D01*
X62692Y-59297D01*
X62745Y-59169D01*
X62745Y-59030D01*
X62692Y-58902D01*
X62594Y-58804D01*
X62466Y-58751D01*
X62327Y-58751D01*
X62199Y-58804D01*
X62101Y-58902D01*
X62048Y-59030D01*
X62048Y-59169D01*
X62101Y-59297D01*
X62116Y-59312D01*
X62116Y-60996D01*
X62138Y-61104D01*
X62198Y-61194D01*
X62224Y-61220D01*
X60520Y-61220D01*
X60564Y-61112D01*
X60565Y-60888D01*
X60479Y-60680D01*
X60320Y-60521D01*
X60112Y-60435D01*
X59888Y-60434D01*
X59680Y-60520D01*
X59521Y-60679D01*
X59500Y-60730D01*
X59479Y-60680D01*
X59320Y-60521D01*
X59112Y-60435D01*
X58960Y-60435D01*
X59065Y-60330D01*
X59925Y-60330D01*
X60032Y-60308D01*
X60032Y-60308D01*
X60122Y-60247D01*
X62072Y-58298D01*
X62094Y-58298D01*
X62222Y-58245D01*
X62260Y-58206D01*
X64352Y-60297D01*
X64352Y-60297D01*
X64412Y-60338D01*
X64442Y-60358D01*
X64442Y-60358D01*
X64550Y-60380D01*
X67837Y-60380D01*
X67852Y-60395D01*
X67980Y-60448D01*
X68119Y-60448D01*
X68247Y-60395D01*
X68345Y-60297D01*
X68394Y-60180D01*
X68600Y-60180D01*
X68707Y-60158D01*
X68707Y-60158D01*
X68797Y-60097D01*
X68958Y-59936D01*
X68990Y-59949D01*
X69208Y-59950D01*
X69411Y-59866D01*
X69565Y-59711D01*
X69597Y-59636D01*
X69618Y-59687D01*
X69714Y-59715D01*
X70029Y-59400D01*
X70023Y-59394D01*
X70094Y-59323D01*
X70100Y-59329D01*
X70415Y-59014D01*
X70387Y-58918D01*
X70181Y-58845D01*
X70043Y-58852D01*
X71565Y-57330D01*
X74874Y-57330D01*
X73329Y-58874D01*
X72874Y-58874D01*
X72782Y-58912D01*
X72712Y-58982D01*
X72674Y-59074D01*
X72674Y-59173D01*
X72674Y-59725D01*
X72712Y-59817D01*
X72782Y-59887D01*
X72874Y-59925D01*
X72973Y-59925D01*
X73525Y-59925D01*
X73617Y-59887D01*
X73687Y-59817D01*
X73717Y-59744D01*
X73868Y-59895D01*
X74083Y-59984D01*
X74315Y-59984D01*
X74530Y-59895D01*
X74695Y-59731D01*
X74699Y-59720D01*
X74704Y-59730D01*
X74868Y-59895D01*
X75083Y-59984D01*
X75315Y-59984D01*
X75355Y-59968D01*
X76085Y-60697D01*
X76085Y-60697D01*
X76146Y-60738D01*
X76176Y-60758D01*
X76176Y-60758D01*
X76283Y-60779D01*
X76283Y-60780D01*
X79262Y-60780D01*
X79202Y-60804D01*
X79104Y-60902D01*
X79051Y-61030D01*
X79051Y-61169D01*
X79104Y-61297D01*
X79120Y-61312D01*
X79120Y-61600D01*
X79141Y-61707D01*
X79151Y-61722D01*
X79151Y-61769D01*
X79204Y-61897D01*
X79302Y-61995D01*
X79430Y-62048D01*
X79569Y-62048D01*
X79697Y-61995D01*
X79795Y-61897D01*
X79848Y-61769D01*
X79848Y-61630D01*
X79795Y-61502D01*
X79697Y-61404D01*
X79680Y-61397D01*
X79680Y-61312D01*
X79695Y-61297D01*
X79748Y-61169D01*
X79748Y-61144D01*
X80802Y-62197D01*
X80802Y-62197D01*
X80862Y-62238D01*
X80892Y-62258D01*
X80892Y-62258D01*
X81000Y-62280D01*
X81587Y-62280D01*
X81602Y-62295D01*
X81730Y-62348D01*
X81869Y-62348D01*
X81997Y-62295D01*
X82095Y-62197D01*
X82148Y-62069D01*
X82148Y-61930D01*
X82095Y-61802D01*
X81997Y-61704D01*
X81869Y-61651D01*
X81730Y-61651D01*
X81602Y-61704D01*
X81587Y-61720D01*
X81115Y-61720D01*
X81093Y-61697D01*
X81097Y-61695D01*
X81195Y-61597D01*
X81248Y-61469D01*
X81248Y-61330D01*
X81195Y-61202D01*
X81097Y-61104D01*
X80969Y-61051D01*
X80947Y-61051D01*
X80784Y-60888D01*
X80826Y-60905D01*
X80972Y-60905D01*
X81108Y-60850D01*
X81211Y-60746D01*
X81268Y-60611D01*
X81268Y-60464D01*
X81241Y-60400D01*
X81268Y-60335D01*
X81268Y-60189D01*
X81212Y-60053D01*
X81108Y-59950D01*
X80973Y-59894D01*
X80827Y-59894D01*
X80691Y-59949D01*
X80588Y-60053D01*
X80531Y-60188D01*
X80531Y-60335D01*
X80558Y-60399D01*
X80531Y-60464D01*
X80531Y-60610D01*
X80549Y-60653D01*
X79997Y-60102D01*
X79907Y-60041D01*
X79800Y-60020D01*
X76715Y-60020D01*
X76561Y-59865D01*
X76695Y-59731D01*
X76699Y-59720D01*
X76704Y-59730D01*
X76868Y-59895D01*
X77083Y-59984D01*
X77315Y-59984D01*
X77530Y-59895D01*
X77695Y-59731D01*
X77699Y-59720D01*
X77704Y-59730D01*
X77868Y-59895D01*
X78083Y-59984D01*
X78315Y-59984D01*
X78530Y-59895D01*
X78695Y-59731D01*
X78699Y-59720D01*
X78704Y-59730D01*
X78868Y-59895D01*
X79083Y-59984D01*
X79315Y-59984D01*
X79530Y-59895D01*
X79695Y-59731D01*
X79784Y-59516D01*
X79784Y-59284D01*
X79759Y-59223D01*
X80151Y-58831D01*
X80151Y-58919D01*
X80204Y-59047D01*
X80302Y-59145D01*
X80430Y-59198D01*
X80569Y-59198D01*
X80697Y-59145D01*
X80712Y-59130D01*
X82222Y-59130D01*
X82201Y-59180D01*
X82201Y-59319D01*
X82254Y-59447D01*
X82270Y-59462D01*
X82270Y-60237D01*
X82254Y-60252D01*
X82201Y-60380D01*
X82201Y-60519D01*
X82254Y-60647D01*
X82352Y-60745D01*
X82480Y-60798D01*
X82619Y-60798D01*
X82747Y-60745D01*
X82845Y-60647D01*
X82898Y-60519D01*
X82898Y-60380D01*
X82845Y-60252D01*
X82830Y-60237D01*
X82830Y-59462D01*
X82845Y-59447D01*
X82898Y-59319D01*
X82898Y-59180D01*
X82877Y-59130D01*
X84527Y-59130D01*
X84504Y-59152D01*
X84451Y-59280D01*
X84451Y-59419D01*
X84504Y-59547D01*
X84602Y-59645D01*
X84730Y-59698D01*
X84739Y-59698D01*
X85557Y-60516D01*
X85551Y-60530D01*
X85551Y-60669D01*
X85604Y-60797D01*
X85674Y-60867D01*
X85552Y-60867D01*
X85460Y-60905D01*
X85389Y-60975D01*
X85351Y-61067D01*
X85351Y-61166D01*
X85351Y-61766D01*
X85389Y-61858D01*
X85459Y-61929D01*
X85551Y-61967D01*
X85651Y-61967D01*
X85955Y-61967D01*
G54D10*
G36*
X86627Y-51630D02*
X86604Y-51652D01*
X86551Y-51780D01*
X86551Y-51919D01*
X86604Y-52047D01*
X86620Y-52062D01*
X86620Y-55787D01*
X86604Y-55802D01*
X86555Y-55920D01*
X82006Y-55920D01*
X82048Y-55819D01*
X82048Y-55680D01*
X81995Y-55552D01*
X81897Y-55454D01*
X81769Y-55401D01*
X81630Y-55401D01*
X81502Y-55454D01*
X81496Y-55460D01*
X80409Y-55460D01*
X80409Y-53511D01*
X80409Y-52511D01*
X80341Y-52347D01*
X80216Y-52221D01*
X80051Y-52153D01*
X79874Y-52153D01*
X79709Y-52220D01*
X79583Y-52346D01*
X79515Y-52510D01*
X79515Y-52688D01*
X79583Y-52852D01*
X79709Y-52978D01*
X79873Y-53046D01*
X80051Y-53046D01*
X80215Y-52979D01*
X80341Y-52853D01*
X80409Y-52689D01*
X80409Y-52511D01*
X80409Y-53511D01*
X80341Y-53347D01*
X80216Y-53221D01*
X80051Y-53153D01*
X79874Y-53153D01*
X79709Y-53220D01*
X79583Y-53346D01*
X79515Y-53510D01*
X79515Y-53688D01*
X79583Y-53852D01*
X79709Y-53978D01*
X79873Y-54046D01*
X80051Y-54046D01*
X80215Y-53979D01*
X80341Y-53853D01*
X80409Y-53689D01*
X80409Y-53511D01*
X80409Y-55460D01*
X79028Y-55460D01*
X79049Y-55409D01*
X79050Y-55191D01*
X78966Y-54988D01*
X78811Y-54834D01*
X78609Y-54750D01*
X78391Y-54749D01*
X78188Y-54833D01*
X78050Y-54972D01*
X78050Y-54950D01*
X78012Y-54858D01*
X77941Y-54788D01*
X77849Y-54750D01*
X77750Y-54749D01*
X77150Y-54749D01*
X77058Y-54787D01*
X76988Y-54858D01*
X76950Y-54950D01*
X76949Y-55049D01*
X76949Y-55460D01*
X67848Y-55460D01*
X67848Y-52130D01*
X67795Y-52002D01*
X67697Y-51904D01*
X67569Y-51851D01*
X67430Y-51851D01*
X67302Y-51904D01*
X67204Y-52002D01*
X67151Y-52130D01*
X67151Y-52269D01*
X67204Y-52397D01*
X67302Y-52495D01*
X67430Y-52548D01*
X67569Y-52548D01*
X67697Y-52495D01*
X67795Y-52397D01*
X67848Y-52269D01*
X67848Y-52130D01*
X67848Y-55460D01*
X67369Y-55460D01*
X67057Y-55148D01*
X67169Y-55148D01*
X67297Y-55095D01*
X67395Y-54997D01*
X67448Y-54869D01*
X67448Y-54730D01*
X67395Y-54602D01*
X67297Y-54504D01*
X67169Y-54451D01*
X67030Y-54451D01*
X66902Y-54504D01*
X66887Y-54520D01*
X66815Y-54520D01*
X66475Y-54180D01*
X66887Y-54180D01*
X66902Y-54195D01*
X67030Y-54248D01*
X67169Y-54248D01*
X67297Y-54195D01*
X67395Y-54097D01*
X67448Y-53969D01*
X67448Y-53830D01*
X67395Y-53702D01*
X67297Y-53604D01*
X67169Y-53551D01*
X67030Y-53551D01*
X66902Y-53604D01*
X66887Y-53620D01*
X66215Y-53620D01*
X62375Y-49780D01*
X67884Y-49780D01*
X68720Y-50615D01*
X68720Y-52687D01*
X68704Y-52702D01*
X68651Y-52830D01*
X68651Y-52969D01*
X68704Y-53097D01*
X68802Y-53195D01*
X68930Y-53248D01*
X69069Y-53248D01*
X69197Y-53195D01*
X69295Y-53097D01*
X69348Y-52969D01*
X69348Y-52830D01*
X69295Y-52702D01*
X69280Y-52687D01*
X69280Y-50500D01*
X69258Y-50392D01*
X69258Y-50392D01*
X69238Y-50362D01*
X69197Y-50302D01*
X69197Y-50302D01*
X68275Y-49380D01*
X69997Y-49380D01*
X70004Y-49397D01*
X70020Y-49412D01*
X70020Y-51887D01*
X70004Y-51902D01*
X69951Y-52030D01*
X69951Y-52169D01*
X70004Y-52297D01*
X70102Y-52395D01*
X70230Y-52448D01*
X70369Y-52448D01*
X70497Y-52395D01*
X70595Y-52297D01*
X70648Y-52169D01*
X70648Y-52030D01*
X70595Y-51902D01*
X70580Y-51887D01*
X70580Y-49412D01*
X70595Y-49397D01*
X70648Y-49269D01*
X70648Y-49180D01*
X70984Y-49180D01*
X71051Y-49247D01*
X71051Y-49269D01*
X71104Y-49397D01*
X71120Y-49412D01*
X71120Y-51887D01*
X71104Y-51902D01*
X71051Y-52030D01*
X71051Y-52169D01*
X71104Y-52297D01*
X71202Y-52395D01*
X71330Y-52448D01*
X71469Y-52448D01*
X71597Y-52395D01*
X71695Y-52297D01*
X71748Y-52169D01*
X71748Y-52030D01*
X71695Y-51902D01*
X71680Y-51887D01*
X71680Y-49412D01*
X71695Y-49397D01*
X71748Y-49269D01*
X71748Y-49130D01*
X71695Y-49002D01*
X71672Y-48980D01*
X75534Y-48980D01*
X78102Y-51547D01*
X78102Y-51547D01*
X78162Y-51588D01*
X78192Y-51608D01*
X78192Y-51608D01*
X78300Y-51630D01*
X86627Y-51630D01*
X86627Y-51630D01*
G37*
G54D32*
X86627Y-51630D02*
X86604Y-51652D01*
X86551Y-51780D01*
X86551Y-51919D01*
X86604Y-52047D01*
X86620Y-52062D01*
X86620Y-55787D01*
X86604Y-55802D01*
X86555Y-55920D01*
X82006Y-55920D01*
X82048Y-55819D01*
X82048Y-55680D01*
X81995Y-55552D01*
X81897Y-55454D01*
X81769Y-55401D01*
X81630Y-55401D01*
X81502Y-55454D01*
X81496Y-55460D01*
X80409Y-55460D01*
X80409Y-53511D01*
X80409Y-52511D01*
X80341Y-52347D01*
X80216Y-52221D01*
X80051Y-52153D01*
X79874Y-52153D01*
X79709Y-52220D01*
X79583Y-52346D01*
X79515Y-52510D01*
X79515Y-52688D01*
X79583Y-52852D01*
X79709Y-52978D01*
X79873Y-53046D01*
X80051Y-53046D01*
X80215Y-52979D01*
X80341Y-52853D01*
X80409Y-52689D01*
X80409Y-52511D01*
X80409Y-53511D01*
X80341Y-53347D01*
X80216Y-53221D01*
X80051Y-53153D01*
X79874Y-53153D01*
X79709Y-53220D01*
X79583Y-53346D01*
X79515Y-53510D01*
X79515Y-53688D01*
X79583Y-53852D01*
X79709Y-53978D01*
X79873Y-54046D01*
X80051Y-54046D01*
X80215Y-53979D01*
X80341Y-53853D01*
X80409Y-53689D01*
X80409Y-53511D01*
X80409Y-55460D01*
X79028Y-55460D01*
X79049Y-55409D01*
X79050Y-55191D01*
X78966Y-54988D01*
X78811Y-54834D01*
X78609Y-54750D01*
X78391Y-54749D01*
X78188Y-54833D01*
X78050Y-54972D01*
X78050Y-54950D01*
X78012Y-54858D01*
X77941Y-54788D01*
X77849Y-54750D01*
X77750Y-54749D01*
X77150Y-54749D01*
X77058Y-54787D01*
X76988Y-54858D01*
X76950Y-54950D01*
X76949Y-55049D01*
X76949Y-55460D01*
X67848Y-55460D01*
X67848Y-52130D01*
X67795Y-52002D01*
X67697Y-51904D01*
X67569Y-51851D01*
X67430Y-51851D01*
X67302Y-51904D01*
X67204Y-52002D01*
X67151Y-52130D01*
X67151Y-52269D01*
X67204Y-52397D01*
X67302Y-52495D01*
X67430Y-52548D01*
X67569Y-52548D01*
X67697Y-52495D01*
X67795Y-52397D01*
X67848Y-52269D01*
X67848Y-52130D01*
X67848Y-55460D01*
X67369Y-55460D01*
X67057Y-55148D01*
X67169Y-55148D01*
X67297Y-55095D01*
X67395Y-54997D01*
X67448Y-54869D01*
X67448Y-54730D01*
X67395Y-54602D01*
X67297Y-54504D01*
X67169Y-54451D01*
X67030Y-54451D01*
X66902Y-54504D01*
X66887Y-54520D01*
X66815Y-54520D01*
X66475Y-54180D01*
X66887Y-54180D01*
X66902Y-54195D01*
X67030Y-54248D01*
X67169Y-54248D01*
X67297Y-54195D01*
X67395Y-54097D01*
X67448Y-53969D01*
X67448Y-53830D01*
X67395Y-53702D01*
X67297Y-53604D01*
X67169Y-53551D01*
X67030Y-53551D01*
X66902Y-53604D01*
X66887Y-53620D01*
X66215Y-53620D01*
X62375Y-49780D01*
X67884Y-49780D01*
X68720Y-50615D01*
X68720Y-52687D01*
X68704Y-52702D01*
X68651Y-52830D01*
X68651Y-52969D01*
X68704Y-53097D01*
X68802Y-53195D01*
X68930Y-53248D01*
X69069Y-53248D01*
X69197Y-53195D01*
X69295Y-53097D01*
X69348Y-52969D01*
X69348Y-52830D01*
X69295Y-52702D01*
X69280Y-52687D01*
X69280Y-50500D01*
X69258Y-50392D01*
X69258Y-50392D01*
X69238Y-50362D01*
X69197Y-50302D01*
X69197Y-50302D01*
X68275Y-49380D01*
X69997Y-49380D01*
X70004Y-49397D01*
X70020Y-49412D01*
X70020Y-51887D01*
X70004Y-51902D01*
X69951Y-52030D01*
X69951Y-52169D01*
X70004Y-52297D01*
X70102Y-52395D01*
X70230Y-52448D01*
X70369Y-52448D01*
X70497Y-52395D01*
X70595Y-52297D01*
X70648Y-52169D01*
X70648Y-52030D01*
X70595Y-51902D01*
X70580Y-51887D01*
X70580Y-49412D01*
X70595Y-49397D01*
X70648Y-49269D01*
X70648Y-49180D01*
X70984Y-49180D01*
X71051Y-49247D01*
X71051Y-49269D01*
X71104Y-49397D01*
X71120Y-49412D01*
X71120Y-51887D01*
X71104Y-51902D01*
X71051Y-52030D01*
X71051Y-52169D01*
X71104Y-52297D01*
X71202Y-52395D01*
X71330Y-52448D01*
X71469Y-52448D01*
X71597Y-52395D01*
X71695Y-52297D01*
X71748Y-52169D01*
X71748Y-52030D01*
X71695Y-51902D01*
X71680Y-51887D01*
X71680Y-49412D01*
X71695Y-49397D01*
X71748Y-49269D01*
X71748Y-49130D01*
X71695Y-49002D01*
X71672Y-48980D01*
X75534Y-48980D01*
X78102Y-51547D01*
X78102Y-51547D01*
X78162Y-51588D01*
X78192Y-51608D01*
X78192Y-51608D01*
X78300Y-51630D01*
X86627Y-51630D01*
G54D10*
G36*
X99474Y-53180D02*
X96673Y-55980D01*
X96597Y-55904D01*
X96469Y-55851D01*
X96330Y-55851D01*
X96202Y-55904D01*
X96187Y-55920D01*
X95845Y-55920D01*
X95845Y-52955D01*
X95834Y-52723D01*
X95765Y-52557D01*
X95666Y-52525D01*
X95596Y-52596D01*
X95596Y-52454D01*
X95564Y-52355D01*
X95345Y-52276D01*
X95113Y-52286D01*
X94947Y-52355D01*
X94915Y-52454D01*
X95255Y-52795D01*
X95596Y-52454D01*
X95596Y-52596D01*
X95326Y-52865D01*
X95666Y-53206D01*
X95765Y-53174D01*
X95845Y-52955D01*
X95845Y-55920D01*
X95840Y-55920D01*
X95840Y-54718D01*
X95751Y-54503D01*
X95590Y-54341D01*
X95751Y-54181D01*
X95840Y-53966D01*
X95840Y-53734D01*
X95751Y-53519D01*
X95587Y-53354D01*
X95573Y-53348D01*
X95596Y-53276D01*
X95255Y-52936D01*
X95185Y-53007D01*
X95185Y-52865D01*
X94844Y-52525D01*
X94745Y-52557D01*
X94666Y-52775D01*
X94677Y-53008D01*
X94745Y-53174D01*
X94844Y-53206D01*
X95185Y-52865D01*
X95185Y-53007D01*
X94915Y-53276D01*
X94938Y-53348D01*
X94925Y-53354D01*
X94760Y-53518D01*
X94671Y-53733D01*
X94671Y-53965D01*
X94759Y-54180D01*
X94921Y-54342D01*
X94760Y-54502D01*
X94671Y-54717D01*
X94671Y-54950D01*
X94759Y-55164D01*
X94924Y-55329D01*
X95139Y-55418D01*
X95371Y-55418D01*
X95586Y-55330D01*
X95751Y-55165D01*
X95840Y-54951D01*
X95840Y-54718D01*
X95840Y-55920D01*
X90048Y-55920D01*
X90048Y-52780D01*
X89995Y-52652D01*
X89897Y-52554D01*
X89769Y-52501D01*
X89630Y-52501D01*
X89502Y-52554D01*
X89404Y-52652D01*
X89351Y-52780D01*
X89351Y-52802D01*
X88102Y-54051D01*
X88080Y-54051D01*
X87952Y-54104D01*
X87854Y-54202D01*
X87801Y-54330D01*
X87801Y-54469D01*
X87854Y-54597D01*
X87952Y-54695D01*
X88080Y-54748D01*
X88219Y-54748D01*
X88347Y-54695D01*
X88445Y-54597D01*
X88498Y-54469D01*
X88498Y-54447D01*
X89747Y-53198D01*
X89769Y-53198D01*
X89897Y-53145D01*
X89995Y-53047D01*
X90048Y-52919D01*
X90048Y-52780D01*
X90048Y-55920D01*
X89347Y-55920D01*
X89347Y-55200D01*
X89317Y-55047D01*
X89231Y-54918D01*
X89102Y-54832D01*
X88950Y-54802D01*
X87650Y-54802D01*
X87497Y-54832D01*
X87368Y-54918D01*
X87282Y-55047D01*
X87252Y-55200D01*
X87282Y-55352D01*
X87368Y-55481D01*
X87497Y-55567D01*
X87650Y-55597D01*
X88950Y-55597D01*
X89102Y-55567D01*
X89231Y-55481D01*
X89317Y-55352D01*
X89347Y-55200D01*
X89347Y-55920D01*
X89073Y-55920D01*
X89073Y-55905D01*
X89020Y-55777D01*
X88922Y-55679D01*
X88794Y-55626D01*
X88655Y-55626D01*
X88527Y-55679D01*
X88512Y-55695D01*
X87987Y-55695D01*
X87972Y-55679D01*
X87844Y-55626D01*
X87705Y-55626D01*
X87577Y-55679D01*
X87479Y-55777D01*
X87426Y-55905D01*
X87426Y-55920D01*
X87243Y-55920D01*
X87195Y-55802D01*
X87180Y-55787D01*
X87180Y-52062D01*
X87195Y-52047D01*
X87248Y-51919D01*
X87248Y-51780D01*
X87195Y-51652D01*
X87172Y-51630D01*
X94900Y-51630D01*
X95007Y-51608D01*
X95007Y-51608D01*
X95097Y-51547D01*
X96601Y-50044D01*
X96601Y-50169D01*
X96654Y-50297D01*
X96670Y-50312D01*
X96670Y-50451D01*
X96669Y-50451D01*
X96530Y-50451D01*
X96402Y-50504D01*
X96304Y-50602D01*
X96251Y-50730D01*
X96251Y-50869D01*
X96304Y-50997D01*
X96320Y-51012D01*
X96320Y-51537D01*
X96304Y-51552D01*
X96251Y-51680D01*
X96251Y-51819D01*
X96304Y-51947D01*
X96402Y-52045D01*
X96530Y-52098D01*
X96669Y-52098D01*
X96797Y-52045D01*
X96895Y-51947D01*
X96948Y-51819D01*
X96948Y-51680D01*
X96895Y-51552D01*
X96880Y-51537D01*
X96880Y-51012D01*
X96895Y-50997D01*
X96926Y-50922D01*
X99102Y-53097D01*
X99102Y-53097D01*
X99162Y-53138D01*
X99192Y-53158D01*
X99192Y-53158D01*
X99299Y-53179D01*
X99300Y-53180D01*
X99474Y-53180D01*
X99474Y-53180D01*
G37*
G54D32*
X99474Y-53180D02*
X96673Y-55980D01*
X96597Y-55904D01*
X96469Y-55851D01*
X96330Y-55851D01*
X96202Y-55904D01*
X96187Y-55920D01*
X95845Y-55920D01*
X95845Y-52955D01*
X95834Y-52723D01*
X95765Y-52557D01*
X95666Y-52525D01*
X95596Y-52596D01*
X95596Y-52454D01*
X95564Y-52355D01*
X95345Y-52276D01*
X95113Y-52286D01*
X94947Y-52355D01*
X94915Y-52454D01*
X95255Y-52795D01*
X95596Y-52454D01*
X95596Y-52596D01*
X95326Y-52865D01*
X95666Y-53206D01*
X95765Y-53174D01*
X95845Y-52955D01*
X95845Y-55920D01*
X95840Y-55920D01*
X95840Y-54718D01*
X95751Y-54503D01*
X95590Y-54341D01*
X95751Y-54181D01*
X95840Y-53966D01*
X95840Y-53734D01*
X95751Y-53519D01*
X95587Y-53354D01*
X95573Y-53348D01*
X95596Y-53276D01*
X95255Y-52936D01*
X95185Y-53007D01*
X95185Y-52865D01*
X94844Y-52525D01*
X94745Y-52557D01*
X94666Y-52775D01*
X94677Y-53008D01*
X94745Y-53174D01*
X94844Y-53206D01*
X95185Y-52865D01*
X95185Y-53007D01*
X94915Y-53276D01*
X94938Y-53348D01*
X94925Y-53354D01*
X94760Y-53518D01*
X94671Y-53733D01*
X94671Y-53965D01*
X94759Y-54180D01*
X94921Y-54342D01*
X94760Y-54502D01*
X94671Y-54717D01*
X94671Y-54950D01*
X94759Y-55164D01*
X94924Y-55329D01*
X95139Y-55418D01*
X95371Y-55418D01*
X95586Y-55330D01*
X95751Y-55165D01*
X95840Y-54951D01*
X95840Y-54718D01*
X95840Y-55920D01*
X90048Y-55920D01*
X90048Y-52780D01*
X89995Y-52652D01*
X89897Y-52554D01*
X89769Y-52501D01*
X89630Y-52501D01*
X89502Y-52554D01*
X89404Y-52652D01*
X89351Y-52780D01*
X89351Y-52802D01*
X88102Y-54051D01*
X88080Y-54051D01*
X87952Y-54104D01*
X87854Y-54202D01*
X87801Y-54330D01*
X87801Y-54469D01*
X87854Y-54597D01*
X87952Y-54695D01*
X88080Y-54748D01*
X88219Y-54748D01*
X88347Y-54695D01*
X88445Y-54597D01*
X88498Y-54469D01*
X88498Y-54447D01*
X89747Y-53198D01*
X89769Y-53198D01*
X89897Y-53145D01*
X89995Y-53047D01*
X90048Y-52919D01*
X90048Y-52780D01*
X90048Y-55920D01*
X89347Y-55920D01*
X89347Y-55200D01*
X89317Y-55047D01*
X89231Y-54918D01*
X89102Y-54832D01*
X88950Y-54802D01*
X87650Y-54802D01*
X87497Y-54832D01*
X87368Y-54918D01*
X87282Y-55047D01*
X87252Y-55200D01*
X87282Y-55352D01*
X87368Y-55481D01*
X87497Y-55567D01*
X87650Y-55597D01*
X88950Y-55597D01*
X89102Y-55567D01*
X89231Y-55481D01*
X89317Y-55352D01*
X89347Y-55200D01*
X89347Y-55920D01*
X89073Y-55920D01*
X89073Y-55905D01*
X89020Y-55777D01*
X88922Y-55679D01*
X88794Y-55626D01*
X88655Y-55626D01*
X88527Y-55679D01*
X88512Y-55695D01*
X87987Y-55695D01*
X87972Y-55679D01*
X87844Y-55626D01*
X87705Y-55626D01*
X87577Y-55679D01*
X87479Y-55777D01*
X87426Y-55905D01*
X87426Y-55920D01*
X87243Y-55920D01*
X87195Y-55802D01*
X87180Y-55787D01*
X87180Y-52062D01*
X87195Y-52047D01*
X87248Y-51919D01*
X87248Y-51780D01*
X87195Y-51652D01*
X87172Y-51630D01*
X94900Y-51630D01*
X95007Y-51608D01*
X95007Y-51608D01*
X95097Y-51547D01*
X96601Y-50044D01*
X96601Y-50169D01*
X96654Y-50297D01*
X96670Y-50312D01*
X96670Y-50451D01*
X96669Y-50451D01*
X96530Y-50451D01*
X96402Y-50504D01*
X96304Y-50602D01*
X96251Y-50730D01*
X96251Y-50869D01*
X96304Y-50997D01*
X96320Y-51012D01*
X96320Y-51537D01*
X96304Y-51552D01*
X96251Y-51680D01*
X96251Y-51819D01*
X96304Y-51947D01*
X96402Y-52045D01*
X96530Y-52098D01*
X96669Y-52098D01*
X96797Y-52045D01*
X96895Y-51947D01*
X96948Y-51819D01*
X96948Y-51680D01*
X96895Y-51552D01*
X96880Y-51537D01*
X96880Y-51012D01*
X96895Y-50997D01*
X96926Y-50922D01*
X99102Y-53097D01*
X99102Y-53097D01*
X99162Y-53138D01*
X99192Y-53158D01*
X99192Y-53158D01*
X99299Y-53179D01*
X99300Y-53180D01*
X99474Y-53180D01*
G54D10*
G36*
X99820Y-46587D02*
X99804Y-46602D01*
X99751Y-46730D01*
X99751Y-46869D01*
X99772Y-46920D01*
X99262Y-46920D01*
X99247Y-46904D01*
X99119Y-46851D01*
X98980Y-46851D01*
X98852Y-46904D01*
X98754Y-47002D01*
X98701Y-47130D01*
X98701Y-47220D01*
X97504Y-47220D01*
X97265Y-47220D01*
X97265Y-45435D01*
X96950Y-45120D01*
X96879Y-45191D01*
X96634Y-45435D01*
X96662Y-45531D01*
X96868Y-45604D01*
X97086Y-45593D01*
X97237Y-45531D01*
X97265Y-45435D01*
X97265Y-47220D01*
X94748Y-47220D01*
X94748Y-46455D01*
X94695Y-46327D01*
X94597Y-46229D01*
X94469Y-46176D01*
X94330Y-46176D01*
X94202Y-46229D01*
X94104Y-46327D01*
X94051Y-46455D01*
X94051Y-46470D01*
X92562Y-46470D01*
X92547Y-46454D01*
X92419Y-46401D01*
X92280Y-46401D01*
X92152Y-46454D01*
X92054Y-46552D01*
X92001Y-46680D01*
X92001Y-46819D01*
X92054Y-46947D01*
X92152Y-47045D01*
X92280Y-47098D01*
X92419Y-47098D01*
X92547Y-47045D01*
X92562Y-47030D01*
X94175Y-47030D01*
X94282Y-47008D01*
X94282Y-47008D01*
X94372Y-46947D01*
X94447Y-46873D01*
X94469Y-46873D01*
X94597Y-46820D01*
X94695Y-46722D01*
X94748Y-46594D01*
X94748Y-46455D01*
X94748Y-47220D01*
X91665Y-47220D01*
X90823Y-46377D01*
X90732Y-46316D01*
X90625Y-46295D01*
X89825Y-46295D01*
X89825Y-46049D01*
X89825Y-45937D01*
X89762Y-45875D01*
X89350Y-45875D01*
X89350Y-46187D01*
X89412Y-46250D01*
X89525Y-46250D01*
X89624Y-46249D01*
X89716Y-46211D01*
X89787Y-46141D01*
X89825Y-46049D01*
X89825Y-46295D01*
X88927Y-46295D01*
X88927Y-46230D01*
X88975Y-46249D01*
X89074Y-46250D01*
X89187Y-46250D01*
X89250Y-46187D01*
X89250Y-45875D01*
X89242Y-45875D01*
X89242Y-45775D01*
X89250Y-45775D01*
X89250Y-45767D01*
X89350Y-45767D01*
X89350Y-45775D01*
X89762Y-45775D01*
X89798Y-45739D01*
X90280Y-45739D01*
X91101Y-46560D01*
X91101Y-46569D01*
X91154Y-46697D01*
X91252Y-46795D01*
X91380Y-46848D01*
X91519Y-46848D01*
X91647Y-46795D01*
X91745Y-46697D01*
X91798Y-46569D01*
X91798Y-46430D01*
X91745Y-46302D01*
X91647Y-46204D01*
X91519Y-46151D01*
X91510Y-46151D01*
X90604Y-45245D01*
X90510Y-45182D01*
X90400Y-45160D01*
X89825Y-45160D01*
X89825Y-44850D01*
X89787Y-44758D01*
X89716Y-44688D01*
X89624Y-44650D01*
X89589Y-44650D01*
X89589Y-44600D01*
X90049Y-44600D01*
X90141Y-44562D01*
X90211Y-44491D01*
X90249Y-44399D01*
X90249Y-44377D01*
X90388Y-44515D01*
X90590Y-44599D01*
X90808Y-44600D01*
X91011Y-44516D01*
X91165Y-44361D01*
X91249Y-44159D01*
X91250Y-43941D01*
X91166Y-43738D01*
X91011Y-43584D01*
X90994Y-43576D01*
X91569Y-43576D01*
X91538Y-43608D01*
X91500Y-43700D01*
X91499Y-43799D01*
X91499Y-44399D01*
X91537Y-44491D01*
X91608Y-44561D01*
X91700Y-44599D01*
X91799Y-44600D01*
X92399Y-44600D01*
X92491Y-44562D01*
X92561Y-44491D01*
X92599Y-44399D01*
X92599Y-44377D01*
X92738Y-44515D01*
X92940Y-44599D01*
X93158Y-44600D01*
X93361Y-44516D01*
X93515Y-44361D01*
X93599Y-44159D01*
X93600Y-43941D01*
X93516Y-43738D01*
X93361Y-43584D01*
X93344Y-43576D01*
X93769Y-43576D01*
X93738Y-43608D01*
X93700Y-43700D01*
X93699Y-43799D01*
X93699Y-44399D01*
X93737Y-44491D01*
X93808Y-44561D01*
X93900Y-44599D01*
X93999Y-44600D01*
X94599Y-44600D01*
X94691Y-44562D01*
X94761Y-44491D01*
X94799Y-44399D01*
X94799Y-44377D01*
X94938Y-44515D01*
X95140Y-44599D01*
X95358Y-44600D01*
X95561Y-44516D01*
X95715Y-44361D01*
X95799Y-44159D01*
X95800Y-43941D01*
X95716Y-43738D01*
X95561Y-43584D01*
X95544Y-43576D01*
X96469Y-43576D01*
X96438Y-43608D01*
X96400Y-43700D01*
X96399Y-43799D01*
X96399Y-44134D01*
X96319Y-44101D01*
X96180Y-44101D01*
X96052Y-44154D01*
X95954Y-44252D01*
X95901Y-44380D01*
X95901Y-44519D01*
X95954Y-44647D01*
X96052Y-44745D01*
X96180Y-44798D01*
X96319Y-44798D01*
X96447Y-44745D01*
X96462Y-44730D01*
X96559Y-44730D01*
X96564Y-44734D01*
X96468Y-44762D01*
X96395Y-44968D01*
X96406Y-45186D01*
X96468Y-45337D01*
X96564Y-45365D01*
X96879Y-45050D01*
X96873Y-45044D01*
X96944Y-44973D01*
X96950Y-44979D01*
X96955Y-44973D01*
X97026Y-45044D01*
X97020Y-45050D01*
X97335Y-45365D01*
X97431Y-45337D01*
X97504Y-45131D01*
X97493Y-44913D01*
X97431Y-44762D01*
X97335Y-44734D01*
X97340Y-44730D01*
X98084Y-44730D01*
X98084Y-44742D01*
X98084Y-45293D01*
X98122Y-45385D01*
X98192Y-45455D01*
X98284Y-45494D01*
X98384Y-45494D01*
X98935Y-45494D01*
X99027Y-45456D01*
X99097Y-45385D01*
X99135Y-45294D01*
X99135Y-45292D01*
X99289Y-45447D01*
X99497Y-45533D01*
X99722Y-45533D01*
X99820Y-45493D01*
X99820Y-46587D01*
X99820Y-46587D01*
G37*
G54D32*
X99820Y-46587D02*
X99804Y-46602D01*
X99751Y-46730D01*
X99751Y-46869D01*
X99772Y-46920D01*
X99262Y-46920D01*
X99247Y-46904D01*
X99119Y-46851D01*
X98980Y-46851D01*
X98852Y-46904D01*
X98754Y-47002D01*
X98701Y-47130D01*
X98701Y-47220D01*
X97504Y-47220D01*
X97265Y-47220D01*
X97265Y-45435D01*
X96950Y-45120D01*
X96879Y-45191D01*
X96634Y-45435D01*
X96662Y-45531D01*
X96868Y-45604D01*
X97086Y-45593D01*
X97237Y-45531D01*
X97265Y-45435D01*
X97265Y-47220D01*
X94748Y-47220D01*
X94748Y-46455D01*
X94695Y-46327D01*
X94597Y-46229D01*
X94469Y-46176D01*
X94330Y-46176D01*
X94202Y-46229D01*
X94104Y-46327D01*
X94051Y-46455D01*
X94051Y-46470D01*
X92562Y-46470D01*
X92547Y-46454D01*
X92419Y-46401D01*
X92280Y-46401D01*
X92152Y-46454D01*
X92054Y-46552D01*
X92001Y-46680D01*
X92001Y-46819D01*
X92054Y-46947D01*
X92152Y-47045D01*
X92280Y-47098D01*
X92419Y-47098D01*
X92547Y-47045D01*
X92562Y-47030D01*
X94175Y-47030D01*
X94282Y-47008D01*
X94282Y-47008D01*
X94372Y-46947D01*
X94447Y-46873D01*
X94469Y-46873D01*
X94597Y-46820D01*
X94695Y-46722D01*
X94748Y-46594D01*
X94748Y-46455D01*
X94748Y-47220D01*
X91665Y-47220D01*
X90823Y-46377D01*
X90732Y-46316D01*
X90625Y-46295D01*
X89825Y-46295D01*
X89825Y-46049D01*
X89825Y-45937D01*
X89762Y-45875D01*
X89350Y-45875D01*
X89350Y-46187D01*
X89412Y-46250D01*
X89525Y-46250D01*
X89624Y-46249D01*
X89716Y-46211D01*
X89787Y-46141D01*
X89825Y-46049D01*
X89825Y-46295D01*
X88927Y-46295D01*
X88927Y-46230D01*
X88975Y-46249D01*
X89074Y-46250D01*
X89187Y-46250D01*
X89250Y-46187D01*
X89250Y-45875D01*
X89242Y-45875D01*
X89242Y-45775D01*
X89250Y-45775D01*
X89250Y-45767D01*
X89350Y-45767D01*
X89350Y-45775D01*
X89762Y-45775D01*
X89798Y-45739D01*
X90280Y-45739D01*
X91101Y-46560D01*
X91101Y-46569D01*
X91154Y-46697D01*
X91252Y-46795D01*
X91380Y-46848D01*
X91519Y-46848D01*
X91647Y-46795D01*
X91745Y-46697D01*
X91798Y-46569D01*
X91798Y-46430D01*
X91745Y-46302D01*
X91647Y-46204D01*
X91519Y-46151D01*
X91510Y-46151D01*
X90604Y-45245D01*
X90510Y-45182D01*
X90400Y-45160D01*
X89825Y-45160D01*
X89825Y-44850D01*
X89787Y-44758D01*
X89716Y-44688D01*
X89624Y-44650D01*
X89589Y-44650D01*
X89589Y-44600D01*
X90049Y-44600D01*
X90141Y-44562D01*
X90211Y-44491D01*
X90249Y-44399D01*
X90249Y-44377D01*
X90388Y-44515D01*
X90590Y-44599D01*
X90808Y-44600D01*
X91011Y-44516D01*
X91165Y-44361D01*
X91249Y-44159D01*
X91250Y-43941D01*
X91166Y-43738D01*
X91011Y-43584D01*
X90994Y-43576D01*
X91569Y-43576D01*
X91538Y-43608D01*
X91500Y-43700D01*
X91499Y-43799D01*
X91499Y-44399D01*
X91537Y-44491D01*
X91608Y-44561D01*
X91700Y-44599D01*
X91799Y-44600D01*
X92399Y-44600D01*
X92491Y-44562D01*
X92561Y-44491D01*
X92599Y-44399D01*
X92599Y-44377D01*
X92738Y-44515D01*
X92940Y-44599D01*
X93158Y-44600D01*
X93361Y-44516D01*
X93515Y-44361D01*
X93599Y-44159D01*
X93600Y-43941D01*
X93516Y-43738D01*
X93361Y-43584D01*
X93344Y-43576D01*
X93769Y-43576D01*
X93738Y-43608D01*
X93700Y-43700D01*
X93699Y-43799D01*
X93699Y-44399D01*
X93737Y-44491D01*
X93808Y-44561D01*
X93900Y-44599D01*
X93999Y-44600D01*
X94599Y-44600D01*
X94691Y-44562D01*
X94761Y-44491D01*
X94799Y-44399D01*
X94799Y-44377D01*
X94938Y-44515D01*
X95140Y-44599D01*
X95358Y-44600D01*
X95561Y-44516D01*
X95715Y-44361D01*
X95799Y-44159D01*
X95800Y-43941D01*
X95716Y-43738D01*
X95561Y-43584D01*
X95544Y-43576D01*
X96469Y-43576D01*
X96438Y-43608D01*
X96400Y-43700D01*
X96399Y-43799D01*
X96399Y-44134D01*
X96319Y-44101D01*
X96180Y-44101D01*
X96052Y-44154D01*
X95954Y-44252D01*
X95901Y-44380D01*
X95901Y-44519D01*
X95954Y-44647D01*
X96052Y-44745D01*
X96180Y-44798D01*
X96319Y-44798D01*
X96447Y-44745D01*
X96462Y-44730D01*
X96559Y-44730D01*
X96564Y-44734D01*
X96468Y-44762D01*
X96395Y-44968D01*
X96406Y-45186D01*
X96468Y-45337D01*
X96564Y-45365D01*
X96879Y-45050D01*
X96873Y-45044D01*
X96944Y-44973D01*
X96950Y-44979D01*
X96955Y-44973D01*
X97026Y-45044D01*
X97020Y-45050D01*
X97335Y-45365D01*
X97431Y-45337D01*
X97504Y-45131D01*
X97493Y-44913D01*
X97431Y-44762D01*
X97335Y-44734D01*
X97340Y-44730D01*
X98084Y-44730D01*
X98084Y-44742D01*
X98084Y-45293D01*
X98122Y-45385D01*
X98192Y-45455D01*
X98284Y-45494D01*
X98384Y-45494D01*
X98935Y-45494D01*
X99027Y-45456D01*
X99097Y-45385D01*
X99135Y-45294D01*
X99135Y-45292D01*
X99289Y-45447D01*
X99497Y-45533D01*
X99722Y-45533D01*
X99820Y-45493D01*
X99820Y-46587D01*
G54D10*
G36*
X100670Y-51956D02*
X100552Y-52004D01*
X100454Y-52102D01*
X100401Y-52230D01*
X100401Y-52252D01*
X100023Y-52630D01*
X99997Y-52604D01*
X99869Y-52551D01*
X99730Y-52551D01*
X99602Y-52604D01*
X99587Y-52620D01*
X99415Y-52620D01*
X99294Y-52498D01*
X99319Y-52498D01*
X99400Y-52465D01*
X99480Y-52498D01*
X99619Y-52498D01*
X99747Y-52445D01*
X99845Y-52347D01*
X99898Y-52219D01*
X99898Y-52080D01*
X99845Y-51952D01*
X99830Y-51937D01*
X99830Y-51162D01*
X99845Y-51147D01*
X99889Y-51039D01*
X99997Y-50995D01*
X100095Y-50897D01*
X100148Y-50769D01*
X100148Y-50630D01*
X100095Y-50502D01*
X99997Y-50404D01*
X99869Y-50351D01*
X99730Y-50351D01*
X99602Y-50404D01*
X99587Y-50420D01*
X99450Y-50420D01*
X99342Y-50441D01*
X99312Y-50461D01*
X99252Y-50502D01*
X99052Y-50702D01*
X98991Y-50792D01*
X98970Y-50900D01*
X98970Y-51774D01*
X98930Y-51734D01*
X98930Y-50248D01*
X98969Y-50248D01*
X99097Y-50195D01*
X99195Y-50097D01*
X99248Y-49969D01*
X99248Y-49830D01*
X99195Y-49702D01*
X99180Y-49687D01*
X99180Y-49262D01*
X99195Y-49247D01*
X99248Y-49119D01*
X99248Y-48980D01*
X99195Y-48852D01*
X99097Y-48754D01*
X98969Y-48701D01*
X98830Y-48701D01*
X98702Y-48754D01*
X98604Y-48852D01*
X98560Y-48960D01*
X98452Y-49004D01*
X98354Y-49102D01*
X98301Y-49230D01*
X98301Y-49369D01*
X98354Y-49497D01*
X98370Y-49512D01*
X98370Y-51574D01*
X97230Y-50434D01*
X97230Y-50312D01*
X97245Y-50297D01*
X97298Y-50169D01*
X97298Y-50030D01*
X97245Y-49902D01*
X97147Y-49804D01*
X97019Y-49751D01*
X96894Y-49751D01*
X97272Y-49373D01*
X97294Y-49373D01*
X97422Y-49320D01*
X97520Y-49222D01*
X97573Y-49094D01*
X97573Y-48955D01*
X97520Y-48827D01*
X97422Y-48729D01*
X97294Y-48676D01*
X97155Y-48676D01*
X97027Y-48729D01*
X96929Y-48827D01*
X96876Y-48955D01*
X96876Y-48977D01*
X95441Y-50412D01*
X95395Y-50302D01*
X95380Y-50287D01*
X95380Y-48912D01*
X95395Y-48897D01*
X95448Y-48769D01*
X95448Y-48630D01*
X95395Y-48502D01*
X95297Y-48404D01*
X95169Y-48351D01*
X95055Y-48351D01*
X95045Y-48327D01*
X94947Y-48229D01*
X94819Y-48176D01*
X94680Y-48176D01*
X94552Y-48229D01*
X94454Y-48327D01*
X94401Y-48455D01*
X94401Y-48477D01*
X94027Y-48852D01*
X93966Y-48942D01*
X93945Y-49050D01*
X93945Y-50212D01*
X93929Y-50227D01*
X93876Y-50355D01*
X93876Y-50494D01*
X93929Y-50622D01*
X94027Y-50720D01*
X94155Y-50773D01*
X94294Y-50773D01*
X94422Y-50720D01*
X94520Y-50622D01*
X94573Y-50494D01*
X94573Y-50355D01*
X94520Y-50227D01*
X94505Y-50212D01*
X94505Y-49165D01*
X94795Y-48875D01*
X94804Y-48897D01*
X94820Y-48912D01*
X94820Y-50287D01*
X94804Y-50302D01*
X94751Y-50430D01*
X94751Y-50569D01*
X94804Y-50697D01*
X94902Y-50795D01*
X95012Y-50841D01*
X94784Y-51070D01*
X93198Y-51070D01*
X93198Y-49230D01*
X93145Y-49102D01*
X93047Y-49004D01*
X92919Y-48951D01*
X92780Y-48951D01*
X92652Y-49004D01*
X92637Y-49020D01*
X92462Y-49020D01*
X92447Y-49004D01*
X92319Y-48951D01*
X92194Y-48951D01*
X92315Y-48830D01*
X92387Y-48830D01*
X92402Y-48845D01*
X92530Y-48898D01*
X92669Y-48898D01*
X92797Y-48845D01*
X92895Y-48747D01*
X92948Y-48619D01*
X92948Y-48480D01*
X92895Y-48352D01*
X92797Y-48254D01*
X92669Y-48201D01*
X92530Y-48201D01*
X92402Y-48254D01*
X92387Y-48270D01*
X92200Y-48270D01*
X92092Y-48291D01*
X92062Y-48311D01*
X92002Y-48352D01*
X91352Y-49002D01*
X91291Y-49092D01*
X91270Y-49200D01*
X91270Y-49887D01*
X91254Y-49902D01*
X91201Y-50030D01*
X91201Y-50169D01*
X91254Y-50297D01*
X91352Y-50395D01*
X91480Y-50448D01*
X91619Y-50448D01*
X91747Y-50395D01*
X91845Y-50297D01*
X91898Y-50169D01*
X91898Y-50030D01*
X91845Y-49902D01*
X91830Y-49887D01*
X91830Y-49315D01*
X91901Y-49244D01*
X91901Y-49369D01*
X91954Y-49497D01*
X92052Y-49595D01*
X92180Y-49648D01*
X92319Y-49648D01*
X92447Y-49595D01*
X92462Y-49580D01*
X92637Y-49580D01*
X92652Y-49595D01*
X92780Y-49648D01*
X92919Y-49648D01*
X93047Y-49595D01*
X93145Y-49497D01*
X93198Y-49369D01*
X93198Y-49230D01*
X93198Y-51070D01*
X89103Y-51070D01*
X91090Y-48489D01*
X91197Y-48445D01*
X91295Y-48347D01*
X91348Y-48219D01*
X91348Y-48080D01*
X91295Y-47952D01*
X91197Y-47854D01*
X91069Y-47801D01*
X90930Y-47801D01*
X90849Y-47834D01*
X90769Y-47801D01*
X90630Y-47801D01*
X90502Y-47854D01*
X90404Y-47952D01*
X90351Y-48080D01*
X90351Y-48143D01*
X88410Y-50720D01*
X87248Y-50720D01*
X87248Y-50655D01*
X87195Y-50527D01*
X87097Y-50429D01*
X86969Y-50376D01*
X86830Y-50376D01*
X86702Y-50429D01*
X86687Y-50445D01*
X86567Y-50445D01*
X86598Y-50369D01*
X86598Y-50230D01*
X86545Y-50102D01*
X86530Y-50087D01*
X86530Y-49765D01*
X87097Y-49197D01*
X87097Y-49197D01*
X87120Y-49164D01*
X88927Y-49164D01*
X88927Y-46855D01*
X90509Y-46855D01*
X91352Y-47697D01*
X91352Y-47697D01*
X91412Y-47738D01*
X91442Y-47758D01*
X91442Y-47758D01*
X91550Y-47780D01*
X97543Y-47780D01*
X97501Y-47880D01*
X97501Y-48019D01*
X97554Y-48147D01*
X97652Y-48245D01*
X97780Y-48298D01*
X97802Y-48298D01*
X97938Y-48434D01*
X97938Y-48434D01*
X98029Y-48494D01*
X98029Y-48494D01*
X98046Y-48498D01*
X98136Y-48516D01*
X99941Y-48516D01*
X99957Y-48555D01*
X100116Y-48714D01*
X100161Y-48733D01*
X100140Y-48742D01*
X100110Y-48839D01*
X100437Y-49165D01*
X100442Y-49159D01*
X100513Y-49230D01*
X100507Y-49236D01*
X100513Y-49241D01*
X100442Y-49312D01*
X100437Y-49306D01*
X100366Y-49377D01*
X100366Y-49236D01*
X100040Y-48910D01*
X99943Y-48939D01*
X99867Y-49150D01*
X99878Y-49375D01*
X99943Y-49533D01*
X100040Y-49562D01*
X100366Y-49236D01*
X100366Y-49377D01*
X100110Y-49632D01*
X100140Y-49729D01*
X100351Y-49805D01*
X100576Y-49795D01*
X100670Y-49756D01*
X100670Y-51956D01*
X100670Y-51956D01*
G37*
G54D32*
X100670Y-51956D02*
X100552Y-52004D01*
X100454Y-52102D01*
X100401Y-52230D01*
X100401Y-52252D01*
X100023Y-52630D01*
X99997Y-52604D01*
X99869Y-52551D01*
X99730Y-52551D01*
X99602Y-52604D01*
X99587Y-52620D01*
X99415Y-52620D01*
X99294Y-52498D01*
X99319Y-52498D01*
X99400Y-52465D01*
X99480Y-52498D01*
X99619Y-52498D01*
X99747Y-52445D01*
X99845Y-52347D01*
X99898Y-52219D01*
X99898Y-52080D01*
X99845Y-51952D01*
X99830Y-51937D01*
X99830Y-51162D01*
X99845Y-51147D01*
X99889Y-51039D01*
X99997Y-50995D01*
X100095Y-50897D01*
X100148Y-50769D01*
X100148Y-50630D01*
X100095Y-50502D01*
X99997Y-50404D01*
X99869Y-50351D01*
X99730Y-50351D01*
X99602Y-50404D01*
X99587Y-50420D01*
X99450Y-50420D01*
X99342Y-50441D01*
X99312Y-50461D01*
X99252Y-50502D01*
X99052Y-50702D01*
X98991Y-50792D01*
X98970Y-50900D01*
X98970Y-51774D01*
X98930Y-51734D01*
X98930Y-50248D01*
X98969Y-50248D01*
X99097Y-50195D01*
X99195Y-50097D01*
X99248Y-49969D01*
X99248Y-49830D01*
X99195Y-49702D01*
X99180Y-49687D01*
X99180Y-49262D01*
X99195Y-49247D01*
X99248Y-49119D01*
X99248Y-48980D01*
X99195Y-48852D01*
X99097Y-48754D01*
X98969Y-48701D01*
X98830Y-48701D01*
X98702Y-48754D01*
X98604Y-48852D01*
X98560Y-48960D01*
X98452Y-49004D01*
X98354Y-49102D01*
X98301Y-49230D01*
X98301Y-49369D01*
X98354Y-49497D01*
X98370Y-49512D01*
X98370Y-51574D01*
X97230Y-50434D01*
X97230Y-50312D01*
X97245Y-50297D01*
X97298Y-50169D01*
X97298Y-50030D01*
X97245Y-49902D01*
X97147Y-49804D01*
X97019Y-49751D01*
X96894Y-49751D01*
X97272Y-49373D01*
X97294Y-49373D01*
X97422Y-49320D01*
X97520Y-49222D01*
X97573Y-49094D01*
X97573Y-48955D01*
X97520Y-48827D01*
X97422Y-48729D01*
X97294Y-48676D01*
X97155Y-48676D01*
X97027Y-48729D01*
X96929Y-48827D01*
X96876Y-48955D01*
X96876Y-48977D01*
X95441Y-50412D01*
X95395Y-50302D01*
X95380Y-50287D01*
X95380Y-48912D01*
X95395Y-48897D01*
X95448Y-48769D01*
X95448Y-48630D01*
X95395Y-48502D01*
X95297Y-48404D01*
X95169Y-48351D01*
X95055Y-48351D01*
X95045Y-48327D01*
X94947Y-48229D01*
X94819Y-48176D01*
X94680Y-48176D01*
X94552Y-48229D01*
X94454Y-48327D01*
X94401Y-48455D01*
X94401Y-48477D01*
X94027Y-48852D01*
X93966Y-48942D01*
X93945Y-49050D01*
X93945Y-50212D01*
X93929Y-50227D01*
X93876Y-50355D01*
X93876Y-50494D01*
X93929Y-50622D01*
X94027Y-50720D01*
X94155Y-50773D01*
X94294Y-50773D01*
X94422Y-50720D01*
X94520Y-50622D01*
X94573Y-50494D01*
X94573Y-50355D01*
X94520Y-50227D01*
X94505Y-50212D01*
X94505Y-49165D01*
X94795Y-48875D01*
X94804Y-48897D01*
X94820Y-48912D01*
X94820Y-50287D01*
X94804Y-50302D01*
X94751Y-50430D01*
X94751Y-50569D01*
X94804Y-50697D01*
X94902Y-50795D01*
X95012Y-50841D01*
X94784Y-51070D01*
X93198Y-51070D01*
X93198Y-49230D01*
X93145Y-49102D01*
X93047Y-49004D01*
X92919Y-48951D01*
X92780Y-48951D01*
X92652Y-49004D01*
X92637Y-49020D01*
X92462Y-49020D01*
X92447Y-49004D01*
X92319Y-48951D01*
X92194Y-48951D01*
X92315Y-48830D01*
X92387Y-48830D01*
X92402Y-48845D01*
X92530Y-48898D01*
X92669Y-48898D01*
X92797Y-48845D01*
X92895Y-48747D01*
X92948Y-48619D01*
X92948Y-48480D01*
X92895Y-48352D01*
X92797Y-48254D01*
X92669Y-48201D01*
X92530Y-48201D01*
X92402Y-48254D01*
X92387Y-48270D01*
X92200Y-48270D01*
X92092Y-48291D01*
X92062Y-48311D01*
X92002Y-48352D01*
X91352Y-49002D01*
X91291Y-49092D01*
X91270Y-49200D01*
X91270Y-49887D01*
X91254Y-49902D01*
X91201Y-50030D01*
X91201Y-50169D01*
X91254Y-50297D01*
X91352Y-50395D01*
X91480Y-50448D01*
X91619Y-50448D01*
X91747Y-50395D01*
X91845Y-50297D01*
X91898Y-50169D01*
X91898Y-50030D01*
X91845Y-49902D01*
X91830Y-49887D01*
X91830Y-49315D01*
X91901Y-49244D01*
X91901Y-49369D01*
X91954Y-49497D01*
X92052Y-49595D01*
X92180Y-49648D01*
X92319Y-49648D01*
X92447Y-49595D01*
X92462Y-49580D01*
X92637Y-49580D01*
X92652Y-49595D01*
X92780Y-49648D01*
X92919Y-49648D01*
X93047Y-49595D01*
X93145Y-49497D01*
X93198Y-49369D01*
X93198Y-49230D01*
X93198Y-51070D01*
X89103Y-51070D01*
X91090Y-48489D01*
X91197Y-48445D01*
X91295Y-48347D01*
X91348Y-48219D01*
X91348Y-48080D01*
X91295Y-47952D01*
X91197Y-47854D01*
X91069Y-47801D01*
X90930Y-47801D01*
X90849Y-47834D01*
X90769Y-47801D01*
X90630Y-47801D01*
X90502Y-47854D01*
X90404Y-47952D01*
X90351Y-48080D01*
X90351Y-48143D01*
X88410Y-50720D01*
X87248Y-50720D01*
X87248Y-50655D01*
X87195Y-50527D01*
X87097Y-50429D01*
X86969Y-50376D01*
X86830Y-50376D01*
X86702Y-50429D01*
X86687Y-50445D01*
X86567Y-50445D01*
X86598Y-50369D01*
X86598Y-50230D01*
X86545Y-50102D01*
X86530Y-50087D01*
X86530Y-49765D01*
X87097Y-49197D01*
X87097Y-49197D01*
X87120Y-49164D01*
X88927Y-49164D01*
X88927Y-46855D01*
X90509Y-46855D01*
X91352Y-47697D01*
X91352Y-47697D01*
X91412Y-47738D01*
X91442Y-47758D01*
X91442Y-47758D01*
X91550Y-47780D01*
X97543Y-47780D01*
X97501Y-47880D01*
X97501Y-48019D01*
X97554Y-48147D01*
X97652Y-48245D01*
X97780Y-48298D01*
X97802Y-48298D01*
X97938Y-48434D01*
X97938Y-48434D01*
X98029Y-48494D01*
X98029Y-48494D01*
X98046Y-48498D01*
X98136Y-48516D01*
X99941Y-48516D01*
X99957Y-48555D01*
X100116Y-48714D01*
X100161Y-48733D01*
X100140Y-48742D01*
X100110Y-48839D01*
X100437Y-49165D01*
X100442Y-49159D01*
X100513Y-49230D01*
X100507Y-49236D01*
X100513Y-49241D01*
X100442Y-49312D01*
X100437Y-49306D01*
X100366Y-49377D01*
X100366Y-49236D01*
X100040Y-48910D01*
X99943Y-48939D01*
X99867Y-49150D01*
X99878Y-49375D01*
X99943Y-49533D01*
X100040Y-49562D01*
X100366Y-49236D01*
X100366Y-49377D01*
X100110Y-49632D01*
X100140Y-49729D01*
X100351Y-49805D01*
X100576Y-49795D01*
X100670Y-49756D01*
X100670Y-51956D01*
G54D10*
G36*
X102476Y-61671D02*
X102325Y-61671D01*
X102117Y-61756D01*
X101958Y-61915D01*
X101937Y-61967D01*
X101916Y-61916D01*
X101757Y-61757D01*
X101549Y-61671D01*
X101325Y-61671D01*
X101117Y-61756D01*
X100958Y-61915D01*
X100937Y-61967D01*
X100916Y-61916D01*
X100757Y-61757D01*
X100549Y-61671D01*
X100325Y-61671D01*
X100117Y-61756D01*
X99958Y-61915D01*
X99872Y-62123D01*
X99871Y-62348D01*
X99957Y-62555D01*
X100116Y-62714D01*
X100134Y-62722D01*
X96448Y-62722D01*
X96448Y-60330D01*
X96395Y-60202D01*
X96297Y-60104D01*
X96169Y-60051D01*
X96030Y-60051D01*
X95902Y-60104D01*
X95887Y-60120D01*
X95612Y-60120D01*
X95597Y-60104D01*
X95469Y-60051D01*
X95330Y-60051D01*
X95202Y-60104D01*
X95104Y-60202D01*
X95051Y-60330D01*
X95051Y-60469D01*
X95104Y-60597D01*
X95202Y-60695D01*
X95330Y-60748D01*
X95469Y-60748D01*
X95597Y-60695D01*
X95612Y-60680D01*
X95887Y-60680D01*
X95902Y-60695D01*
X96030Y-60748D01*
X96169Y-60748D01*
X96297Y-60695D01*
X96395Y-60597D01*
X96448Y-60469D01*
X96448Y-60330D01*
X96448Y-62722D01*
X95538Y-62722D01*
X95538Y-61667D01*
X95538Y-61067D01*
X95500Y-60975D01*
X95429Y-60905D01*
X95338Y-60867D01*
X95238Y-60867D01*
X94638Y-60867D01*
X94546Y-60905D01*
X94476Y-60975D01*
X94438Y-61067D01*
X94438Y-61089D01*
X94300Y-60951D01*
X94098Y-60867D01*
X93879Y-60867D01*
X93677Y-60950D01*
X93522Y-61105D01*
X93438Y-61307D01*
X93438Y-61526D01*
X93521Y-61728D01*
X93676Y-61883D01*
X93878Y-61967D01*
X94097Y-61967D01*
X94299Y-61883D01*
X94438Y-61745D01*
X94438Y-61766D01*
X94476Y-61858D01*
X94546Y-61929D01*
X94638Y-61967D01*
X94737Y-61967D01*
X95337Y-61967D01*
X95429Y-61929D01*
X95500Y-61859D01*
X95538Y-61767D01*
X95538Y-61667D01*
X95538Y-62722D01*
X92533Y-62722D01*
X92533Y-60175D01*
X92480Y-60047D01*
X92382Y-59949D01*
X92254Y-59896D01*
X92115Y-59896D01*
X91987Y-59949D01*
X91972Y-59965D01*
X91827Y-59965D01*
X91807Y-59944D01*
X91679Y-59891D01*
X91540Y-59891D01*
X91412Y-59944D01*
X91314Y-60042D01*
X91261Y-60170D01*
X91261Y-60309D01*
X91314Y-60437D01*
X91412Y-60535D01*
X91540Y-60588D01*
X91679Y-60588D01*
X91807Y-60535D01*
X91817Y-60525D01*
X91972Y-60525D01*
X91987Y-60540D01*
X92115Y-60593D01*
X92254Y-60593D01*
X92382Y-60540D01*
X92480Y-60442D01*
X92533Y-60314D01*
X92533Y-60175D01*
X92533Y-62722D01*
X92388Y-62722D01*
X92388Y-61667D01*
X92388Y-61067D01*
X92350Y-60975D01*
X92280Y-60905D01*
X92188Y-60867D01*
X92089Y-60867D01*
X91489Y-60867D01*
X91397Y-60905D01*
X91326Y-60975D01*
X91288Y-61067D01*
X91288Y-61089D01*
X91150Y-60951D01*
X90948Y-60867D01*
X90729Y-60867D01*
X90527Y-60950D01*
X90372Y-61105D01*
X90288Y-61307D01*
X90288Y-61526D01*
X90372Y-61728D01*
X90526Y-61883D01*
X90728Y-61967D01*
X90947Y-61967D01*
X91149Y-61883D01*
X91288Y-61745D01*
X91288Y-61766D01*
X91326Y-61858D01*
X91396Y-61929D01*
X91488Y-61967D01*
X91588Y-61967D01*
X92188Y-61967D01*
X92280Y-61929D01*
X92350Y-61859D01*
X92388Y-61767D01*
X92388Y-61667D01*
X92388Y-62722D01*
X87978Y-62722D01*
X88019Y-62694D01*
X88760Y-61954D01*
X88791Y-61967D01*
X89010Y-61967D01*
X89212Y-61883D01*
X89367Y-61729D01*
X89451Y-61527D01*
X89451Y-61308D01*
X89368Y-61106D01*
X89213Y-60951D01*
X89011Y-60867D01*
X88792Y-60867D01*
X88590Y-60950D01*
X88435Y-61105D01*
X88401Y-61187D01*
X88368Y-61106D01*
X88213Y-60951D01*
X88011Y-60867D01*
X87792Y-60867D01*
X87770Y-60876D01*
X87438Y-60545D01*
X87344Y-60482D01*
X87234Y-60460D01*
X86819Y-60460D01*
X85648Y-59289D01*
X85648Y-59280D01*
X85595Y-59152D01*
X85572Y-59130D01*
X86206Y-59130D01*
X86254Y-59247D01*
X86307Y-59299D01*
X86304Y-59302D01*
X86251Y-59430D01*
X86251Y-59569D01*
X86304Y-59697D01*
X86402Y-59795D01*
X86530Y-59848D01*
X86551Y-59848D01*
X86551Y-59869D01*
X86604Y-59997D01*
X86702Y-60095D01*
X86830Y-60148D01*
X86969Y-60148D01*
X87097Y-60095D01*
X87195Y-59997D01*
X87248Y-59869D01*
X87248Y-59730D01*
X87195Y-59602D01*
X87097Y-59504D01*
X86969Y-59451D01*
X86948Y-59451D01*
X86948Y-59430D01*
X86906Y-59330D01*
X87687Y-59330D01*
X87702Y-59345D01*
X87830Y-59398D01*
X87969Y-59398D01*
X88097Y-59345D01*
X88195Y-59247D01*
X88244Y-59130D01*
X99934Y-59130D01*
X102476Y-61671D01*
X102476Y-61671D01*
G37*
G54D32*
X102476Y-61671D02*
X102325Y-61671D01*
X102117Y-61756D01*
X101958Y-61915D01*
X101937Y-61967D01*
X101916Y-61916D01*
X101757Y-61757D01*
X101549Y-61671D01*
X101325Y-61671D01*
X101117Y-61756D01*
X100958Y-61915D01*
X100937Y-61967D01*
X100916Y-61916D01*
X100757Y-61757D01*
X100549Y-61671D01*
X100325Y-61671D01*
X100117Y-61756D01*
X99958Y-61915D01*
X99872Y-62123D01*
X99871Y-62348D01*
X99957Y-62555D01*
X100116Y-62714D01*
X100134Y-62722D01*
X96448Y-62722D01*
X96448Y-60330D01*
X96395Y-60202D01*
X96297Y-60104D01*
X96169Y-60051D01*
X96030Y-60051D01*
X95902Y-60104D01*
X95887Y-60120D01*
X95612Y-60120D01*
X95597Y-60104D01*
X95469Y-60051D01*
X95330Y-60051D01*
X95202Y-60104D01*
X95104Y-60202D01*
X95051Y-60330D01*
X95051Y-60469D01*
X95104Y-60597D01*
X95202Y-60695D01*
X95330Y-60748D01*
X95469Y-60748D01*
X95597Y-60695D01*
X95612Y-60680D01*
X95887Y-60680D01*
X95902Y-60695D01*
X96030Y-60748D01*
X96169Y-60748D01*
X96297Y-60695D01*
X96395Y-60597D01*
X96448Y-60469D01*
X96448Y-60330D01*
X96448Y-62722D01*
X95538Y-62722D01*
X95538Y-61667D01*
X95538Y-61067D01*
X95500Y-60975D01*
X95429Y-60905D01*
X95338Y-60867D01*
X95238Y-60867D01*
X94638Y-60867D01*
X94546Y-60905D01*
X94476Y-60975D01*
X94438Y-61067D01*
X94438Y-61089D01*
X94300Y-60951D01*
X94098Y-60867D01*
X93879Y-60867D01*
X93677Y-60950D01*
X93522Y-61105D01*
X93438Y-61307D01*
X93438Y-61526D01*
X93521Y-61728D01*
X93676Y-61883D01*
X93878Y-61967D01*
X94097Y-61967D01*
X94299Y-61883D01*
X94438Y-61745D01*
X94438Y-61766D01*
X94476Y-61858D01*
X94546Y-61929D01*
X94638Y-61967D01*
X94737Y-61967D01*
X95337Y-61967D01*
X95429Y-61929D01*
X95500Y-61859D01*
X95538Y-61767D01*
X95538Y-61667D01*
X95538Y-62722D01*
X92533Y-62722D01*
X92533Y-60175D01*
X92480Y-60047D01*
X92382Y-59949D01*
X92254Y-59896D01*
X92115Y-59896D01*
X91987Y-59949D01*
X91972Y-59965D01*
X91827Y-59965D01*
X91807Y-59944D01*
X91679Y-59891D01*
X91540Y-59891D01*
X91412Y-59944D01*
X91314Y-60042D01*
X91261Y-60170D01*
X91261Y-60309D01*
X91314Y-60437D01*
X91412Y-60535D01*
X91540Y-60588D01*
X91679Y-60588D01*
X91807Y-60535D01*
X91817Y-60525D01*
X91972Y-60525D01*
X91987Y-60540D01*
X92115Y-60593D01*
X92254Y-60593D01*
X92382Y-60540D01*
X92480Y-60442D01*
X92533Y-60314D01*
X92533Y-60175D01*
X92533Y-62722D01*
X92388Y-62722D01*
X92388Y-61667D01*
X92388Y-61067D01*
X92350Y-60975D01*
X92280Y-60905D01*
X92188Y-60867D01*
X92089Y-60867D01*
X91489Y-60867D01*
X91397Y-60905D01*
X91326Y-60975D01*
X91288Y-61067D01*
X91288Y-61089D01*
X91150Y-60951D01*
X90948Y-60867D01*
X90729Y-60867D01*
X90527Y-60950D01*
X90372Y-61105D01*
X90288Y-61307D01*
X90288Y-61526D01*
X90372Y-61728D01*
X90526Y-61883D01*
X90728Y-61967D01*
X90947Y-61967D01*
X91149Y-61883D01*
X91288Y-61745D01*
X91288Y-61766D01*
X91326Y-61858D01*
X91396Y-61929D01*
X91488Y-61967D01*
X91588Y-61967D01*
X92188Y-61967D01*
X92280Y-61929D01*
X92350Y-61859D01*
X92388Y-61767D01*
X92388Y-61667D01*
X92388Y-62722D01*
X87978Y-62722D01*
X88019Y-62694D01*
X88760Y-61954D01*
X88791Y-61967D01*
X89010Y-61967D01*
X89212Y-61883D01*
X89367Y-61729D01*
X89451Y-61527D01*
X89451Y-61308D01*
X89368Y-61106D01*
X89213Y-60951D01*
X89011Y-60867D01*
X88792Y-60867D01*
X88590Y-60950D01*
X88435Y-61105D01*
X88401Y-61187D01*
X88368Y-61106D01*
X88213Y-60951D01*
X88011Y-60867D01*
X87792Y-60867D01*
X87770Y-60876D01*
X87438Y-60545D01*
X87344Y-60482D01*
X87234Y-60460D01*
X86819Y-60460D01*
X85648Y-59289D01*
X85648Y-59280D01*
X85595Y-59152D01*
X85572Y-59130D01*
X86206Y-59130D01*
X86254Y-59247D01*
X86307Y-59299D01*
X86304Y-59302D01*
X86251Y-59430D01*
X86251Y-59569D01*
X86304Y-59697D01*
X86402Y-59795D01*
X86530Y-59848D01*
X86551Y-59848D01*
X86551Y-59869D01*
X86604Y-59997D01*
X86702Y-60095D01*
X86830Y-60148D01*
X86969Y-60148D01*
X87097Y-60095D01*
X87195Y-59997D01*
X87248Y-59869D01*
X87248Y-59730D01*
X87195Y-59602D01*
X87097Y-59504D01*
X86969Y-59451D01*
X86948Y-59451D01*
X86948Y-59430D01*
X86906Y-59330D01*
X87687Y-59330D01*
X87702Y-59345D01*
X87830Y-59398D01*
X87969Y-59398D01*
X88097Y-59345D01*
X88195Y-59247D01*
X88244Y-59130D01*
X99934Y-59130D01*
X102476Y-61671D01*
G54D10*
G36*
X106686Y-43974D02*
X106615Y-44044D01*
X106610Y-44039D01*
X106284Y-44365D01*
X106313Y-44462D01*
X106336Y-44470D01*
X106290Y-44489D01*
X106131Y-44648D01*
X106110Y-44699D01*
X106089Y-44648D01*
X105930Y-44489D01*
X105879Y-44468D01*
X105929Y-44447D01*
X106088Y-44288D01*
X106107Y-44243D01*
X106116Y-44265D01*
X106213Y-44294D01*
X106539Y-43968D01*
X106533Y-43962D01*
X106604Y-43892D01*
X106610Y-43897D01*
X106615Y-43892D01*
X106686Y-43962D01*
X106680Y-43968D01*
X106686Y-43974D01*
X106686Y-43974D01*
G37*
G54D32*
X106686Y-43974D02*
X106615Y-44044D01*
X106610Y-44039D01*
X106284Y-44365D01*
X106313Y-44462D01*
X106336Y-44470D01*
X106290Y-44489D01*
X106131Y-44648D01*
X106110Y-44699D01*
X106089Y-44648D01*
X105930Y-44489D01*
X105879Y-44468D01*
X105929Y-44447D01*
X106088Y-44288D01*
X106107Y-44243D01*
X106116Y-44265D01*
X106213Y-44294D01*
X106539Y-43968D01*
X106533Y-43962D01*
X106604Y-43892D01*
X106610Y-43897D01*
X106615Y-43892D01*
X106686Y-43962D01*
X106680Y-43968D01*
X106686Y-43974D01*
G54D10*
G36*
X107513Y-48241D02*
X107442Y-48312D01*
X107437Y-48306D01*
X107110Y-48632D01*
X107140Y-48729D01*
X107163Y-48738D01*
X107117Y-48756D01*
X106958Y-48915D01*
X106937Y-48967D01*
X106916Y-48916D01*
X106757Y-48757D01*
X106706Y-48736D01*
X106756Y-48715D01*
X106915Y-48556D01*
X106934Y-48511D01*
X106943Y-48533D01*
X107040Y-48562D01*
X107366Y-48236D01*
X107360Y-48230D01*
X107431Y-48159D01*
X107437Y-48165D01*
X107442Y-48159D01*
X107513Y-48230D01*
X107507Y-48236D01*
X107513Y-48241D01*
X107513Y-48241D01*
G37*
G54D32*
X107513Y-48241D02*
X107442Y-48312D01*
X107437Y-48306D01*
X107110Y-48632D01*
X107140Y-48729D01*
X107163Y-48738D01*
X107117Y-48756D01*
X106958Y-48915D01*
X106937Y-48967D01*
X106916Y-48916D01*
X106757Y-48757D01*
X106706Y-48736D01*
X106756Y-48715D01*
X106915Y-48556D01*
X106934Y-48511D01*
X106943Y-48533D01*
X107040Y-48562D01*
X107366Y-48236D01*
X107360Y-48230D01*
X107431Y-48159D01*
X107437Y-48165D01*
X107442Y-48159D01*
X107513Y-48230D01*
X107507Y-48236D01*
X107513Y-48241D01*
G54D10*
G36*
X107720Y-61557D02*
X107589Y-61687D01*
X107549Y-61671D01*
X107325Y-61671D01*
X107117Y-61756D01*
X106958Y-61915D01*
X106937Y-61967D01*
X106916Y-61916D01*
X106757Y-61757D01*
X106549Y-61671D01*
X106325Y-61671D01*
X106117Y-61756D01*
X105958Y-61915D01*
X105937Y-61967D01*
X105916Y-61916D01*
X105757Y-61757D01*
X105549Y-61671D01*
X105325Y-61671D01*
X105284Y-61687D01*
X101848Y-58252D01*
X101757Y-58191D01*
X101650Y-58170D01*
X100875Y-58170D01*
X105697Y-53348D01*
X105719Y-53348D01*
X105847Y-53295D01*
X105945Y-53197D01*
X105998Y-53069D01*
X105998Y-52930D01*
X105945Y-52802D01*
X105847Y-52704D01*
X105719Y-52651D01*
X105580Y-52651D01*
X105452Y-52704D01*
X105354Y-52802D01*
X105301Y-52930D01*
X105301Y-52952D01*
X100284Y-57970D01*
X99925Y-57970D01*
X106634Y-51260D01*
X106634Y-51260D01*
X106675Y-51200D01*
X106695Y-51170D01*
X106695Y-51170D01*
X106717Y-51062D01*
X106717Y-51062D01*
X106717Y-49731D01*
X106756Y-49715D01*
X106915Y-49556D01*
X106936Y-49505D01*
X106957Y-49555D01*
X107116Y-49714D01*
X107324Y-49801D01*
X107548Y-49801D01*
X107720Y-49730D01*
X107720Y-61557D01*
X107720Y-61557D01*
G37*
G54D32*
X107720Y-61557D02*
X107589Y-61687D01*
X107549Y-61671D01*
X107325Y-61671D01*
X107117Y-61756D01*
X106958Y-61915D01*
X106937Y-61967D01*
X106916Y-61916D01*
X106757Y-61757D01*
X106549Y-61671D01*
X106325Y-61671D01*
X106117Y-61756D01*
X105958Y-61915D01*
X105937Y-61967D01*
X105916Y-61916D01*
X105757Y-61757D01*
X105549Y-61671D01*
X105325Y-61671D01*
X105284Y-61687D01*
X101848Y-58252D01*
X101757Y-58191D01*
X101650Y-58170D01*
X100875Y-58170D01*
X105697Y-53348D01*
X105719Y-53348D01*
X105847Y-53295D01*
X105945Y-53197D01*
X105998Y-53069D01*
X105998Y-52930D01*
X105945Y-52802D01*
X105847Y-52704D01*
X105719Y-52651D01*
X105580Y-52651D01*
X105452Y-52704D01*
X105354Y-52802D01*
X105301Y-52930D01*
X105301Y-52952D01*
X100284Y-57970D01*
X99925Y-57970D01*
X106634Y-51260D01*
X106634Y-51260D01*
X106675Y-51200D01*
X106695Y-51170D01*
X106695Y-51170D01*
X106717Y-51062D01*
X106717Y-51062D01*
X106717Y-49731D01*
X106756Y-49715D01*
X106915Y-49556D01*
X106936Y-49505D01*
X106957Y-49555D01*
X107116Y-49714D01*
X107324Y-49801D01*
X107548Y-49801D01*
X107720Y-49730D01*
X107720Y-61557D01*
M02*
