M48
INCH,TZ
T1C0.010
T2C0.012
T3C0.020
T4C0.039
T5C0.040
%
G90
G05
T1
X80900Y-60262
X80900Y-60538
T2
X52500Y-46900
X52900Y-52550
X53150Y-51700
X53450Y-54750
X53450Y-55350
X53600Y-58200
X53850Y-56200
X54000Y-47500
X54200Y-53500
X54400Y-56300
X54450Y-49500
X54450Y-49800
X54475Y-46450
X55000Y-45000
X55350Y-52550
X55500Y-60550
X55600Y-51850
X55650Y-53614
X55900Y-52100
X56000Y-52850
X56250Y-55850
X56250Y-58250
X56300Y-52850
X56350Y-57000
X56600Y-56300
X56650Y-53500
X56700Y-60000
X56950Y-53500
X57100Y-54200
X57200Y-51700
X57500Y-57500
X57500Y-59350
X57500Y-60650
X57700Y-49000
X57850Y-51600
X57900Y-54450
X58000Y-48800
X58150Y-50400
X58150Y-53250
X58366Y-54441
X58400Y-56700
X58650Y-48400
X58900Y-55150
X59125Y-47575
X59700Y-53800
X59950Y-57050
X60200Y-52100
X60200Y-54450
X60200Y-54750
X60450Y-51850
X60600Y-50300
X60700Y-51600
X61056Y-60781
X61100Y-47050
X61100Y-58300
X61300Y-44500
X61300Y-45700
X61750Y-54850
X61800Y-50300
X61800Y-58975
X62000Y-47500
X62000Y-47800
X62000Y-48100
X62000Y-48400
X62025Y-57950
X62150Y-52150
X62350Y-51950
X62397Y-59100
X62594Y-61194
X62600Y-47200
X62800Y-44900
X62800Y-52800
X63000Y-52600
X63050Y-51600
X63050Y-51900
X63075Y-57950
X63325Y-56625
X63600Y-57600
X63700Y-48400
X63950Y-48700
X64300Y-48100
X64700Y-56200
X64706Y-54994
X64800Y-58750
X64900Y-47800
X64900Y-48100
X65300Y-48350
X66150Y-57400
X67100Y-53900
X67100Y-54800
X67500Y-49300
X67500Y-52200
X67975Y-57700
X68050Y-60100
X69000Y-52900
X69050Y-45700
X69100Y-60300
X69200Y-45100
X69450Y-44750
X70300Y-45100
X70300Y-49200
X70300Y-52100
X70650Y-44750
X71400Y-49200
X71400Y-52100
X72450Y-45700
X73400Y-46100
X73600Y-45900
X73600Y-62300
X73800Y-62500
X74000Y-46300
X74050Y-44750
X74900Y-46500
X75050Y-48350
X75650Y-49950
X75750Y-53900
X75800Y-48100
X75800Y-57450
X75900Y-46300
X76200Y-46500
X76200Y-48500
X76200Y-57450
X76500Y-54350
X76800Y-56450
X77000Y-56650
X77050Y-46700
X77050Y-48500
X77100Y-54350
X77400Y-47900
X77480Y-45200
X77600Y-47650
X77675Y-52350
X78150Y-44700
X78200Y-49950
X78400Y-46700
X79050Y-62400
X79300Y-47050
X79400Y-61100
X79500Y-61700
X79600Y-45200
X80500Y-58850
X80700Y-58650
X80900Y-58450
X80900Y-61400
X81125Y-48750
X81250Y-47300
X81450Y-56000
X81500Y-47050
X81550Y-47500
X81700Y-55750
X81800Y-62000
X82550Y-59250
X82550Y-60450
X82950Y-48700
X83050Y-46450
X83300Y-60400
X84375Y-45325
X84500Y-49500
X84700Y-45700
X84800Y-59350
X84900Y-49100
X84900Y-60400
X85200Y-61400
X85200Y-62200
X85300Y-57800
X85300Y-59350
X85600Y-46400
X85600Y-46750
X85700Y-45500
X85850Y-46950
X85900Y-60600
X86100Y-45900
X86250Y-50300
X86250Y-51950
X86400Y-44600
X86550Y-59050
X86600Y-59500
X86900Y-50725
X86900Y-51850
X86900Y-56000
X86900Y-56450
X86900Y-59800
X87650Y-47450
X87650Y-55200
X87700Y-55575
X87700Y-60400
X87775Y-55975
X87850Y-58250
X87900Y-59050
X88150Y-54400
X88350Y-50650
X88450Y-58250
X88600Y-53950
X88725Y-55975
X88950Y-55200
X88950Y-55575
X89050Y-52950
X89500Y-50650
X89500Y-51900
X90700Y-48150
X91000Y-48150
X91450Y-46500
X91550Y-50100
X91610Y-60240
X91650Y-48600
X91925Y-59235
X92050Y-58000
X92100Y-46400
X92185Y-60245
X92250Y-49300
X92350Y-46750
X92600Y-48550
X92850Y-49300
X93100Y-46400
X94225Y-50425
X94400Y-46525
X94750Y-48525
X95100Y-48700
X95100Y-50500
X95400Y-60400
X95550Y-46800
X96000Y-59250
X96100Y-60400
X96250Y-44450
X96400Y-56200
X96400Y-58250
X96600Y-50800
X96600Y-51750
X96900Y-57000
X96950Y-50100
X97150Y-46650
X97150Y-48350
X97225Y-49025
X97450Y-57050
X97850Y-47950
X98650Y-49300
X98900Y-49050
X98900Y-49900
X98950Y-52150
X99050Y-47200
X99250Y-52150
X99550Y-50950
X99550Y-52150
X99800Y-50700
X99800Y-52900
X100000Y-44450
X100100Y-46800
X100300Y-52000
X100750Y-52300
X101100Y-45500
X101400Y-51650
X102100Y-46773
X102900Y-55350
X103350Y-50200
X103800Y-51150
X103850Y-44450
X104150Y-47200
X104600Y-45550
X104600Y-47200
X105650Y-53000
X107150Y-47400
X107800Y-47250
T3
X79963Y-52600
X79963Y-53600
T4
X51000Y-44000
X51000Y-45000
X51000Y-61000
X51000Y-62000
X52000Y-44000
X52000Y-45000
X52000Y-61000
X52000Y-62000
X53000Y-44000
X53000Y-45000
X53000Y-61000
X53000Y-62000
X54000Y-44000
X54000Y-45000
X54000Y-61000
X54000Y-62000
X55000Y-44000
X55000Y-45000
X55000Y-61000
X55000Y-62000
X56000Y-44000
X56000Y-45000
X56000Y-61000
X56000Y-62000
X57000Y-44000
X57000Y-45000
X57000Y-61000
X57000Y-62000
X58000Y-44000
X58000Y-45000
X58000Y-61000
X58000Y-62000
X59000Y-44000
X59000Y-45000
X59000Y-61000
X59000Y-62000
X60000Y-44000
X60000Y-45000
X60000Y-61000
X60000Y-62000
X73200Y-59400
X74200Y-59400
X75200Y-59400
X75740Y-44094
X76200Y-59400
X76740Y-44094
X77200Y-59400
X77740Y-44094
X78200Y-59400
X78740Y-44094
X79200Y-59400
X79740Y-44094
X80740Y-44094
X81740Y-44094
X95256Y-52866
X95256Y-53850
X95256Y-54834
X98610Y-43969
X98610Y-44969
X99610Y-43969
X99610Y-44969
X100437Y-48236
X100437Y-49236
X100437Y-62236
X100610Y-43969
X100610Y-44969
X101437Y-48236
X101437Y-49236
X101437Y-62236
X101610Y-43969
X101610Y-44969
X102437Y-48236
X102437Y-49236
X102437Y-62236
X102610Y-43969
X102610Y-44969
X103437Y-48236
X103437Y-49236
X103437Y-62236
X103610Y-43969
X103610Y-44969
X104437Y-48236
X104437Y-49236
X104437Y-62236
X104610Y-43969
X104610Y-44969
X105437Y-48236
X105437Y-49236
X105437Y-62236
X105610Y-43969
X105610Y-44969
X106437Y-48236
X106437Y-49236
X106437Y-62236
X106610Y-43969
X106610Y-44969
X107437Y-48236
X107437Y-49236
X107437Y-62236
X107610Y-43969
X107610Y-44969
T5
X51331Y-50890
X51331Y-51890
X51331Y-52890
X51331Y-53890
X51331Y-54890
X51331Y-55890
X66450Y-44100
X66823Y-61417
X67450Y-44100
X67823Y-61417
X68100Y-59400
X68450Y-44100
X69100Y-59400
X69366Y-61417
X69654Y-44094
X70100Y-59400
X70366Y-61417
X70654Y-44094
X71100Y-59400
X71366Y-61417
X71654Y-44094
X72366Y-61417
X72654Y-44094
X73654Y-44094
X73984Y-61417
X74984Y-61417
X75984Y-61417
X76984Y-61417
X77500Y-55300
X77984Y-61417
X78500Y-55300
X85902Y-61417
X86902Y-61417
X87902Y-61417
X88902Y-61417
X89700Y-44050
X90700Y-44050
X90839Y-61417
X91839Y-61417
X92050Y-44050
X93050Y-44050
X93988Y-61417
X94250Y-44050
X94988Y-61417
X95250Y-44050
X96950Y-44050
X96950Y-45050
T0
M30
