G04 (created by PCBNEW (2013-07-07 BZR 4022)-stable) date 2015-03-02 11:41:07 PM*
%MOIN*%
G04 Gerber Fmt 3.4, Leading zero omitted, Abs format*
%FSLAX34Y34*%
G01*
G70*
G90*
G04 APERTURE LIST*
%ADD10C,0.00590551*%
%ADD11C,0.0629921*%
%ADD12R,0.0334646X0.0433071*%
%ADD13R,0.0295276X0.0433071*%
%ADD14R,0.0610236X0.0531496*%
%ADD15R,0.0748031X0.0531496*%
%ADD16R,0.046063X0.0708661*%
%ADD17R,0.0472441X0.0393701*%
%ADD18C,0.023622*%
%ADD19R,0.055X0.035*%
%ADD20R,0.035X0.055*%
%ADD21R,0.06X0.06*%
%ADD22C,0.06*%
%ADD23R,0.0551181X0.0551181*%
%ADD24C,0.0669291*%
%ADD25C,0.0393701*%
G04 APERTURE END LIST*
G54D10*
G54D11*
X51000Y-62000D03*
X52000Y-62000D03*
X53000Y-62000D03*
X54000Y-62000D03*
X55000Y-62000D03*
X56000Y-62000D03*
X57000Y-62000D03*
X58000Y-62000D03*
X59000Y-62000D03*
X60000Y-62000D03*
X60000Y-44000D03*
X59000Y-44000D03*
X58000Y-44000D03*
X57000Y-44000D03*
X56000Y-44000D03*
X55000Y-44000D03*
X54000Y-44000D03*
X53000Y-44000D03*
X52000Y-44000D03*
X51000Y-44000D03*
X51000Y-61000D03*
X52000Y-61000D03*
X53000Y-61000D03*
X54000Y-61000D03*
X55000Y-61000D03*
X56000Y-61000D03*
X57000Y-61000D03*
X58000Y-61000D03*
X59000Y-61000D03*
X60000Y-61000D03*
X60000Y-45000D03*
X59000Y-45000D03*
X58000Y-45000D03*
X57000Y-45000D03*
X56000Y-45000D03*
X55000Y-45000D03*
X54000Y-45000D03*
X53000Y-45000D03*
X52000Y-45000D03*
X51000Y-45000D03*
G54D12*
X86572Y-44154D03*
X86139Y-44154D03*
X85706Y-44154D03*
X85273Y-44154D03*
X84840Y-44154D03*
X84407Y-44154D03*
X83974Y-44154D03*
G54D13*
X83560Y-44154D03*
G54D14*
X87540Y-44203D03*
G54D15*
X83881Y-48416D03*
X86231Y-48416D03*
G54D16*
X83084Y-44292D03*
G54D17*
X87621Y-48032D03*
X87621Y-46575D03*
G54D11*
X100437Y-62236D03*
X101437Y-62236D03*
X102437Y-62236D03*
X103437Y-62236D03*
X104437Y-62236D03*
X105437Y-62236D03*
X106437Y-62236D03*
X107437Y-62236D03*
X107437Y-48236D03*
X106437Y-48236D03*
X105437Y-48236D03*
X104437Y-48236D03*
X103437Y-48236D03*
X102437Y-48236D03*
X101437Y-48236D03*
X100437Y-48236D03*
X100437Y-49236D03*
X101437Y-49236D03*
X102437Y-49236D03*
X103437Y-49236D03*
X104437Y-49236D03*
X105437Y-49236D03*
X106437Y-49236D03*
X107437Y-49236D03*
G54D18*
X80900Y-60262D03*
X80900Y-60537D03*
G54D19*
X89300Y-45825D03*
X89300Y-45075D03*
G54D20*
X79775Y-46150D03*
X80525Y-46150D03*
G54D19*
X88450Y-45825D03*
X88450Y-45075D03*
G54D21*
X73653Y-44094D03*
G54D22*
X72653Y-44094D03*
X71653Y-44094D03*
X70653Y-44094D03*
X69653Y-44094D03*
G54D21*
X69366Y-61417D03*
G54D22*
X70366Y-61417D03*
X71366Y-61417D03*
X72366Y-61417D03*
G54D21*
X85901Y-61417D03*
G54D22*
X86901Y-61417D03*
X87901Y-61417D03*
X88901Y-61417D03*
G54D21*
X66822Y-61417D03*
G54D22*
X67822Y-61417D03*
G54D21*
X91838Y-61417D03*
G54D22*
X90838Y-61417D03*
G54D21*
X92050Y-44050D03*
G54D22*
X93050Y-44050D03*
G54D21*
X94988Y-61417D03*
G54D22*
X93988Y-61417D03*
G54D23*
X98610Y-44968D03*
G54D11*
X99610Y-44968D03*
X100610Y-44968D03*
X101610Y-44968D03*
X102610Y-44968D03*
X103610Y-44968D03*
X104610Y-44968D03*
X105610Y-44968D03*
X106610Y-44968D03*
X107610Y-44968D03*
X107610Y-43968D03*
X106610Y-43968D03*
X105610Y-43968D03*
X104610Y-43968D03*
X103610Y-43968D03*
X102610Y-43968D03*
X101610Y-43968D03*
X100610Y-43968D03*
X99610Y-43968D03*
X98610Y-43968D03*
G54D23*
X75740Y-44094D03*
G54D24*
X76740Y-44094D03*
X77740Y-44094D03*
X78740Y-44094D03*
X79740Y-44094D03*
X80740Y-44094D03*
X81740Y-44094D03*
G54D21*
X73984Y-61417D03*
G54D22*
X74984Y-61417D03*
X75984Y-61417D03*
X76984Y-61417D03*
X77984Y-61417D03*
G54D24*
X95255Y-54834D03*
X95255Y-53850D03*
X95255Y-52865D03*
G54D21*
X68100Y-59400D03*
G54D22*
X69100Y-59400D03*
X70100Y-59400D03*
X71100Y-59400D03*
G54D21*
X66450Y-44100D03*
G54D22*
X67450Y-44100D03*
X68450Y-44100D03*
G54D21*
X96950Y-44050D03*
G54D22*
X96950Y-45050D03*
G54D21*
X94250Y-44050D03*
G54D22*
X95250Y-44050D03*
G54D21*
X51330Y-50889D03*
G54D22*
X51330Y-51889D03*
X51330Y-52889D03*
X51330Y-53889D03*
X51330Y-54889D03*
X51330Y-55889D03*
G54D23*
X73200Y-59400D03*
G54D24*
X74200Y-59400D03*
X75200Y-59400D03*
X76200Y-59400D03*
X77200Y-59400D03*
X78200Y-59400D03*
X79200Y-59400D03*
G54D21*
X77500Y-55300D03*
G54D22*
X78500Y-55300D03*
G54D21*
X89700Y-44050D03*
G54D22*
X90700Y-44050D03*
G54D25*
X79962Y-52600D03*
X79962Y-53600D03*
M02*
